<svg xmlns="http://www.w3.org/2000/svg" width="591.667" height="411.112" viewBox="0 0 591.667 411.112">
  <g id="Group_3578" data-name="Group 3578" transform="translate(1)">
    <ellipse id="Ellipse_64" data-name="Ellipse 64" cx="6.833" cy="6.833" rx="6.833" ry="6.833" transform="translate(22.877 61.787)" fill="none" stroke="#fffa4f" stroke-width="2"/>
    <ellipse id="Ellipse_64-2" data-name="Ellipse 64" cx="22.283" cy="22.283" rx="22.283" ry="22.283" transform="translate(7.428 150.307)" fill="none" stroke="#b2fcd0" stroke-width="3"/>
    <ellipse id="Ellipse_64-3" data-name="Ellipse 64" cx="29.71" cy="29.71" rx="29.71" ry="29.71" transform="translate(0 246.848)" fill="none" stroke="#2163ff" stroke-width="2"/>
    <ellipse id="Ellipse_64-4" data-name="Ellipse 64" cx="14.855" cy="14.855" rx="14.855" ry="14.855" transform="translate(118.824 53.766)" fill="none" stroke="#fff" stroke-width="2"/>
    <path id="Ellipse_65" data-name="Ellipse 65" d="M29.71,0A29.71,29.71,0,1,1,0,29.71,29.71,29.71,0,0,1,29.71,0Z" transform="translate(103.969 350.817)" fill="none" stroke="#fa5c36" stroke-width="1.75"/>
    <ellipse id="Ellipse_64-5" data-name="Ellipse 64" cx="29.71" cy="29.71" rx="29.71" ry="29.71" transform="translate(103.969 246.848)" fill="#36ff9c"/>
    <path id="Ellipse_64-6" data-name="Ellipse 64" d="M29.71,0A29.71,29.71,0,1,1,0,29.71,29.71,29.71,0,0,1,29.71,0Z" transform="translate(207.938 142.879)" fill="none" stroke="#fffa4f" stroke-width="6"/>
    <ellipse id="Ellipse_65-2" data-name="Ellipse 65" cx="9.21" cy="9.21" rx="9.21" ry="9.21" transform="translate(228.438 371.317)" fill="none" stroke="#fff" stroke-width="2"/>
    <ellipse id="Ellipse_64-7" data-name="Ellipse 64" cx="29.71" cy="29.71" rx="29.71" ry="29.71" transform="translate(207.938 246.848)" fill="#36ff9c"/>
    <ellipse id="Ellipse_64-8" data-name="Ellipse 64" cx="29.71" cy="29.71" rx="29.71" ry="29.71" transform="translate(311.906 38.91)" fill="#fa5c36" stroke="#fff" stroke-width="3"/>
    <ellipse id="Ellipse_64-9" data-name="Ellipse 64" cx="29.71" cy="29.71" rx="29.71" ry="29.71" transform="translate(311.906 142.879)" fill="none" stroke="#262d52" stroke-width="1"/>
    <ellipse id="Ellipse_65-3" data-name="Ellipse 65" cx="20.797" cy="20.797" rx="20.797" ry="20.797" transform="translate(320.819 359.73)" fill="none" stroke="#2163ff" stroke-width="3"/>
    <path id="Path_1096" data-name="Path 1096" d="M179.732,15.981c-.178.188-.357.366-.55.545-.173.188-.356.366-.545.54-.173.193-.356.371-.545.545s-.356.366-.549.545c-.173.188-.351.366-.545.54-.173.193-.357.371-.545.545-.173.188-.356.366-.545.545s-.357.366-.545.54c-.178.188-.356.371-.55.545-.173.188-.356.366-.545.54-.173.193-.356.371-.545.545s-.356.366-.55.545c-.173.188-.351.366-.545.54-.173.193-.357.371-.545.545s-.356.366-.545.545-.357.366-.549.54c-.173.193-.357.371-.545.545-.173.188-.356.366-.545.54a7.112,7.112,0,0,1-.55.545c-.173.188-.351.371-.545.545-.173.188-.356.366-.545.539-.173.193-.356.371-.545.545s-.356.366-.549.545c-.173.188-.352.366-.545.54-.173.188-.357.371-.545.545-.173.188-.357.366-.545.54-.178.193-.357.371-.55.545a7.03,7.03,0,0,1-.545.544c-.173.188-.356.367-.545.54-.173.193-.356.371-.545.544-.178.188-.356.367-.55.545-.173.188-.357.366-.545.54-.173.193-.356.371-.545.544s-.356.366-.545.545-.356.366-.549.54a7.046,7.046,0,0,1-.545.545c-.173.188-.357.366-.545.54a7.111,7.111,0,0,1-.55.545c-.173.188-.352.366-.545.545-.173.188-.356.366-.545.54-.173.193-.356.371-.545.545s-.356.366-.545.545-.356.366-.55.54c-.173.193-.356.371-.545.545s-.357.366-.545.54c-.173.193-.356.371-.545.545-.178.188-.357.371-.549.545-.173.188-.357.366-.545.54-.173.193-.357.371-.545.545-.178.188-.357.366-.55.545-.173.188-.356.366-.545.539-.173.193-.356.371-.545.545s-.356.366-.545.54c-.178.193-.356.371-.55.545-.173.193-.356.371-.545.545-.173.188-.357.366-.545.54a7.1,7.1,0,0,1-.55.545c-.173.188-.352.366-.545.545-.173.188-.356.366-.545.54-.173.193-.356.371-.545.545-.173.188-.356.366-.549.545-.173.188-.351.366-.545.54-.173.193-.357.371-.545.545s-.356.366-.545.54a7.211,7.211,0,0,1-.55.545c-.173.188-.352.371-.545.545-.173.188-.357.366-.545.54-.173.193-.356.371-.545.545-.178.188-.357.366-.55.544-.173.188-.351.367-.545.54-.173.193-.356.371-.545.545s-.356.366-.545.539c-.178.193-.356.371-.549.545-.173.193-.352.366-.545.544-.173.188-.356.366-.545.545s-.357.366-.545.54c-.178.188-.356.366-.55.545-.173.188-.356.366-.545.54-.173.193-.356.371-.545.545-.178.188-.357.366-.545.54-.178.193-.356.371-.55.545-.173.193-.357.371-.545.545s-.356.366-.545.545-.356.366-.545.54-.356.366-.549.545c-.173.188-.356.366-.545.54-.173.193-.357.371-.545.545-.178.188-.356.366-.55.54-.173.193-.356.371-.545.545-.173.193-.356.371-.545.545-.173.188-.356.366-.549.545-.173.188-.352.366-.54.54s-.361.371-.549.545-.357.366-.545.54a7.151,7.151,0,0,1-.55.545c-.173.188-.352.366-.54.54-.178.193-.361.371-.549.545-.173.193-.357.371-.545.545-.178.188-.356.366-.55.545-.173.188-.352.366-.545.54-.173.188-.356.371-.545.545s-.356.366-.545.539c-.178.193-.356.371-.549.545-.173.188-.352.366-.545.545-.173.188-.357.366-.545.54-.173.193-.357.371-.545.545-.178.188-.357.366-.55.545-.173.188-.352.366-.545.54-.173.188-.356.371-.545.545-.173.188-.356.366-.545.54-.178.193-.356.371-.55.545-.173.188-.351.367-.545.545-.173.188-.357.366-.545.539-.178.193-.356.371-.549.545-.173.188-.352.366-.545.544-.173.188-.357.366-.545.54-.173.193-.356.371-.545.544-.178.188-.357.366-.545.54-.178.193-.356.371-.55.544-.173.188-.356.367-.545.545s-.356.366-.545.545-.356.366-.55.539c-.173.188-.356.367-.545.545s-.357.366-.545.54c-.173.193-.356.371-.545.545s-.357.366-.55.545c-.173.188-.351.366-.545.54-.173.193-.356.366-.545.545-.173.188-.356.366-.545.545s-.356.366-.55.54c-.173.188-.357.366-.545.545s-.356.366-.545.54a7.16,7.16,0,0,1-.55.545c-.173.188-.351.366-.545.545-.173.188-.357.366-.545.54-.173.193-.356.366-.545.545s-.357.366-.55.545c-.173.188-.351.366-.545.54-.173.193-.356.371-.545.545-.173.188-.356.366-.545.54-.178.193-.356.371-.549.545-.173.188-.357.367-.545.545s-.356.366-.545.539c-.173.193-.357.371-.545.545s-.356.366-.55.545c-.173.188-.356.366-.545.54-.173.193-.356.371-.545.545-.173.188-.357.366-.545.54-.178.193-.356.371-.55.545-.173.193-.356.366-.545.545s-.356.366-.545.54c-.178.193-.356.371-.545.545-.178.188-.356.367-.55.545-.173.188-.356.366-.545.54s-.357.371-.545.545-.356.366-.545.54c-.178.193-.357.371-.55.545-.173.188-.356.371-.545.544-.173.188-.356.367-.545.54-.178.193-.356.371-.545.544-.178.188-.361.367-.549.545s-.357.366-.545.54c-.173.193-.357.371-.545.545s-.357.366-.55.545c-.173.188-.356.366-.545.54-.173.193-.357.371-.545.545s-.356.366-.545.54c-.178.193-.357.371-.55.544-.173.188-.356.371-.545.545-.173.188-.356.366-.545.54-.173.193-.356.371-.545.545-.178.188-.356.366-.549.545-.173.188-.357.366-.545.539-.173.193-.357.371-.545.545s-.357.366-.545.54c-.178.193-.357.371-.55.545-.173.188-.356.371-.545.545-.173.188-.356.366-.545.54-.178.193-.357.371-.545.545-.178.188-.356.366-.55.545-.173.188-.357.366-.545.54-.173.193-.356.371-.545.545-.178.188-.356.366-.549.54a7.094,7.094,0,0,1-.545.545c-.173.188-.356.371-.545.545s-.357.366-.545.54c-.178.193-.356.371-.55.545-.173.188-.356.366-.545.545s-.356.366-.545.54c-.178.193-.356.371-.55.545-.173.188-.351.366-.545.54-.173.193-.357.371-.545.545-.173.193-.356.371-.545.545s-.357.366-.55.539a7.081,7.081,0,0,1-.545.545c-.173.188-.356.371-.545.545s-.357.366-.545.54c-.178.193-.356.371-.55.545-.173.188-.356.366-.545.544s-.356.367-.545.54c-.173.193-.356.371-.545.544-.178.188-.356.367-.549.54-.173.193-.357.371-.545.544-.173.188-.356.371-.545.545s-.357.366-.55.545c-.173.188-.351.366-.545.54-.173.188-.356.366-.545.54-.173.193-.356.371-.545.545-.178.193-.356.371-.549.544-.173.188-.352.366-.545.54-.173.193-.356.371-.545.544-.173.188-.357.371-.545.545-.178.188-.356.367-.545.54-.178.193-.356.371-.55.545-.173.188-.356.366-.545.545s-.357.366-.545.54c-.178.193-.356.371-.55.545-.173.188-.352.366-.545.545-.173.188-.356.367-.545.54-.173.188-.356.371-.545.545-.178.188-.356.367-.55.545-.173.188-.356.367-.545.54-.173.188-.357.366-.545.545s-.356.366-.55.539a7.072,7.072,0,0,1-.545.545c-.173.188-.356.366-.545.545s-.356.366-.545.54a7.112,7.112,0,0,1-.55.545c-.173.188-.352.366-.545.54-.173.193-.357.371-.545.545-.173.188-.356.366-.545.545s-.356.367-.55.54a7.033,7.033,0,0,1-.545.545c-.173.188-.357.371-.545.545s-.356.366-.545.539c-.178.193-.357.371-.55.545-.173.188-.351.366-.545.545-.173.188-.356.366-.545.54s-.356.366-.545.545-.356.366-.549.544c-.173.188-.352.367-.545.54-.173.188-.356.371-.545.544-.173.188-.357.367-.545.54-.178.193-.356.371-.549.544-.173.188-.357.367-.545.545s-.356.366-.545.54-.357.371-.545.545-.356.366-.55.544c-.173.188-.356.366-.545.54s-.356.371-.545.544c-.178.188-.356.367-.545.54-.178.193-.356.371-.549.544-.173.188-.356.371-.545.545-.173.188-.357.367-.545.54-.178.188-.356.371-.55.545-.173.188-.356.366-.545.545s-.356.366-.545.54-.356.371-.545.545c-.178.188-.356.366-.549.54-.173.193-.357.371-.545.545-.173.188-.356.371-.545.545-.178.188-.357.367-.545.54-.178.193-.356.371-.549.545-.173.188-.356.366-.545.545s-.357.366-.545.539c-.173.193-.356.371-.545.545s-.357.366-.55.54c-.173.193-.356.371-.545.545-.173.193-.356.371-.545.545-.178.188-.356.366-.545.54-.178.193-.356.371-.55.545-.173.188-.356.371-.545.545-.173.188-.357.367-.545.54-.178.193-.356.371-.55.545-.173.188-.352.367-.545.545-.173.188-.356.366-.545.54-.173.193-.356.371-.545.545s-.357.366-.55.54c-.173.193-.356.371-.545.545-.173.193-.356.371-.545.545-.178.188-.356.367-.545.54-.178.193-.356.371-.549.545-.173.188-.357.366-.545.544s-.357.367-.545.54c-.178.193-.357.371-.55.545-.173.188-.352.366-.545.539-.173.193-.356.371-.545.545-.173.193-.356.371-.545.545s-.356.366-.55.54a7.036,7.036,0,0,1-.545.545c-.173.188-.357.366-.545.544s-.356.367-.545.54c-.178.193-.357.371-.549.544-.173.188-.352.367-.545.54-.173.193-.357.371-.545.544-.178.193-.357.371-.55.545-.173.188-.352.366-.545.54a7.085,7.085,0,0,1-.545.544c-.173.188-.356.366-.545.545s-.356.366-.55.54A9.18,9.18,0,1,1,3.005,165.825c.173-.193.356-.371.545-.545s.356-.366.545-.545.357-.366.55-.545c.173-.188.351-.367.545-.54.173-.188.357-.366.545-.545s.356-.367.549-.54a7.044,7.044,0,0,1,.545-.545c.173-.188.357-.367.545-.54a7.108,7.108,0,0,1,.55-.545,7.091,7.091,0,0,1,.545-.545c.173-.188.356-.366.545-.545s.356-.366.545-.54.356-.371.549-.545c.173-.188.357-.366.545-.545s.356-.367.545-.54c.178-.188.357-.366.545-.54.178-.193.356-.371.55-.545.173-.193.356-.371.545-.545.178-.188.356-.366.549-.545.173-.188.351-.366.545-.539.173-.188.357-.371.545-.545s.356-.366.545-.545.356-.366.55-.54c.173-.188.356-.366.545-.545s.357-.366.545-.54c.178-.193.356-.371.55-.545.173-.188.356-.371.545-.544.173-.188.356-.367.545-.54.178-.193.356-.371.549-.544.173-.188.352-.367.545-.545.173-.188.356-.366.545-.54s.357-.371.545-.544.356-.366.55-.545c.173-.188.356-.366.545-.54.173-.188.356-.371.545-.545.178-.188.356-.367.55-.54.173-.193.356-.371.545-.545.173-.188.357-.371.545-.545.178-.188.356-.366.549-.54a7.082,7.082,0,0,1,.545-.545c.173-.188.357-.366.545-.545s.356-.366.55-.54a7.091,7.091,0,0,1,.545-.545c.173-.188.356-.366.545-.545s.356-.367.545-.54c.178-.188.356-.371.549-.545.173-.188.357-.367.545-.54.173-.193.357-.371.545-.545.178-.193.357-.371.55-.545.173-.188.356-.366.545-.539.173-.193.356-.371.545-.545s.356-.366.55-.545c.173-.188.356-.366.545-.54.173-.193.357-.371.545-.545.178-.188.356-.366.545-.54.178-.193.361-.371.549-.545.173-.193.357-.371.545-.545.178-.188.357-.366.545-.54.178-.193.357-.371.55-.545.173-.188.356-.366.545-.545s.356-.366.545-.54c.178-.193.356-.371.549-.545.173-.188.357-.366.545-.545s.356-.366.545-.54c.178-.193.357-.371.55-.545.173-.188.356-.367.545-.544s.356-.367.545-.54c.178-.193.356-.371.549-.544.173-.188.352-.367.545-.545.173-.188.357-.366.545-.54s.356-.371.545-.544.357-.366.55-.54c.173-.193.356-.371.545-.544s.357-.366.545-.545.356-.366.55-.54c.173-.193.356-.371.545-.545.173-.188.356-.371.545-.545.178-.188.356-.366.549-.54.173-.188.352-.371.545-.545.173-.188.356-.366.545-.545s.357-.366.55-.54c.173-.188.351-.371.545-.545.173-.188.356-.366.545-.54.173-.193.356-.371.545-.545.178-.188.356-.371.55-.545.173-.188.356-.366.545-.54.173-.193.357-.371.545-.545.178-.188.356-.366.549-.545.173-.188.356-.366.545-.539.173-.193.357-.371.545-.545s.356-.366.545-.54c.178-.193.362-.371.55-.545.173-.193.356-.371.545-.545.178-.188.356-.366.55-.54a7.035,7.035,0,0,1,.545-.545c.173-.188.357-.371.545-.545.173-.188.356-.366.545-.54.178-.193.357-.371.55-.545.173-.188.356-.366.545-.54.173-.193.356-.371.545-.545.178-.193.356-.371.55-.545.173-.188.356-.366.545-.545s.357-.366.545-.54a7.1,7.1,0,0,1,.55-.545c.173-.188.352-.366.545-.54.173-.193.357-.371.545-.545.178-.193.357-.371.545-.544.178-.188.357-.367.55-.54.173-.193.357-.371.545-.545s.356-.371.55-.544c.173-.188.351-.366.545-.54.173-.193.357-.371.545-.544s.356-.366.545-.545.357-.367.55-.54a7.034,7.034,0,0,1,.545-.545c.173-.188.356-.366.545-.545s.356-.367.549-.54c.173-.193.357-.371.545-.545s.357-.366.545-.539a7.157,7.157,0,0,1,.55-.545c.173-.188.356-.371.545-.545s.356-.366.545-.54c.173-.193.357-.371.545-.545.178-.188.356-.366.55-.545.173-.188.357-.367.545-.54.173-.193.356-.371.545-.545.178-.188.356-.366.545-.54.178-.193.356-.371.549-.545.173-.188.356-.371.545-.545s.357-.366.55-.54a7.121,7.121,0,0,1,.545-.545c.173-.188.356-.371.545-.545.178-.188.356-.366.545-.54.178-.193.356-.371.55-.545.173-.188.356-.366.545-.545s.357-.367.545-.54c.178-.193.356-.371.55-.545.173-.188.356-.366.545-.54.173-.193.356-.371.545-.545.178-.193.356-.371.55-.545.173-.188.357-.366.545-.545s.356-.366.545-.54.357-.366.545-.545.361-.367.549-.544.357-.367.545-.54c.173-.188.356-.366.545-.544s.357-.367.55-.54c.173-.193.356-.371.545-.545s.356-.366.545-.544.356-.366.549-.54c.173-.193.356-.371.545-.544s.357-.366.545-.545.356-.366.55-.54c.173-.188.352-.366.545-.545.173-.188.356-.366.545-.54a7.1,7.1,0,0,1,.549-.545c.173-.188.357-.371.545-.545s.357-.366.545-.539c.173-.193.357-.371.545-.545s.357-.366.549-.545c.173-.188.357-.366.545-.54.173-.193.356-.366.545-.545s.357-.366.55-.545c.173-.188.356-.366.545-.54.173-.193.356-.371.545-.545.178-.188.356-.367.549-.54.173-.193.357-.371.545-.545.173-.188.357-.366.545-.545s.357-.366.55-.54a7.123,7.123,0,0,1,.545-.545c.173-.188.356-.366.545-.545s.356-.366.545-.54c.178-.193.356-.371.549-.545.173-.188.357-.366.545-.54a171.081,171.081,0,0,0,1.094-1.089c.173-.188.357-.367.545-.54.173-.193.357-.371.545-.545s.357-.371.55-.545c.173-.188.356-.366.545-.54.173-.193.356-.371.545-.545s.356-.366.545-.545.356-.366.55-.54c.173-.193.356-.371.545-.545.173-.188.357-.367.55-.544.173-.188.351-.367.545-.54.173-.188.356-.371.545-.545.173-.188.356-.366.545-.539.178-.193.356-.371.549-.545.173-.188.357-.366.545-.544s.356-.366.545-.54c.178-.193.357-.371.55-.544.173-.188.356-.371.545-.545.173-.188.357-.366.545-.54a7.1,7.1,0,0,1,.55-.545c.173-.188.352-.366.545-.545.173-.188.356-.366.545-.539.173-.188.356-.371.545-.545s.356-.366.549-.545c.173-.188.356-.366.545-.54.173-.193.357-.371.545-.545.178-.188.356-.366.545-.54.178-.193.361-.371.55-.545.173-.188.356-.366.545-.545s.356-.366.55-.54A7.036,7.036,0,0,1,115.5,54c.173-.188.357-.366.545-.545s.356-.366.545-.539c.178-.193.361-.371.549-.545s.357-.366.545-.54c.173-.193.356-.371.545-.545s.357-.371.55-.545c.173-.188.356-.366.545-.545s.356-.366.545-.54c.173-.188.356-.366.549-.545.173-.188.357-.366.545-.54.173-.193.357-.371.545-.545.173-.188.357-.366.545-.54.178-.193.357-.371.55-.545.173-.193.356-.371.545-.545s.356-.366.55-.545c.173-.188.351-.366.545-.54.173-.188.357-.371.545-.545.173-.188.356-.366.55-.544.173-.188.352-.367.545-.54.173-.188.356-.366.545-.545s.357-.366.545-.539c.178-.193.357-.371.55-.545.173-.188.357-.366.545-.544s.356-.366.545-.54a7.14,7.14,0,0,1,.549-.544c.173-.188.352-.366.545-.545.173-.188.356-.366.545-.54.178-.193.357-.371.55-.545.173-.188.351-.366.545-.545.173-.188.356-.366.545-.539.173-.188.356-.371.545-.545s.356-.366.549-.539c.173-.193.357-.371.545-.545s.356-.366.545-.545.357-.366.545-.54c.178-.193.361-.371.55-.545.173-.188.356-.366.545-.545s.356-.366.55-.54a7.044,7.044,0,0,1,.545-.545c.173-.188.356-.366.545-.545s.356-.366.545-.539c.178-.188.356-.371.549-.545.173-.188.356-.366.545-.54.173-.193.357-.371.545-.545s.356-.366.55-.545c.173-.188.356-.366.545-.54.173-.193.356-.371.545-.545.173-.188.356-.366.55-.545.173-.188.356-.366.545-.54.173-.193.357-.371.545-.545.173-.188.356-.366.545-.54.178-.193.361-.371.55-.545.173-.193.356-.371.545-.545s.356-.366.545-.54c.178-.193.357-.371.55-.545.173-.188.356-.366.545-.545s.357-.366.545-.54c.178-.193.356-.371.549-.545.173-.188.357-.366.545-.54.173-.193.356-.371.545-.545.178-.193.357-.371.55-.545.173-.188.356-.366.545-.544s.356-.366.545-.54.356-.371.55-.544c.173-.188.351-.366.545-.545.173-.188.357-.366.545-.54.173-.188.356-.366.545-.545s.357-.366.55-.54c.173-.193.356-.371.545-.545.173-.188.356-.371.545-.545s.356-.366.545-.539c.178-.193.362-.371.55-.545s.357-.366.545-.545.357-.366.549-.54c.173-.193.352-.366.545-.545.173-.188.356-.366.545-.545s.357-.366.55-.54a7.035,7.035,0,0,1,.545-.545c.173-.188.356-.366.545-.54a7.1,7.1,0,0,1,.549-.545c.173-.188.352-.366.545-.545.173-.188.357-.366.545-.54.173-.193.356-.371.545-.545s.357-.366.55-.545c.173-.188.356-.366.545-.54.173-.193.356-.371.545-.545.178-.188.356-.366.545-.54.178-.193.356-.371.55-.545.173-.188.356-.371.545-.545.173-.188.357-.366.545-.54.178-.193.356-.371.549-.545.173-.188.356-.371.545-.545s.357-.366.545-.54c.178-.193.356-.371.55-.545A9.1,9.1,0,0,1,173.559,0a9.192,9.192,0,0,1,6.174,15.981Z" transform="translate(124.471 0)" fill="#eafff5"/>
    <path id="Path_1097" data-name="Path 1097" d="M268.2,51.078q-.356.371-.728.728c-.238.247-.475.485-.723.723s-.475.485-.723.723-.48.485-.723.723-.48.485-.723.723-.48.485-.723.723-.48.49-.728.728-.475.485-.723.723-.48.485-.723.723-.48.485-.723.723-.48.485-.723.723-.48.49-.728.728-.475.485-.723.723-.48.485-.723.723-.48.485-.723.723-.48.485-.723.723-.48.485-.728.728-.475.485-.723.718-.48.49-.723.728-.48.485-.723.723-.48.485-.723.723-.48.485-.728.723-.475.485-.723.723-.48.49-.723.728-.48.485-.723.723-.48.485-.723.723-.48.485-.728.723-.475.485-.723.723-.475.485-.723.728-.48.485-.723.718c-.238.248-.48.49-.723.728s-.48.485-.728.723-.475.485-.723.723-.475.485-.723.723-.48.485-.723.723-.48.49-.723.723-.48.49-.728.728-.475.485-.723.723-.475.485-.723.723-.48.485-.723.723-.48.485-.723.723-.48.49-.728.728-.475.485-.723.723-.475.485-.723.723-.48.485-.723.723-.48.485-.723.723-.48.49-.728.728-.475.485-.723.723-.475.485-.723.723-.48.485-.723.723-.48.485-.723.723-.48.485-.728.723-.475.485-.723.723-.475.49-.723.728-.48.485-.723.723-.48.485-.723.723-.48.485-.728.723-.475.485-.718.723-.48.485-.728.723-.475.49-.723.728-.48.485-.723.723-.48.485-.728.723-.475.485-.718.723-.48.485-.728.723-.475.485-.723.723-.48.49-.723.728-.48.485-.728.723-.475.485-.718.723-.48.485-.728.723-.475.485-.723.723-.48.49-.723.728-.48.485-.723.723-.48.485-.723.723-.48.485-.728.723-.475.485-.723.723-.48.485-.723.723-.48.485-.723.723-.48.49-.728.728-.475.485-.718.723-.48.485-.728.723-.475.485-.723.723-.48.485-.723.723-.48.49-.728.728-.475.485-.723.723-.475.485-.723.723-.475.485-.723.723-.48.485-.723.723-.48.485-.723.723-.48.485-.723.723-.48.49-.728.728-.475.485-.723.723-.48.485-.723.723-.48.485-.723.723-.48.485-.723.723-.48.485-.728.723-.475.49-.723.728-.48.485-.723.723-.48.485-.723.723-.48.485-.728.723-.475.485-.723.723-.475.49-.723.728-.475.485-.723.723-.48.485-.723.723-.48.485-.728.723-.475.485-.723.723-.475.49-.723.728-.475.485-.723.717c-.238.248-.48.49-.723.728s-.48.485-.728.723-.475.485-.723.723-.475.485-.723.723-.475.485-.723.723-.48.485-.723.723-.48.49-.728.728-.475.485-.718.723-.48.485-.728.723-.475.485-.723.723-.475.485-.723.723-.48.49-.728.728-.475.485-.718.723-.48.485-.728.723-.475.485-.723.723-.475.485-.723.723-.48.49-.723.728-.48.485-.723.718-.48.49-.728.728-.475.485-.723.723-.475.485-.723.723-.48.485-.723.723-.48.485-.723.723-.48.49-.728.728-.475.485-.723.723-.475.485-.723.723-.48.485-.723.723-.48.485-.723.723-.48.485-.728.723-.475.49-.723.728-.475.485-.723.723-.48.485-.723.723-.48.485-.723.723-.48.485-.723.723-.48.49-.728.728-.475.485-.723.723-.48.485-.723.723-.48.485-.723.723-.48.485-.723.723-.48.485-.728.723-.475.485-.723.723-.48.49-.723.728-.48.485-.723.723-.48.485-.723.723-.48.485-.728.723-.475.485-.723.723-.48.49-.723.728-.48.485-.723.723-.48.485-.723.723-.48.485-.728.723-.475.485-.723.723-.48.485-.723.723-.48.49-.723.723c-.238.248-.48.49-.723.728s-.48.485-.728.723-.475.485-.723.723-.48.485-.723.723-.48.485-.723.723-.48.485-.723.723-.48.49-.728.728-.475.485-.723.723-.475.485-.723.723-.48.485-.723.723-.48.485-.723.723-.48.49-.728.728-.475.485-.723.723-.475.485-.723.723-.48.485-.723.723-.48.485-.723.723-.48.485-.728.723-.475.49-.723.723c-.238.248-.475.49-.723.728s-.48.485-.723.723-.48.485-.723.723-.48.485-.728.723-.475.485-.723.723-.475.49-.723.723-.48.49-.723.728-.48.485-.723.723-.48.485-.728.723-.475.485-.723.723-.475.485-.723.723-.475.485-.723.723-.48.49-.723.728-.48.485-.728.723-.475.485-.718.723-.48.485-.728.723-.475.485-.723.723-.475.49-.723.728-.48.485-.728.723-.475.485-.718.723-.48.485-.728.723-.475.485-.723.723-.48.49-.723.728-.48.485-.728.723-.475.485-.718.723-.48.485-.728.723-.475.485-.723.723-.475.485-.723.723-.48.49-.723.728-.48.485-.723.723-.48.485-.728.723-.475.485-.723.723-.475.485-.723.723-.48.485-.723.723-.48.49-.723.723-.48.49-.728.728-.475.485-.723.723-.475.485-.723.723-.48.485-.723.723-.48.485-.723.723-.48.49-.728.728-.475.485-.723.723-.475.485-.723.723-.48.485-.723.723-.48.485-.723.723-.48.485-.728.728-.475.48-.723.718-.475.49-.723.728-.48.485-.723.723-.48.485-.723.723-.48.485-.728.723-.475.49-.723.728-.475.48-.723.718-.48.49-.723.728-.48.485-.723.723-.48.485-.723.723-.48.485-.728.723-.475.485-.723.723-.48.49-.723.728-.48.485-.723.723-.48.485-.723.723-.48.485-.728.723-.475.485-.723.723-.48.485-.723.728-.48.485-.723.718c-.238.248-.48.49-.723.728s-.48.485-.728.723-.475.485-.723.723-.475.485-.723.723-.48.485-.723.723-.48.49-.723.728-.48.485-.723.723-.48.485-.728.723-.48.485-.723.723-.48.485-.723.723-.48.485-.723.723-.48.49-.723.728-.48.485-.728.723-.48.485-.723.723-.48.485-.723.723-.48.485-.723.723-.48.485-.723.723-.48.49-.728.728-.475.485-.723.723-.48.485-.723.723-.48.485-.723.723-.48.485-.723.723-.48.49-.728.728-.475.485-.723.723-.48.485-.723.723-.48.485-.723.723-.48.485-.723.723-.48.485-.728.723-.475.49-.723.723c-.238.248-.48.49-.723.728s-.48.485-.723.723-.48.485-.723.723-.48.485-.728.723-.475.485-.723.723-.475.49-.723.728-.48.485-.723.723-.48.485-.723.723-.48.485-.728.723-.475.485-.723.723-.475.485-.723.723-.48.49-.723.728-.48.485-.723.723-.48.485-.728.723-.475.485-.723.723-.475.485-.723.723-.48.485-.723.723-.48.49-.723.723-.48.49-.728.728-.475.485-.723.723-.475.485-.723.723-.48.485-.723.723-.48.485-.723.723-.48.49-.728.728-.475.485-.723.723-.475.485-.723.723-.48.485-.723.723-.48.485-.723.723A29.69,29.69,0,1,1,9.085,226.2c.238-.248.48-.49.723-.728s.48-.485.728-.723.475-.485.723-.723.48-.485.723-.723.48-.485.723-.723.48-.49.728-.728.48-.485.723-.723.48-.485.723-.723.48-.485.728-.723.48-.485.723-.723.48-.485.723-.723.48-.49.728-.728.48-.485.723-.723.48-.485.723-.723.48-.485.728-.723.48-.49.723-.728.48-.485.723-.723.48-.485.728-.723.475-.485.723-.723.48-.485.723-.723.48-.49.728-.728.48-.485.723-.723.48-.485.723-.718.48-.49.728-.728.48-.485.723-.723.48-.485.723-.723.48-.49.728-.728.48-.485.723-.723.48-.485.723-.723.48-.485.728-.723.48-.485.723-.728.48-.48.723-.718.48-.49.728-.728.48-.485.723-.723.48-.485.723-.723.48-.485.728-.723.48-.49.723-.728.48-.485.723-.718.48-.49.728-.728.475-.485.723-.723.48-.485.723-.723.48-.49.728-.728.48-.485.723-.718c.238-.248.48-.49.723-.728s.48-.485.728-.723.475-.485.723-.723.48-.485.723-.723.48-.485.728-.723.48-.49.723-.728.48-.485.723-.723.48-.485.728-.723.48-.485.723-.723.48-.485.723-.723.48-.49.728-.728.48-.485.723-.723.48-.485.723-.723.48-.485.728-.723.475-.485.723-.723.48-.49.728-.728.475-.485.723-.723.475-.485.723-.723.48-.485.723-.723.48-.485.728-.728.475-.485.723-.718q.357-.371.728-.728c.233-.243.475-.485.718-.723s.48-.485.728-.723.48-.485.723-.723.48-.485.723-.723.48-.49.728-.728.48-.485.723-.723.48-.485.723-.723.48-.485.728-.723.48-.49.723-.728.48-.485.723-.717q.357-.371.728-.728c.238-.248.48-.485.723-.723s.48-.485.723-.723.48-.485.728-.723.48-.49.723-.728.48-.485.728-.723.475-.485.723-.723.48-.485.723-.723.48-.485.723-.723.48-.49.728-.728.48-.485.723-.723.48-.485.723-.723.48-.485.728-.723.48-.485.723-.723.48-.485.723-.723.48-.49.728-.728.48-.485.723-.723.48-.485.723-.723.48-.485.728-.723.48-.49.723-.728.48-.485.723-.718.48-.49.728-.728.48-.485.723-.723.48-.485.723-.723.48-.485.728-.728.48-.485.723-.723.48-.485.723-.723.48-.485.728-.723.48-.485.723-.723.48-.485.723-.723.48-.49.728-.728.48-.485.723-.723.48-.485.723-.723.48-.485.728-.723.48-.485.723-.723.48-.485.723-.723.48-.49.728-.728.48-.485.723-.723.48-.485.723-.723.48-.485.728-.723.475-.485.723-.723.48-.49.723-.728.48-.485.728-.723.48-.485.723-.723.48-.485.723-.723.48-.485.728-.728.48-.485.723-.718.48-.49.723-.728.48-.485.728-.723.475-.485.723-.723.48-.485.723-.723.48-.485.728-.723.48-.49.723-.728.48-.485.723-.723.48-.485.728-.723.48-.485.723-.723.48-.485.723-.723.48-.49.728-.728.475-.485.723-.723.48-.485.723-.723.48-.485.728-.723.475-.485.723-.723.48-.485.723-.723.48-.49.728-.728.475-.485.723-.723.48-.485.723-.723.48-.485.728-.728.475-.485.723-.718.48-.49.723-.728.48-.485.728-.723.475-.485.723-.723.48-.485.723-.723.48-.485.728-.723.475-.49.723-.728.48-.485.723-.723.48-.485.723-.723.48-.485.728-.723.48-.485.723-.723.48-.49.723-.728.48-.485.728-.723.48-.485.723-.723.48-.485.728-.723.475-.485.723-.723.475-.485.723-.728.48-.485.728-.723.475-.485.723-.723.475-.485.723-.723.48-.485.728-.728.475-.485.723-.718c.238-.248.475-.49.723-.728s.48-.485.723-.723.48-.485.728-.723.475-.485.723-.723.48-.485.723-.723.48-.49.728-.728.475-.485.723-.723.48-.485.728-.723.475-.485.723-.723.48-.49.723-.728.48-.485.723-.723.48-.485.728-.723.475-.485.723-.723.48-.485.728-.723.475-.485.723-.723.475-.485.723-.728.48-.485.723-.723.48-.485.728-.723.475-.485.723-.723.48-.485.723-.723.48-.49.728-.728.48-.485.723-.723.48-.485.723-.723.48-.485.728-.723.475-.485.723-.723.48-.485.723-.723.48-.49.728-.728.475-.485.723-.723.48-.485.728-.723.475-.485.723-.723.475-.485.723-.723.48-.49.728-.728.475-.485.723-.723.475-.485.723-.723.48-.485.723-.723.48-.485.728-.728.475-.485.723-.718c.238-.248.48-.49.723-.728s.48-.485.728-.723.475-.485.723-.723.48-.485.723-.723.48-.49.728-.728.475-.485.723-.723.48-.485.723-.723.48-.485.728-.723.475-.485.723-.723.48-.49.728-.728.475-.485.723-.723.475-.485.723-.723.48-.485.723-.723.48-.485.728-.723.475-.485.723-.723.48-.49.723-.728.48-.485.728-.723.475-.485.723-.723.48-.485.723-.723.48-.485.728-.728.475-.485.723-.718c.238-.248.48-.49.723-.728s.48-.485.723-.723.48-.485.728-.723.48-.485.723-.723.48-.49.728-.723c.238-.248.475-.49.723-.728s.48-.485.723-.723.48-.485.723-.723.48-.485.728-.728.48-.48.723-.718.48-.49.723-.723q.357-.371.728-.728c.238-.247.475-.485.723-.723s.48-.485.728-.723.475-.485.723-.723.475-.485.723-.723.48-.49.728-.728.475-.485.723-.723.475-.485.723-.723.48-.485.723-.723.48-.49.728-.728.48-.485.723-.723.48-.485.723-.723.48-.485.728-.723.48-.485.723-.723.48-.485.723-.723.48-.49.728-.728.475-.485.723-.723.48-.485.723-.723.48-.485.728-.723.475-.485.723-.723.48-.49.728-.728.475-.485.723-.723.475-.485.723-.723.48-.485.723-.723.48-.485.728-.728.475-.485.723-.718q.357-.372.728-.728c.233-.248.475-.485.723-.723s.475-.485.723-.723.48-.485.723-.723.48-.49.728-.728.475-.485.723-.723.48-.485.723-.723.48-.485.728-.723.475-.485.723-.723.48-.485.728-.728.475-.485.723-.723.475-.485.723-.723.48-.485.728-.723.475-.485.723-.723.475-.485.723-.723.48-.49.728-.728.475-.485.723-.723.475-.485.723-.723.48-.485.728-.723.475-.485.723-.723.475-.485.723-.723.48-.49.723-.728.48-.485.728-.723.475-.485.723-.723.48-.485.723-.723.48-.49.728-.728.475-.485.723-.723.48-.485.723-.723.48-.485.728-.723.475-.485.723-.723.48-.485.723-.728.48-.485.728-.723.475-.485.723-.723.48-.485.723-.723.48-.485.728-.723.475-.485.723-.723.48-.485.723-.728.48-.485.728-.723.475-.485.723-.723.48-.485.723-.723.48-.485.728-.723A29.542,29.542,0,0,1,277.26,29.71,29.666,29.666,0,0,1,268.2,51.078Z" transform="translate(311.907 29.007)" fill="none" stroke="#9bb9ff" stroke-linecap="round" stroke-width="3" stroke-dasharray="7 9"/>
    <g id="Group_3474" data-name="Group 3474" transform="translate(311.906 29.009)">
      <ellipse id="Ellipse_64-10" data-name="Ellipse 64" cx="29.71" cy="29.71" rx="29.71" ry="29.71" transform="translate(0 217.839)" fill="none" stroke="#fa5c36" stroke-width="3"/>
      <ellipse id="Ellipse_64-11" data-name="Ellipse 64" cx="29.589" cy="29.71" rx="29.589" ry="29.71" transform="translate(218.082 0)" fill="none" stroke="#fff" stroke-width="2"/>
    </g>
    <ellipse id="Ellipse_64-12" data-name="Ellipse 64" cx="20.797" cy="20.797" rx="20.797" ry="20.797" transform="translate(216.851 47.824)" fill="none" stroke="#fa5c36" stroke-width="4"/>
    <path id="Path_1098" data-name="Path 1098" d="M68.907,15.981c-.178.188-.357.366-.55.545-.173.188-.356.366-.545.54-.173.193-.356.371-.545.545s-.356.366-.549.545c-.173.188-.351.366-.545.54-.173.193-.357.371-.545.545-.173.188-.356.366-.545.545s-.357.366-.545.54c-.178.188-.356.371-.55.545-.173.188-.356.366-.545.54-.173.193-.356.371-.545.545s-.356.366-.55.545c-.173.188-.351.366-.545.54-.173.193-.357.371-.545.545s-.356.366-.545.545-.357.366-.549.54c-.173.193-.357.371-.545.545-.173.188-.356.366-.545.54a7.111,7.111,0,0,1-.55.545c-.173.188-.351.371-.545.545-.173.188-.356.366-.545.539-.173.193-.356.371-.545.545s-.356.366-.549.545c-.173.188-.352.366-.545.54-.173.188-.357.371-.545.545-.173.188-.357.366-.545.54-.178.193-.357.371-.55.545a7.033,7.033,0,0,1-.545.544c-.173.188-.356.367-.545.54-.173.193-.356.371-.545.544-.178.188-.356.367-.55.545-.173.188-.357.366-.545.54-.173.193-.356.371-.545.544s-.356.366-.545.545-.356.366-.549.54a7.045,7.045,0,0,1-.545.545c-.173.188-.357.366-.545.54a7.109,7.109,0,0,1-.55.545c-.173.188-.352.366-.545.545-.173.188-.356.366-.545.54-.173.193-.356.371-.545.545s-.356.366-.545.545-.356.366-.55.54c-.173.193-.356.371-.545.545s-.357.366-.545.54c-.173.193-.356.371-.545.545-.178.188-.357.371-.549.545-.173.188-.357.366-.545.54-.173.193-.357.371-.545.545-.178.188-.357.366-.55.545-.173.188-.356.366-.545.539-.173.193-.356.371-.545.545s-.356.366-.545.54c-.178.193-.356.371-.55.545-.173.193-.356.371-.545.545-.173.188-.357.366-.545.54a7.1,7.1,0,0,1-.55.545c-.173.188-.352.366-.545.545-.173.188-.356.366-.545.54-.173.193-.356.371-.545.545-.173.188-.356.366-.549.545-.173.188-.351.366-.545.54-.173.193-.357.371-.545.545s-.356.366-.545.54a7.21,7.21,0,0,1-.55.545c-.173.188-.352.371-.545.545-.173.188-.357.366-.545.54-.173.193-.356.371-.545.545-.178.188-.357.366-.55.544-.173.188-.351.367-.545.54-.173.193-.356.371-.545.545s-.356.366-.545.539c-.178.193-.356.371-.549.545-.173.193-.352.366-.545.544-.173.188-.356.366-.545.545s-.357.366-.545.54c-.178.188-.356.366-.55.545-.173.188-.356.366-.545.54-.173.193-.356.371-.545.545-.178.188-.357.366-.545.54-.178.193-.356.371-.55.545-.173.193-.357.371-.545.545s-.356.366-.545.545-.356.366-.545.54-.356.366-.549.545c-.173.188-.356.366-.545.54-.173.193-.357.371-.545.545-.178.188-.356.366-.55.54-.173.193-.356.371-.545.545-.173.193-.356.371-.545.545-.173.188-.356.366-.549.545-.173.188-.352.366-.54.54s-.361.371-.549.545-.357.366-.545.54a7.154,7.154,0,0,1-.55.545c-.173.188-.352.366-.54.54-.178.193-.361.371-.549.545-.173.193-.357.371-.545.545-.178.188-.356.366-.55.545-.173.188-.352.366-.545.54-.173.188-.356.371-.545.545-.1.109-.213.213-.317.317C9.04,66.887,4.53,62.758,0,58.653c.1-.1.2-.208.307-.307.178-.188.356-.366.549-.545.173-.188.356-.366.545-.54.173-.193.357-.371.545-.545.178-.188.356-.366.545-.54.178-.193.361-.371.55-.545.173-.188.356-.366.545-.545s.356-.366.55-.54A7.035,7.035,0,0,1,4.679,54c.173-.188.357-.366.545-.545s.356-.366.545-.539c.178-.193.361-.371.549-.545s.357-.366.545-.54c.173-.193.356-.371.545-.545s.357-.371.55-.545c.173-.188.356-.366.545-.545s.356-.366.545-.54c.173-.188.356-.366.549-.545.173-.188.357-.366.545-.54.173-.193.357-.371.545-.545.173-.188.357-.366.545-.54.178-.193.357-.371.55-.545.173-.193.356-.371.545-.545s.356-.366.55-.545c.173-.188.351-.366.545-.54.173-.188.357-.371.545-.545.173-.188.356-.366.55-.544.173-.188.352-.367.545-.54.173-.188.356-.366.545-.545s.357-.366.545-.539c.178-.193.357-.371.55-.545.173-.188.357-.366.545-.544s.356-.366.545-.54a7.138,7.138,0,0,1,.549-.544c.173-.188.352-.366.545-.545.173-.188.356-.366.545-.54.178-.193.357-.371.55-.545.173-.188.351-.366.545-.545.173-.188.356-.366.545-.539.173-.188.356-.371.545-.545s.356-.366.549-.539c.173-.193.357-.371.545-.545s.356-.366.545-.545.357-.366.545-.54c.178-.193.361-.371.55-.545.173-.188.356-.366.545-.545s.356-.366.55-.54a7.046,7.046,0,0,1,.545-.545c.173-.188.356-.366.545-.545s.356-.366.545-.539c.178-.188.356-.371.549-.545.173-.188.356-.366.545-.54.173-.193.357-.371.545-.545s.356-.366.55-.545c.173-.188.356-.366.545-.54.173-.193.356-.371.545-.545.173-.188.356-.366.55-.545.173-.188.356-.366.545-.54.173-.193.357-.371.545-.545.173-.188.356-.366.545-.54.178-.193.361-.371.55-.545.173-.193.356-.371.545-.545s.356-.366.545-.54c.178-.193.357-.371.55-.545.173-.188.356-.366.545-.545s.357-.366.545-.54c.178-.193.356-.371.549-.545.173-.188.357-.366.545-.54.173-.193.356-.371.545-.545.178-.193.357-.371.55-.545.173-.188.356-.366.545-.544s.356-.366.545-.54.356-.371.55-.544c.173-.188.351-.366.545-.545.173-.188.357-.366.545-.54.173-.188.356-.366.545-.545s.357-.366.55-.54c.173-.193.356-.371.545-.545.173-.188.356-.371.545-.545s.356-.366.545-.539c.178-.193.362-.371.55-.545s.357-.366.545-.545.357-.366.549-.54c.173-.193.352-.366.545-.545.173-.188.356-.366.545-.545s.357-.366.55-.54a7.034,7.034,0,0,1,.545-.545c.173-.188.356-.366.545-.54a7.1,7.1,0,0,1,.549-.545c.173-.188.352-.366.545-.545.173-.188.357-.366.545-.54.173-.193.356-.371.545-.545s.357-.366.55-.545c.173-.188.356-.366.545-.54.173-.193.356-.371.545-.545.178-.188.356-.366.545-.54.178-.193.356-.371.55-.545.173-.188.356-.371.545-.545.173-.188.357-.366.545-.54.178-.193.356-.371.549-.545.173-.188.356-.371.545-.545s.357-.366.545-.54c.178-.193.356-.371.55-.545A9.1,9.1,0,0,1,62.733,0a9.192,9.192,0,0,1,6.174,15.981Z" transform="translate(235.297 0)" fill="#eafff5"/>
  </g>
</svg>
