<svg xmlns="http://www.w3.org/2000/svg" viewBox="0 0 658.29 240.19"><defs><style>.cls-1{fill:none;}.cls-2{fill:#2163ff;}.cls-3{fill:#35ff9b;}</style></defs><g id="Layer_2" data-name="Layer 2"><g id="Layer_1-2" data-name="Layer 1"><path class="cls-1" d="M551,193.33c.88,0,13.25-9.85,15.53-11.8h0c-2.27,1.94-14.55,11.69-15.52,11.79Z"/><path class="cls-1" d="M565.62,182.14l.52-.36Z"/><path class="cls-1" d="M517.3,212.76l-.39.18c-8,3.65-14.34,6.62-17.36,7.67l-.07,0C502.52,219.59,509,216.52,517.3,212.76Z"/><path class="cls-1" d="M532.07,205.77c-.13.11,1.3-.73,2.71-1.58h0C533.52,205,532.23,205.71,532.07,205.77Z"/><path class="cls-1" d="M536.46,203.33c.12-.1,2.47-1.57,10.78-6.86-.24.15-.83.51-1.61,1C538.1,202.28,536.28,203.41,536.46,203.33Z"/><path class="cls-1" d="M562.43,184.23h0C561.22,185.4,561.9,184.75,562.43,184.23Z"/><path class="cls-1" d="M521.05,212a5.12,5.12,0,0,0,1.09-.45,164.29,164.29,0,0,0,17-9.63h0a164,164,0,0,1-17,9.63A8.07,8.07,0,0,1,521.05,212Z"/><path class="cls-1" d="M551.68,193.17a17.06,17.06,0,0,0,3.48-2.41l0,0A17.62,17.62,0,0,1,551.68,193.17Z"/><path class="cls-1" d="M559.41,187.55c.06-.06,6.43-5.25,6.29-5.13C566,182.13,559.29,187.64,559.41,187.55Z"/><path class="cls-1" d="M580.85,168.27h0c-2.37,2.63-3.45,3.43-2.88,2.75C577.39,171.7,578.47,170.9,580.85,168.27Z"/><path class="cls-1" d="M513.26,215.68Z"/><path class="cls-1" d="M538.88,201.51h0c-5.87,3.59-7.86,4.77-7.88,4.75S532.9,205.16,538.88,201.51Z"/><path class="cls-1" d="M579.06,169.47c1.71-1.69,5.94-5.95,8-8.15l.27-.29c-2,2.1-6.51,6.68-8.29,8.44h0a4.58,4.58,0,0,0-.72.73A5.22,5.22,0,0,1,579.06,169.47Z"/><path class="cls-1" d="M377.58,233.38c-5.53-1-11.72-2.28-11.87-2.44,0,.14,6.28,1.39,11.87,2.45h0a85.38,85.38,0,0,0,8.65,1.17C386.08,234.61,382,234.15,377.58,233.38Z"/><path class="cls-1" d="M298.76,203.24c25.14,15.55,52.7,24.72,76.62,29.18h0c-23.91-4.46-51.47-13.63-76.6-29.17Z"/><path class="cls-1" d="M478.34,227h0c-12.19,3.51-25.36,7.14-49.84,8.73l.76-.05C453.24,234.06,466.27,230.46,478.34,227Z"/><path class="cls-1" d="M353.52,227.09l-.95-.27Z"/><path class="cls-1" d="M443.08,235.14l-.29,0c-4.49.53-9,.92-13.4,1.18C433.89,236.07,438.49,235.67,443.08,235.14Z"/><path class="cls-1" d="M305.37,208.85l-6.94-4.2C298.33,204.59,305.75,209.09,305.37,208.85Z"/><path class="cls-1" d="M119.4,80.16,113.17,76Z"/><path class="cls-1" d="M521.44,210.22a280.24,280.24,0,0,1-26.61,11.32,282.34,282.34,0,0,0,26.59-11.3Z"/><path class="cls-1" d="M513.32,215.05c-2.16.9-4.11,1.7-4.24,1.71s1.94-.75,4.25-1.7h0c2.86-1.1,5.92-2.68,5.82-2.54C519.39,212.29,516.25,213.93,513.32,215.05Z"/><path class="cls-1" d="M535,203.18s-5.43,3.35-5.67,3.49S535.26,203,535,203.18Z"/><path class="cls-1" d="M521.24,211.09s.12-.12.48-.33l-.19.1C521.29,211,521.21,211.08,521.24,211.09Z"/><path class="cls-1" d="M517.76,213.38l-.12.07c3.93-2,4.9-2.62,4.86-2.69A36.35,36.35,0,0,1,517.76,213.38Z"/><path class="cls-1" d="M531.08,205.94c-.15.18,10.88-6.49,10.54-6.36C541.8,199.54,531.05,206.05,531.08,205.94Z"/><path class="cls-1" d="M336.91,222.26c-2.24-.85-3.23-1.24-3.28-1.27s.95.39,3.28,1.28a201,201,0,0,0,19.44,6.28h0l-.25-.07A198.9,198.9,0,0,1,336.91,222.26Z"/><polygon class="cls-1" points="550.32 192.36 550.33 192.35 550.32 192.35 550.32 192.36"/><path class="cls-1" d="M579.89,171.39c.12-.13.3-.31.53-.52C580.19,171.08,580,171.26,579.89,171.39Z"/><path class="cls-1" d="M585.57,165.49l-.11.13c2.46-2.59,7.86-8.21,12-13.43a94.44,94.44,0,0,0,6.78-9.12,98,98,0,0,1-6.79,9.12C593.38,157.32,588.09,162.86,585.57,165.49Z"/><path class="cls-1" d="M567.4,182.58l0,0c-5.34,4.24-7.19,5.67-7.27,5.7S561.8,187,567.4,182.58Z"/><path class="cls-1" d="M535.64,201.9c-1.56.93-2.26,1.34-2.31,1.35S534.07,202.83,535.64,201.9Z"/><path class="cls-1" d="M533.38,203.21l.55-.35c2.18-1.4,10-6,16.39-10.5h0c-6.38,4.54-14.21,9.1-16.39,10.49Z"/><path class="cls-1" d="M588.79,162.36c-.16.17-.34.37-.54.57-6.24,6.67-8.54,8.75-8.55,8.68S582.13,169.5,588.79,162.36Z"/><path class="cls-1" d="M485.42,226.72l9.83-3.47h-.06Z"/><path class="cls-1" d="M602.73,146c-.6.79-1.16,1.54-1.64,2.19l-.12.16,1.76-2.35c.43-.58.86-1.18,1.27-1.76l0,.05Z"/><path class="cls-1" d="M598.08,151l-.15.18c-5.86,6.86-8,9.39-8.23,9.6S591.51,158.69,598.08,151Z"/><path class="cls-1" d="M600,149.61l1-1.31-.54.73Z"/><path class="cls-1" d="M605.05,142.71c1.13-1.61,1.9-2.76,1.64-2.39l-1.36,2Z"/><polygon class="cls-1" points="598.1 150.96 598.08 150.98 598.11 150.95 598.1 150.96"/><path class="cls-1" d="M604.54,143.46l-.45.6-.09.13.54-.73.51-.75-.09.12Z"/><path class="cls-1" d="M380.53,235a18.12,18.12,0,0,0,4.21.57h0A18.71,18.71,0,0,1,380.53,235Z"/><path class="cls-1" d="M384.67,236.07c-6.76-1.06-9.08-1.43-9.15-1.45s2.18.36,9.15,1.46h0Z"/><path class="cls-1" d="M401.71,237.4a44,44,0,0,0,7.34.36H409A45.51,45.51,0,0,1,401.71,237.4Z"/><path class="cls-1" d="M462.89,231.68a17.19,17.19,0,0,0,4.12-.91h0A17.32,17.32,0,0,1,462.89,231.68Z"/><path class="cls-1" d="M384.65,236.25c-.33-.08-2.79-.48-5.07-.84,2.26.36,4.7.75,5.06.84Z"/><path class="cls-1" d="M476.7,229.26c.58-.09,2.62-.62,5.85-1.52h0c-3.1.86-5.08,1.37-5.75,1.49Z"/><path class="cls-1" d="M560.39,184.77a4.22,4.22,0,0,1,.66-.51c2.06-1.51,8-6.56,12-10.06h0c-4,3.5-9.92,8.55-12,10.07A4.46,4.46,0,0,0,560.39,184.77Z"/><path class="cls-1" d="M579.17,166.58h0c-.79.77-12.26,11.52-16.68,15.07h0C566.91,178.1,578.38,167.35,579.17,166.58Z"/><path class="cls-1" d="M561.48,183Z"/><path class="cls-1" d="M561.48,183h0l-5.59,4.56Z"/><path class="cls-1" d="M119.49,80.22h0l-4.61-3.11Z"/><path class="cls-1" d="M529.48,205.07c-.06,0,0,0,.13-.15h0C529.46,205,529.42,205.09,529.48,205.07Z"/><path class="cls-1" d="M530.17,204.72c1.65-.91,6-3.56,11.26-6.73,7.16-4.65,15.62-10.76,20.31-14.62l0,0c-4.7,3.87-13.12,9.95-20.26,14.59C536.21,201.16,531.82,203.81,530.17,204.72Z"/><path class="cls-1" d="M219.86,150.46c.2.07,7.49,5.09,10.35,7.28l.07,0C227.41,155.58,219.74,150.3,219.86,150.46Z"/><path class="cls-1" d="M273.23,186.15c-5.23-3.83-18-12.75-30.21-21.3l.15.11C255.34,173.47,268,182.33,273.23,186.15Z"/><path class="cls-1" d="M183.63,123.37h0c3.23,2.25,4.17,2.88,3.9,2.67C187.8,126.25,186.86,125.61,183.63,123.37Z"/><path class="cls-1" d="M191.64,128.77l22.43,15.66,9.41,6.7c2.33,1.68,3.72,2.7,3.66,2.71h0c.11,0-1.3-1-3.67-2.71l-9.41-6.7-22.43-15.66h0c-.06,0-.08,0-.08,0Z"/><path class="cls-1" d="M167,113.4h0c-5.67-3.93-7.51-5.25-7.47-5.26S161.36,109.47,167,113.4Z"/><polygon class="cls-1" points="190.82 129.95 198.73 135.49 198.73 135.49 190.81 129.95 190.72 130.09 190.72 130.09 190.82 129.95"/><path class="cls-1" d="M286.47,195.49h0c-5.6-3.84-7.48-5.16-7.51-5.2S280.71,191.55,286.47,195.49Z"/><path class="cls-1" d="M157.26,106c-.36-.17,9.17,6.55,18,12.46h0C166.43,112.55,156.91,105.84,157.26,106Z"/><path class="cls-1" d="M266.33,182.11c-1.66-1.3-5-3.69-11.77-8.46h0c6.73,4.7,10,7.1,11.71,8.4Z"/><path class="cls-1" d="M255.85,174.64l-.59-.44Z"/><path class="cls-1" d="M284.91,195c-3.65-2.43-8.22-5.55-10.7-7.28C276.69,189.45,281.26,192.57,284.91,195Z"/><path class="cls-1" d="M186.83,127.26Z"/><path class="cls-1" d="M274.4,187.44l-.19.28h0l.19-.28c5.27,3.69,10.51,7.42,16,10.93h0C284.91,194.86,279.67,191.13,274.4,187.44Z"/><path class="cls-1" d="M286.56,195.36h0c-5.59-3.84-7.48-5.15-7.51-5.19S280.8,191.41,286.56,195.36Z"/><path class="cls-1" d="M128.33,84.44,84.86,53.9l.51.36L126.9,83.44Z"/><path class="cls-1" d="M179.75,120.35l.06,0-8-5.4,0,0C176.79,118.34,175.72,117.63,179.75,120.35Z"/><polygon class="cls-1" points="124.23 81.88 124.33 81.74 124.33 81.74 124.23 81.88"/><path class="cls-1" d="M82.55,52.61c4,3,11.19,7.81,20.89,14.6C93.74,60.42,86.53,55.56,82.55,52.61Z"/><path class="cls-1" d="M80.8,51.26l0,0c4.76,3.48,28.81,20.07,28.55,20C109.72,71.41,85.53,54.73,80.8,51.26Z"/><path class="cls-1" d="M187.5,126c-.74-.58-7.73-5.55-7.87-5.74C179.59,120.35,186.75,125.44,187.5,126Z"/><path class="cls-1" d="M533.38,203.21s-.06,0,0,0,.75-.42,2.31-1.35a172.23,172.23,0,0,0,14.68-9.54c-6.38,4.54-14.21,9.1-16.39,10.5Z"/><path class="cls-1" d="M560.39,184.77c-.12.17,2.83-1.78,10.59-8.72l2-1.85c-4,3.5-9.92,8.55-12,10.06A4.22,4.22,0,0,0,560.39,184.77Z"/><path class="cls-1" d="M579.48,166.89h0C581,165.07,577.54,169.21,579.48,166.89Z"/><path class="cls-1" d="M569.15,176c3.37-2.91,7-6.38,10-9.44-.79.77-12.26,11.52-16.68,15.07A71.54,71.54,0,0,0,569.15,176Z"/><path class="cls-1" d="M600,149.61l.43-.58Z"/><path class="cls-1" d="M605,142.83c-.27.39-.56.81-.87,1.23l.45-.6Z"/><path class="cls-1" d="M509.08,216.76c.13,0,2.08-.81,4.24-1.71,2.93-1.12,6.07-2.76,5.82-2.53a15.79,15.79,0,0,1-1.38.86,36.35,36.35,0,0,0,4.74-2.62c0-.08-1.25.43-1.26.33s0-.08.29-.23A64.4,64.4,0,0,1,513,215C510.26,216.18,509.17,216.69,509.08,216.76Z"/><path class="cls-1" d="M532.07,205.77c.16-.06,1.45-.82,2.72-1.59h0c0,.65-13.77,7.65-13.74,7.85a8.07,8.07,0,0,0,1.09-.45,164,164,0,0,0,17-9.63c-.65.2-2.77,1.48-2.66,1.38-.18.08,1.64-1.05,9.17-5.85-3.2,2-9.82,6.15-10.88,6.63C532.9,205.24,532.16,205.7,532.07,205.77Z"/><path class="cls-1" d="M566.53,181.53l-.39.25-.52.36c-2.91,2.09-7.77,6.67-14.61,11.18C552,193.22,564.26,183.47,566.53,181.53Z"/><path class="cls-1" d="M499.55,220.61c3-1.05,9.35-4,17.36-7.67Z"/><path class="cls-1" d="M551.68,193.17a17.62,17.62,0,0,0,3.44-2.39A19.16,19.16,0,0,0,551.68,193.17Z"/><path class="cls-1" d="M560.11,188.3c.08,0,1.93-1.46,7.27-5.7C566.68,183,560.28,188.1,560.11,188.3Z"/><path class="cls-1" d="M588.25,162.93c-2.18,2.29-6.17,6.31-7.83,7.94h0c-.23.21-.41.39-.53.52a.72.72,0,0,0-.19.22C579.71,171.68,582,169.6,588.25,162.93Z"/><path class="cls-1" d="M604.12,143.16c-6.89,9.14-8.57,11.64-18.55,22.33,2.52-2.63,7.81-8.17,11.91-13.3a98,98,0,0,0,6.79-9.12S604.23,143.06,604.12,143.16Z"/><path class="cls-1" d="M597.93,151.16c-2.44,2.76-7.91,9.2-8.23,9.6C589.9,160.55,592.07,158,597.93,151.16Z"/><path class="cls-1" d="M116.41,76.2l-.1.14,7.91,5.54h0l.1-.14Z"/><path class="cls-1" d="M168,112.08l-15.87-11C150.72,100.3,174.14,116.7,168,112.08Z"/><path class="cls-1" d="M167,113.4c-.43-.5-7.39-5.27-7.47-5.26S161.36,109.47,167,113.4Z"/><path class="cls-1" d="M108.45,70.73h0c.6.4.89.58.92.59.26,0-23.79-16.55-28.55-20,.48.39,1.06.83,1.73,1.33,4,3,11.19,7.81,20.89,14.6Q105.85,68.89,108.45,70.73Z"/><path class="cls-1" d="M223.48,151.13l-9.41-6.7-22.43-15.66-.08,0c.09.43,25,17.61,35.58,25.09C227.2,153.83,225.81,152.81,223.48,151.13Z"/><path class="cls-1" d="M175.28,118.46h0c-12.9-9-17.78-12.36-18-12.47S166.43,112.55,175.28,118.46Z"/><path class="cls-1" d="M274.5,187.1l-1.27-.95c-5.21-3.82-17.89-12.68-30.06-21.19C252.74,172,259.16,176.24,274.5,187.1Z"/><path class="cls-1" d="M254.56,173.66l.7.54.59.44c1.92,1.43,5.09,3.7,10.42,7.42C264.59,180.76,261.29,178.36,254.56,173.66Z"/><path class="cls-1" d="M230.21,157.74c-2.86-2.19-10.15-7.21-10.35-7.28C219.92,150.54,222.57,152.43,230.21,157.74Z"/><polygon class="cls-1" points="190.72 130.09 198.63 135.63 198.73 135.49 190.82 129.95 190.72 130.09"/><path class="cls-1" d="M175.77,117.76c4.61,3.21,7,4.94,7.86,5.6h0c3.23,2.24,4.17,2.88,3.9,2.67l0,0c-.75-.58-7.91-5.67-7.87-5.74l.12.07c-4-2.72-3-2-7.93-5.35C172.58,115.64,175.77,117.76,175.77,117.76Z"/><path class="cls-1" d="M274.21,187.72c2.48,1.73,7.05,4.85,10.7,7.28,3.15,2.09,5.61,3.66,5.45,3.37-5.45-3.51-10.69-7.24-16-10.93Z"/><path class="cls-1" d="M529.48,205.07a5.23,5.23,0,0,0,.69-.35c1.65-.91,6-3.56,11.26-6.73,7.14-4.64,15.56-10.72,20.26-14.59-.73.57-7.29,5.52-15.18,10.93l-2.58,1.75c-4.8,3.22-9.88,6.44-14.32,8.84h0C529.47,205,529.42,205.09,529.48,205.07Z"/><path class="cls-1" d="M279,190.16s1.92,1.35,7.51,5.19C286,194.86,279.19,190.22,279,190.16Z"/><path class="cls-1" d="M286.46,195.49c-.54-.5-7.37-5.14-7.51-5.2C279,190.33,280.86,191.65,286.46,195.49Z"/><path class="cls-1" d="M166.73,113.82c-.64-.77-16.48-11.44,0,0Z"/><path class="cls-1" d="M384.67,236.07c-.66-.15-9-1.45-9.15-1.45.07,0,2.39.39,9.15,1.45Z"/><path class="cls-1" d="M380.53,235a18.71,18.71,0,0,0,4.17.56A17.67,17.67,0,0,0,380.53,235Z"/><path class="cls-1" d="M298.43,204.65l6.94,4.2-3.14-1.92Z"/><path class="cls-1" d="M356.11,228.48c-4.9-1.38-9.7-3.07-13.67-4.26l-8.22-3a5.09,5.09,0,0,0-.59-.2c.05,0,1,.42,3.28,1.27A198.9,198.9,0,0,0,356.11,228.48Z"/><path class="cls-1" d="M298.78,203.25c25.13,15.54,52.69,24.71,76.6,29.17-4.56-1-9.18-2-13.95-3.23-2.59-.64-5.22-1.33-7.91-2.1l-.95-.27C337.68,222.53,320.73,216,298.78,203.25Z"/><path class="cls-1" d="M476.8,229.23c.67-.12,2.65-.63,5.75-1.49l2.87-1,9.77-3.46C493.85,223.41,487.32,226.29,476.8,229.23Z"/><path class="cls-1" d="M467,230.78a18.92,18.92,0,0,0-4.08.9A17.32,17.32,0,0,0,467,230.78Z"/><path class="cls-1" d="M394.64,235.58a190.7,190.7,0,0,0,34.75.76c4.41-.26,8.91-.65,13.4-1.18C427.19,236.7,413.89,237.36,394.64,235.58Z"/><path class="cls-1" d="M409,237.75a57.57,57.57,0,0,0-7.29-.35A45.51,45.51,0,0,0,409,237.75Z"/><path class="cls-1" d="M365.77,230.93h-.06c.15.16,6.34,1.4,11.87,2.44,4.45.77,8.5,1.23,8.65,1.17a7,7,0,0,0-1.31-.24A190.83,190.83,0,0,1,365.77,230.93Z"/><path class="cls-1" d="M384.64,236.25c-.36-.09-2.8-.48-5.06-.84C375.18,234.72,371.42,234.16,384.64,236.25Z"/><path class="cls-1" d="M538.87,201.51c-.67.22-7.81,4.64-7.88,4.75S533,205.1,538.87,201.51Z"/><path class="cls-1" d="M580.84,168.27A32.72,32.72,0,0,0,578,171C577.39,171.7,578.47,170.9,580.84,168.27Z"/><path class="cls-1" d="M521.42,210.24a282.34,282.34,0,0,1-26.59,11.3q-8.16,3-16.49,5.45h0c-12.07,3.47-25.1,7.07-49.08,8.68C464.17,233.78,494.31,223.75,521.42,210.24Z"/><path class="cls-1" d="M531.08,205.94c0,.11,10.72-6.4,10.54-6.36s-2,1.15-7.09,4.16C532.09,205.26,531.12,205.88,531.08,205.94Z"/><path class="cls-1" d="M562.86,184.75h0l2.83-2.33c.14-.12-6.23,5.07-6.29,5.13Z"/><path class="cls-1" d="M579.06,169.47a5.22,5.22,0,0,0-.72.73c0,.08,2.36-2,8.74-8.88C585,163.52,580.77,167.78,579.06,169.47Z"/><path class="cls-2" d="M561.48,183h0l-5.59,4.56,5.59-4.56Z"/><path class="cls-2" d="M529.31,206.67c.24-.14,5.66-3.46,5.67-3.49l-.57.34Z"/><path class="cls-2" d="M110.42,71.86,114.91,75l12,8.43L85.37,54.26,101,65.21Z"/><path class="cls-2" d="M113.17,76l6.23,4.2.09.07h0l-4.61-3.11Z"/><path class="cls-2" d="M606.69,140.32c-.14.19-.56.8-1.36,2Z"/><path class="cls-2" d="M604,144.24l-2.88,3.9c.48-.65,1-1.4,1.64-2.19Z"/><path class="cls-2" d="M562.84,183.84l-.15.14-.26.25Z"/><path class="cls-2" d="M394.64,235.58h0Z"/><path class="cls-2" d="M585.28,165.8l.18-.18-.18.18Z"/><path class="cls-2" d="M274.59,187.16l-.09-.06.1.07Z"/><polygon class="cls-2" points="495.25 223.25 495.25 223.25 495.25 223.25 495.25 223.25"/><path class="cls-2" d="M228.71,160.31c19.88,13.82,39.18,27.69,59.16,41.2a238.26,238.26,0,0,0,65.63,30.08c46.17,12.95,95.8,11.3,139.28-5.1,43.56-15.57,82.42-42.74,109.61-78.49,4.42-5.85-1.27,1.5-.2-.15,5.23-6.55,9.88-14.32,10.7-16.69a160.37,160.37,0,0,1-11,16.48,132.57,132.57,0,0,0,8.87-13.51c1.34-2.44,1.53-3.08,1.46-3.17-.21-.25-1.46,1.88,2-4.87-4.85,8.84-6.14,10.08-6.31,10.42s.38-.8-1.77,2.08a195.48,195.48,0,0,1-18.5,23.46,204.33,204.33,0,0,1-28.44,26c12.16-9.48,34.69-29.83,49.5-53.66a206.88,206.88,0,0,1-24.42,30.46c4.42-4.76,14.38-16.26,18.57-22.58-3.22,4.25-4.84,6.17-5.59,7.09s-.76.74-.82.73-.24.13-1.48,1.53-3.44,4.18-8.07,9a216.8,216.8,0,0,1-30.16,27.61c-12.52,9.32-26,17.54-35.39,21.83a237.49,237.49,0,0,0,43.56-28.59,211.22,211.22,0,0,0,34.36-35.84c-.95,1.11-6.9,8.84-11.84,14.06a8.56,8.56,0,0,1-.72.75,8.56,8.56,0,0,0,.72-.75c3.06-3.41,13.8-16.58,11.5-14.32-8.41,10.82-8,9.72-15.81,18.35-.34.24,2.55-2.93,6.13-6.81s7.49-8.77,9.55-11.64a178.75,178.75,0,0,1-14.8,16.2c-2.36,2.29-2,1.56,1.14-2.46a231.7,231.7,0,0,1-17.31,16.59c6.77-6.68,6.47-7.06,2.33-4.55-9.94,9.34-31.95,24.64-34.51,25.24-35.63,21.6-77.29,35.23-120,34.83a224.8,224.8,0,0,1-122-37L71.84,38.67,16.71,0H0L108.51,76.08Zm378-20c.26-.37-.51.78-1.64,2.39l-.51.75-.54.73c-.41.58-.84,1.18-1.27,1.76L601,148.3l-1,1.31,1-1.31-.54.73.54-.73.12-.16-.12.16,3-4.11,0,.05,0-.05.09-.13-.09.12c.37-.51.73-1,1-1.48l-.09.13.09-.12.28-.41c-.09.13-.19.26-.28.4C606.47,140.61,606.88,140,606.69,140.32ZM598.11,151l0,0,0,0Zm0,0-.15.18.15-.18,0,0h0l0,0c-6.57,7.71-8.59,10-8.38,9.78C589.34,161.14,595.59,153.79,598.08,151Zm6-7.82c.11-.12.16-.14.15-.09a94.44,94.44,0,0,1-6.78,9.12c-4.17,5.22-9.57,10.84-12,13.43l-.18.18h0l.18-.18.11-.13-.29.31C595.52,154.84,597.16,152.38,604.12,143.16Zm-24.23,28.23c.12-.13.3-.31.53-.52,1.8-1.78,6.39-6.39,8.37-8.52l-.54.58c.2-.2.38-.4.54-.57-6.66,7.14-9.08,9.33-9.09,9.25A.72.72,0,0,1,579.89,171.39ZM567.4,182.58l0,0,0,0c-5.6,4.46-7.37,5.83-7.29,5.72C560,188.35,566.78,182.86,567.4,182.58Zm20-22.88-.72.75Zm-37.12,32.66h0a172.23,172.23,0,0,1-14.68,9.54c-1.57.93-2.27,1.34-2.31,1.35l0,0,.55-.36c2.18-1.39,10-5.95,16.39-10.49h0ZM573,174.2l-2,1.85c-7.82,7-10.75,8.92-10.59,8.72a4.46,4.46,0,0,1,.66-.51c2.07-1.52,8-6.57,12-10.07Zm6.45-7.32h0C577.54,169.21,581,165.07,579.48,166.88Zm-17,14.77c4.42-3.55,15.89-14.3,16.68-15.07h0c-3,3.07-6.65,6.53-10,9.44a71.54,71.54,0,0,1-6.66,5.63h0a16.55,16.55,0,0,1-1.34,1A16.55,16.55,0,0,0,562.49,181.65Zm-1,1.38h0l-5.59,4.56Zm-31.87,21.89h0c4.44-2.4,9.52-5.62,14.32-8.84l2.58-1.75c8-5.51,14.73-10.57,15.23-11l0,0,0,0c-4.69,3.86-13.15,10-20.31,14.62-5.22,3.17-9.61,5.82-11.26,6.73a5.23,5.23,0,0,1-.69.35C529.42,205.09,529.46,205,529.61,204.92ZM356.35,228.55a201,201,0,0,1-19.44-6.28c-2.33-.89-3.31-1.28-3.28-1.28a4.06,4.06,0,0,1,.58.19l8.23,3c4,1.22,8.93,2.94,13.92,4.34h0l-.24-.07.25.07Zm28.3,7.7h0c-13.24-2.09-9.47-1.53-5.07-.84,2.28.36,4.74.76,5.07.84Zm0-.17c-7-1.1-9.22-1.47-9.15-1.46-.13,0,8.51,1.3,9.15,1.45h0ZM380.53,235a17,17,0,0,1,4.21.56h0A18.12,18.12,0,0,1,380.53,235Zm28.52,2.75a44,44,0,0,1-7.34-.36c0-.09,2-.05,7.34.35h0Zm53.84-6.08a17.72,17.72,0,0,1,4.12-.91h0A17.19,17.19,0,0,1,462.89,231.68Zm32.36-8.43h0l-9.83,3.47-2.87,1h0c-3.23.9-5.27,1.43-5.85,1.52l.1,0-.1,0c10.71-3,17.31-5.91,18.55-6l-.06,0Zm0,0h0Zm4.23-2.6,17.81-7.88-.38.18.39-.18c-8.26,3.76-14.78,6.83-17.82,7.88l.07,0Zm13.78-5Zm0,0Zm38.42-22.51a17.82,17.82,0,0,1,3.47-2.42l0,0,0,0A17.06,17.06,0,0,1,551.68,193.17Zm11.19-8.42h0l-3.45,2.8c-.12.09,6.63-5.42,6.29-5.13Zm16.19-15.28h0c1.78-1.76,6.33-6.34,8.29-8.44l-.27.29.28-.29c-6.61,7.09-9,9.25-9,9.17A4.58,4.58,0,0,1,579.06,169.47Zm1.79-1.2h0c-2.38,2.63-3.46,3.43-2.89,2.75A31.93,31.93,0,0,1,580.85,168.27Zm-19,16.54.6-.58h0l.26-.25-.25.25.4-.39-.41.39h0l-.6.58Zm3.79-2.67.52-.36.39-.25h0c-2.28,1.95-14.65,11.77-15.53,11.8h0C557.84,188.82,562.71,184.23,565.62,182.14Zm-18.38,14.33c-8.31,5.29-10.66,6.76-10.78,6.86a30.09,30.09,0,0,1,2.68-1.39h0a164.29,164.29,0,0,1-17,9.63,5.12,5.12,0,0,1-1.09.45c-.44,0,13.52-7.11,13.73-7.84-1.41.85-2.84,1.69-2.71,1.58-.12.06.53-.36,2.68-1.66,1.31-.6,11.27-6.89,12.48-7.65l-1.6,1C546.41,197,547,196.62,547.24,196.47Zm-8.36,5c-6,3.65-7.93,4.81-7.89,4.75s7.25-4.56,7.89-4.75h0Zm-7.8,4.43s1-.65,3.45-2.2c5.14-3.06,7-4.15,7.09-4.16C542,199.45,530.93,206.12,531.08,205.94Zm3.32-2.42.58-.34c.28-.14-6,3.67-5.67,3.49C529.18,206.74,530.4,206,534.4,203.52Zm-12.68,7.24c-.36.21-.49.3-.48.33s1.27-.43,1.26-.33-.93.65-4.86,2.69l.12-.07-.13.06c1-.57,1.43-.85,1.51-.92s-3,1.44-5.82,2.54h0c-2.31.95-4.38,1.81-4.25,1.7-.1,0,.92-.47,3.87-1.79a65.48,65.48,0,0,0,8.77-4.22l-.19.11ZM478.34,227h0q8.32-2.48,16.49-5.45a280.24,280.24,0,0,0,26.61-11.32l0,0,0,0h0c-27.31,13.61-57.7,23.71-92.94,25.5l.75-.06-.76.05C453,234.13,466.15,230.5,478.34,227Zm-35.26,8.14-.29,0,.29,0c-4.59.53-9.19.93-13.69,1.2a190.7,190.7,0,0,1-34.75-.76h-.11C414,237.37,427.32,236.7,443.08,235.13Zm-56.85-.58a85.38,85.38,0,0,1-8.65-1.17h0c-5.59-1.06-11.84-2.31-11.87-2.45s0,0,.06,0a194.19,194.19,0,0,0,19.15,3.37A6.25,6.25,0,0,1,386.23,234.55Zm-24.8-5.36c4.77,1.2,9.39,2.22,13.95,3.23h0c-23.92-4.46-51.48-13.63-76.62-29.18h0c22,12.74,38.91,19.29,53.81,23.58l.95.27C356.21,227.86,358.84,228.55,361.43,229.19Zm-59.2-22.26,3.14,1.92c.38.24-7-4.26-6.94-4.2ZM119.49,80.22h0l-.09-.07L113.17,76l1.71,1.15,4.61,3.11Zm4.74,1.66h0l-7.91-5.54.1-.14,7.92,5.54h0Zm42.5,31.94c-16.48-11.44-.64-.77,0,0Zm.3-.42c-5.67-3.93-7.52-5.25-7.47-5.26s7,4.76,7.47,5.26Zm8.26,5.07h0c-8.85-5.91-18.38-12.63-18-12.46s5.12,3.44,18,12.47Zm11.54,8.79c-15.15-10.21,1.71,1.16,0,0Zm0,0c-15.15-10.21,1.71,1.16,0,0Zm68.43,46.94-.7-.54h0c6.81,4.77,10.11,7.16,11.77,8.46l-.06-.05.06.05c-5.36-3.75-8.55-6-10.48-7.47Zm35.11,24.17c.2.32-2.28-1.27-5.46-3.37-3.65-2.43-8.22-5.55-10.7-7.28h0l.19-.28c5.27,3.69,10.51,7.42,16,10.92h0Zm-3.81-3h0c-5.76-4-7.59-5.23-7.52-5.2S286.08,194.9,286.56,195.36Zm-.09.13h0c-5.76-3.94-7.59-5.23-7.52-5.2S286,195,286.47,195.49Zm-13.24-9.34,1.27.95.09.06h0c-15.49-11-21.91-15.22-31.58-22.31l.15.1-.15-.11C255.23,173.4,268,182.32,273.23,186.15Zm-43-28.36c-8-5.55-10.55-7.38-10.42-7.33-.12-.16,7.55,5.12,10.42,7.33l-.07,0Zm-38.64-29h0l22.43,15.66,9.41,6.7c2.37,1.71,3.78,2.74,3.67,2.71h0c-10.59-7.5-35.68-24.79-35.59-25.09C191.56,128.74,191.58,128.74,191.64,128.77Zm-.83,1.18,7.92,5.54h0l-.1.14-7.91-5.55h0Zm-11-9.57-.06,0,.06,0-.18-.11c.14.19,7.13,5.16,7.87,5.74l0,0c.27.21-.67-.42-3.9-2.67h0c-.84-.67-3.25-2.4-7.86-5.6,0,0-3.27-2.17-4-2.79l0,0,0,0Zm-27.73-19.31,15.87,11C174.14,116.7,150.72,100.3,152.08,101.07ZM84.86,53.9l43.47,30.54-1.43-1,1.43,1L114.91,75l-4.49-3.15L101,65.21,84.86,53.9l.51.36ZM80.8,51.26l0,0,0,0c4.73,3.47,28.92,20.15,28.57,20.05,0,0-.31-.18-.92-.59l-5-3.51c-9.7-6.79-16.91-11.65-20.89-14.6C81.87,52.1,81.28,51.65,80.8,51.26Z"/><path class="cls-2" d="M533.33,203.25s0,0,0,0Z"/><path class="cls-2" d="M560.39,184.77c-.16.2,2.77-1.72,10.59-8.72C563.22,183,560.27,184.94,560.39,184.77Z"/><path class="cls-2" d="M562.49,181.65h0a71.54,71.54,0,0,0,6.66-5.63c3.37-2.91,7-6.37,10-9.44h0c-3,3.06-6.65,6.53-10,9.44A71.54,71.54,0,0,1,562.49,181.65Z"/><path class="cls-2" d="M601,148.3l-1,1.31.43-.58Z"/><path class="cls-2" d="M605.05,142.7c-.32.47-.68,1-1,1.48l.09-.12c.31-.42.6-.84.87-1.23Z"/><path class="cls-2" d="M513,215c-3,1.32-4,1.8-3.87,1.79s1.18-.58,3.87-1.78a64.4,64.4,0,0,0,8.58-4.12l.19-.11A65.48,65.48,0,0,1,513,215Z"/><path class="cls-2" d="M522.5,210.76c0-.1-1.19.4-1.26.33C521.25,211.19,522.46,210.68,522.5,210.76Z"/><path class="cls-2" d="M519.14,212.52c-.08.07-.54.35-1.51.92l.13-.06A15.79,15.79,0,0,0,519.14,212.52Z"/><path class="cls-2" d="M534.75,204.11c-2.15,1.3-2.8,1.72-2.68,1.66s.83-.53,2.68-1.66c1.06-.48,7.68-4.62,10.88-6.63l1.6-1C546,197.22,536.06,203.51,534.75,204.11Z"/><path class="cls-2" d="M534.79,204.18h0c-.21.73-14.17,7.84-13.73,7.84C521,211.83,534.74,204.83,534.79,204.18Z"/><path class="cls-2" d="M539.12,202h0a30.09,30.09,0,0,0-2.68,1.39C536.35,203.43,538.47,202.15,539.12,202Z"/><path class="cls-2" d="M565.62,182.14c-2.91,2.09-7.78,6.68-14.62,11.19h0C557.85,188.81,562.71,184.23,565.62,182.14Z"/><path class="cls-2" d="M566.53,181.53l-.39.25.39-.25Z"/><path class="cls-2" d="M517.29,212.76l-17.81,7.88.07,0,17.36-7.67Z"/><path class="cls-2" d="M555.12,190.78l0,0a17.82,17.82,0,0,0-3.47,2.42A19.16,19.16,0,0,1,555.12,190.78Z"/><path class="cls-2" d="M567.38,182.6l0,0c-.62.28-7.44,5.77-7.29,5.72C560.28,188.1,566.68,183,567.38,182.6Z"/><path class="cls-2" d="M588.25,162.93l.54-.58c-2,2.13-6.57,6.74-8.37,8.52h0C582.08,169.24,586.07,165.22,588.25,162.93Z"/><path class="cls-2" d="M604.12,143.16c.11-.1.15-.13.15-.09s0,0-.15.09c-7,9.22-8.6,11.68-18.84,22.64l.29-.31C595.55,154.8,597.23,152.3,604.12,143.16Z"/><path class="cls-2" d="M597.93,151.16l.15-.18c-2.49,2.81-8.74,10.16-8.38,9.78S595.49,153.92,597.93,151.16Z"/><polygon class="cls-2" points="124.33 81.74 124.33 81.74 116.41 76.2 116.31 76.34 116.41 76.2 124.33 81.74"/><path class="cls-2" d="M159.56,108.14c.08,0,7,4.76,7.47,5.26h0C166.6,112.9,159.64,108.13,159.56,108.14Z"/><path class="cls-2" d="M103.44,67.21l5,3.51h0Q105.85,68.88,103.44,67.21Z"/><path class="cls-2" d="M80.8,51.26c.48.39,1.07.84,1.75,1.35-.67-.5-1.25-.94-1.73-1.33Z"/><path class="cls-2" d="M109.37,71.31s-.32-.19-.92-.59C109.06,71.13,109.35,71.31,109.37,71.31Z"/><path class="cls-2" d="M191.56,128.75c-.09.3,25,17.59,35.59,25.09h0C216.59,146.36,191.65,129.18,191.56,128.75Z"/><path class="cls-2" d="M157.26,106c.25.11,5.13,3.45,18,12.47h0C162.38,109.44,157.51,106.11,157.26,106Z"/><path class="cls-2" d="M243,164.86c9.67,7.09,16.09,11.34,31.58,22.31l-.1-.07C259.16,176.24,252.74,172,243.17,165Z"/><path class="cls-2" d="M266.27,182.06c-5.33-3.72-8.5-6-10.42-7.42,1.93,1.43,5.12,3.72,10.48,7.47Z"/><path class="cls-2" d="M230.28,157.79l-.07,0c-7.64-5.31-10.29-7.2-10.35-7.28S222.3,152.24,230.28,157.79Z"/><polygon class="cls-2" points="190.72 130.09 190.72 130.09 198.63 135.64 198.73 135.5 198.73 135.49 198.63 135.63 190.72 130.09"/><path class="cls-2" d="M186.83,127.26Z"/><path class="cls-2" d="M187.5,126l0,0Z"/><path class="cls-2" d="M175.77,117.76s-3.19-2.12-4-2.76l0,0c.71.62,4,2.79,4,2.79,4.61,3.2,7,4.93,7.86,5.6h0C182.79,122.7,180.38,121,175.77,117.76Z"/><path class="cls-2" d="M179.63,120.28l.18.11-.06,0Z"/><path class="cls-2" d="M284.91,195c3.18,2.1,5.66,3.69,5.46,3.37h0C290.52,198.66,288.06,197.09,284.91,195Z"/><path class="cls-2" d="M561.48,183Z"/><path class="cls-2" d="M530.17,204.72a5.23,5.23,0,0,1-.69.35A5.23,5.23,0,0,0,530.17,204.72Z"/><path class="cls-2" d="M543.93,196.08c-4.8,3.22-9.88,6.44-14.32,8.84h0C534.05,202.52,539.13,199.3,543.93,196.08Z"/><path class="cls-2" d="M561.74,183.36c-.5.4-7.18,5.46-15.23,11C554.4,188.92,561,184,561.69,183.4Z"/><path class="cls-2" d="M286.56,195.36c-.48-.46-7.57-5.28-7.52-5.2s7,4.7,7.51,5.19Z"/><path class="cls-2" d="M286.46,195.49h0c-.49-.46-7.57-5.28-7.52-5.2S285.92,195,286.46,195.49Z"/><path class="cls-2" d="M384.67,236.07c-.64-.15-9.28-1.49-9.15-1.45s8.49,1.3,9.15,1.45Z"/><path class="cls-2" d="M384.7,235.57h0a17,17,0,0,0-4.21-.56A17.67,17.67,0,0,1,384.7,235.57Z"/><path class="cls-2" d="M302.23,206.93l3.14,1.92-3.14-1.92-3.8-2.28Z"/><path class="cls-2" d="M342.44,224.22c4,1.19,8.77,2.88,13.67,4.26l.24.07h0c-5-1.4-9.88-3.12-13.92-4.34l-8.23-3a4.06,4.06,0,0,0-.58-.19,5.09,5.09,0,0,1,.59.2Z"/><path class="cls-2" d="M298.76,203.24h0c22,12.74,38.9,19.28,53.79,23.57C337.67,222.53,320.73,216,298.76,203.24Z"/><path class="cls-2" d="M353.52,227.09c2.69.77,5.32,1.46,7.91,2.1C358.84,228.55,356.21,227.86,353.52,227.09Z"/><path class="cls-2" d="M495.25,223.24c-1.24.1-7.84,3-18.55,6l.1,0c10.52-2.94,17.05-5.82,18.39-6Z"/><path class="cls-2" d="M485.42,226.72l-2.87,1Z"/><path class="cls-2" d="M467,230.77a17.72,17.72,0,0,0-4.12.91,18.92,18.92,0,0,1,4.08-.9Z"/><path class="cls-2" d="M442.79,235.16l.29,0c-15.76,1.57-29.12,2.24-48.55.44h.11C413.89,237.36,427.19,236.7,442.79,235.16Z"/><path class="cls-2" d="M394.64,235.58h0a190.7,190.7,0,0,0,34.75.76A190.7,190.7,0,0,1,394.64,235.58Z"/><path class="cls-2" d="M394.64,235.58h0Z"/><path class="cls-2" d="M409,237.75h.05c-5.36-.4-7.37-.44-7.34-.35A57.57,57.57,0,0,1,409,237.75Z"/><path class="cls-2" d="M365.71,230.94h.06a190.83,190.83,0,0,0,19.15,3.38,7,7,0,0,1,1.31.24,6.25,6.25,0,0,0-1.31-.25,194.19,194.19,0,0,1-19.15-3.37C365.71,230.93,365.7,230.93,365.71,230.94Z"/><path class="cls-2" d="M379.58,235.41c-4.4-.69-8.17-1.25,5.07.84h0C371.42,234.16,375.18,234.72,379.58,235.41Z"/><path class="cls-2" d="M531,206.26c.07-.11,7.21-4.53,7.88-4.75h0C538.24,201.7,530.94,206.23,531,206.26Z"/><path class="cls-2" d="M580.84,168.27h0A31.93,31.93,0,0,0,578,171,32.72,32.72,0,0,1,580.84,168.27Z"/><path class="cls-2" d="M428.51,235.73c35.24-1.79,65.63-11.89,92.94-25.5h0l0,0c-27.11,13.51-57.25,23.54-92.16,25.43Z"/><path class="cls-2" d="M494.83,221.54q-8.16,3-16.49,5.45h0Q486.67,224.52,494.83,221.54Z"/><path class="cls-2" d="M534.53,203.74c-2.48,1.55-3.44,2.16-3.45,2.2s1-.68,3.45-2.2c5.06-3,7-4.11,7.09-4.16C541.55,199.59,539.67,200.68,534.53,203.74Z"/><path class="cls-2" d="M562.86,184.75l-3.45,2.8,3.45-2.8h0l2.83-2.33-2.83,2.33Z"/><path class="cls-2" d="M578.34,170.2c0,.08,2.41-2.08,9-9.17l-.28.29C580.7,168.15,578.35,170.28,578.34,170.2Z"/><path class="cls-2" d="M562.44,184.23l.25-.25.15-.14Z"/><path class="cls-2" d="M562.69,184l.15-.14Z"/><path class="cls-2" d="M555.89,187.59l5.59-4.56Z"/><polygon class="cls-2" points="561.48 183.03 561.48 183.03 561.48 183.03 561.48 183.03 561.48 183.03"/><path class="cls-2" d="M534.41,203.52l.57-.34-.58.34c-4,2.46-5.22,3.22-5.09,3.15Z"/><path class="cls-2" d="M110.42,71.86,101,65.21Z"/><path class="cls-2" d="M101,65.21,85.37,54.26l-.51-.36Z"/><path class="cls-2" d="M128.33,84.44l-1.43-1-12-8.43Z"/><path class="cls-2" d="M561.83,184.81Z"/><path class="cls-2" d="M561.83,184.81l.6-.58Z"/><path class="cls-2" d="M119.49,80.23h0l-.09-.07Z"/><path class="cls-2" d="M113.17,76l1.71,1.15Z"/><polygon class="cls-2" points="598.11 150.95 598.1 150.95 598.08 150.98 598.11 150.95"/><path class="cls-2" d="M606.69,140.32c.19-.29-.22.29-1.64,2.38.09-.14.19-.27.28-.4C606.13,141.12,606.55,140.51,606.69,140.32Z"/><path class="cls-2" d="M513.26,215.68Z"/><path class="cls-2" d="M604,144.19l-3,4.11.12-.16,2.88-3.9Z"/><path class="cls-3" d="M639.76,97.29h0a8,8,0,1,0-6.47,9.24h0a8,8,0,0,0,6.46-9.23Z"/><path class="cls-3" d="M658.16,67.74a8,8,0,0,0-15.7,2.77h0a8,8,0,0,0,15.7-2.77Z"/></g></g></svg>