<svg xmlns="http://www.w3.org/2000/svg" width="227" height="58.172" viewBox="0 0 227 58.172">
  <g id="Group_4345" data-name="Group 4345" transform="translate(1947 -2014)">
    <g id="Group_3043" data-name="Group 3043" transform="translate(-1759.55 2014)">
      <circle id="Ellipse_64" data-name="Ellipse 64" cx="2.876" cy="2.876" r="2.876" transform="translate(0)" fill="#fa5c36"/>
      <circle id="Ellipse_65" data-name="Ellipse 65" cx="2.876" cy="2.876" r="2.876" transform="translate(10.722)" fill="#fa5c36"/>
    </g>
    <path id="Path_604" data-name="Path 604" d="M-1558.058,1191.944h0a29.075,29.075,0,0,1-5.087-.45,31.863,31.863,0,0,1-4.887-1.3,44.639,44.639,0,0,1-4.488-1.9,37.773,37.773,0,0,1-3.989-2.251,35.246,35.246,0,0,1-3.292-2.451,27.126,27.126,0,0,1-2.393-2.4,16.807,16.807,0,0,1-5.435-2.5,19.89,19.89,0,0,1-4.239-4.2,19.831,19.831,0,0,1-2.743-5.3,16.167,16.167,0,0,1-1-5.7,18.522,18.522,0,0,1,.6-4.752,18.531,18.531,0,0,1,1.9-4.3,16.968,16.968,0,0,1,2.892-3.651,17.3,17.3,0,0,1,3.79-2.8,19.988,19.988,0,0,1,4.538-1.8,19.3,19.3,0,0,1,5.137-.65,19.032,19.032,0,0,1,5.136.65,19.081,19.081,0,0,1,4.538,1.8,17.586,17.586,0,0,1,3.84,2.8,18.625,18.625,0,0,1,2.892,3.651,18.324,18.324,0,0,1,1.846,4.3,16.562,16.562,0,0,1,.649,4.752,15.431,15.431,0,0,1-.5,4,17.674,17.674,0,0,1-1.346,3.852,19.311,19.311,0,0,1-2.194,3.452,18.291,18.291,0,0,1-2.892,3,20.411,20.411,0,0,1-3.441,2.251,17.449,17.449,0,0,1-3.939,1.35,10.8,10.8,0,0,0,1.895,3.451,15.979,15.979,0,0,0,3.241,3.1,19.393,19.393,0,0,0,4.139,2.251,14.268,14.268,0,0,0,4.838.851Zm-18.7-11.8h0a13.39,13.39,0,0,0,5.236-1.6,11.7,11.7,0,0,0,3.89-3.451,16.27,16.27,0,0,0,2.344-5.052,24.329,24.329,0,0,0,.8-6.552,24.85,24.85,0,0,0-.8-6.553,16.857,16.857,0,0,0-2.344-5.152,11.715,11.715,0,0,0-3.84-3.352,11.282,11.282,0,0,0-5.286-1.2,11.5,11.5,0,0,0-5.336,1.2,11.727,11.727,0,0,0-3.839,3.352,16.862,16.862,0,0,0-2.343,5.152,27.128,27.128,0,0,0-.749,6.553,28.4,28.4,0,0,0,.749,6.7,18.053,18.053,0,0,0,2.343,5.253,10.987,10.987,0,0,0,3.839,3.451A10.93,10.93,0,0,0-1576.758,1180.14Z" transform="translate(-327.306 880.227)" fill="#fa5c36"/>
    <g id="Group_3042" data-name="Group 3042" transform="translate(-1947 2026.155)">
      <path id="Path_605" data-name="Path 605" d="M-1649.3,1148.314h19.6v3.351h-16.207v10.754h16.057v3.351h-16.057v13.5h16.057v3.351H-1649.3Z" transform="translate(1649.3 -1147.464)" fill="#fff"/>
      <path id="Path_606" data-name="Path 606" d="M-1499.675,1148.314h3.39v20.708a40.013,40.013,0,0,0,.152,4.6,8.313,8.313,0,0,0,1.2,3.4,7.492,7.492,0,0,0,2.838,2.3,9.231,9.231,0,0,0,3.895.9,8.287,8.287,0,0,0,3.29-.7,7.859,7.859,0,0,0,2.593-2,8.8,8.8,0,0,0,1.542-3.151,27.985,27.985,0,0,0,.353-5.352v-20.708h3.39v20.708a25.53,25.53,0,0,1-.9,7.453,9.985,9.985,0,0,1-3.589,4.9,10.1,10.1,0,0,1-6.481,2.1,12.538,12.538,0,0,1-7.086-1.951,9.842,9.842,0,0,1-3.988-5.252,29.4,29.4,0,0,1-.6-7.253Z" transform="translate(1566.796 -1147.464)" fill="#fff"/>
      <path id="Path_607" data-name="Path 607" d="M-1420.084,1148.314h0l15.959,34.313h-3.689l-5.384-11.3h-14.763l-5.337,11.3h-3.789l16.159-34.313Zm-.446,7.3h0l-5.889,12.4h11.719Z" transform="translate(1532.285 -1147.464)" fill="#fff"/>
      <path id="Path_608" data-name="Path 608" d="M-1351.829,1182.627h0v-34.313h.751l22.786,26.31v-26.31h3.39v34.313h-.8l-22.586-26.009v26.009Z" transform="translate(1485.273 -1147.464)" fill="#fff"/>
      <path id="Path_609" data-name="Path 609" d="M-1280.794,1151.665h0v-3.351h18.751v3.351h-7.631v30.962h-3.49v-30.962Z" transform="translate(1446.104 -1147.464)" fill="#fff"/>
      <path id="Path_610" data-name="Path 610" d="M-1229.1,1148.314h3.39v34.313h-3.39Z" transform="translate(1417.598 -1147.464)" fill="#fff"/>
      <path id="Path_611" data-name="Path 611" d="M-1205.093,1148.314h3.39v34.313h-3.39Z" transform="translate(1404.362 -1147.464)" fill="#fff"/>
      <path id="Path_612" data-name="Path 612" d="M-1187.861,1175.18h0l2.892-1.751c2.047,3.8,4.387,5.7,7.086,5.7a7.214,7.214,0,0,0,3.237-.8,5.735,5.735,0,0,0,2.293-2.2,5.337,5.337,0,0,0,.8-2.851,6.2,6.2,0,0,0-1.143-3.4,29.614,29.614,0,0,0-5.883-5.5,31,31,0,0,1-5.337-4.651,8.8,8.8,0,0,1-1.795-5.252,8.229,8.229,0,0,1,1.044-4.1,7.76,7.76,0,0,1,3.044-2.9,8.726,8.726,0,0,1,4.241-1.051,8.868,8.868,0,0,1,4.487,1.2,15.849,15.849,0,0,1,4.487,4.4l-2.792,2.15a13.3,13.3,0,0,0-3.29-3.4,5.725,5.725,0,0,0-2.991-.8,4.669,4.669,0,0,0-3.4,1.25,4.214,4.214,0,0,0-1.3,3.1,5.371,5.371,0,0,0,.452,2.151,8.657,8.657,0,0,0,1.695,2.3c.445.45,1.948,1.551,4.44,3.4a24.634,24.634,0,0,1,6.082,5.9,9.388,9.388,0,0,1,1.649,5.152,8.8,8.8,0,0,1-2.8,6.453,9.463,9.463,0,0,1-6.88,2.75,10.213,10.213,0,0,1-5.683-1.65A14.963,14.963,0,0,1-1187.861,1175.18Z" transform="translate(1394.86 -1146.419)" fill="#fff"/>
    </g>
  </g>
</svg>
