<svg xmlns="http://www.w3.org/2000/svg" viewBox="0 0 593.9 534.01"><defs><style>.cls-1{fill:#99ffcd;}</style></defs><g id="Layer_2" data-name="Layer 2"><g id="Layer_1-2" data-name="Layer 1"><path class="cls-1" d="M8.8,89A229.41,229.41,0,0,0,0,152.36a220.57,220.57,0,0,0,13.73,75.83,263.67,263.67,0,0,0,38,69.85,255,255,0,0,0,58.43,55.7,214.26,214.26,0,0,0,74.63,33.4,258.64,258.64,0,0,0,32.91,31.68A420.5,420.5,0,0,0,263,451.36a552.54,552.54,0,0,0,54.74,30.16,529.78,529.78,0,0,0,62,25,467.25,467.25,0,0,0,67.07,17.39,399.82,399.82,0,0,0,69.5,6.12V518a190.52,190.52,0,0,1-66-11.58,241,241,0,0,1-57.4-29.46,217.68,217.68,0,0,1-44.17-41.23c-12.31-15.5-21.12-30.67-26.39-46a218.25,218.25,0,0,0,54.39-18.05,243.77,243.77,0,0,0,47.53-30,257.33,257.33,0,0,0,39.59-39.18,264.58,264.58,0,0,0,29.92-46.18,263.5,263.5,0,0,0,19-50.77,220.55,220.55,0,0,0,6.69-53.16,223.23,223.23,0,0,0-9-63.38,228.1,228.1,0,0,0-25.52-56.91A239.68,239.68,0,0,0,460.87,0H386.8q19.86,27.72,30.31,65.3c7.4,26.42,11.28,55.37,11.28,87.07,0,31.88-3.88,61-11.28,86.9s-18.31,48.39-32.56,67.13a167,167,0,0,1-53.15,45.66Q300,369.16,259.6,373.5c-27.8,0-52.26-5.45-73.39-16.51a150.06,150.06,0,0,1-52.8-46q-21.12-29.64-32-70c-7.21-27.08-10.74-56.73-10.74-88.6q0-47.5,10.74-87.07c6.86-25.12,16.92-46.84,30-65.31h-73A246.08,246.08,0,0,0,34.32,32.06,228.24,228.24,0,0,0,8.8,89Z"/><path class="cls-1" d="M544.76,514.11a9.18,9.18,0,0,0-7.13,2.94,9,9,0,0,0-3,7.08,8.63,8.63,0,0,0,3,6.93,9.18,9.18,0,0,0,7.13,2.94,9.54,9.54,0,0,0,7.28-2.94,9.3,9.3,0,0,0,3-6.93,10.18,10.18,0,0,0-10.3-10Z"/><path class="cls-1" d="M590.82,517.05a9.44,9.44,0,0,0-7.24-2.94,9.81,9.81,0,0,0-7.43,2.94,9.61,9.61,0,0,0-3.08,7.08,9.2,9.2,0,0,0,3.08,6.93,9.81,9.81,0,0,0,7.43,2.94,9.41,9.41,0,0,0,7.24-2.94,8.66,8.66,0,0,0,3.08-6.93A8.92,8.92,0,0,0,590.82,517.05Z"/></g></g></svg>