<?xml version="1.0" standalone="no"?>
<!DOCTYPE svg PUBLIC "-//W3C//DTD SVG 1.1//EN" "http://www.w3.org/Graphics/SVG/1.1/DTD/svg11.dtd">
<svg xmlns="http://www.w3.org/2000/svg"><metadata>This SVG WebFont was generated by YouWorkForThem.
Copyright Â© 2018 by Piotr _apa. All rights reserved.</metadata><defs><font horiz-adv-x="1331" id="ywftsvg"><font-face ascent="1577" bbox="-866 -528 2617 1960" cap-height="1434" descent="-471" font-family="" font-stretch="normal" font-weight="600" panose-1="0 0 7 0 0 0 0 0 0 0" underline-position="0" underline-thickness="0" unicode-range="U+0020-FB02" units-per-em="2048" x-height="1030"/><missing-glyph d="M840 -471h-650v2048h650v-2048zM344 1440v-68h133v-76h-135v-67h340v67h-135v76h135v68h-338zM342 1176v-213h340v69h-135v144h-205zM477 1032h-67v74h67v-74zM342 907v-67h135v-76h-135v-68h205v144h135v67h-340zM614 784v-135h-272v-69h340v204h-68zM477 535v-115h70 v47h67v-96h-204v164h-68v-232h340v232h-205zM342 180v-231h340v231h-340zM614 16h-204v97h204v-97zM342 -98v-68h143l-143 -96v-68h340v68h-209l143 96h66v68h-340z" horiz-adv-x="1024"/><glyph d="M1112 96l133 -80v-16h-532v16l133 80v834l-96 55h-304v-889l185 -80v-16h-584v16l133 80v889h-157v45h157v14q0 414 459 414q152 0 358 -37l-20 -293h-16l-193 271q-57 14 -109 14q-92 0 -152.5 -61.5t-60.5 -188.5v-133h666v-934z" glyph-name="uniFB01" horiz-adv-x="1273" unicode="fi"/><glyph d="M1106 96l133 -80v-16h-532v16l133 80v1198q-23 51 -77 85t-122 34q-84 0 -139.5 -55t-55.5 -170v-158h291v-45h-291v-889l185 -80v-16h-584v16l133 80v889h-157v45h157v35q0 393 426 393q106 0 205 -24h295v-1338z" glyph-name="uniFB02" horiz-adv-x="1267" unicode="fl"/><glyph d="M1206 1458q111 0 283 -28l-12 -306h-17l-186 285q-33 4 -43 4q-125 0 -125 -188v-195h324v-45h-324v-889l184 -80v-16h-583v16l133 80v889h-394v-889l185 -80v-16h-584v16l133 80v889h-157v45h157v6q0 401 434 402q160 0 316 -74q94 94 276 94zM840 1030v74v31l2 149 q-61 109 -197 109q-90 0 -144.5 -56.5t-54.5 -171.5v-135h394z" glyph-name="f_f.liga" horiz-adv-x="1376" unicode="ff"/><glyph d="M1772 96l133 -80v-16h-533v16l133 80v834l-96 55h-303v-889l184 -80v-16h-583v16l133 80v889h-394v-889l185 -80v-16h-584v16l133 80v889h-157v45h157v6q0 401 434 402q178 0 338 -86q115 106 346 106q156 0 359 -37l-21 -293h-16l-190 271q-57 14 -109 14 q-92 0 -153.5 -61.5t-61.5 -188.5v-133h666v-934zM840 1030v14v5l2 235q-61 109 -197 109q-90 0 -144.5 -56.5t-54.5 -171.5v-135h394z" glyph-name="f_f_i.liga" horiz-adv-x="1933" unicode="ffi"/><glyph d="M1767 96l134 -80v-16h-533v16l133 80v1198q-25 51 -78 85t-120 34q-84 0 -140.5 -55t-56.5 -170v-158h291v-45h-291v-889l184 -80v-16h-583v16l133 80v889h-394v-889l185 -80v-16h-584v16l133 80v889h-157v45h157v6q0 401 434 402q168 0 330 -80q106 100 322 100 q106 0 204 -24h297v-1338zM840 1030v35v20l2 199q-61 109 -197 109q-90 0 -144.5 -56.5t-54.5 -171.5v-135h394z" glyph-name="f_f_l.liga" horiz-adv-x="1929" unicode="ffl"/><glyph d="M840 -471h-650v2048h650v-2048zM344 1440v-68h133v-76h-135v-67h340v67h-135v76h135v68h-338zM342 1176v-213h340v69h-135v144h-205zM477 1032h-67v74h67v-74zM342 907v-67h135v-76h-135v-68h205v144h135v67h-340zM614 784v-135h-272v-69h340v204h-68zM477 535v-115h70 v47h67v-96h-204v164h-68v-232h340v232h-205zM342 180v-231h340v231h-340zM614 16h-204v97h204v-97zM342 -98v-68h143l-143 -96v-68h340v68h-209l143 96h66v68h-340z" glyph-name=".notdef" horiz-adv-x="1024"/><glyph glyph-name="glyph1" horiz-adv-x="0"/><glyph glyph-name="glyph2" horiz-adv-x="681"/><glyph glyph-name="space" horiz-adv-x="518" unicode=" "/><glyph d="M152 1434h321v-17l-125 -946h-72l-124 946v17zM311 315l178 -174l-178 -176l-176 176z" glyph-name="exclam" horiz-adv-x="622" unicode="!"/><glyph d="M92 1434h246v-17l-113 -497h-20l-113 497v17zM416 1434h246v-17l-113 -497h-21l-112 497v17z" glyph-name="quotedbl" horiz-adv-x="753" unicode="&quot;"/><glyph d="M1208 909h-239l-99 -454h252l-8 -49h-254l-88 -406h-53l88 406h-432l-88 -406h-54l89 406h-244l10 49h244l98 454h-256l8 49h258l92 424h54l-92 -424h432l92 424h53l-92 -424h238zM817 455l98 454h-432l-98 -454h432z" glyph-name="numbersign" horiz-adv-x="1292" unicode="#"/><glyph d="M1200 432q0 -205 -151.5 -325.5t-380.5 -133.5v-229h-50v227q-188 0 -501 74v438h20l266 -428q111 -35 211 -35h4v596l-172 60q-336 115 -335 399q0 182 143 284.5t358 102.5h6v228h50v-228q154 -6 430 -63v-379h-21l-270 366q-68 20 -139 27v-518l166 -55 q366 -121 366 -408zM537 938l81 -27v504h-2q-123 0 -203.5 -66.5t-80.5 -170.5q0 -168 205 -240zM668 23q135 14 214 94t79 192q0 102 -56.5 165t-179.5 106l-57 20v-577z" glyph-name="dollar" horiz-adv-x="1275" unicode="$"/><glyph d="M485 606q-174 0 -273 114t-99 312.5t99 312t273 113.5t273.5 -113.5t99.5 -312t-99.5 -312.5t-273.5 -114zM1366 1434h59l-903 -1434h-61zM485.5 647q153.5 0 153.5 385t-153.5 385t-153.5 -385t153.5 -385zM1401 -25q-174 0 -273.5 114t-99.5 312.5t99.5 312 t273.5 113.5t273.5 -113.5t99.5 -312t-99.5 -312.5t-273.5 -114zM1400.5 16q153.5 0 153.5 385t-153.5 385t-153.5 -385t153.5 -385z" glyph-name="percent" horiz-adv-x="1886" unicode="%"/><glyph d="M1188 408l381 -392v-16h-340l-189 193q-174 -219 -452 -220q-223 0 -356.5 111t-133.5 293q0 156 95.5 260t265.5 154q-152 170 -152 337q0 158 112.5 244t301.5 86q164 0 383 -57l-25 -363h-16l-221 348q-53 20 -105 21q-78 0 -128 -55.5t-50 -145.5q0 -84 37 -156.5 t127 -164.5l426 -436q61 121 90 229l-137 131v16h428v-16l-246 -139q-41 -147 -96 -262zM686 76q182 0 315 157l-491 504q-160 -96 -160 -317q0 -152 98.5 -248t237.5 -96z" glyph-name="ampersand" horiz-adv-x="1589" unicode="&amp;"/><glyph d="M92 1434h246v-17l-113 -497h-20l-113 497v17z" glyph-name="quotesingle" horiz-adv-x="430" unicode="'"/><glyph d="M666 1516q-160 -129 -229.5 -316.5t-69.5 -476.5v-195q0 -291 69.5 -478t229.5 -316l-21 -31q-532 313 -532 922q0 625 532 921z" glyph-name="parenleft" horiz-adv-x="710" unicode="("/><glyph d="M47 1516l21 30q530 -297 530 -921q0 -608 -530 -922l-21 31q160 129 229.5 317.5t69.5 476.5v195q0 289 -69.5 476.5t-229.5 316.5z" glyph-name="parenright" horiz-adv-x="710" unicode=")"/><glyph d="M702 1235l-286 -88l286 -88l-79 -141l-220 202l66 -291h-162l66 293l-219 -204l-82 141l288 88l-288 88l82 141l219 -205l-66 293h162l-66 -293l220 205z" glyph-name="asterisk" horiz-adv-x="774" unicode="*"/><glyph d="M1024 700v-49h-414v-415h-53v415h-414v49h414v416h53v-416h414z" glyph-name="plus" horiz-adv-x="1167" unicode="+"/><glyph d="M109 141l172 174l77 -82q84 -84 84 -176t-79.5 -175t-243.5 -191l-13 16q133 125 134 234q0 66 -76 143z" glyph-name="comma" horiz-adv-x="561" unicode=","/><glyph d="M129 643h727v-49h-727v49z" glyph-name="hyphen" horiz-adv-x="983" unicode="-"/><glyph d="M281 317l178 -176l-178 -178l-179 178z" glyph-name="period" horiz-adv-x="561" unicode="."/><glyph d="M879 1618h55l-811 -1804h-55z" glyph-name="slash" horiz-adv-x="999" unicode="/"/><glyph d="M680 -27q-276 0 -437 191.5t-161 552t160.5 552t437.5 191.5q274 0 435 -191.5t161 -552t-161 -552t-435 -191.5zM680 20q303 0 303 696.5t-303 696.5t-303 -696.5t303 -696.5z" glyph-name="zero" horiz-adv-x="1357" unicode="0"/><glyph d="M82 1296l465 177h16v-1360l215 -97v-16h-696v16l215 97v1140l-215 27v16z" glyph-name="one" horiz-adv-x="829" unicode="1"/><glyph d="M61 0l7 84q16 264 417 586q172 141 242 246.5t72 226.5q0 127 -64.5 200.5t-175.5 73.5q-80 0 -156 -24l-239 -373h-17l-16 381q242 61 459 61q231 0 363 -92t132 -274q0 -168 -130 -288t-367 -237q-332 -176 -432 -348h782l154 193h16l-47 -416h-1000z" glyph-name="two" horiz-adv-x="1185" unicode="2"/><glyph d="M117 1405q266 57 458 57q227 0 356.5 -82t129.5 -223q0 -260 -440 -344l2 -14q219 12 366.5 -90.5t147.5 -292.5q0 -209 -150.5 -327t-417.5 -118q-197 0 -452 62l-35 383h16l291 -373q80 -27 150 -27q133 0 220 99.5t87 275.5t-94.5 267.5t-231.5 91.5q-63 0 -139 -23 l-14 41q203 53 308 143t105 252q0 125 -68.5 189.5t-172.5 64.5q-80 0 -160 -24l-229 -363h-17z" glyph-name="three" horiz-adv-x="1208" unicode="3"/><glyph d="M1188 424h-213v-311l194 -97v-16h-655v16l195 97v311h-674v45l538 965h369v-17q-289 -369 -813 -948h580v293h266v-293h213v-45z" glyph-name="four" horiz-adv-x="1224" unicode="4"/><glyph d="M604.5 899q231.5 0 375.5 -110.5t144 -327.5q0 -223 -150.5 -356.5t-416.5 -133.5q-186 0 -428 62l-31 379h17l278 -371q74 -25 144 -25q133 0 215 108.5t82 293.5q0 190 -102.5 287.5t-276.5 97.5q-160 0 -301 -80l-17 10l39 701h758l108 28h17l-33 -243h-811l-27 -420 q185 100 416.5 100z" glyph-name="five" horiz-adv-x="1198" unicode="5"/><glyph d="M754 872q203 0 338 -103t135 -306q0 -215 -150.5 -353.5t-404.5 -138.5q-270 0 -430 191.5t-160 535.5q0 369 180 566.5t459 197.5q195 0 397 -55l-12 -377h-16l-244 369q-55 18 -113 18q-156 0 -257 -170t-105 -532q147 157 383 157zM672 16q123 0 196.5 106.5 t73.5 301.5q0 180 -78 270t-223 90q-152 0 -270 -129q2 -332 85 -485.5t216 -153.5z" glyph-name="six" horiz-adv-x="1298" unicode="6"/><glyph d="M66 1034l-5 400h1016v-31q0 -90 -37 -195l-460 -1208h-334v16q268 502 749 1203h-798l-115 -185h-16z" glyph-name="seven" horiz-adv-x="1118" unicode="7"/><glyph d="M891 797q160 -78 236.5 -170t76.5 -211q0 -207 -158.5 -326t-418.5 -119q-242 0 -395.5 99.5t-153.5 283.5q0 287 371 379l-35 19q-262 131 -262 356q0 168 137 262t358 94q213 0 346 -85t133 -242q0 -221 -307 -306zM379 1196q0 -86 49 -143.5t166 -112.5l168 -80 q147 94 147 277q0 131 -76.5 206.5t-199.5 75.5q-115 0 -184.5 -61.5t-69.5 -161.5zM641 16q154 0 242 80t88 207q0 94 -58.5 160.5t-189.5 132.5l-219 111q-201 -113 -201 -342q0 -156 94 -252.5t244 -96.5z" glyph-name="eight" horiz-adv-x="1273" unicode="8"/><glyph d="M616 1460q266 0 423 -186.5t157 -532.5q0 -383 -172 -576.5t-438 -193.5q-162 0 -400 60l-34 383h16l297 -375q57 -23 108 -23q147 0 240.5 174.5t93.5 546.5q-133 -162 -372 -162q-197 0 -330 108t-133 318q0 203 147 331t397 128zM649 662q160 0 258 139 q-14 614 -299 614q-117 0 -187.5 -101.5t-70.5 -293.5q0 -176 81 -267t218 -91z" glyph-name="nine" horiz-adv-x="1277" unicode="9"/><glyph d="M281 1065l178 -176l-178 -176l-179 176zM281 317l178 -176l-178 -178l-179 178z" glyph-name="colon" horiz-adv-x="561" unicode=":"/><glyph d="M285 1065l178 -176l-178 -176l-179 176zM109 141l170 174l79 -82q84 -84 84 -176t-79.5 -174t-243.5 -192l-15 16q133 125 134 234q0 68 -74 143z" glyph-name="semicolon" horiz-adv-x="561" unicode=";"/><glyph d="M113 662v28l880 422v-57l-796 -379l796 -379v-57z" glyph-name="less" horiz-adv-x="1167" unicode="&lt;"/><glyph d="M143 893h881v-49h-881v49zM143 506h881v-49h-881v49z" glyph-name="equal" horiz-adv-x="1167" unicode="="/><glyph d="M1055 662l-881 -422v57l799 379l-799 379v57l881 -422v-28z" glyph-name="greater" horiz-adv-x="1167" unicode=">"/><glyph d="M92 1397q219 61 430 61q213 0 339 -88t126 -248q0 -76 -33.5 -139t-92 -111.5t-118 -85t-129 -78.5t-106.5 -73l-10 -172h-54l-96 180q29 29 112 101.5t125 115.5t82 124t40 169q0 121 -63.5 190.5t-154.5 69.5q-72 0 -137 -20l-219 -363h-18zM469 315l178 -174 l-178 -176l-176 176z" glyph-name="question" horiz-adv-x="1038" unicode="?"/><glyph d="M1497 973l-94 -658q-12 -92 17.5 -143t95.5 -51q154 0 260 142.5t106 412.5q0 291 -217 499.5t-573 208.5q-391 0 -658.5 -255t-267.5 -654q0 -362 225 -588.5t588 -226.5q336 0 541 166l30 -41q-221 -174 -573 -174q-385 0 -624.5 241.5t-239.5 622.5q0 420 281.5 689.5 t695.5 269.5q381 0 613 -222.5t232 -536t-140 -472t-376 -158.5q-121 0 -192.5 66.5t-73.5 177.5q-150 -244 -338 -244q-125 0 -200.5 97.5t-75.5 269.5q0 250 151.5 417.5t405.5 167.5q92 0 218 -12t183 -12zM924 172q115 0 237 207l76 532q-47 41 -115 41 q-141 0 -231 -159.5t-90 -386.5q0 -109 32 -171.5t91 -62.5z" glyph-name="at" horiz-adv-x="2048" unicode="@"/><glyph d="M1337 119l148 -99v-20h-606v20l170 91l-162 407h-545l-131 -344l246 -154v-20h-477v20l180 160l424 1110l-56 121v23h287zM360 567h508l-258 656z" glyph-name="A" horiz-adv-x="1464" unicode="A"/><glyph d="M958 752q201 -10 325 -94.5t124 -251.5q0 -193 -144.5 -299.5t-404.5 -106.5h-797v20l164 93v1208l-164 92v21h775q231 0 363 -89.5t132 -242.5q0 -147 -101.5 -232.5t-271.5 -101.5v-16zM737 1384h-229v-614h227q311 0 312 313q0 145 -83.5 223t-226.5 78zM741 49 q178 0 271.5 88t93.5 254t-99.5 248t-273.5 82h-225v-672h233z" glyph-name="B" horiz-adv-x="1488" unicode="B"/><glyph d="M1303 999l-250 379q-100 37 -197 37q-184 0 -318.5 -174t-136.5 -485q0 -184 38 -329.5t102.5 -231.5t143.5 -130.5t167 -44.5q109 0 195 43l317 420h20l-63 -438q-260 -74 -487 -74q-334 0 -539 198t-205 548t208 547.5t533 197.5q242 0 492 -63v-400h-20z" glyph-name="C" horiz-adv-x="1470" unicode="C"/><glyph d="M770 1434q334 0 538.5 -184.5t204.5 -512.5q0 -346 -192.5 -541.5t-521.5 -195.5h-738v20l164 93v1208l-164 92v21h709zM733 49q473 0 473 660q0 340 -129 507.5t-368 167.5h-201v-1335h225z" glyph-name="D" horiz-adv-x="1603" unicode="D"/><glyph d="M1317 449h20l-51 -449h-1225v20l164 93v1208l-164 92v21h1201v-396h-21l-254 346h-479v-616h219l229 123h21v-295h-21l-229 123h-219v-670h510z" glyph-name="E" horiz-adv-x="1419" unicode="E"/><glyph d="M1241 1434v-394h-20l-254 344h-459v-651h252l229 123h21v-295h-21l-229 123h-252v-571l194 -93v-20h-641v20l164 93v1208l-164 92v21h1180z" glyph-name="F" horiz-adv-x="1308" unicode="F"/><glyph d="M90 707q0 182 61.5 328.5t167 238.5t241.5 140t290 48q215 0 514 -63v-400h-21l-262 379q-119 37 -209 37q-188 0 -330.5 -172t-142.5 -491q0 -354 131.5 -543t335.5 -189q129 0 242 62v463h-307v49h737v-21l-147 -92v-413q-281 -96 -553 -97q-334 0 -541 200t-207 536z " glyph-name="G" horiz-adv-x="1554" unicode="G"/><glyph d="M1458 1321v-1208l164 -93v-20h-610v20l164 93v598h-668v-598l164 -93v-20h-611v20l164 93v1208l-164 92v21h611v-21l-164 -92v-561h668v561l-164 92v21h610v-21z" glyph-name="H" horiz-adv-x="1683" unicode="H"/><glyph d="M508 1321v-1208l164 -93v-20h-611v20l164 93v1208l-164 92v21h611v-21z" glyph-name="I" horiz-adv-x="733" unicode="I"/><glyph d="M543 1434h641v-21l-164 -92v-897q0 -225 -125 -339t-363 -114q-199 0 -444 70l-20 438h20l266 -432q76 -27 144 -27q240 0 239 316v985l-194 92v21z" glyph-name="J" horiz-adv-x="1208" unicode="J"/><glyph d="M1397 121l147 -101v-20h-586v20l123 86l-432 607l-141 -135v-465l164 -93v-20h-611v20l164 93v1208l-164 92v21h611v-21l-164 -92v-672l651 625l-219 139v21h553v-21l-279 -158l-370 -356z" glyph-name="K" horiz-adv-x="1533" unicode="K"/><glyph d="M1262 469h20l-59 -469h-1162v20l164 93v1208l-164 92v21h611v-21l-164 -92v-1272h432z" glyph-name="L" horiz-adv-x="1333" unicode="L"/><glyph d="M1612 113l164 -93v-20h-611v20l164 93v1147l-493 -1020h-21l-541 1017v-1081l263 -156v-20h-490v20l174 158v1141l-174 94v21h442l451 -856l414 856h422v-21l-164 -94v-1206z" glyph-name="M" horiz-adv-x="1837" unicode="M"/><glyph d="M1024 1434h477v-21l-174 -156v-1257h-203l-850 1305v-1129l250 -156v-20h-477v20l174 158v1141l-174 94v21h463l764 -1168v994l-250 153v21z" glyph-name="N" horiz-adv-x="1531" unicode="N"/><glyph d="M827 -29q-342 0 -539.5 200t-197.5 546t197.5 545.5t539.5 199.5t540 -199.5t198 -545.5t-198 -546t-540 -200zM827.5 20q194.5 0 309 175.5t114.5 521.5t-114.5 522t-309 176t-309.5 -176t-115 -522t115 -521.5t309.5 -175.5z" glyph-name="O" horiz-adv-x="1654" unicode="O"/><glyph d="M819 1434q258 0 405.5 -112t147.5 -321q0 -219 -150.5 -339.5t-406.5 -120.5h-307v-428l194 -93v-20h-641v20l164 93v1208l-164 92v21h758zM741 590q156 0 246 102.5t90 300.5q0 184 -97 287.5t-247 103.5h-225v-794h233z" glyph-name="P" horiz-adv-x="1433" unicode="P"/><glyph d="M897 -43l717 -147v-15l-240 -164l-655 346q-295 33 -462 228.5t-167 511.5q0 346 197.5 545.5t539.5 199.5t540 -199.5t198 -545.5q0 -328 -178.5 -524.5t-489.5 -219.5v-16zM403 717q0 -346 115 -521.5t309.5 -175.5t309 175.5t114.5 521.5t-114.5 522t-309 176 t-309.5 -176t-115 -522z" glyph-name="Q" horiz-adv-x="1654" unicode="Q"/><glyph d="M1395 119l94 -96v-23h-338l-377 655h-266v-542l164 -93v-20h-611v20l164 93v1208l-164 92v21h768q246 0 381.5 -93.5t135.5 -279.5q0 -182 -137.5 -283.5t-340.5 -105.5v-17q121 -66 269 -102zM748 705q147 0 228 89t81 255q0 164 -86 249.5t-232 85.5h-231v-679h240z " glyph-name="R" horiz-adv-x="1523" unicode="R"/><glyph d="M117 45v438h20l266 -428q111 -35 211 -35q158 0 252.5 82t94.5 207q0 102 -56.5 165t-179.5 106l-279 96q-336 115 -335 399q0 182 143 284.5t358 102.5q193 0 486 -63v-379h-21l-270 366q-98 29 -191 29q-123 0 -203.5 -66.5t-80.5 -170.5q0 -168 205 -240l297 -98 q367 -121 366 -408q0 -215 -167 -338t-412 -123q-191 0 -504 74z" glyph-name="S" horiz-adv-x="1275" unicode="S"/><glyph d="M1350 1434l20 -420h-20l-238 370h-254v-1271l184 -93v-20h-651v20l184 93v1271h-256l-237 -370h-21l21 420h1268z" glyph-name="T" horiz-adv-x="1431" unicode="T"/><glyph d="M1049 1434h477v-21l-174 -156l-2 -749q0 -252 -145.5 -394.5t-422.5 -142.5q-274 0 -422.5 143.5t-148.5 391.5v815l-164 92v21h610v-21l-163 -92v-817q0 -190 107.5 -311t293.5 -121t293.5 120.5t107.5 311.5l2 756l-249 153v21z" glyph-name="U" horiz-adv-x="1550" unicode="U"/><glyph d="M993 1434h477v-21l-174 -160l-481 -1253h-147l-535 1317l-149 96v21h606v-21l-164 -92l430 -1077l389 1018l-252 151v21z" glyph-name="V" horiz-adv-x="1456" unicode="V"/><glyph d="M1702 1434h477v-21l-174 -156l-442 -1257h-140l-333 928l-332 -928h-140l-485 1317l-149 96v21h602v-21l-164 -92l379 -1049l260 732l-123 344l-102 65v21h546v-21l-149 -84l371 -1053l350 990l-252 147v21z" glyph-name="W" horiz-adv-x="2162" unicode="W"/><glyph d="M1343 121l164 -101v-20h-622v20l137 93l-365 522l-368 -463l231 -152v-20h-510v20l223 164l394 494l-447 639l-162 96v21h619v-21l-137 -90l334 -477l337 424l-241 143v21h516v-21l-219 -156l-363 -454z" glyph-name="X" horiz-adv-x="1501" unicode="X"/><glyph d="M952 1434h475v-21l-174 -160l-393 -673v-467l184 -93v-20h-651v20l185 93v432l-445 772l-149 96v21h624v-21l-164 -92l390 -690l368 637l-250 145v21z" glyph-name="Y" horiz-adv-x="1413" unicode="Y"/><glyph d="M1280 471h20l-59 -471h-1165v49l862 1335h-508l-254 -378h-20v428h1099v-50l-862 -1335h576z" glyph-name="Z" horiz-adv-x="1363" unicode="Z"/><glyph d="M184 -276v1802h504v-45h-276v-1712h276v-45h-504z" glyph-name="bracketleft" horiz-adv-x="749" unicode="["/><glyph d="M123 1618l811 -1804h-55l-811 1804h55z" glyph-name="backslash" horiz-adv-x="999" unicode="\"/><glyph d="M565 -276h-504v45h277v1712h-277v45h504v-1802z" glyph-name="bracketright" horiz-adv-x="749" unicode="]"/><glyph d="M98 817l367 645h92l367 -645l-17 -12l-397 442l-395 -442z" glyph-name="asciicircum" horiz-adv-x="1019" unicode="^"/><glyph d="M37 -160h1096v-49h-1096v49z" glyph-name="underscore" horiz-adv-x="1167" unicode="_"/><glyph d="M526 1495l133 -332h-20l-420 312v20h307z" glyph-name="grave" horiz-adv-x="880" unicode="`"/><glyph d="M1006 100l133 -84v-16h-348l-48 168q-127 -193 -333 -193q-137 0 -234.5 68t-97.5 221q0 119 86 191.5t223 105.5q250 61 352 88v156q0 205 -164 205q-61 0 -126 -23l-252 -325h-17l-14 342q260 51 450 51q195 0 292.5 -84t97.5 -219v-652zM526 90q117 0 213 133v387 q-152 -45 -211 -65q-182 -66 -182 -246q0 -96 50 -152.5t130 -56.5z" glyph-name="a" horiz-adv-x="1157" unicode="a"/><glyph d="M733 1055q182 0 304 -132t122 -391q0 -266 -157.5 -411.5t-385 -145.5t-469.5 82v1276l-145 84v17h412v-547q114 168 319 168zM604 20q272 0 273 482q0 217 -71 324.5t-190 107.5q-125 0 -202 -98v-709q65 -107 190 -107z" glyph-name="b" horiz-adv-x="1224" unicode="b"/><glyph d="M950 647l-231 340q-57 23 -107 23q-106 0 -187 -121t-81 -340q0 -217 93 -335t233 -118q209 0 325 211l39 -18q-121 -311 -456 -314q-227 -2 -373 146.5t-146 392.5q0 252 153 396.5t386 144.5q156 0 383 -49l-14 -359h-17z" glyph-name="c" horiz-adv-x="1073" unicode="c"/><glyph d="M1075 100l133 -84v-16h-348l-43 156q-115 -180 -323 -181q-180 0 -305.5 133.5t-125.5 389.5q0 264 142.5 410.5t335.5 146.5q172 0 268 -107v385l-145 84v17h411v-1334zM610 92q121 0 199 113v688q-74 84 -186 84q-123 0 -200 -109.5t-77 -341.5q0 -221 71.5 -327.5 t192.5 -106.5z" glyph-name="d" horiz-adv-x="1236" unicode="d"/><glyph d="M1022 317l39 -18q-127 -324 -475 -324q-229 0 -378 146.5t-149 380.5q0 258 148.5 405.5t380.5 147.5q217 0 343 -120t126 -335v-63h-713q2 -209 93 -323t239 -114q221 0 346 217zM590 1010q-106 0 -174 -109.5t-72 -318.5h447v43q-2 199 -51.5 292t-149.5 93z" glyph-name="e" horiz-adv-x="1116" unicode="e"/><glyph d="M547 1458q111 0 282 -28l-14 -306h-16l-185 285q-33 4 -43 4q-125 0 -125 -188v-195h322v-45h-322v-889l185 -80v-16h-584v16l133 80v889h-157v45h157v74q0 178 96.5 266t270.5 88z" glyph-name="f" horiz-adv-x="716" unicode="f"/><glyph d="M786 193q369 -4 369 -248q0 -164 -176 -261.5t-436 -97.5q-516 0 -516 226q0 72 57 123t160 73q-160 66 -160 232l231 157q-201 96 -200 301q0 164 126 260.5t328 96.5q135 0 234 -43l311 172h16l13 -183v-16l-283 -2q164 -98 164 -285q0 -162 -126 -258t-329 -96 q-109 0 -207 33l-100 -78q0 -104 182 -104zM569.5 1010q-188.5 0 -188.5 -311.5t188.5 -311.5t188.5 311.5t-188.5 311.5zM571 -371q162 0 273.5 63.5t111.5 153.5q0 121 -153 123l-340 2q-84 0 -154 17q-92 -45 -92 -150q0 -96 89 -152.5t265 -56.5z" glyph-name="g" horiz-adv-x="1169" unicode="g"/><glyph d="M1126 96l134 -80v-16h-533v16l133 80v609q0 225 -184 225q-141 0 -242 -117v-717l133 -80v-16h-532v16l133 80v1237l-145 84v17h411v-566q145 186 367 187q158 0 241.5 -86t83.5 -246v-627z" glyph-name="h" horiz-adv-x="1277" unicode="h"/><glyph d="M475 1337l-174 -170l-170 170l170 170zM444 96l134 -80v-16h-533v16l133 80v834l-145 84v16h411v-934z" glyph-name="i" horiz-adv-x="606" unicode="i"/><glyph d="M469 1337l-174 -170l-170 170l170 170zM27 1014v16h411v-983q0 -190 -131 -325.5t-278 -135.5q-41 0 -78 6v46q14 -2 33 -3q94 0 141 55.5t47 184.5v1055z" glyph-name="j" horiz-adv-x="589" unicode="j"/><glyph d="M1098 100l143 -84v-16h-381l-330 524l-96 -82v-346l133 -80v-16h-532v16l133 80v1237l-145 84v17h411v-930l430 368l-145 142v16h457v-16l-265 -164l-188 -162z" glyph-name="k" horiz-adv-x="1220" unicode="k"/><glyph d="M434 96l133 -80v-16h-532v16l133 80v1237l-145 84v17h411v-1338z" glyph-name="l" horiz-adv-x="595" unicode="l"/><glyph d="M1782 96l133 -80v-16h-533v16l134 80v615q0 219 -185 219q-129 0 -225 -127q6 -35 6 -72v-635l133 -80v-16h-532v16l133 80v613q0 221 -178 221q-125 0 -224 -125v-709l134 -80v-16h-533v16l133 80v834l-145 84v16h360l47 -170q137 195 348 195q121 0 200 -55.5 t108 -151.5q137 207 360 207q158 0 242 -83t84 -237v-639z" glyph-name="m" horiz-adv-x="1933" unicode="m"/><glyph d="M1145 96l133 -80v-16h-533v16l134 80v609q0 225 -183 225q-150 0 -252 -129v-705l134 -80v-16h-533v16l133 80v834l-145 84v16h360l49 -176q147 201 379 201q158 0 241 -86t83 -246v-627z" glyph-name="n" horiz-adv-x="1296" unicode="n"/><glyph d="M602 -25q-246 0 -395.5 144.5t-149.5 396.5t149.5 395.5t395.5 143.5t396.5 -143.5t150.5 -395.5t-150.5 -396.5t-396.5 -144.5zM602 20q252 0 252 496q0 494 -252 494t-252 -494q0 -496 252 -496z" glyph-name="o" horiz-adv-x="1204" unicode="o"/><glyph d="M743 1055q180 0 305.5 -132t125.5 -388q0 -264 -142.5 -412t-335.5 -148q-168 0 -268 107v-375l184 -80v-16h-583v16l133 80v1223l-146 84v16h361l43 -153q112 178 323 178zM614 53q123 0 200 109.5t77 341.5q0 223 -71.5 328.5t-192.5 105.5q-123 0 -199 -111v-688 q73 -86 186 -86z" glyph-name="p" horiz-adv-x="1236" unicode="p"/><glyph d="M1077 -293l133 -80v-16h-583v16l184 80v436q-115 -168 -319 -168q-182 0 -304 132.5t-122 390.5q0 266 157.5 411.5t385 145.5t468.5 -82v-1266zM608 96q125 0 203 99v708q-66 106 -190 107q-272 0 -273 -482q0 -217 70.5 -324.5t189.5 -107.5z" glyph-name="q" horiz-adv-x="1218" unicode="q"/><glyph d="M717 1047q70 0 143 -17l-10 -328h-16l-199 242q-117 -33 -191 -166v-682l185 -80v-16h-584v16l133 80v834l-145 84v16h360l51 -184q107 201 273 201z" glyph-name="r" horiz-adv-x="911" unicode="r"/><glyph d="M840 682l-230 309q-78 20 -135 21q-78 0 -131 -43t-53 -115q0 -106 141 -154l221 -73q139 -45 208 -116t69 -189q0 -160 -128 -253.5t-308 -93.5q-160 0 -402 62l6 362h17l237 -356q68 -25 137 -25q100 0 161 52.5t61 138.5q0 125 -150 178l-223 78q-250 88 -250 297 q0 137 109.5 215t277.5 78q164 0 393 -51l-12 -322h-16z" glyph-name="s" horiz-adv-x="991" unicode="s"/><glyph d="M735 985h-309v-723q0 -172 119 -172q88 0 151 107l39 -21q-96 -201 -305 -201q-129 0 -199.5 69t-70.5 185v756h-154v41l137 39l269 250h14v-285h309v-45z" glyph-name="t" horiz-adv-x="735" unicode="t"/><glyph d="M1094 100l133 -84v-16h-348l-48 172q-139 -197 -346 -197q-162 0 -247.5 87.5t-85.5 246.5v621l-146 84v16h412v-702q0 -227 180 -228q135 0 229 127v703l-145 84v16h412v-930z" glyph-name="u" horiz-adv-x="1255" unicode="u"/><glyph d="M727 1030h397v-16l-137 -152l-356 -862h-144l-409 926l-109 88v16h525v-16l-134 -84l308 -713l270 653l-211 144v16z" glyph-name="v" horiz-adv-x="1089" unicode="v"/><glyph d="M1346 1030h397v-16l-137 -152l-336 -862h-140l-266 631l-256 -631h-137l-393 926l-109 88v16h523v-16l-134 -84l289 -705l189 473l-109 258l-70 58v16h478v-16l-119 -74l291 -711l249 641l-210 144v16z" glyph-name="w" horiz-adv-x="1708" unicode="w"/><glyph d="M1012 102l121 -86v-16h-558v16l125 86l-233 332l-229 -289l168 -129v-16h-400v16l178 144l254 315l-317 451l-121 88v16h551v-16l-123 -84l221 -314l217 271l-168 127v16h400v-16l-178 -140l-240 -301z" glyph-name="x" horiz-adv-x="1116" unicode="x"/><glyph d="M737 1030h398v-16l-140 -154l-411 -1003q-66 -158 -130.5 -214.5t-156.5 -56.5q-41 0 -102 21v176h307l47 117l-471 1026l-109 88v16h527v-16l-134 -84l318 -713l268 653l-211 144v16z" glyph-name="y" horiz-adv-x="1097" unicode="y"/><glyph d="M57 0v45l609 940h-330l-219 -321h-17v366h863v-45l-609 -940h359l229 352h16v-397h-901z" glyph-name="z" horiz-adv-x="1032" unicode="z"/><glyph d="M668 1495q-100 0 -143.5 -62.5t-32.5 -193.5l24 -336q16 -264 -260 -270v-17q276 -6 260 -270l-24 -336q-8 -131 33.5 -193.5t142.5 -62.5h86v-41h-166q-164 0 -253 73t-79 226l27 375q6 115 -55.5 169t-155.5 54v29q94 0 155.5 55.5t55.5 167.5l-27 375 q-10 154 79 226.5t253 72.5h166v-41h-86z" glyph-name="braceleft" horiz-adv-x="804" unicode="{"/><glyph d="M205 -328v1915h53v-1915h-53z" glyph-name="bar" horiz-adv-x="462" unicode="|"/><glyph d="M524 862q-8 -113 53.5 -168t155.5 -55v-29q-94 0 -155.5 -54t-53.5 -169l25 -375q12 -154 -78 -226.5t-254 -72.5h-166v41h86q102 0 143.5 61.5t32.5 194.5l-22 336q-10 127 55.5 197.5t204.5 72.5v17q-139 2 -204.5 72.5t-55.5 197.5l22 336q10 131 -31.5 193.5 t-144.5 62.5h-86v41h166q164 0 254 -72.5t78 -226.5z" glyph-name="braceright" horiz-adv-x="804" unicode="}"/><glyph d="M154 545l-21 6q33 121 95.5 198.5t144.5 77.5q66 0 244 -66.5t243 -66.5q57 0 87 23.5t69 95.5l18 -6q-31 -123 -92 -200t-145 -77q-68 0 -243 67t-241 67q-55 0 -86.5 -23.5t-72.5 -95.5z" glyph-name="asciitilde" horiz-adv-x="1167" unicode="~"/><glyph d="M313 729l-178 174l178 176l174 -176zM473 -389h-321v16l124 946h72l125 -946v-16z" glyph-name="exclamdown" horiz-adv-x="622" unicode="¡"/><glyph d="M1034 408q-113 -291 -411 -312v-207h-45v205q-227 -2 -373 146.5t-146 392.5q0 246 146.5 390t372.5 151v204h45v-204q139 -2 358 -50l-14 -358h-17l-231 340q-53 20 -96 22v-909q33 -4 47 -4q209 0 325 211zM344 668q0 -178 64.5 -291t169.5 -148v895 q-98 -20 -166 -137.5t-68 -318.5z" glyph-name="cent" horiz-adv-x="1073" unicode="¢"/><glyph d="M1182 455h20l-57 -455h-1043v49q133 0 252 99.5t119 232.5q0 117 -108 256h-263v45h226q-119 135 -152 201q-47 88 -47 184q0 188 142.5 291.5t383.5 103.5q199 0 445 -65v-373h-21l-248 365q-74 25 -149 24q-111 0 -178.5 -73.5t-67.5 -217.5q0 -76 30 -147.5t82 -157.5 t73 -135h311v-45h-293q25 -78 25 -148q0 -162 -113 -275.5t-270 -164.5h591z" glyph-name="sterling" horiz-adv-x="1277" unicode="£"/><glyph d="M973 717q0 -137 -88 -236l213 -211l-35 -34l-211 213q-100 -84 -236 -84q-139 0 -235 86l-213 -215l-35 34l215 211q-88 98 -88 235.5t88 235.5l-215 211l35 37l213 -215q96 84 235 84q135 0 236 -84l211 215l35 -37l-213 -211q88 -98 88 -235zM616 412q131 -2 219.5 86 t86.5 219q-4 131 -90.5 218t-215.5 87q-133 0 -220 -87t-85 -218q0 -131 88 -218t217 -87z" glyph-name="currency" horiz-adv-x="1230" unicode="¤"/><glyph d="M952 1434h475v-21l-174 -160l-376 -647h317v-45h-334v-170h334v-45h-334v-233l184 -93v-20h-651v20l185 93v233h-359v45h359v154l-11 16h-348v45h324l-410 711l-149 96v21h624v-21l-164 -92l390 -690l368 637l-250 145v21z" glyph-name="yen" horiz-adv-x="1413" unicode="¥"/><glyph d="M205 788v799h53v-799h-53zM205 -328v799h53v-799h-53z" glyph-name="brokenbar" horiz-adv-x="462" unicode="¦"/><glyph d="M770 354q92 -51 140 -115.5t48 -166.5q0 -154 -119.5 -248t-279.5 -94q-156 0 -373 57l21 342h16l203 -334q68 -23 129 -22q90 0 149.5 51t59.5 131q0 70 -35 115t-119 88l-262 133q-119 61 -179 131t-60 176q0 188 231 293q-172 104 -172 274q0 137 103.5 215t260.5 78 q164 0 353 -51l-19 -295h-16l-211 287q-59 16 -107 16q-80 0 -131 -44t-51 -111q0 -59 34 -98.5t120 -80.5l276 -131q129 -59 182.5 -124.5t53.5 -168.5q0 -201 -246 -303zM451 514l260 -129l12 -6q104 66 104 156q0 66 -35.5 109.5t-121.5 84.5l-258 123l-27 12 q-106 -70 -106 -159q0 -63 38 -102.5t134 -88.5z" glyph-name="section" horiz-adv-x="1112" unicode="§"/><glyph d="M242 1487l155 -152l-155 -155l-156 155zM639 1487l156 -152l-156 -155l-154 155z" glyph-name="dieresis" horiz-adv-x="880" unicode="¨"/><glyph d="M797 31q-293 0 -494 198.5t-201 489.5t201 487.5t494 196.5t492.5 -196.5t199.5 -487.5t-199.5 -489.5t-492.5 -198.5zM797 78q272 0 456.5 184t184.5 456.5t-184.5 455t-456.5 182.5q-270 0 -456.5 -183.5t-186.5 -453.5t186.5 -455.5t456.5 -185.5zM1077 813l-162 252 q-29 12 -69 12q-76 0 -133.5 -88t-57.5 -246q0 -156 65.5 -240.5t164.5 -84.5q154 0 237 147l33 -16q-94 -231 -340 -232q-168 -2 -275.5 109t-107.5 289q0 186 113.5 293.5t288.5 107.5q119 0 278 -41l-18 -262h-17z" glyph-name="copyright" horiz-adv-x="1591" unicode="©"/><glyph d="M682 842l84 -49v-15h-229l-31 99q-80 -115 -207 -115q-88 0 -149.5 43t-61.5 143q0 141 197 191q174 43 215 53v98q0 127 -97 127q-41 0 -79 -12l-152 -207h-12l-17 219q156 33 289 33q125 0 187.5 -53.5t62.5 -141.5v-413zM373 840q70 0 127 75v244q-80 -20 -125 -37 q-109 -43 -109 -153q0 -59 30 -94t77 -35z" glyph-name="ordfeminine" horiz-adv-x="817" unicode="ª"/><glyph d="M565 186l-16 -12l-416 399l416 400l16 -10l-200 -390zM915 186l-14 -12l-416 399l416 400l14 -10l-200 -390z" glyph-name="guillemotleft" horiz-adv-x="1048" unicode="«"/><glyph d="M102 819v49h922v-522h-53v473h-869z" glyph-name="logicalnot" horiz-adv-x="1167" unicode="¬"/><glyph d="M542.5 1462q194.5 0 326.5 -131t132 -325.5t-132 -326.5t-326.5 -132t-327.5 133t-133 326q0 195 133 325.5t327.5 130.5zM543 592q174 0 291.5 118.5t117.5 295t-117.5 294t-291.5 117.5t-293 -118.5t-119 -292.5q0 -176 119 -295t293 -119zM604 983q37 -14 84 -18 l96 -168v-15l-92 6h-37l-100 195h-61v-152l51 -28v-15h-219v15l51 28v363l-51 29v14h247q178 0 179 -121q0 -55 -39 -88t-109 -39v-6zM541 1016q41 0 64.5 25.5t23.5 70.5q0 43 -23.5 67.5t-64.5 24.5h-47v-188h47z" glyph-name="registered" horiz-adv-x="1083" unicode="®"/><glyph d="M113 1321h655v-49h-655v49z" glyph-name="macron" horiz-adv-x="880" unicode="¯"/><glyph d="M350 950q-117 0 -192.5 73t-75.5 183.5t75.5 183t192.5 72.5q113 0 186.5 -72.5t73.5 -183t-73.5 -183.5t-186.5 -73zM350 997q92 0 150.5 58.5t58.5 150.5t-58.5 150.5t-150.5 58.5q-96 0 -156.5 -58.5t-60.5 -150.5t60.5 -150.5t156.5 -58.5z" glyph-name="degree" horiz-adv-x="692" unicode="°"/><glyph d="M612 795h412v-50h-412v-370h-53v370h-416v50h416v370h53v-370zM143 199v49h881v-49h-881z" glyph-name="plusminus" horiz-adv-x="1167" unicode="±"/><glyph d="M53 922l4 49q14 147 252 344q90 76 124 132t36 128q0 68 -31.5 106.5t-85.5 38.5q-45 0 -94 -12l-137 -227h-17l-8 241q150 35 275 35q141 0 222 -53t81 -156q0 -96 -81 -164.5t-222 -134.5q-178 -88 -234 -174h447l84 109h16l-29 -262h-602z" glyph-name="uni00B2" horiz-adv-x="751" unicode="²"/><glyph d="M88 1724q154 33 277 33q135 0 213.5 -47t78.5 -127q0 -150 -266 -194l2 -11q133 8 223.5 -51t90.5 -168q0 -119 -91.5 -186.5t-255.5 -67.5q-115 0 -272 35l-20 240h16l168 -224q43 -14 88 -14q70 0 115 53.5t45 149.5q0 98 -48.5 148t-121.5 50q-45 0 -82 -12l-12 35 q113 31 170 81t57 140q0 63 -35 98t-86 35q-47 0 -98 -12l-129 -221h-17z" glyph-name="uni00B3" horiz-adv-x="768" unicode="³"/><glyph d="M354 1495h308v-20l-420 -312h-21z" glyph-name="acute" horiz-adv-x="880" unicode="´"/><glyph d="M645 1434h391v-21l-164 -92v-1567h-53v1630h-153v-1630h-54v830q-242 0 -381 118.5t-139 301.5q0 188 141.5 309t411.5 121z" glyph-name="paragraph" horiz-adv-x="1159" unicode="¶"/><glyph d="M281 795l178 -177l-178 -176l-179 176z" glyph-name="periodcentered" horiz-adv-x="561" unicode="·"/><glyph d="M371 -104q268 -2 268 -162q0 -78 -68.5 -123t-169.5 -45q-76 0 -155 37v69h10l78 -65q10 -4 28 -4q43 0 71 30.5t28 92.5q0 127 -154 131l-12 14l92 129h55z" glyph-name="cedilla" horiz-adv-x="880" unicode="¸"/><glyph d="M51 1655l352 104h15v-745l172 -76v-16h-539v16l172 76v596l-172 28v17z" glyph-name="uni00B9" horiz-adv-x="620" unicode="¹"/><glyph d="M413.5 762q-153.5 0 -249.5 94t-96 250t96 250t249.5 94t251 -94t97.5 -250t-97.5 -250t-251 -94zM413.5 795q149.5 0 149.5 311t-149.5 311t-149.5 -311t149.5 -311z" glyph-name="ordmasculine" horiz-adv-x="827" unicode="º"/><glyph d="M133 186l201 387l-201 390l17 10l415 -400l-415 -399zM485 186l201 387l-201 390l15 10l415 -400l-415 -399z" glyph-name="guillemotright" horiz-adv-x="1048" unicode="»"/><glyph d="M590 631v-17h-539v17l172 76v596l-172 28v17l352 104h15v-745zM1188 1434h59l-905 -1434h-59zM1638 242h-147v-156l141 -70v-16h-477v16l141 70v156h-366v37l307 540h254v-16q-174 -197 -506 -524h311v157h195v-157h147v-37z" glyph-name="onequarter" horiz-adv-x="1669" unicode="¼"/><glyph d="M51 1348l352 104h15v-745l172 -76v-17h-539v17l172 76v596l-172 28v17zM1188 1434h59l-905 -1434h-59zM963 0l4 49q14 147 252 344q90 76 123.5 132.5t35.5 127.5q0 68 -31.5 107t-84.5 39q-45 0 -95 -13l-137 -227h-16l-8 242q150 35 274 35q141 0 222 -53.5t81 -155.5 q0 -96 -81 -165t-222 -134q-178 -88 -233 -174h446l84 108h16l-28 -262h-602z" glyph-name="onehalf" horiz-adv-x="1660" unicode="½"/><glyph d="M707 852q0 -119 -91.5 -186.5t-255.5 -67.5q-115 0 -272 35l-20 239h16l168 -223q43 -14 88 -14q70 0 115 53t45 150q0 98 -48.5 148t-121.5 50q-45 0 -82 -12l-12 35q113 31 170 81t57 140q0 63 -35 98t-86 35q-47 0 -98 -12l-129 -221h-17l-10 237q154 33 277 33 q135 0 213.5 -47t78.5 -127q0 -150 -266 -195l2 -10q133 8 223.5 -51t90.5 -168zM1335 1434h60l-906 -1434h-59zM1786 242h-148v-156l142 -70v-16h-477v16l141 70v156h-367v37l307 540h254v-16q-174 -197 -505 -524h311v157h194v-157h148v-37z" glyph-name="threequarters" horiz-adv-x="1816" unicode="¾"/><glyph d="M571 727l-178 174l178 176l174 -176zM946 -354q-217 -61 -428 -62q-215 0 -341 88t-126 248q0 92 56.5 172t125 124t164 101.5t135.5 92.5l11 170h51l98 -181q-31 -31 -112.5 -101.5t-124.5 -114.5t-83 -125t-40 -169q0 -121 63.5 -190.5t153.5 -69.5q70 0 139 21 l219 364h19z" glyph-name="questiondown" horiz-adv-x="1003" unicode="¿"/><glyph d="M799 1569h-21l-420 311v21h308zM1337 119l148 -99v-20h-606v20l170 91l-162 407h-545l-131 -344l246 -154v-20h-477v20l180 160l424 1110l-56 121v23h287zM360 567h508l-258 656z" glyph-name="Agrave" horiz-adv-x="1464" unicode="À"/><glyph d="M1042 1880l-419 -311h-21l133 332h307v-21zM1337 119l148 -99v-20h-606v20l170 91l-162 407h-545l-131 -344l246 -154v-20h-477v20l180 160l424 1110l-56 121v23h287zM360 567h508l-258 656z" glyph-name="Aacute" horiz-adv-x="1464" unicode="Á"/><glyph d="M700 1726l-305 -167l-12 14l276 328h82l277 -328l-12 -14zM1337 119l148 -99v-20h-606v20l170 91l-162 407h-545l-131 -344l246 -154v-20h-477v20l180 160l424 1110l-56 121v23h287zM360 567h508l-258 656z" glyph-name="Acircumflex" horiz-adv-x="1464" unicode="Â"/><glyph d="M528 1708q-43 0 -70.5 -19.5t-58.5 -76.5l-26 10q27 113 79 176.5t115 63.5q47 0 158 -45t149 -45q43 0 70 19t57 77l27 -10q-25 -113 -78 -176.5t-116 -63.5q-49 0 -158 45t-148 45zM1337 119l148 -99v-20h-606v20l170 91l-162 407h-545l-131 -344l246 -154v-20h-477v20 l180 160l424 1110l-56 121v23h287zM360 567h508l-258 656z" glyph-name="Atilde" horiz-adv-x="1464" unicode="Ã"/><glyph d="M657 1741l-155 -156l-156 156l156 151zM1055 1741l-156 -156l-154 156l154 151zM1337 119l148 -99v-20h-606v20l170 91l-162 407h-545l-131 -344l246 -154v-20h-477v20l180 160l424 1110l-56 121v23h287zM360 567h508l-258 656z" glyph-name="Adieresis" horiz-adv-x="1464" unicode="Ä"/><glyph d="M700 1565q-100 0 -164.5 55t-64.5 143t64.5 142.5t165 54.5t166 -55.5t65.5 -141.5t-67 -142t-165 -56zM700.5 1931q-96.5 0 -96.5 -168q0 -170 96.5 -170t96.5 170q0 168 -96.5 168zM1337 119l148 -99v-20h-606v20l170 91l-162 407h-545l-131 -344l246 -154v-20h-477v20 l180 160l424 1110l-56 121v23h287zM360 567h508l-258 656z" glyph-name="Aring" horiz-adv-x="1464" unicode="Å"/><glyph d="M2052 449h21l-52 -449h-1204v20l164 93v407h-522l-236 -346l219 -154v-20h-483v20l207 160l788 1155l-137 78v21h1180v-396h-21l-254 346h-458v-616h198l230 123h20v-295h-20l-230 123h-198v-670h489zM494 569h487v717z" glyph-name="AE" horiz-adv-x="2154" unicode="Æ"/><glyph d="M834 -29h-9l-51 -75q268 -2 268 -162q0 -78 -68.5 -123t-168.5 -45q-76 0 -156 37v69h10l78 -65q10 -4 29 -4q43 0 70.5 30.5t27.5 92.5q0 127 -153 131l-13 14l74 102q-309 18 -495.5 214t-186.5 530q0 350 208 547.5t533 197.5q242 0 492 -63v-400h-20l-250 379 q-100 37 -197 37q-184 0 -318.5 -174t-136.5 -485q0 -184 38 -329.5t102.5 -231.5t143.5 -130.5t167 -44.5q109 0 195 43l317 420h20l-63 -438q-260 -74 -487 -74z" glyph-name="Ccedilla" horiz-adv-x="1470" unicode="Ç"/><glyph d="M807 1569h-21l-419 311v21h307zM1317 449h20l-51 -449h-1225v20l164 93v1208l-164 92v21h1201v-396h-21l-254 346h-479v-616h219l229 123h21v-295h-21l-229 123h-219v-670h510z" glyph-name="Egrave" horiz-adv-x="1419" unicode="È"/><glyph d="M1051 1880l-420 -311h-21l133 332h308v-21zM1317 449h20l-51 -449h-1225v20l164 93v1208l-164 92v21h1201v-396h-21l-254 346h-479v-616h219l229 123h21v-295h-21l-229 123h-219v-670h510z" glyph-name="Eacute" horiz-adv-x="1419" unicode="É"/><glyph d="M709 1726l-306 -167l-12 14l277 328h82l276 -328l-12 -14zM1317 449h20l-51 -449h-1225v20l164 93v1208l-164 92v21h1201v-396h-21l-254 346h-479v-616h219l229 123h21v-295h-21l-229 123h-219v-670h510z" glyph-name="Ecircumflex" horiz-adv-x="1419" unicode="Ê"/><glyph d="M666 1741l-156 -156l-156 156l156 151zM1063 1741l-156 -156l-153 156l153 151zM1317 449h20l-51 -449h-1225v20l164 93v1208l-164 92v21h1201v-396h-21l-254 346h-479v-616h219l229 123h21v-295h-21l-229 123h-219v-670h510z" glyph-name="Edieresis" horiz-adv-x="1419" unicode="Ë"/><glyph d="M465 1569h-21l-419 311v21h307zM508 1321v-1208l164 -93v-20h-611v20l164 93v1208l-164 92v21h611v-21z" glyph-name="Igrave" horiz-adv-x="733" unicode="Ì"/><glyph d="M401 1901h308v-21l-420 -311h-21zM61 1413v21h611v-21l-164 -92v-1208l164 -93v-20h-611v20l164 93v1208z" glyph-name="Iacute" horiz-adv-x="733" unicode="Í"/><glyph d="M408 1901l276 -328l-12 -14l-305 167l-306 -167l-12 14l277 328h82zM61 1413v21h611v-21l-164 -92v-1208l164 -93v-20h-611v20l164 93v1208z" glyph-name="Icircumflex" horiz-adv-x="733" unicode="Î"/><glyph d="M324 1741l-156 -156l-156 156l156 151zM721 1741l-156 -156l-153 156l153 151zM61 1413v21h611v-21l-164 -92v-1208l164 -93v-20h-611v20l164 93v1208z" glyph-name="Idieresis" horiz-adv-x="733" unicode="Ï"/><glyph d="M768 1434q334 0 538.5 -184.5t204.5 -512.5q0 -346 -192.5 -541.5t-521.5 -195.5h-738v20l164 93v602h-166v49h166v557l-164 92v21h709zM731 49q473 0 473 660q0 340 -129 507.5t-368 167.5h-201v-620h309v-49h-309v-666h225z" glyph-name="Eth" horiz-adv-x="1601" unicode="Ð"/><glyph d="M602 1708q-43 0 -70.5 -19.5t-58.5 -76.5l-27 10q27 113 79.5 176.5t115.5 63.5q47 0 157.5 -45t149.5 -45q43 0 69.5 19t57.5 77l27 -10q-25 -113 -78 -176.5t-117 -63.5q-49 0 -157.5 45t-147.5 45zM1024 1434h477v-21l-174 -156v-1257h-203l-850 1305v-1129l250 -156 v-20h-477v20l174 158v1141l-174 94v21h463l764 -1168v994l-250 153v21z" glyph-name="Ntilde" horiz-adv-x="1531" unicode="Ñ"/><glyph d="M793 1901l133 -332h-21l-420 311v21h308zM827 -29q-342 0 -539.5 200t-197.5 546t197.5 545.5t539.5 199.5t540 -199.5t198 -545.5t-198 -546t-540 -200zM827.5 20q194.5 0 309 175.5t114.5 521.5t-114.5 522t-309 176t-309.5 -176t-115 -522t115 -521.5t309.5 -175.5z " glyph-name="Ograve" horiz-adv-x="1654" unicode="Ò"/><glyph d="M862 1901h307v-21l-419 -311h-21zM827 -29q-342 0 -539.5 200t-197.5 546t197.5 545.5t539.5 199.5t540 -199.5t198 -545.5t-198 -546t-540 -200zM827.5 20q194.5 0 309 175.5t114.5 521.5t-114.5 522t-309 176t-309.5 -176t-115 -522t115 -521.5t309.5 -175.5z" glyph-name="Oacute" horiz-adv-x="1654" unicode="Ó"/><glyph d="M510 1573l276 328h82l277 -328l-12 -14l-306 167l-305 -167zM827 -29q-342 0 -539.5 200t-197.5 546t197.5 545.5t539.5 199.5t540 -199.5t198 -545.5t-198 -546t-540 -200zM827.5 20q194.5 0 309 175.5t114.5 521.5t-114.5 522t-309 176t-309.5 -176t-115 -522 t115 -521.5t309.5 -175.5z" glyph-name="Ocircumflex" horiz-adv-x="1654" unicode="Ô"/><glyph d="M526 1612l-26 10q27 113 79 176.5t115 63.5q47 0 158 -45t149 -45q43 0 70 19t57 77l27 -10q-25 -113 -78 -176.5t-116 -63.5q-49 0 -158 45t-148 45q-43 0 -70.5 -19.5t-58.5 -76.5zM827 -29q-342 0 -539.5 200t-197.5 546t197.5 545.5t539.5 199.5t540 -199.5 t198 -545.5t-198 -546t-540 -200zM827.5 20q194.5 0 309 175.5t114.5 521.5t-114.5 522t-309 176t-309.5 -176t-115 -522t115 -521.5t309.5 -175.5z" glyph-name="Otilde" horiz-adv-x="1654" unicode="Õ"/><glyph d="M629 1892l155 -151l-155 -156l-156 156zM1026 1892l156 -151l-156 -156l-154 156zM827 -29q-342 0 -539.5 200t-197.5 546t197.5 545.5t539.5 199.5t540 -199.5t198 -545.5t-198 -546t-540 -200zM827.5 20q194.5 0 309 175.5t114.5 521.5t-114.5 522t-309 176 t-309.5 -176t-115 -522t115 -521.5t309.5 -175.5z" glyph-name="Odieresis" horiz-adv-x="1654" unicode="Ö"/><glyph d="M952 1008l-331 -332l331 -332l-34 -37l-334 334l-332 -332l-35 37l330 330l-332 332l37 36l332 -331l331 331z" glyph-name="multiply" horiz-adv-x="1167" unicode="×"/><glyph d="M1176 1395q186 -84 287.5 -259t101.5 -419q0 -346 -198 -546t-540 -200q-162 0 -297 47l-71 -153l-47 22l71 152q-188 82 -290.5 257t-102.5 421q0 346 197.5 545.5t539.5 199.5q168 0 299 -49l74 156l47 -21zM403 717q0 -373 138 -555l538 1151q-100 102 -252 102 q-195 0 -309.5 -176t-114.5 -522zM827 20q195 0 309.5 175.5t114.5 521.5q0 373 -135 553l-538 -1149q102 -101 249 -101z" glyph-name="Oslash" horiz-adv-x="1654" unicode="Ø"/><glyph d="M942 1569h-20l-420 311v21h307zM1049 1434h477v-21l-174 -156l-2 -749q0 -252 -145.5 -394.5t-422.5 -142.5q-274 0 -422.5 143.5t-148.5 391.5v815l-164 92v21h610v-21l-163 -92v-817q0 -190 107.5 -311t293.5 -121t293.5 120.5t107.5 311.5l2 756l-249 153v21z" glyph-name="Ugrave" horiz-adv-x="1550" unicode="Ù"/><glyph d="M1186 1880l-420 -311h-21l134 332h307v-21zM1049 1434h477v-21l-174 -156l-2 -749q0 -252 -145.5 -394.5t-422.5 -142.5q-274 0 -422.5 143.5t-148.5 391.5v815l-164 92v21h610v-21l-163 -92v-817q0 -190 107.5 -311t293.5 -121t293.5 120.5t107.5 311.5l2 756l-249 153 v21z" glyph-name="Uacute" horiz-adv-x="1550" unicode="Ú"/><glyph d="M844 1726l-305 -167l-13 14l277 328h82l276 -328l-12 -14zM1049 1434h477v-21l-174 -156l-2 -749q0 -252 -145.5 -394.5t-422.5 -142.5q-274 0 -422.5 143.5t-148.5 391.5v815l-164 92v21h610v-21l-163 -92v-817q0 -190 107.5 -311t293.5 -121t293.5 120.5t107.5 311.5 l2 756l-249 153v21z" glyph-name="Ucircumflex" horiz-adv-x="1550" unicode="Û"/><glyph d="M801 1741l-156 -156l-156 156l156 151zM1198 1741l-156 -156l-153 156l153 151zM1049 1434h477v-21l-174 -156l-2 -749q0 -252 -145.5 -394.5t-422.5 -142.5q-274 0 -422.5 143.5t-148.5 391.5v815l-164 92v21h610v-21l-163 -92v-817q0 -190 107.5 -311t293.5 -121 t293.5 120.5t107.5 311.5l2 756l-249 153v21z" glyph-name="Udieresis" horiz-adv-x="1550" unicode="Ü"/><glyph d="M1102 1880l-420 -311h-20l133 332h307v-21zM952 1434h475v-21l-174 -160l-393 -673v-467l184 -93v-20h-651v20l185 93v432l-445 772l-149 96v21h624v-21l-164 -92l390 -690l368 637l-250 145v21z" glyph-name="Yacute" horiz-adv-x="1413" unicode="Ý"/><glyph d="M821 1196q258 0 405.5 -112.5t147.5 -319.5q0 -219 -150.5 -341t-406.5 -122h-309v-188l164 -93v-20h-611v20l164 93v1208l-164 92v21h611v-21l-164 -92v-125h313zM743 350q156 0 246 103.5t90 300.5q0 186 -97 289.5t-247 103.5h-227v-797h235z" glyph-name="Thorn" horiz-adv-x="1435" unicode="Þ"/><glyph d="M1069 694q125 -74 183.5 -152.5t58.5 -191.5q0 -172 -119 -273.5t-283 -101.5q-145 0 -340 56v190h17l207 -188q57 -14 96 -15q94 0 158.5 58.5t64.5 150.5q0 88 -45 146.5t-145 120.5l-336 204v174q178 57 252.5 134t74.5 196q0 117 -58 179.5t-167 62.5 q-115 0 -180.5 -82t-65.5 -238v-1124h-399v14l133 82v889h-153v45h153v8q0 451 512 451q195 0 320 -73t125 -208q0 -123 -95.5 -192.5t-287.5 -118.5v-14z" glyph-name="germandbls" horiz-adv-x="1353" unicode="ß"/><glyph d="M684 1163h-20l-420 312v20h307zM1006 100l133 -84v-16h-348l-48 168q-127 -193 -333 -193q-137 0 -234.5 68t-97.5 221q0 119 86 191.5t223 105.5q250 61 352 88v156q0 205 -164 205q-61 0 -126 -23l-252 -325h-17l-14 342q260 51 450 51q195 0 292.5 -84t97.5 -219v-652 zM526 90q117 0 213 133v387q-152 -45 -211 -65q-182 -66 -182 -246q0 -96 50 -152.5t130 -56.5z" glyph-name="agrave" horiz-adv-x="1157" unicode="à"/><glyph d="M928 1475l-420 -312h-21l134 332h307v-20zM1006 100l133 -84v-16h-348l-48 168q-127 -193 -333 -193q-137 0 -234.5 68t-97.5 221q0 119 86 191.5t223 105.5q250 61 352 88v156q0 205 -164 205q-61 0 -126 -23l-252 -325h-17l-14 342q260 51 450 51q195 0 292.5 -84 t97.5 -219v-652zM526 90q117 0 213 133v387q-152 -45 -211 -65q-182 -66 -182 -246q0 -96 50 -152.5t130 -56.5z" glyph-name="aacute" horiz-adv-x="1157" unicode="á"/><glyph d="M586 1321l-305 -168l-13 14l277 328h82l276 -328l-12 -14zM1006 100l133 -84v-16h-348l-48 168q-127 -193 -333 -193q-137 0 -234.5 68t-97.5 221q0 119 86 191.5t223 105.5q250 61 352 88v156q0 205 -164 205q-61 0 -126 -23l-252 -325h-17l-14 342q260 51 450 51 q195 0 292.5 -84t97.5 -219v-652zM526 90q117 0 213 133v387q-152 -45 -211 -65q-182 -66 -182 -246q0 -96 50 -152.5t130 -56.5z" glyph-name="acircumflex" horiz-adv-x="1157" unicode="â"/><glyph d="M414 1303q-43 0 -71 -19.5t-58 -77.5l-27 11q27 113 79 176t116 63q47 0 157.5 -45t149.5 -45q43 0 69.5 19.5t57.5 76.5l26 -10q-25 -113 -78 -176.5t-116 -63.5q-49 0 -157.5 45.5t-147.5 45.5zM1006 100l133 -84v-16h-348l-48 168q-127 -193 -333 -193 q-137 0 -234.5 68t-97.5 221q0 119 86 191.5t223 105.5q250 61 352 88v156q0 205 -164 205q-61 0 -126 -23l-252 -325h-17l-14 342q260 51 450 51q195 0 292.5 -84t97.5 -219v-652zM526 90q117 0 213 133v387q-152 -45 -211 -65q-182 -66 -182 -246q0 -96 50 -152.5 t130 -56.5z" glyph-name="atilde" horiz-adv-x="1157" unicode="ã"/><glyph d="M543 1335l-156 -155l-156 155l156 152zM940 1335l-156 -155l-153 155l153 152zM1006 100l133 -84v-16h-348l-48 168q-127 -193 -333 -193q-137 0 -234.5 68t-97.5 221q0 119 86 191.5t223 105.5q250 61 352 88v156q0 205 -164 205q-61 0 -126 -23l-252 -325h-17l-14 342 q260 51 450 51q195 0 292.5 -84t97.5 -219v-652zM526 90q117 0 213 133v387q-152 -45 -211 -65q-182 -66 -182 -246q0 -96 50 -152.5t130 -56.5z" glyph-name="adieresis" horiz-adv-x="1157" unicode="ä"/><glyph d="M586 1159q-100 0 -165 55.5t-65 143.5t64.5 142t165 54t166 -55t65.5 -141t-66.5 -142.5t-164.5 -56.5zM585.5 1526q-96.5 0 -96.5 -168q0 -170 96.5 -170t96.5 170q0 168 -96.5 168zM1006 100l133 -84v-16h-348l-48 168q-127 -193 -333 -193q-137 0 -234.5 68t-97.5 221 q0 119 86 191.5t223 105.5q250 61 352 88v156q0 205 -164 205q-61 0 -126 -23l-252 -325h-17l-14 342q260 51 450 51q195 0 292.5 -84t97.5 -219v-652zM526 90q117 0 213 133v387q-152 -45 -211 -65q-182 -66 -182 -246q0 -96 50 -152.5t130 -56.5z" glyph-name="aring" horiz-adv-x="1157" unicode="å"/><glyph d="M1698 317l39 -18q-125 -324 -473 -324q-156 0 -277 69t-186 189q-66 -123 -167.5 -190.5t-223.5 -67.5q-137 0 -234.5 68t-97.5 221q0 119 86 191.5t223 105.5q324 80 348 88v156q0 205 -162 205q-61 0 -124 -23l-244 -325h-17l-22 342q260 51 450 51q213 0 304 -115 q139 115 344 115q219 0 344 -119t125 -336v-63h-713q4 -209 95 -323t239 -114q223 0 344 217zM1268 1010q-109 0 -175.5 -108.5t-72.5 -319.5h448v43q1 385 -200 385zM526 90q115 0 211 131l-2 387l-207 -63q-182 -63 -182 -246q0 -96 50 -152.5t130 -56.5z" glyph-name="ae" horiz-adv-x="1794" unicode="æ"/><glyph d="M1034 289q-121 -305 -446 -314l-56 -79q268 -2 269 -162q0 -78 -68.5 -123t-169.5 -45q-76 0 -155 37v69h10l78 -65q10 -4 28 -4q43 0 71 30.5t28 92.5q0 127 -154 131l-12 14l75 106q-211 14 -342 160t-131 377q0 252 153 396.5t386 144.5q156 0 383 -49l-14 -359h-17 l-231 340q-57 23 -107 23q-106 0 -187 -121t-81 -340q0 -217 93 -335t233 -118q209 0 325 211z" glyph-name="ccedilla" horiz-adv-x="1073" unicode="ç"/><glyph d="M696 1163h-20l-420 312v20h307zM1022 317l39 -18q-127 -324 -475 -324q-229 0 -378 146.5t-149 380.5q0 258 148.5 405.5t380.5 147.5q217 0 343 -120t126 -335v-63h-713q2 -209 93 -323t239 -114q221 0 346 217zM590 1010q-106 0 -174 -109.5t-72 -318.5h447v43 q-2 199 -51.5 292t-149.5 93z" glyph-name="egrave" horiz-adv-x="1116" unicode="è"/><glyph d="M940 1475l-420 -312h-20l133 332h307v-20zM1022 317l39 -18q-127 -324 -475 -324q-229 0 -378 146.5t-149 380.5q0 258 148.5 405.5t380.5 147.5q217 0 343 -120t126 -335v-63h-713q2 -209 93 -323t239 -114q221 0 346 217zM590 1010q-106 0 -174 -109.5t-72 -318.5h447 v43q-2 199 -51.5 292t-149.5 93z" glyph-name="eacute" horiz-adv-x="1116" unicode="é"/><glyph d="M598 1321l-305 -168l-12 14l276 328h82l276 -328l-12 -14zM1022 317l39 -18q-127 -324 -475 -324q-229 0 -378 146.5t-149 380.5q0 258 148.5 405.5t380.5 147.5q217 0 343 -120t126 -335v-63h-713q2 -209 93 -323t239 -114q221 0 346 217zM590 1010q-106 0 -174 -109.5 t-72 -318.5h447v43q-2 199 -51.5 292t-149.5 93z" glyph-name="ecircumflex" horiz-adv-x="1116" unicode="ê"/><glyph d="M555 1335l-156 -155l-155 155l155 152zM952 1335l-155 -155l-154 155l154 152zM1022 317l39 -18q-127 -324 -475 -324q-229 0 -378 146.5t-149 380.5q0 258 148.5 405.5t380.5 147.5q217 0 343 -120t126 -335v-63h-713q2 -209 93 -323t239 -114q221 0 346 217zM590 1010 q-106 0 -174 -109.5t-72 -318.5h447v43q-2 199 -51.5 292t-149.5 93z" glyph-name="edieresis" horiz-adv-x="1116" unicode="ë"/><glyph d="M391 1163h-20l-420 312v20h307zM444 96l134 -80v-16h-533v16l133 80v834l-145 84v16h411v-934z" glyph-name="igrave" horiz-adv-x="606" unicode="ì"/><glyph d="M328 1495h307v-20l-420 -312h-20zM444 96l134 -80v-16h-533v16l133 80v834l-145 84v16h411v-934z" glyph-name="iacute" horiz-adv-x="606" unicode="í"/><glyph d="M334 1495l276 -328l-12 -14l-305 168l-305 -168l-13 14l277 328h82zM444 96l134 -80v-16h-533v16l133 80v834l-145 84v16h411v-934z" glyph-name="icircumflex" horiz-adv-x="606" unicode="î"/><glyph d="M250 1335l-156 -155l-155 155l155 152zM647 1335l-155 -155l-154 155l154 152zM444 96l134 -80v-16h-533v16l133 80v834l-145 84v16h411v-934z" glyph-name="idieresis" horiz-adv-x="606" unicode="ï"/><glyph d="M760 1294q180 -117 279.5 -298t99.5 -412q0 -291 -148.5 -450t-392.5 -159q-240 0 -390.5 147.5t-150.5 399.5q0 244 145.5 388.5t372.5 144.5q135 0 220 -68q-59 162 -168 264l-281 -88l-14 43l256 82q-125 100 -303 148l4 22q233 -29 420 -133l262 84l14 -43zM602 20 q250 0 250 521q0 94 -6 178l-4 -2q-12 143 -79 215t-165 72q-111 0 -182.5 -112t-71.5 -374q0 -254 68.5 -376t189.5 -122z" glyph-name="eth" horiz-adv-x="1204" unicode="ð"/><glyph d="M498 1303q-43 0 -71 -19.5t-58 -77.5l-27 11q27 113 79 176t116 63q47 0 157.5 -45t149.5 -45q43 0 69.5 19.5t57.5 76.5l26 -10q-25 -113 -78 -176.5t-116 -63.5q-49 0 -157.5 45.5t-147.5 45.5zM1145 96l133 -80v-16h-533v16l134 80v609q0 225 -183 225 q-150 0 -252 -129v-705l134 -80v-16h-533v16l133 80v834l-145 84v16h360l49 -176q147 201 379 201q158 0 241 -86t83 -246v-627z" glyph-name="ntilde" horiz-adv-x="1296" unicode="ñ"/><glyph d="M567 1495l133 -332h-20l-420 312v20h307zM602 -25q-246 0 -395.5 144.5t-149.5 396.5t149.5 395.5t395.5 143.5t396.5 -143.5t150.5 -395.5t-150.5 -396.5t-396.5 -144.5zM602 20q252 0 252 496q0 494 -252 494t-252 -494q0 -496 252 -496z" glyph-name="ograve" horiz-adv-x="1204" unicode="ò"/><glyph d="M637 1495h307v-20l-420 -312h-20zM602 -25q-246 0 -395.5 144.5t-149.5 396.5t149.5 395.5t395.5 143.5t396.5 -143.5t150.5 -395.5t-150.5 -396.5t-396.5 -144.5zM602 20q252 0 252 496q0 494 -252 494t-252 -494q0 -496 252 -496z" glyph-name="oacute" horiz-adv-x="1204" unicode="ó"/><glyph d="M285 1167l276 328h82l277 -328l-13 -14l-305 168l-305 -168zM602 -25q-246 0 -395.5 144.5t-149.5 396.5t149.5 395.5t395.5 143.5t396.5 -143.5t150.5 -395.5t-150.5 -396.5t-396.5 -144.5zM602 20q252 0 252 496q0 494 -252 494t-252 -494q0 -496 252 -496z" glyph-name="ocircumflex" horiz-adv-x="1204" unicode="ô"/><glyph d="M301 1206l-27 11q27 113 79.5 176t115.5 63q47 0 157.5 -45t149.5 -45q43 0 69.5 19.5t57.5 76.5l27 -10q-25 -113 -78 -176.5t-117 -63.5q-49 0 -157.5 45.5t-147.5 45.5q-43 0 -70.5 -20t-58.5 -77zM602 -25q-246 0 -395.5 144.5t-149.5 396.5t149.5 395.5t395.5 143.5 t396.5 -143.5t150.5 -395.5t-150.5 -396.5t-396.5 -144.5zM602 20q252 0 252 496q0 494 -252 494t-252 -494q0 -496 252 -496z" glyph-name="otilde" horiz-adv-x="1204" unicode="õ"/><glyph d="M403 1487l156 -152l-156 -155l-155 155zM801 1487l155 -152l-155 -155l-154 155zM602 -25q-246 0 -395.5 144.5t-149.5 396.5t149.5 395.5t395.5 143.5t396.5 -143.5t150.5 -395.5t-150.5 -396.5t-396.5 -144.5zM602 20q252 0 252 496q0 494 -252 494t-252 -494 q0 -496 252 -496z" glyph-name="odieresis" horiz-adv-x="1204" unicode="ö"/><glyph d="M584 1155l137 -133l-137 -133l-138 133zM143 700h881v-49h-881v49zM584 461l137 -133l-137 -133l-138 133z" glyph-name="divide" horiz-adv-x="1167" unicode="÷"/><glyph d="M856 1006q137 -59 215 -185.5t78 -304.5q0 -252 -150.5 -396.5t-396.5 -144.5q-115 0 -213 35l-65 -141l-43 20l63 138q-135 61 -211 187t-76 302q0 252 149.5 395.5t395.5 143.5q117 0 209 -33l66 139l43 -20zM350 516q0 -238 58 -358l358 770q-59 82 -164 82 q-252 0 -252 -494zM602 20q252 0 252 496q0 236 -57 361l-361 -768q60 -89 166 -89z" glyph-name="oslash" horiz-adv-x="1198" unicode="ø"/><glyph d="M713 1163h-21l-420 312v20h308zM1094 100l133 -84v-16h-348l-48 172q-139 -197 -346 -197q-162 0 -247.5 87.5t-85.5 246.5v621l-146 84v16h412v-702q0 -227 180 -228q135 0 229 127v703l-145 84v16h412v-930z" glyph-name="ugrave" horiz-adv-x="1255" unicode="ù"/><glyph d="M956 1475l-419 -312h-21l133 332h307v-20zM1094 100l133 -84v-16h-348l-48 172q-139 -197 -346 -197q-162 0 -247.5 87.5t-85.5 246.5v621l-146 84v16h412v-702q0 -227 180 -228q135 0 229 127v703l-145 84v16h412v-930z" glyph-name="uacute" horiz-adv-x="1255" unicode="ú"/><glyph d="M614 1321l-305 -168l-12 14l276 328h82l277 -328l-12 -14zM1094 100l133 -84v-16h-348l-48 172q-139 -197 -346 -197q-162 0 -247.5 87.5t-85.5 246.5v621l-146 84v16h412v-702q0 -227 180 -228q135 0 229 127v703l-145 84v16h412v-930z" glyph-name="ucircumflex" horiz-adv-x="1255" unicode="û"/><glyph d="M571 1335l-155 -155l-156 155l156 152zM969 1335l-156 -155l-154 155l154 152zM1094 100l133 -84v-16h-348l-48 172q-139 -197 -346 -197q-162 0 -247.5 87.5t-85.5 246.5v621l-146 84v16h412v-702q0 -227 180 -228q135 0 229 127v703l-145 84v16h412v-930z" glyph-name="udieresis" horiz-adv-x="1255" unicode="ü"/><glyph d="M950 1475l-420 -312h-20l133 332h307v-20zM737 1030h398v-16l-140 -154l-411 -1003q-66 -158 -130.5 -214.5t-156.5 -56.5q-41 0 -102 21v176h307l47 117l-471 1026l-109 88v16h527v-16l-134 -84l318 -713l268 653l-211 144v16z" glyph-name="yacute" horiz-adv-x="1097" unicode="ý"/><glyph d="M729 1055q180 0 305 -132t125 -388q0 -264 -141 -412t-336 -148q-168 0 -268 107v-375l184 -80v-16h-584v16l133 80v1626l-145 84v17h412v-545q114 166 315 166zM602 53q123 0 199 109.5t76 341.5q0 223 -72 328.5t-191 105.5q-123 0 -200 -113v-686q75 -86 188 -86z" glyph-name="thorn" horiz-adv-x="1216" unicode="þ"/><glyph d="M565 1335l-155 -155l-156 155l156 152zM963 1335l-156 -155l-154 155l154 152zM737 1030h398v-16l-140 -154l-411 -1003q-66 -158 -130.5 -214.5t-156.5 -56.5q-41 0 -102 21v176h307l47 117l-471 1026l-109 88v16h527v-16l-134 -84l318 -713l268 653l-211 144v16z" glyph-name="ydieresis" horiz-adv-x="1097" unicode="ÿ"/><glyph d="M1028 1726v-49h-655v49h655zM1337 119l148 -99v-20h-606v20l170 91l-162 407h-545l-131 -344l246 -154v-20h-477v20l180 160l424 1110l-56 121v23h287zM360 567h508l-258 656z" glyph-name="Amacron" horiz-adv-x="1464" unicode="Ā"/><glyph d="M913 1321v-49h-655v49h655zM1006 100l133 -84v-16h-348l-48 168q-127 -193 -333 -193q-137 0 -234.5 68t-97.5 221q0 119 86 191.5t223 105.5q250 61 352 88v156q0 205 -164 205q-61 0 -126 -23l-252 -325h-17l-14 342q260 51 450 51q195 0 292.5 -84t97.5 -219v-652z M526 90q117 0 213 133v387q-152 -45 -211 -65q-182 -66 -182 -246q0 -96 50 -152.5t130 -56.5z" glyph-name="amacron" horiz-adv-x="1157" unicode="ā"/><glyph d="M700 1579q-147 0 -224 90t-77 232h29q33 -174 272 -175q238 0 275 175h29q0 -141 -77 -231.5t-227 -90.5zM1337 119l148 -99v-20h-606v20l170 91l-162 407h-545l-131 -344l246 -154v-20h-477v20l180 160l424 1110l-56 121v23h287zM360 567h508l-258 656z" glyph-name="Abreve" horiz-adv-x="1464" unicode="Ă"/><glyph d="M586 1174q-147 0 -224 90t-77 231h28q33 -174 273 -174q238 0 274 174h29q0 -141 -76.5 -231t-226.5 -90zM1006 100l133 -84v-16h-348l-48 168q-127 -193 -333 -193q-137 0 -234.5 68t-97.5 221q0 119 86 191.5t223 105.5q250 61 352 88v156q0 205 -164 205 q-61 0 -126 -23l-252 -325h-17l-14 342q260 51 450 51q195 0 292.5 -84t97.5 -219v-652zM526 90q117 0 213 133v387q-152 -45 -211 -65q-182 -66 -182 -246q0 -96 50 -152.5t130 -56.5z" glyph-name="abreve" horiz-adv-x="1157" unicode="ă"/><glyph d="M1337 119l148 -99v-20h-62q-195 -98 -194 -242q0 -61 31.5 -94t80.5 -33q43 0 82 19v-31q-82 -53 -190 -53q-86 0 -140.5 43t-54.5 115q0 88 70 151.5t217 114.5v10h-446v20l170 91l-162 407h-545l-131 -344l246 -154v-20h-477v20l180 160l424 1110l-56 121v23h287z M360 567h508l-258 656z" glyph-name="Aogonek" horiz-adv-x="1464" unicode="Ą"/><glyph d="M1139 0q-195 -98 -195 -242q0 -61 32 -94t81 -33q43 0 82 19v-31q-82 -53 -191 -53q-86 0 -140 43t-54 115q0 88 69.5 151.5t216.5 114.5v10h-249l-48 168q-127 -193 -333 -193q-137 0 -234.5 68t-97.5 221q0 119 86 191.5t223 105.5q250 61 352 88v156q0 205 -164 205 q-61 0 -126 -23l-252 -325h-17l-14 342q260 51 450 51q195 0 292.5 -84t97.5 -219v-652l133 -84v-16zM526 90q117 0 213 133v387q-152 -45 -211 -65q-182 -66 -182 -246q0 -96 50 -152.5t130 -56.5z" glyph-name="aogonek" horiz-adv-x="1157" unicode="ą"/><glyph d="M874 1901h308v-21l-420 -311h-21zM1303 999l-250 379q-100 37 -197 37q-184 0 -318.5 -174t-136.5 -485q0 -184 38 -329.5t102.5 -231.5t143.5 -130.5t167 -44.5q109 0 195 43l317 420h20l-63 -438q-260 -74 -487 -74q-334 0 -539 198t-205 548t208 547.5t533 197.5 q242 0 492 -63v-400h-20z" glyph-name="Cacute" horiz-adv-x="1470" unicode="Ć"/><glyph d="M643 1495h307v-20l-420 -312h-20zM950 647l-231 340q-57 23 -107 23q-106 0 -187 -121t-81 -340q0 -217 93 -335t233 -118q209 0 325 211l39 -18q-121 -311 -456 -314q-227 -2 -373 146.5t-146 392.5q0 252 153 396.5t386 144.5q156 0 383 -49l-14 -359h-17z" glyph-name="cacute" horiz-adv-x="1073" unicode="ć"/><glyph d="M522 1573l277 328h82l276 -328l-12 -14l-305 167l-305 -167zM1303 999l-250 379q-100 37 -197 37q-184 0 -318.5 -174t-136.5 -485q0 -184 38 -329.5t102.5 -231.5t143.5 -130.5t167 -44.5q109 0 195 43l317 420h20l-63 -438q-260 -74 -487 -74q-334 0 -539 198t-205 548 t208 547.5t533 197.5q242 0 492 -63v-400h-20z" glyph-name="Ccircumflex" horiz-adv-x="1560" unicode="Ĉ"/><glyph d="M291 1167l276 328h82l277 -328l-13 -14l-305 168l-305 -168zM950 647l-231 340q-57 23 -107 23q-106 0 -187 -121t-81 -340q0 -217 93 -335t233 -118q209 0 325 211l39 -18q-121 -311 -456 -314q-227 -2 -373 146.5t-146 392.5q0 252 153 396.5t386 144.5q156 0 383 -49 l-14 -359h-17z" glyph-name="ccircumflex" horiz-adv-x="1073" unicode="ĉ"/><glyph d="M840 1913l164 -160l-164 -162l-164 162zM1303 999l-250 379q-100 37 -197 37q-184 0 -318.5 -174t-136.5 -485q0 -184 38 -329.5t102.5 -231.5t143.5 -130.5t167 -44.5q109 0 195 43l317 420h20l-63 -438q-260 -74 -487 -74q-334 0 -539 198t-205 548t208 547.5 t533 197.5q242 0 492 -63v-400h-20z" glyph-name="Cdotaccent" horiz-adv-x="1470" unicode="Ċ"/><glyph d="M608 1507l164 -159l-164 -162l-164 162zM950 647l-231 340q-57 23 -107 23q-106 0 -187 -121t-81 -340q0 -217 93 -335t233 -118q209 0 325 211l39 -18q-121 -311 -456 -314q-227 -2 -373 146.5t-146 392.5q0 252 153 396.5t386 144.5q156 0 383 -49l-14 -359h-17z" glyph-name="cdotaccent" horiz-adv-x="1073" unicode="ċ"/><glyph d="M522 1901l13 14l305 -168l305 168l12 -14l-276 -328h-82zM1303 999l-250 379q-100 37 -197 37q-184 0 -318.5 -174t-136.5 -485q0 -184 38 -329.5t102.5 -231.5t143.5 -130.5t167 -44.5q109 0 195 43l317 420h20l-63 -438q-260 -74 -487 -74q-334 0 -539 198t-205 548 t208 547.5t533 197.5q242 0 492 -63v-400h-20z" glyph-name="Ccaron" horiz-adv-x="1470" unicode="Č"/><glyph d="M291 1495l12 14l305 -168l305 168l13 -14l-277 -328h-82zM950 647l-231 340q-57 23 -107 23q-106 0 -187 -121t-81 -340q0 -217 93 -335t233 -118q209 0 325 211l39 -18q-121 -311 -456 -314q-227 -2 -373 146.5t-146 392.5q0 252 153 396.5t386 144.5q156 0 383 -49 l-14 -359h-17z" glyph-name="ccaron" horiz-adv-x="1073" unicode="č"/><glyph d="M760 1573h-82l-277 328l13 14l305 -168l305 168l12 -14zM770 1434q334 0 538.5 -184.5t204.5 -512.5q0 -346 -192.5 -541.5t-521.5 -195.5h-738v20l164 93v1208l-164 92v21h709zM733 49q473 0 473 660q0 340 -129 507.5t-368 167.5h-201v-1335h225z" glyph-name="Dcaron" horiz-adv-x="1603" unicode="Ď"/><glyph d="M1403 1386q49 -47 49 -110q0 -66 -62.5 -130.5t-160.5 -111.5l-10 17q66 49 65 116q0 45 -37 82l-65 66l145 145zM1075 100l133 -84v-16h-348l-43 156q-115 -180 -323 -181q-180 0 -305.5 133.5t-125.5 389.5q0 264 142.5 410.5t335.5 146.5q172 0 268 -107v385l-145 84 v17h411v-1334zM610 92q121 0 199 113v688q-74 84 -186 84q-123 0 -200 -109.5t-77 -341.5q0 -221 71.5 -327.5t192.5 -106.5z" glyph-name="dcaron" horiz-adv-x="1398" unicode="ď"/><glyph d="M768 1434q334 0 538.5 -184.5t204.5 -512.5q0 -346 -192.5 -541.5t-521.5 -195.5h-738v20l164 93v602h-166v49h166v557l-164 92v21h709zM731 49q473 0 473 660q0 340 -129 507.5t-368 167.5h-201v-620h309v-49h-309v-666h225z" glyph-name="Dcroat" horiz-adv-x="1601" unicode="Đ"/><glyph d="M1075 100l133 -84v-16h-348l-43 156q-115 -180 -323 -181q-180 0 -305.5 133.5t-125.5 389.5q0 264 142.5 410.5t335.5 146.5q172 0 268 -107v230h-272v45h272v110l-145 84v17h411v-211h144v-45h-144v-1078zM809 205v688q-74 84 -186 84q-123 0 -200 -109.5t-77 -341.5 q0 -221 71.5 -327.5t192.5 -106.5t199 113z" glyph-name="dcroat" horiz-adv-x="1236" unicode="đ"/><glyph d="M1036 1726v-49h-655v49h655zM1317 449h20l-51 -449h-1225v20l164 93v1208l-164 92v21h1201v-396h-21l-254 346h-479v-616h219l229 123h21v-295h-21l-229 123h-219v-670h510z" glyph-name="Emacron" horiz-adv-x="1419" unicode="Ē"/><glyph d="M926 1321v-49h-656v49h656zM1022 317l39 -18q-127 -324 -475 -324q-229 0 -378 146.5t-149 380.5q0 258 148.5 405.5t380.5 147.5q217 0 343 -120t126 -335v-63h-713q2 -209 93 -323t239 -114q221 0 346 217zM590 1010q-106 0 -174 -109.5t-72 -318.5h447v43 q-2 199 -51.5 292t-149.5 93z" glyph-name="emacron" horiz-adv-x="1116" unicode="ē"/><glyph d="M709 1579q-147 0 -224 90t-77 232h28q33 -174 273 -175q238 0 274 175h29q0 -141 -76.5 -231.5t-226.5 -90.5zM1317 449h20l-51 -449h-1225v20l164 93v1208l-164 92v21h1201v-396h-21l-254 346h-479v-616h219l229 123h21v-295h-21l-229 123h-219v-670h510z" glyph-name="Ebreve" horiz-adv-x="1511" unicode="Ĕ"/><glyph d="M598 1174q-147 0 -224 90t-77 231h29q33 -174 272 -174q238 0 274 174h29q0 -141 -76.5 -231t-226.5 -90zM1022 317l39 -18q-127 -324 -475 -324q-229 0 -378 146.5t-149 380.5q0 258 148.5 405.5t380.5 147.5q217 0 343 -120t126 -335v-63h-713q2 -209 93 -323t239 -114 q221 0 346 217zM590 1010q-106 0 -174 -109.5t-72 -318.5h447v43q-2 199 -51.5 292t-149.5 93z" glyph-name="ebreve" horiz-adv-x="1116" unicode="ĕ"/><glyph d="M872 1753l-163 -162l-164 162l164 160zM1317 449h20l-51 -449h-1225v20l164 93v1208l-164 92v21h1201v-396h-21l-254 346h-479v-616h219l229 123h21v-295h-21l-229 123h-219v-670h510z" glyph-name="Edotaccent" horiz-adv-x="1419" unicode="Ė"/><glyph d="M762 1348l-164 -162l-164 162l164 159zM1022 317l39 -18q-127 -324 -475 -324q-229 0 -378 146.5t-149 380.5q0 258 148.5 405.5t380.5 147.5q217 0 343 -120t126 -335v-63h-713q2 -209 93 -323t239 -114q221 0 346 217zM590 1010q-106 0 -174 -109.5t-72 -318.5h447v43 q-2 199 -51.5 292t-149.5 93z" glyph-name="edotaccent" horiz-adv-x="1116" unicode="ė"/><glyph d="M1286 0q-195 -98 -194 -242q0 -61 31.5 -94t80.5 -33q43 0 82 19v-31q-82 -53 -190 -53q-86 0 -140.5 43t-54.5 115q0 88 69.5 151.5t217.5 114.5v10h-1127v20l164 93v1208l-164 92v21h1201v-396h-21l-254 346h-479v-616h219l229 123h21v-295h-21l-229 123h-219v-670h510 l299 400h20z" glyph-name="Eogonek" horiz-adv-x="1419" unicode="Ę"/><glyph d="M885 61q-117 -98 -157 -163.5t-40 -141.5q0 -59 31 -92t80 -33q43 0 82 19v-31q-82 -53 -189 -53q-86 0 -140 42t-54 113q0 84 57 143.5t178 115.5v12q-72 -16 -147 -17q-229 0 -378 146.5t-149 380.5q0 258 148.5 405.5t380.5 147.5q217 0 343 -120t126 -335v-63h-713 q2 -209 93 -323t239 -114q221 0 346 217l39 -18q-63 -158 -176 -238zM590 1010q-106 0 -174 -109.5t-72 -318.5h447v43q-2 199 -51.5 292t-149.5 93z" glyph-name="eogonek" horiz-adv-x="1116" unicode="ę"/><glyph d="M750 1573h-82l-277 328l12 14l306 -168l305 168l12 -14zM1317 449h20l-51 -449h-1225v20l164 93v1208l-164 92v21h1201v-396h-21l-254 346h-479v-616h219l229 123h21v-295h-21l-229 123h-219v-670h510z" glyph-name="Ecaron" horiz-adv-x="1419" unicode="Ě"/><glyph d="M639 1167h-82l-276 328l12 14l305 -168l305 168l12 -14zM1022 317l39 -18q-127 -324 -475 -324q-229 0 -378 146.5t-149 380.5q0 258 148.5 405.5t380.5 147.5q217 0 343 -120t126 -335v-63h-713q2 -209 93 -323t239 -114q221 0 346 217zM590 1010q-106 0 -174 -109.5 t-72 -318.5h447v43q-2 199 -51.5 292t-149.5 93z" glyph-name="ecaron" horiz-adv-x="1116" unicode="ě"/><glyph d="M539 1573l276 328h82l277 -328l-13 -14l-305 167l-305 -167zM90 707q0 182 61.5 328.5t167 238.5t241.5 140t290 48q215 0 514 -63v-400h-21l-262 379q-119 37 -209 37q-188 0 -330.5 -172t-142.5 -491q0 -354 131.5 -543t335.5 -189q129 0 242 62v463h-307v49h737v-21 l-147 -92v-413q-281 -96 -553 -97q-334 0 -541 200t-207 536z" glyph-name="Gcircumflex" horiz-adv-x="1574" unicode="Ĝ"/><glyph d="M590 1321l-305 -168l-13 14l277 328h82l276 -328l-12 -14zM797 193q369 -4 368 -248q0 -164 -176 -261.5t-436 -97.5q-516 0 -516 226q0 72 57.5 123t159.5 73q-160 66 -160 232l232 157q-201 96 -201 301q0 164 126 260.5t329 96.5q135 0 233 -43l311 172h17l12 -183 v-16l-283 -2q164 -98 164 -285q0 -162 -126 -258t-328 -96q-109 0 -207 33l-101 -78q0 -104 183 -104zM579.5 1010q-188.5 0 -188.5 -311.5t188.5 -311.5t188.5 311.5t-188.5 311.5zM582 -371q162 0 273.5 63.5t111.5 153.5q0 121 -154 123l-340 2q-84 0 -154 17 q-92 -45 -92 -150q0 -96 89.5 -152.5t265.5 -56.5z" glyph-name="gcircumflex" horiz-adv-x="1210" unicode="ĝ"/><glyph d="M555 1901h29q33 -174 272 -175q238 0 274 175h29q0 -141 -76.5 -231.5t-226.5 -90.5q-147 0 -224 90.5t-77 231.5zM90 707q0 182 61.5 328.5t167 238.5t241.5 140t290 48q215 0 514 -63v-400h-21l-262 379q-119 37 -209 37q-188 0 -330.5 -172t-142.5 -491 q0 -354 131.5 -543t335.5 -189q129 0 242 62v463h-307v49h737v-21l-147 -92v-413q-281 -96 -553 -97q-334 0 -541 200t-207 536z" glyph-name="Gbreve" horiz-adv-x="1554" unicode="Ğ"/><glyph d="M580 1174q-147 0 -224 90t-77 231h28q33 -174 273 -174q238 0 274 174h29q0 -141 -76.5 -231t-226.5 -90zM786 193q369 -4 369 -248q0 -164 -176 -261.5t-436 -97.5q-516 0 -516 226q0 72 57 123t160 73q-160 66 -160 232l231 157q-201 96 -200 301q0 164 126 260.5 t328 96.5q135 0 234 -43l311 172h16l13 -183v-16l-283 -2q164 -98 164 -285q0 -162 -126 -258t-329 -96q-109 0 -207 33l-100 -78q0 -104 182 -104zM569.5 1010q-188.5 0 -188.5 -311.5t188.5 -311.5t188.5 311.5t-188.5 311.5zM571 -371q162 0 273.5 63.5t111.5 153.5 q0 121 -153 123l-340 2q-84 0 -154 17q-92 -45 -92 -150q0 -96 89 -152.5t265 -56.5z" glyph-name="gbreve" horiz-adv-x="1169" unicode="ğ"/><glyph d="M856 1913l164 -160l-164 -162l-164 162zM90 707q0 182 61.5 328.5t167 238.5t241.5 140t290 48q215 0 514 -63v-400h-21l-262 379q-119 37 -209 37q-188 0 -330.5 -172t-142.5 -491q0 -354 131.5 -543t335.5 -189q129 0 242 62v463h-307v49h737v-21l-147 -92v-413 q-281 -96 -553 -97q-334 0 -541 200t-207 536z" glyph-name="Gdotaccent" horiz-adv-x="1554" unicode="Ġ"/><glyph d="M743 1348l-163 -162l-164 162l164 159zM786 193q369 -4 369 -248q0 -164 -176 -261.5t-436 -97.5q-516 0 -516 226q0 72 57 123t160 73q-160 66 -160 232l231 157q-201 96 -200 301q0 164 126 260.5t328 96.5q135 0 234 -43l311 172h16l13 -183v-16l-283 -2 q164 -98 164 -285q0 -162 -126 -258t-329 -96q-109 0 -207 33l-100 -78q0 -104 182 -104zM569.5 1010q-188.5 0 -188.5 -311.5t188.5 -311.5t188.5 311.5t-188.5 311.5zM571 -371q162 0 273.5 63.5t111.5 153.5q0 121 -153 123l-340 2q-84 0 -154 17q-92 -45 -92 -150 q0 -96 89 -152.5t265 -56.5z" glyph-name="gdotaccent" horiz-adv-x="1169" unicode="ġ"/><glyph d="M90 707q0 182 61.5 328.5t167 238.5t241.5 140t290 48q215 0 514 -63v-400h-21l-262 379q-119 37 -209 37q-188 0 -330.5 -172t-142.5 -491q0 -354 131.5 -543t335.5 -189q129 0 242 62v463h-307v49h737v-21l-147 -92v-413q-281 -96 -553 -97q-334 0 -541 200t-207 536z M717 -248l145 146l78 -74q49 -45 49 -110.5t-63.5 -129t-159.5 -112.5l-12 16q68 51 67 117q0 45 -37 82z" glyph-name="Gcommaaccent" horiz-adv-x="1554" unicode="Ģ"/><glyph d="M492 1243q-49 47 -50 111q0 66 63.5 129t160.5 112l12 -16q-68 -51 -68 -117q0 -45 37 -82l68 -65l-146 -146zM786 193q369 -4 369 -248q0 -164 -176 -261.5t-436 -97.5q-516 0 -516 226q0 72 57 123t160 73q-160 66 -160 232l231 157q-201 96 -200 301q0 164 126 260.5 t328 96.5q135 0 234 -43l311 172h16l13 -183v-16l-283 -2q164 -98 164 -285q0 -162 -126 -258t-329 -96q-109 0 -207 33l-100 -78q0 -104 182 -104zM569.5 1010q-188.5 0 -188.5 -311.5t188.5 -311.5t188.5 311.5t-188.5 311.5zM571 -371q162 0 273.5 63.5t111.5 153.5 q0 121 -153 123l-340 2q-84 0 -154 17q-92 -45 -92 -150q0 -96 89 -152.5t265 -56.5z" glyph-name="gcommaaccent" horiz-adv-x="1169" unicode="ģ"/><glyph d="M901 1726l-305 -167l-12 14l276 328h82l277 -328l-13 -14zM1518 1321v-1208l163 -93v-20h-610v20l164 93v598h-668v-598l164 -93v-20h-610v20l164 93v1208l-164 92v21h610v-21l-164 -92v-561h668v561l-164 92v21h610v-21z" glyph-name="Hcircumflex" horiz-adv-x="1742" unicode="Ĥ"/><glyph d="M586 1559l-305 167l-306 -167l-12 14l277 328h82l276 -328zM1126 96l134 -80v-16h-533v16l133 80v609q0 225 -184 225q-141 0 -242 -117v-717l133 -80v-16h-532v16l133 80v1237l-145 84v17h411v-566q145 186 367 187q158 0 241.5 -86t83.5 -246v-627z" glyph-name="hcircumflex" horiz-adv-x="1277" unicode="ĥ"/><glyph d="M1622 1413l-164 -92v-238h152v-49h-152v-921l164 -93v-20h-610v20l164 93v598h-668v-598l164 -93v-20h-611v20l164 93v921h-145v49h145v238l-164 92v21h611v-21l-164 -92v-238h668v238l-164 92v21h610v-21zM1176 760v274h-668v-274h668z" glyph-name="Hbar" horiz-adv-x="1683" unicode="Ħ"/><glyph d="M1124 96l133 -80v-16h-532v16l133 80v609q0 225 -184 225q-141 0 -242 -117v-717l133 -80v-16h-532v16l133 80v1082h-150v45h150v110l-146 84v17h412v-211h262v-45h-262v-310q145 186 367 187q158 0 241.5 -86t83.5 -246v-627z" glyph-name="hbar" horiz-adv-x="1275" unicode="ħ"/><glyph d="M195 1708q-43 0 -71 -19.5t-58 -76.5l-27 10q27 113 79 176.5t115 63.5q47 0 158 -45t150 -45q43 0 69.5 19t57.5 77l26 -10q-25 -113 -78 -176.5t-116 -63.5q-49 0 -157.5 45t-147.5 45zM61 1413v21h611v-21l-164 -92v-1208l164 -93v-20h-611v20l164 93v1208z" glyph-name="Itilde" horiz-adv-x="733" unicode="Ĩ"/><glyph d="M121 1303q-43 0 -70.5 -19.5t-58.5 -77.5l-27 11q27 113 79 176t116 63q47 0 157.5 -45t149.5 -45q43 0 69.5 19.5t57.5 76.5l27 -10q-25 -113 -78.5 -176.5t-116.5 -63.5q-49 0 -157.5 45.5t-147.5 45.5zM444 96l134 -80v-16h-533v16l133 80v834l-145 84v16h411v-934z " glyph-name="itilde" horiz-adv-x="606" unicode="ĩ"/><glyph d="M39 1726h655v-49h-655v49zM61 1413v21h611v-21l-164 -92v-1208l164 -93v-20h-611v20l164 93v1208z" glyph-name="Imacron" horiz-adv-x="733" unicode="Ī"/><glyph d="M-35 1321h656v-49h-656v49zM444 96l134 -80v-16h-533v16l133 80v834l-145 84v16h411v-934z" glyph-name="imacron" horiz-adv-x="606" unicode="ī"/><glyph d="M367 1579q-147 0 -224 90t-77 232h28q33 -174 273 -175q238 0 274 175h29q0 -141 -76.5 -231.5t-226.5 -90.5zM508 1321v-1208l164 -93v-20h-611v20l164 93v1208l-164 92v21h611v-21z" glyph-name="Ibreve" horiz-adv-x="733" unicode="Ĭ"/><glyph d="M293 1174q-147 0 -225 90t-78 231h30q33 -174 273 -174q238 0 274 174h29q0 -141 -76.5 -231t-226.5 -90zM444 96l134 -80v-16h-533v16l133 80v834l-145 84v16h411v-934z" glyph-name="ibreve" horiz-adv-x="606" unicode="ĭ"/><glyph d="M508 1321v-1208l164 -93v-20h-92q-195 -98 -195 -242q0 -61 32 -94t81 -33q43 0 82 19v-31q-82 -53 -191 -53q-86 0 -140 43t-54 115q0 88 69.5 151.5t216.5 114.5v10h-420v20l164 93v1208l-164 92v21h611v-21z" glyph-name="Iogonek" horiz-adv-x="733" unicode="Į"/><glyph d="M457 1348l-164 -162l-164 162l164 159zM444 96l134 -80v-16h-3q-195 -98 -194 -242q0 -61 31.5 -94t81.5 -33q43 0 81 19v-31q-82 -53 -190 -53q-86 0 -140.5 43t-54.5 115q0 88 70 151.5t217 114.5v10h-432v16l133 80v834l-145 84v16h411v-934z" glyph-name="iogonek" horiz-adv-x="606" unicode="į"/><glyph d="M530 1753l-163 -162l-164 162l164 160zM508 1321v-1208l164 -93v-20h-611v20l164 93v1208l-164 92v21h611v-21z" glyph-name="Idotaccent" horiz-adv-x="733" unicode="İ"/><glyph d="M444 96l134 -80v-16h-533v16l133 80v834l-145 84v16h411v-934z" glyph-name="dotlessi" horiz-adv-x="606" unicode="ı"/><glyph d="M858 1726l-305 -167l-12 14l276 328h82l277 -328l-13 -14zM543 1434h641v-21l-164 -92v-897q0 -225 -125 -339t-363 -114q-199 0 -444 70l-20 438h20l266 -432q76 -27 144 -27q240 0 239 316v985l-194 92v21z" glyph-name="Jcircumflex" horiz-adv-x="1208" unicode="Ĵ"/><glyph d="M319 1495l277 -328l-12 -14l-305 168l-306 -168l-12 14l277 328h81zM29 1014v16h411v-983q0 -190 -131 -325.5t-278 -135.5q-41 0 -78 6v46q14 -2 33 -3q94 0 141 55.5t47 184.5v1055z" glyph-name="jcircumflex" horiz-adv-x="604" unicode="ĵ"/><glyph d="M1397 121l147 -101v-20h-586v20l123 86l-432 607l-141 -135v-465l164 -93v-20h-611v20l164 93v1208l-164 92v21h611v-21l-164 -92v-672l651 625l-219 139v21h553v-21l-279 -158l-370 -356zM864 -176q49 -45 49 -110.5t-63.5 -129t-159.5 -112.5l-12 16q68 51 67 117 q0 45 -36 82l-68 65l145 146z" glyph-name="Kcommaaccent" horiz-adv-x="1533" unicode="Ķ"/><glyph d="M1098 100l143 -84v-16h-381l-330 524l-96 -82v-346l133 -80v-16h-532v16l133 80v1237l-145 84v17h411v-930l430 368l-145 142v16h457v-16l-265 -164l-188 -162zM702 -176q49 -45 49.5 -110.5t-63 -129t-160.5 -112.5l-12 16q68 51 68 117q0 45 -37 82l-68 65l146 146z " glyph-name="kcommaaccent" horiz-adv-x="1220" unicode="ķ"/><glyph d="M1098 100l143 -84v-16h-381l-330 524l-96 -82v-346l133 -80v-16h-532v16l133 80v834l-145 84v16h411v-526l430 368l-145 142v16h457v-16l-265 -164l-188 -162z" glyph-name="kgreenlandic" horiz-adv-x="1220" unicode="ĸ"/><glyph d="M721 1880l-420 -311h-20l133 332h307v-21zM1262 469h20l-59 -469h-1162v20l164 93v1208l-164 92v21h611v-21l-164 -92v-1272h432z" glyph-name="Lacute" horiz-adv-x="1333" unicode="Ĺ"/><glyph d="M332 1901h307v-21l-420 -311h-20zM434 96l133 -80v-16h-532v16l133 80v1237l-145 84v17h411v-1338z" glyph-name="lacute" horiz-adv-x="595" unicode="ĺ"/><glyph d="M1262 469h20l-59 -469h-1162v20l164 93v1208l-164 92v21h611v-21l-164 -92v-1272h432zM784 -176q49 -45 49.5 -110.5t-63 -129t-160.5 -112.5l-12 16q68 51 68 117q0 45 -37 82l-68 65l146 146z" glyph-name="Lcommaaccent" horiz-adv-x="1333" unicode="Ļ"/><glyph d="M434 96l133 -80v-16h-532v16l133 80v1237l-145 84v17h411v-1338zM389 -176q49 -45 49 -110.5t-63.5 -129t-159.5 -112.5l-12 16q68 51 67 117q0 45 -37 82l-67 65l145 146z" glyph-name="lcommaaccent" horiz-adv-x="595" unicode="ļ"/><glyph d="M893 1167q0 45 -37 82l-68 66l146 145l78 -74q49 -47 49 -110q0 -66 -63.5 -129.5t-159.5 -112.5l-13 17q68 50 68 116zM1262 469h20l-59 -469h-1162v20l164 93v1208l-164 92v21h611v-21l-164 -92v-1272h432z" glyph-name="Lcaron" horiz-adv-x="1333" unicode="Ľ"/><glyph d="M762 1386q49 -47 49 -110q0 -66 -62.5 -130.5t-160.5 -111.5l-10 17q66 49 65 116q0 45 -37 82l-65 66l145 145zM434 96l133 -80v-16h-532v16l133 80v1237l-145 84v17h411v-1338z" glyph-name="lcaron" horiz-adv-x="757" unicode="ľ"/><glyph d="M1262 469h20l-59 -469h-1162v20l164 93v1208l-164 92v21h611v-21l-164 -92v-1272h432zM1171 809l-163 -162l-164 162l164 160z" glyph-name="Ldot" horiz-adv-x="1333" unicode="Ŀ"/><glyph d="M434 96l133 -80v-16h-532v16l133 80v1237l-145 84v17h411v-1338zM721 877l166 -160l-166 -162l-162 162z" glyph-name="ldot" horiz-adv-x="894" unicode="ŀ"/><glyph d="M1286 469h21l-60 -469h-1161v20l164 93v510l-182 -82v55l182 82v643l-164 92v21h610v-21l-164 -92v-516l304 137v-55l-304 -137v-701h431z" glyph-name="Lslash" horiz-adv-x="1357" unicode="Ł"/><glyph d="M461 852v-756l133 -80v-16h-533v16l134 80v631l-175 -82v53l175 82v553l-146 84v17h412v-529l164 76v-53z" glyph-name="lslash" horiz-adv-x="636" unicode="ł"/><glyph d="M1116 1880l-420 -311h-20l133 332h307v-21zM1024 1434h477v-21l-174 -156v-1257h-203l-850 1305v-1129l250 -156v-20h-477v20l174 158v1141l-174 94v21h463l764 -1168v994l-250 153v21z" glyph-name="Nacute" horiz-adv-x="1531" unicode="Ń"/><glyph d="M1012 1475l-420 -312h-21l134 332h307v-20zM1145 96l133 -80v-16h-533v16l134 80v609q0 225 -183 225q-150 0 -252 -129v-705l134 -80v-16h-533v16l133 80v834l-145 84v16h360l49 -176q147 201 379 201q158 0 241 -86t83 -246v-627z" glyph-name="nacute" horiz-adv-x="1296" unicode="ń"/><glyph d="M1024 1434h477v-21l-174 -156v-1257h-203l-850 1305v-1129l250 -156v-20h-477v20l174 158v1141l-174 94v21h463l764 -1168v994l-250 153v21zM860 -176q49 -45 49 -110.5t-63.5 -129t-159.5 -112.5l-12 16q68 51 67 117q0 45 -36 82l-68 65l145 146z" glyph-name="Ncommaaccent" horiz-adv-x="1531" unicode="Ņ"/><glyph d="M1145 96l133 -80v-16h-533v16l134 80v609q0 225 -183 225q-150 0 -252 -129v-705l134 -80v-16h-533v16l133 80v834l-145 84v16h360l49 -176q147 201 379 201q158 0 241 -86t83 -246v-627zM752 -176q49 -45 49 -110.5t-63.5 -129t-159.5 -112.5l-13 16q68 51 68 117 q0 45 -37 82l-68 65l146 146z" glyph-name="ncommaaccent" horiz-adv-x="1296" unicode="ņ"/><glyph d="M815 1573h-82l-276 328l12 14l305 -168l305 168l13 -14zM1024 1434h477v-21l-174 -156v-1257h-203l-850 1305v-1129l250 -156v-20h-477v20l174 158v1141l-174 94v21h463l764 -1168v994l-250 153v21z" glyph-name="Ncaron" horiz-adv-x="1531" unicode="Ň"/><glyph d="M711 1167h-82l-277 328l13 14l305 -168l305 168l12 -14zM1145 96l133 -80v-16h-533v16l134 80v609q0 225 -183 225q-150 0 -252 -129v-705l134 -80v-16h-533v16l133 80v834l-145 84v16h360l49 -176q147 201 379 201q158 0 241 -86t83 -246v-627z" glyph-name="ncaron" horiz-adv-x="1296" unicode="ň"/><glyph d="M1024 1434h477v-21l-174 -156v-1257q0 -182 -109.5 -298t-236.5 -116q-39 0 -78 6v46q16 -2 35 -3q92 0 139 57.5t47 192.5v115l-850 1305v-1129l250 -156v-20h-477v20l174 158v1141l-174 94v21h463l764 -1168v994l-250 153v21z" glyph-name="Eng" horiz-adv-x="1531" unicode="Ŋ"/><glyph d="M801 1053q156 0 238.5 -85t82.5 -245v-676q0 -190 -131 -325.5t-278 -135.5q-39 0 -76 6v46q14 -2 33 -3q94 0 140 55.5t46 184.5v846q0 223 -186 223q-137 0 -238 -121v-717l133 -90v-16h-532v16l133 90v818l-133 90v16h358l39 -158q148 181 371 181z" glyph-name="eng" horiz-adv-x="1273" unicode="ŋ"/><glyph d="M500 1726h655v-49h-655v49zM827 -29q-342 0 -539.5 200t-197.5 546t197.5 545.5t539.5 199.5t540 -199.5t198 -545.5t-198 -546t-540 -200zM827.5 20q194.5 0 309 175.5t114.5 521.5t-114.5 522t-309 176t-309.5 -176t-115 -522t115 -521.5t309.5 -175.5z" glyph-name="Omacron" horiz-adv-x="1654" unicode="Ō"/><glyph d="M274 1321h656v-49h-656v49zM602 -25q-246 0 -395.5 144.5t-149.5 396.5t149.5 395.5t395.5 143.5t396.5 -143.5t150.5 -395.5t-150.5 -396.5t-396.5 -144.5zM602 20q252 0 252 496q0 494 -252 494t-252 -494q0 -496 252 -496z" glyph-name="omacron" horiz-adv-x="1204" unicode="ō"/><glyph d="M526 1901h29q33 -174 272 -175q238 0 275 175h28q0 -141 -76.5 -231.5t-226.5 -90.5q-147 0 -224 90.5t-77 231.5zM827 -29q-342 0 -539.5 200t-197.5 546t197.5 545.5t539.5 199.5t540 -199.5t198 -545.5t-198 -546t-540 -200zM827.5 20q194.5 0 309 175.5t114.5 521.5 t-114.5 522t-309 176t-309.5 -176t-115 -522t115 -521.5t309.5 -175.5z" glyph-name="Obreve" horiz-adv-x="1654" unicode="Ŏ"/><glyph d="M301 1495h29q33 -174 272 -174q238 0 275 174h28q0 -141 -76.5 -231t-226.5 -90q-147 0 -224 90t-77 231zM602 -25q-246 0 -395.5 144.5t-149.5 396.5t149.5 395.5t395.5 143.5t396.5 -143.5t150.5 -395.5t-150.5 -396.5t-396.5 -144.5zM602 20q252 0 252 496 q0 494 -252 494t-252 -494q0 -496 252 -496z" glyph-name="obreve" horiz-adv-x="1204" unicode="ŏ"/><glyph d="M717 1901h256v-21l-359 -311h-20zM1067 1901h258v-21l-358 -311h-21zM827 -29q-342 0 -539.5 200t-197.5 546t197.5 545.5t539.5 199.5t540 -199.5t198 -545.5t-198 -546t-540 -200zM827.5 20q194.5 0 309 175.5t114.5 521.5t-114.5 522t-309 176t-309.5 -176t-115 -522 t115 -521.5t309.5 -175.5z" glyph-name="Ohungarumlaut" horiz-adv-x="1654" unicode="Ő"/><glyph d="M492 1495h256v-20l-359 -312h-20zM842 1495h258v-20l-359 -312h-20zM602 -25q-246 0 -395.5 144.5t-149.5 396.5t149.5 395.5t395.5 143.5t396.5 -143.5t150.5 -395.5t-150.5 -396.5t-396.5 -144.5zM602 20q252 0 252 496q0 494 -252 494t-252 -494q0 -496 252 -496z" glyph-name="ohungarumlaut" horiz-adv-x="1204" unicode="ő"/><glyph d="M2146 449h21l-51 -449h-1309q-332 0 -524.5 196.5t-192.5 540.5q0 328 205 512.5t539 184.5h1257v-396h-20l-254 346h-459v-616h198l230 123h20v-295h-20l-230 123h-198v-670h489zM872 49h203v1335h-178q-240 0 -369 -167.5t-129 -507.5q0 -660 473 -660z" glyph-name="OE" horiz-adv-x="2248" unicode="Œ"/><glyph d="M1815 317l38 -18q-125 -324 -473 -324q-240 0 -389 156q-150 -156 -391 -156q-240 0 -391.5 147.5t-151.5 393.5q0 244 150.5 391.5t392.5 147.5q246 0 393 -158q145 158 387 158q219 0 344 -119t125 -336v-63h-712q4 -209 95 -323t238 -114q224 0 345 217zM600 20 q248 0 248 496q0 494 -248 494q-250 0 -250 -494q0 -496 250 -496zM1384 1010q-109 0 -175 -108.5t-72 -319.5h448v43q0 385 -201 385z" glyph-name="oe" horiz-adv-x="1910" unicode="œ"/><glyph d="M1065 1880l-420 -311h-20l133 332h307v-21zM1395 119l94 -96v-23h-338l-377 655h-266v-542l164 -93v-20h-611v20l164 93v1208l-164 92v21h768q246 0 381.5 -93.5t135.5 -279.5q0 -182 -137.5 -283.5t-340.5 -105.5v-17q121 -66 269 -102zM748 705q147 0 228 89t81 255 q0 164 -86 249.5t-232 85.5h-231v-679h240z" glyph-name="Racute" horiz-adv-x="1523" unicode="Ŕ"/><glyph d="M766 1475l-420 -312h-20l133 332h307v-20zM717 1047q70 0 143 -17l-10 -328h-16l-199 242q-117 -33 -191 -166v-682l185 -80v-16h-584v16l133 80v834l-145 84v16h360l51 -184q107 201 273 201z" glyph-name="racute" horiz-adv-x="911" unicode="ŕ"/><glyph d="M1395 119l94 -96v-23h-338l-377 655h-266v-542l164 -93v-20h-611v20l164 93v1208l-164 92v21h768q246 0 381.5 -93.5t135.5 -279.5q0 -182 -137.5 -283.5t-340.5 -105.5v-17q121 -66 269 -102zM748 705q147 0 228 89t81 255q0 164 -86 249.5t-232 85.5h-231v-679h240z M885 -176q49 -45 49 -110.5t-63.5 -129t-159.5 -112.5l-13 16q68 51 68 117q0 45 -37 82l-67 65l145 146z" glyph-name="Rcommaaccent" horiz-adv-x="1523" unicode="Ŗ"/><glyph d="M717 1047q70 0 143 -17l-10 -328h-16l-199 242q-117 -33 -191 -166v-682l185 -80v-16h-584v16l133 80v834l-145 84v16h360l51 -184q107 201 273 201zM428 -176q49 -45 49 -110.5t-63.5 -129t-159.5 -112.5l-12 16q68 51 67 117q0 45 -37 82l-67 65l145 146z" glyph-name="rcommaaccent" horiz-adv-x="911" unicode="ŗ"/><glyph d="M764 1573h-82l-276 328l12 14l305 -168l305 168l12 -14zM1395 119l94 -96v-23h-338l-377 655h-266v-542l164 -93v-20h-611v20l164 93v1208l-164 92v21h768q246 0 381.5 -93.5t135.5 -279.5q0 -182 -137.5 -283.5t-340.5 -105.5v-17q121 -66 269 -102zM748 705 q147 0 228 89t81 255q0 164 -86 249.5t-232 85.5h-231v-679h240z" glyph-name="Rcaron" horiz-adv-x="1523" unicode="Ř"/><glyph d="M463 1167h-82l-277 328l13 14l305 -168l305 168l12 -14zM717 1047q70 0 143 -17l-10 -328h-16l-199 242q-117 -33 -191 -166v-682l185 -80v-16h-584v16l133 80v834l-145 84v16h360l51 -184q107 201 273 201z" glyph-name="rcaron" horiz-adv-x="911" unicode="ř"/><glyph d="M668 1901h307v-21l-420 -311h-20zM117 45v438h20l266 -428q111 -35 211 -35q158 0 252.5 82t94.5 207q0 102 -56.5 165t-179.5 106l-279 96q-336 115 -335 399q0 182 143 284.5t358 102.5q193 0 486 -63v-379h-21l-270 366q-98 29 -191 29q-123 0 -203.5 -66.5 t-80.5 -170.5q0 -168 205 -240l297 -98q367 -121 366 -408q0 -215 -167 -338t-412 -123q-191 0 -504 74z" glyph-name="Sacute" horiz-adv-x="1275" unicode="Ś"/><glyph d="M532 1495h308v-20l-420 -312h-21zM840 682l-230 309q-78 20 -135 21q-78 0 -131 -43t-53 -115q0 -106 141 -154l221 -73q139 -45 208 -116t69 -189q0 -160 -128 -253.5t-308 -93.5q-160 0 -402 62l6 362h17l237 -356q68 -25 137 -25q100 0 161 52.5t61 138.5 q0 125 -150 178l-223 78q-250 88 -250 297q0 137 109.5 215t277.5 78q164 0 393 -51l-12 -322h-16z" glyph-name="sacute" horiz-adv-x="991" unicode="ś"/><glyph d="M315 1573l277 328h82l276 -328l-12 -14l-305 167l-305 -167zM117 45v438h20l266 -428q111 -35 211 -35q158 0 252.5 82t94.5 207q0 102 -56.5 165t-179.5 106l-279 96q-336 115 -335 399q0 182 143 284.5t358 102.5q193 0 486 -63v-379h-21l-270 366q-98 29 -191 29 q-123 0 -203.5 -66.5t-80.5 -170.5q0 -168 205 -240l297 -98q367 -121 366 -408q0 -215 -167 -338t-412 -123q-191 0 -504 74z" glyph-name="Scircumflex" horiz-adv-x="1275" unicode="Ŝ"/><glyph d="M180 1167l277 328h82l276 -328l-12 -14l-305 168l-305 -168zM840 682l-230 309q-78 20 -135 21q-78 0 -131 -43t-53 -115q0 -106 141 -154l221 -73q139 -45 208 -116t69 -189q0 -160 -128 -253.5t-308 -93.5q-160 0 -402 62l6 362h17l237 -356q68 -25 137 -25 q100 0 161 52.5t61 138.5q0 125 -150 178l-223 78q-250 88 -250 297q0 137 109.5 215t277.5 78q164 0 393 -51l-12 -322h-16z" glyph-name="scircumflex" horiz-adv-x="991" unicode="ŝ"/><glyph d="M1200 432q0 -213 -161.5 -335t-403.5 -126l-51 -75q268 -2 268 -162q0 -78 -68.5 -123t-169.5 -45q-76 0 -155 37v69h10l78 -65q10 -4 28 -4q43 0 71 30.5t28 92.5q0 127 -154 131l-12 14l72 100q-174 6 -463 74v438h20l266 -428q111 -35 211 -35q158 0 252.5 82 t94.5 207q0 102 -56.5 165t-179.5 106l-279 96q-336 115 -335 399q0 182 143 284.5t358 102.5q193 0 486 -63v-379h-21l-270 366q-98 29 -191 29q-123 0 -203.5 -66.5t-80.5 -170.5q0 -168 205 -240l297 -98q366 -121 366 -408z" glyph-name="Scedilla" horiz-adv-x="1275" unicode="Ş"/><glyph d="M494 -25l-56 -79q268 -2 269 -162q0 -78 -69 -123t-169 -45q-76 0 -156 37v69h11l77 -65q10 -4 29 -4q43 0 70.5 30.5t27.5 92.5q0 127 -153 131l-13 14l76 106q-127 4 -346 60l6 362h17l237 -356q68 -25 137 -25q100 0 161 52.5t61 138.5q0 125 -150 178l-223 78 q-250 88 -250 297q0 137 109.5 215t277.5 78q164 0 393 -51l-12 -322h-16l-230 309q-78 20 -135 21q-78 0 -131 -43t-53 -115q0 -106 141 -154l221 -73q139 -45 208 -116t69 -189q0 -160 -128 -253.5t-308 -93.5z" glyph-name="scedilla" horiz-adv-x="991" unicode="ş"/><glyph d="M315 1901l13 14l305 -168l305 168l12 -14l-276 -328h-82zM117 45v438h20l266 -428q111 -35 211 -35q158 0 252.5 82t94.5 207q0 102 -56.5 165t-179.5 106l-279 96q-336 115 -335 399q0 182 143 284.5t358 102.5q193 0 486 -63v-379h-21l-270 366q-98 29 -191 29 q-123 0 -203.5 -66.5t-80.5 -170.5q0 -168 205 -240l297 -98q367 -121 366 -408q0 -215 -167 -338t-412 -123q-191 0 -504 74z" glyph-name="Scaron" horiz-adv-x="1275" unicode="Š"/><glyph d="M180 1495l13 14l305 -168l305 168l12 -14l-276 -328h-82zM840 682l-230 309q-78 20 -135 21q-78 0 -131 -43t-53 -115q0 -106 141 -154l221 -73q139 -45 208 -116t69 -189q0 -160 -128 -253.5t-308 -93.5q-160 0 -402 62l6 362h17l237 -356q68 -25 137 -25 q100 0 161 52.5t61 138.5q0 125 -150 178l-223 78q-250 88 -250 297q0 137 109.5 215t277.5 78q164 0 393 -51l-12 -322h-16z" glyph-name="scaron" horiz-adv-x="991" unicode="š"/><glyph d="M1350 1434l20 -420h-20l-238 370h-254v-1271l184 -93v-20h-307l-71 -104q268 -2 268 -162q0 -78 -68.5 -123t-169.5 -45q-76 0 -155 37v69h10l78 -65q10 -4 28 -4q43 0 71 30.5t28 92.5q0 127 -154 131l-12 14l92 129h-289v20l184 93v1271h-256l-237 -370h-21l21 420 h1268z" glyph-name="Tcommaaccent" horiz-adv-x="1431" unicode="Ţ"/><glyph d="M735 985h-309v-723q0 -172 119 -172q88 0 151 107l39 -21q-96 -201 -305 -201q-33 0 -47 2l-57 -81q268 -2 268 -162q0 -78 -68.5 -123t-169.5 -45q-76 0 -155 37v69h10l78 -65q10 -4 28 -4q43 0 71 30.5t28 92.5q0 127 -154 131l-12 14l84 117q-174 47 -174 241v756 h-154v41l137 39l269 250h14v-285h309v-45z" glyph-name="tcommaaccent" horiz-adv-x="735" unicode="ţ"/><glyph d="M758 1573h-82l-277 328l13 14l305 -168l305 168l12 -14zM1350 1434l20 -420h-20l-238 370h-254v-1271l184 -93v-20h-651v20l184 93v1271h-256l-237 -370h-21l21 420h1268z" glyph-name="Tcaron" horiz-adv-x="1431" unicode="Ť"/><glyph d="M618 1239q0 45 -36 82l-66 65l146 146l75 -74q49 -45 49 -110.5t-62 -130t-161 -111.5l-10 16q65 49 65 117zM426 1315v-285h309v-45h-309v-723q0 -172 119 -172q88 0 151 107l39 -21q-96 -201 -305 -201q-129 0 -199.5 69t-70.5 185v756h-154v41l137 39l269 250h14z" glyph-name="tcaron" horiz-adv-x="761" unicode="ť"/><glyph d="M1112 1384h-254v-622h279v-49h-279v-600l184 -93v-20h-651v20l184 93v600h-278v49h278v622h-256l-237 -370h-21l21 420h1268l20 -420h-20z" glyph-name="Tbar" horiz-adv-x="1431" unicode="Ŧ"/><glyph d="M745 985h-309v-244h293v-45h-293v-434q0 -172 119 -172q88 0 152 107l38 -21q-96 -201 -305 -201q-129 0 -199.5 69t-70.5 185v467h-154v45h154v244h-154v41l138 39l268 250h14v-285h309v-45z" glyph-name="tbar" horiz-adv-x="761" unicode="ŧ"/><glyph d="M672 1708q-43 0 -71 -19.5t-58 -76.5l-27 10q27 113 79 176.5t116 63.5q47 0 157.5 -45t149.5 -45q43 0 69.5 19t57.5 77l26 -10q-25 -113 -78 -176.5t-116 -63.5q-49 0 -157.5 45t-147.5 45zM1049 1434h477v-21l-174 -156l-2 -749q0 -252 -145.5 -394.5t-422.5 -142.5 q-274 0 -422.5 143.5t-148.5 391.5v815l-164 92v21h610v-21l-163 -92v-817q0 -190 107.5 -311t293.5 -121t293.5 120.5t107.5 311.5l2 756l-249 153v21z" glyph-name="Utilde" horiz-adv-x="1550" unicode="Ũ"/><glyph d="M442 1303q-43 0 -70.5 -19.5t-58.5 -77.5l-26 11q27 113 79 176t115 63q47 0 158 -45t149 -45q43 0 70 19.5t57 76.5l27 -10q-25 -113 -78 -176.5t-116 -63.5q-49 0 -158 45.5t-148 45.5zM1094 100l133 -84v-16h-348l-48 172q-139 -197 -346 -197q-162 0 -247.5 87.5 t-85.5 246.5v621l-146 84v16h412v-702q0 -227 180 -228q135 0 229 127v703l-145 84v16h412v-930z" glyph-name="utilde" horiz-adv-x="1255" unicode="ũ"/><glyph d="M1171 1726v-49h-655v49h655zM1049 1434h477v-21l-174 -156l-2 -749q0 -252 -145.5 -394.5t-422.5 -142.5q-274 0 -422.5 143.5t-148.5 391.5v815l-164 92v21h610v-21l-163 -92v-817q0 -190 107.5 -311t293.5 -121t293.5 120.5t107.5 311.5l2 756l-249 153v21z" glyph-name="Umacron" horiz-adv-x="1550" unicode="Ū"/><glyph d="M942 1321v-49h-655v49h655zM1094 100l133 -84v-16h-348l-48 172q-139 -197 -346 -197q-162 0 -247.5 87.5t-85.5 246.5v621l-146 84v16h412v-702q0 -227 180 -228q135 0 229 127v703l-145 84v16h412v-930z" glyph-name="umacron" horiz-adv-x="1255" unicode="ū"/><glyph d="M844 1579q-147 0 -224 90t-77 232h28q33 -174 273 -175q238 0 274 175h29q0 -141 -76.5 -231.5t-226.5 -90.5zM1049 1434h477v-21l-174 -156l-2 -749q0 -252 -145.5 -394.5t-422.5 -142.5q-274 0 -422.5 143.5t-148.5 391.5v815l-164 92v21h610v-21l-163 -92v-817 q0 -190 107.5 -311t293.5 -121t293.5 120.5t107.5 311.5l2 756l-249 153v21z" glyph-name="Ubreve" horiz-adv-x="1550" unicode="Ŭ"/><glyph d="M614 1174q-147 0 -224 90t-77 231h29q33 -174 272 -174q238 0 275 174h29q0 -141 -77 -231t-227 -90zM1094 100l133 -84v-16h-348l-48 172q-139 -197 -346 -197q-162 0 -247.5 87.5t-85.5 246.5v621l-146 84v16h412v-702q0 -227 180 -228q135 0 229 127v703l-145 84v16 h412v-930z" glyph-name="ubreve" horiz-adv-x="1255" unicode="ŭ"/><glyph d="M844 1565q-100 0 -165 55t-65 143t64.5 142.5t165 54.5t166 -55.5t65.5 -141.5t-66.5 -142t-164.5 -56zM844 1931q-96 0 -96 -168q0 -170 96 -170t96 170q0 168 -96 168zM1049 1434h477v-21l-174 -156l-2 -749q0 -252 -145.5 -394.5t-422.5 -142.5q-274 0 -422.5 143.5 t-148.5 391.5v815l-164 92v21h610v-21l-163 -92v-817q0 -190 107.5 -311t293.5 -121t293.5 120.5t107.5 311.5l2 756l-249 153v21z" glyph-name="Uring" horiz-adv-x="1550" unicode="Ů"/><glyph d="M614 1159q-100 0 -164.5 55.5t-64.5 143.5t64.5 142t165 54t166 -55t65.5 -141t-67 -142.5t-165 -56.5zM614.5 1526q-96.5 0 -96.5 -168q0 -170 96.5 -170t96.5 170q0 168 -96.5 168zM1094 100l133 -84v-16h-348l-48 172q-139 -197 -346 -197q-162 0 -247.5 87.5 t-85.5 246.5v621l-146 84v16h412v-702q0 -227 180 -228q135 0 229 127v703l-145 84v16h412v-930z" glyph-name="uring" horiz-adv-x="1255" unicode="ů"/><glyph d="M989 1880l-358 -311h-21l123 332h256v-21zM983 1569h-20l120 332h258v-21zM1049 1434h477v-21l-174 -156l-2 -749q0 -252 -145.5 -394.5t-422.5 -142.5q-274 0 -422.5 143.5t-148.5 391.5v815l-164 92v21h610v-21l-163 -92v-817q0 -190 107.5 -311t293.5 -121 t293.5 120.5t107.5 311.5l2 756l-249 153v21z" glyph-name="Uhungarumlaut" horiz-adv-x="1550" unicode="Ű"/><glyph d="M760 1475l-359 -312h-20l123 332h256v-20zM754 1163h-21l121 332h258v-20zM1094 100l133 -84v-16h-348l-48 172q-139 -197 -346 -197q-162 0 -247.5 87.5t-85.5 246.5v621l-146 84v16h412v-702q0 -227 180 -228q135 0 229 127v703l-145 84v16h412v-930z" glyph-name="uhungarumlaut" horiz-adv-x="1255" unicode="ű"/><glyph d="M1049 1434h477v-21l-174 -156l-2 -749q0 -197 -89.5 -329t-263.5 -181q-193 -94 -192 -240q0 -61 31.5 -94t81.5 -33q43 0 81 19v-31q-82 -53 -190 -53q-86 0 -140.5 43t-54.5 115q0 156 246 251q-49 -4 -78 -4q-274 0 -422.5 143.5t-148.5 391.5v815l-164 92v21h610v-21 l-163 -92v-817q0 -190 107.5 -311t293.5 -121t293.5 120.5t107.5 311.5l2 756l-249 153v21z" glyph-name="Uogonek" horiz-adv-x="1550" unicode="Ų"/><glyph d="M1227 0q-195 -98 -195 -242q0 -61 32 -94t81 -33q43 0 82 19v-31q-82 -53 -191 -53q-86 0 -140 43t-54 115q0 88 69.5 151.5t216.5 114.5v10h-249l-48 172q-139 -197 -346 -197q-162 0 -247.5 87.5t-85.5 246.5v621l-146 84v16h412v-702q0 -227 180 -228q135 0 229 127 v703l-145 84v16h412v-930l133 -84v-16z" glyph-name="uogonek" horiz-adv-x="1255" unicode="ų"/><glyph d="M1133 1726l-306 -167l-12 14l277 328h82l276 -328l-12 -14zM1702 1434h477v-21l-174 -156l-442 -1257h-140l-333 928l-332 -928h-140l-485 1317l-149 96v21h602v-21l-164 -92l379 -1049l260 732l-123 344l-102 65v21h546v-21l-149 -84l371 -1053l350 990l-252 147v21z " glyph-name="Wcircumflex" horiz-adv-x="2162" unicode="Ŵ"/><glyph d="M889 1321l-305 -168l-13 14l277 328h82l276 -328l-12 -14zM1346 1030h397v-16l-137 -152l-336 -862h-140l-266 631l-256 -631h-137l-393 926l-109 88v16h523v-16l-134 -84l289 -705l189 473l-109 258l-70 58v16h478v-16l-119 -74l291 -711l249 641l-210 144v16z" glyph-name="wcircumflex" horiz-adv-x="1708" unicode="ŵ"/><glyph d="M760 1726l-305 -167l-13 14l277 328h82l276 -328l-12 -14zM952 1434h475v-21l-174 -160l-393 -673v-467l184 -93v-20h-651v20l185 93v432l-445 772l-149 96v21h624v-21l-164 -92l390 -690l368 637l-250 145v21z" glyph-name="Ycircumflex" horiz-adv-x="1413" unicode="Ŷ"/><glyph d="M608 1321l-305 -168l-12 14l276 328h82l277 -328l-13 -14zM737 1030h398v-16l-140 -154l-411 -1003q-66 -158 -130.5 -214.5t-156.5 -56.5q-41 0 -102 21v176h307l47 117l-471 1026l-109 88v16h527v-16l-134 -84l318 -713l268 653l-211 144v16z" glyph-name="ycircumflex" horiz-adv-x="1097" unicode="ŷ"/><glyph d="M717 1741l-156 -156l-155 156l155 151zM1114 1741l-156 -156l-153 156l153 151zM952 1434h475v-21l-174 -160l-393 -673v-467l184 -93v-20h-651v20l185 93v432l-445 772l-149 96v21h624v-21l-164 -92l390 -690l368 637l-250 145v21z" glyph-name="Ydieresis" horiz-adv-x="1413" unicode="Ÿ"/><glyph d="M1044 1880l-419 -311h-21l133 332h307v-21zM1280 471h20l-59 -471h-1165v49l862 1335h-508l-254 -378h-20v428h1099v-50l-862 -1335h576z" glyph-name="Zacute" horiz-adv-x="1363" unicode="Ź"/><glyph d="M565 1495h307v-20l-419 -312h-21zM57 0v45l609 940h-330l-219 -321h-17v366h863v-45l-609 -940h359l229 352h16v-397h-901z" glyph-name="zacute" horiz-adv-x="1032" unicode="ź"/><glyph d="M866 1753l-164 -162l-163 162l163 160zM1280 471h20l-59 -471h-1165v49l862 1335h-508l-254 -378h-20v428h1099v-50l-862 -1335h576z" glyph-name="Zdotaccent" horiz-adv-x="1363" unicode="Ż"/><glyph d="M530 1507l164 -159l-164 -162l-163 162zM57 0v45l609 940h-330l-219 -321h-17v366h863v-45l-609 -940h359l229 352h16v-397h-901z" glyph-name="zdotaccent" horiz-adv-x="1032" unicode="ż"/><glyph d="M743 1573h-81l-277 328l12 14l305 -168l306 168l12 -14zM1280 471h20l-59 -471h-1165v49l862 1335h-508l-254 -378h-20v428h1099v-50l-862 -1335h576z" glyph-name="Zcaron" horiz-adv-x="1363" unicode="Ž"/><glyph d="M213 1495l12 14l305 -168l306 168l12 -14l-277 -328h-82zM57 0v45l609 940h-330l-219 -321h-17v366h863v-45l-609 -940h359l229 352h16v-397h-901z" glyph-name="zcaron" horiz-adv-x="1032" unicode="ž"/><glyph d="M860 1460q121 0 289 -37l-39 -319h-16l-168 303q-33 8 -56 8q-47 0 -82.5 -44t-46.5 -132l-55 -438h307v-45h-313l-90 -721q-27 -225 -136.5 -337t-273.5 -112q-123 0 -289 37l39 318h17l170 -301q25 -8 53 -9q47 0 83 47.5t48 145.5l117 932h-205v45h211l31 250 q49 409 405 409z" glyph-name="florin" horiz-adv-x="1179" unicode="ƒ"/><glyph d="M117 45v438h20l266 -428q111 -35 211 -35q158 0 252.5 82t94.5 207q0 102 -56.5 165t-179.5 106l-279 96q-336 115 -335 399q0 182 143 284.5t358 102.5q193 0 486 -63v-379h-21l-270 366q-98 29 -191 29q-123 0 -203.5 -66.5t-80.5 -170.5q0 -168 205 -240l297 -98 q367 -121 366 -408q0 -215 -167 -338t-412 -123q-191 0 -504 74zM508 -248l145 146l78 -74q49 -45 49 -110.5t-63.5 -129t-159.5 -112.5l-12 16q68 51 67 117q0 45 -37 82z" glyph-name="Scommaaccent" horiz-adv-x="1275" unicode="Ș"/><glyph d="M840 682l-230 309q-78 20 -135 21q-78 0 -131 -43t-53 -115q0 -106 141 -154l221 -73q139 -45 208 -116t69 -189q0 -160 -128 -253.5t-308 -93.5q-160 0 -402 62l6 362h17l237 -356q68 -25 137 -25q100 0 161 52.5t61 138.5q0 125 -150 178l-223 78q-250 88 -250 297 q0 137 109.5 215t277.5 78q164 0 393 -51l-12 -322h-16zM375 -248l145 146l78 -74q49 -45 49 -110.5t-63.5 -129t-159.5 -112.5l-12 16q68 51 67 117q0 45 -37 82z" glyph-name="scommaaccent" horiz-adv-x="991" unicode="ș"/><glyph d="M1350 1434l20 -420h-20l-238 370h-254v-1271l184 -93v-20h-651v20l184 93v1271h-256l-237 -370h-21l21 420h1268zM811 -176q49 -45 49 -110.5t-63.5 -129t-159.5 -112.5l-12 16q68 51 67 117q0 45 -37 82l-67 65l145 146z" glyph-name="uni021A" horiz-adv-x="1431" unicode="Ț"/><glyph d="M735 985h-309v-723q0 -172 119 -172q88 0 151 107l39 -21q-96 -201 -305 -201q-129 0 -199.5 69t-70.5 185v756h-154v41l137 39l269 250h14v-285h309v-45zM471 -176q49 -45 49 -110.5t-63.5 -129t-159.5 -112.5l-12 16q68 51 67 117q0 45 -37 82l-67 65l145 146z" glyph-name="uni021B" horiz-adv-x="735" unicode="ț"/><glyph d="M29 1030h411v-983q0 -190 -131 -325.5t-278 -135.5q-41 0 -78 6v46q14 -2 33 -3q94 0 141 55.5t47 184.5v1055l-145 84v16z" glyph-name="uni0237" horiz-adv-x="604" unicode="ȷ"/><glyph d="M123 1167l276 328h82l277 -328l-13 -14l-305 168l-305 -168z" glyph-name="circumflex" horiz-adv-x="880" unicode="ˆ"/><glyph d="M123 1495l12 14l305 -168l305 168l13 -14l-277 -328h-82z" glyph-name="caron" horiz-adv-x="880" unicode="ˇ"/><glyph d="M139 1495h29q33 -174 272 -174q238 0 275 174h28q0 -141 -76.5 -231t-226.5 -90q-147 0 -224 90t-77 231z" glyph-name="breve" horiz-adv-x="880" unicode="˘"/><glyph d="M440 1507l164 -159l-164 -162l-164 162z" glyph-name="dotaccent" horiz-adv-x="880" unicode="˙"/><glyph d="M440 1159q-100 0 -164.5 55.5t-64.5 143.5t64.5 142t165 54t166 -55t65.5 -141t-67 -142.5t-165 -56.5zM440.5 1188q96.5 0 96.5 170q0 168 -96.5 168t-96.5 -168q0 -170 96.5 -170z" glyph-name="ring" horiz-adv-x="880" unicode="˚"/><glyph d="M442 -434q-86 0 -140 43t-54 115q0 88 69.5 151.5t217.5 114.5v10h98q-195 -98 -195 -242q0 -61 32 -94t81 -33q43 0 82 19v-31q-82 -53 -191 -53z" glyph-name="ogonek" horiz-adv-x="880" unicode="˛"/><glyph d="M139 1206l-26 11q27 113 79 176t115 63q47 0 157.5 -45t149.5 -45q43 0 70 19.5t57 76.5l27 -10q-25 -113 -78 -176.5t-117 -63.5q-49 0 -157.5 45.5t-147.5 45.5q-43 0 -70.5 -20t-58.5 -77z" glyph-name="tilde" horiz-adv-x="880" unicode="˜"/><glyph d="M199 1495h256v-20l-359 -312h-20zM549 1495h258v-20l-358 -312h-21z" glyph-name="hungarumlaut" horiz-adv-x="880" unicode="˝"/><glyph d="M-416 1495l133 -332h-20l-420 312v20h307z" glyph-name="gravecomb" horiz-adv-x="0" unicode="̀"/><glyph d="M-588 1495h307v-20l-419 -312h-21z" glyph-name="acutecomb" horiz-adv-x="0" unicode="́"/><glyph d="M-819 1167l276 328h82l277 -328l-13 -14l-305 168l-305 -168z" glyph-name="uni0302" horiz-adv-x="0" unicode="̂"/><glyph d="M-803 1206l-26 11q27 113 79 176t115 63q47 0 157.5 -45t149.5 -45q43 0 70 19.5t57 76.5l27 -10q-25 -113 -78 -176.5t-117 -63.5q-49 0 -157.5 45.5t-147.5 45.5q-43 0 -70.5 -20t-58.5 -77z" glyph-name="tildecomb" horiz-adv-x="0" unicode="̃"/><glyph d="M-768 1321h655v-49h-655v49z" glyph-name="uni0304" horiz-adv-x="0" unicode="̄"/><glyph d="M-803 1495h29q33 -174 272 -174q238 0 275 174h28q0 -141 -76.5 -231t-226.5 -90q-147 0 -224 90t-77 231z" glyph-name="uni0306" horiz-adv-x="0" unicode="̆"/><glyph d="M-502 1507l164 -159l-164 -162l-164 162z" glyph-name="uni0307" horiz-adv-x="0" unicode="̇"/><glyph d="M-700 1487l155 -152l-155 -155l-156 155zM-303 1487l156 -152l-156 -155l-154 155z" glyph-name="uni0308" horiz-adv-x="0" unicode="̈"/><glyph d="M-502 1159q-100 0 -164.5 55.5t-64.5 143.5t64.5 142t165 54t166 -55t65.5 -141t-67 -142.5t-165 -56.5zM-502 1188q96 0 96 170q0 168 -96 168t-96 -168q0 -170 96 -170z" glyph-name="uni030A" horiz-adv-x="0" unicode="̊"/><glyph d="M-743 1495h256v-20l-359 -312h-20zM-393 1495h258v-20l-359 -312h-20z" glyph-name="uni030B" horiz-adv-x="0" unicode="̋"/><glyph d="M-819 1495l12 14l305 -168l305 168l13 -14l-277 -328h-82z" glyph-name="uni030C" horiz-adv-x="0" unicode="̌"/><glyph d="M-303 1315l-146 -146l-77 74q-49 47 -49 111q0 66 63 129t160 112l12 -16q-68 -51 -68 -117q0 -45 37 -82z" glyph-name="uni0312" horiz-adv-x="0" unicode="̒"/><glyph d="M-575 -248l145 146l78 -74q49 -45 49 -110.5t-63.5 -129t-159.5 -112.5l-13 16q68 51 68 117q0 45 -37 82z" glyph-name="uni0326" horiz-adv-x="0" unicode="̦"/><glyph d="M-510 -104q268 -2 268 -162q0 -78 -68.5 -123t-168.5 -45q-76 0 -156 37v69h10l78 -65q10 -4 29 -4q43 0 70.5 30.5t27.5 92.5q0 127 -153 131l-13 14l92 129h56z" glyph-name="uni0327" horiz-adv-x="0" unicode="̧"/><glyph d="M-438 -434q-86 0 -140.5 43t-54.5 115q0 88 69.5 151.5t217.5 114.5v10h98q-195 -98 -194 -242q0 -61 31.5 -94t80.5 -33q43 0 82 19v-31q-81 -53 -190 -53z" glyph-name="uni0328" horiz-adv-x="0" unicode="̨"/><glyph d="M784 1434l568 -1414v-20h-1295v20l564 1416l4 -2h159zM125 49h924l-463 1165z" glyph-name="Delta" horiz-adv-x="1398" unicode="Δ"/><glyph d="M92 860q0 274 203 438t514 164q309 0 512 -163.5t203 -438.5q0 -240 -152.5 -394.5t-392.5 -211.5v-70l397 2l115 199h20v-385h-585v279q291 150 291 563q0 281 -113 427t-295 146q-184 0 -296 -146.5t-112 -426.5q0 -416 293 -563v-279h-590v385h21l115 -199l401 -2v68 q-242 57 -395.5 212.5t-153.5 395.5z" glyph-name="Omega" horiz-adv-x="1615" unicode="Ω"/><glyph d="M1104 100l133 -84v-16h-348l-47 172q-139 -197 -346 -197q-78 0 -136 19l46 -383h-244v1319l-146 84v16h412v-702q0 -227 180 -228q135 0 230 127v703l-146 84v16h412v-930z" glyph-name="mu" horiz-adv-x="1265" unicode="μ"/><glyph d="M1108 930v-834l133 -80v-16h-532v16l133 80v891h-398v-891l134 -80v-16h-533v16l133 80v834l-145 84v16h1220v-16z" glyph-name="pi" horiz-adv-x="1286" unicode="π"/><glyph d="M1231 1569h-21l-419 311v21h307zM1702 1434h477v-21l-174 -156l-442 -1257h-140l-333 928l-332 -928h-140l-485 1317l-149 96v21h602v-21l-164 -92l379 -1049l260 732l-123 344l-102 65v21h546v-21l-149 -84l371 -1053l350 990l-252 147v21z" glyph-name="Wgrave" horiz-adv-x="2162" unicode="Ẁ"/><glyph d="M987 1163h-20l-420 312v20h307zM1346 1030h397v-16l-137 -152l-336 -862h-140l-266 631l-256 -631h-137l-393 926l-109 88v16h523v-16l-134 -84l289 -705l189 473l-109 258l-70 58v16h478v-16l-119 -74l291 -711l249 641l-210 144v16z" glyph-name="wgrave" horiz-adv-x="1708" unicode="ẁ"/><glyph d="M1475 1880l-420 -311h-21l133 332h308v-21zM1702 1434h477v-21l-174 -156l-442 -1257h-140l-333 928l-332 -928h-140l-485 1317l-149 96v21h602v-21l-164 -92l379 -1049l260 732l-123 344l-102 65v21h546v-21l-149 -84l371 -1053l350 990l-252 147v21z" glyph-name="Wacute" horiz-adv-x="2162" unicode="Ẃ"/><glyph d="M1231 1475l-420 -312h-20l133 332h307v-20zM1346 1030h397v-16l-137 -152l-336 -862h-140l-266 631l-256 -631h-137l-393 926l-109 88v16h523v-16l-134 -84l289 -705l189 473l-109 258l-70 58v16h478v-16l-119 -74l291 -711l249 641l-210 144v16z" glyph-name="wacute" horiz-adv-x="1708" unicode="ẃ"/><glyph d="M1090 1741l-156 -156l-156 156l156 151zM1487 1741l-156 -156l-153 156l153 151zM1702 1434h477v-21l-174 -156l-442 -1257h-140l-333 928l-332 -928h-140l-485 1317l-149 96v21h602v-21l-164 -92l379 -1049l260 732l-123 344l-102 65v21h546v-21l-149 -84l371 -1053 l350 990l-252 147v21z" glyph-name="Wdieresis" horiz-adv-x="2162" unicode="Ẅ"/><glyph d="M846 1335l-156 -155l-155 155l155 152zM1243 1335l-156 -155l-153 155l153 152zM1346 1030h397v-16l-137 -152l-336 -862h-140l-266 631l-256 -631h-137l-393 926l-109 88v16h523v-16l-134 -84l289 -705l189 473l-109 258l-70 58v16h478v-16l-119 -74l291 -711l249 641 l-210 144v16z" glyph-name="wdieresis" horiz-adv-x="1708" unicode="ẅ"/><glyph d="M858 1569h-20l-420 311v21h307zM952 1434h475v-21l-174 -160l-393 -673v-467l184 -93v-20h-651v20l185 93v432l-445 772l-149 96v21h624v-21l-164 -92l390 -690l368 637l-250 145v21z" glyph-name="Ygrave" horiz-adv-x="1413" unicode="Ỳ"/><glyph d="M707 1163h-21l-420 312v20h307zM737 1030h398v-16l-140 -154l-411 -1003q-66 -158 -130.5 -214.5t-156.5 -56.5q-41 0 -102 21v176h307l47 117l-471 1026l-109 88v16h527v-16l-134 -84l318 -713l268 653l-211 144v16z" glyph-name="ygrave" horiz-adv-x="1097" unicode="ỳ"/><glyph d="M129 643h973v-49h-973v49z" glyph-name="endash" horiz-adv-x="1228" unicode="–"/><glyph d="M129 643h1792v-49h-1792v49z" glyph-name="emdash" horiz-adv-x="2048" unicode="—"/><glyph d="M129 643h2406v-49h-2406v49z" glyph-name="afii00208" horiz-adv-x="2662" unicode="―"/><glyph d="M420 1047l-154 -156l-71 72q-76 78 -76 159.5t71.5 155.5t219.5 174l12 -14q-119 -111 -119 -211q0 -61 68 -129z" glyph-name="quoteleft" horiz-adv-x="528" unicode="‘"/><glyph d="M109 1298l153 156l72 -72q74 -76 74 -159q0 -82 -72 -156t-219 -174l-13 14q121 115 121 211q0 59 -67 129z" glyph-name="quoteright" horiz-adv-x="528" unicode="’"/><glyph d="M109 154l153 155l72 -73q74 -74 74 -158q0 -82 -72 -156t-219 -174l-13 14q121 113 121 209q0 59 -67 129z" glyph-name="quotesinglbase" horiz-adv-x="528" unicode="‚"/><glyph d="M420 1047l-154 -156l-71 72q-76 78 -76 159.5t71.5 155.5t219.5 174l12 -14q-119 -111 -119 -211q0 -61 68 -129zM791 1047l-154 -156l-70 72q-76 76 -75 159q0 82 71.5 156t218.5 174l13 -14q-121 -113 -121 -211q0 -59 67 -129z" glyph-name="quotedblleft" horiz-adv-x="899" unicode="“"/><glyph d="M109 1298l153 156l72 -72q74 -76 74 -159q0 -82 -72 -156t-219 -174l-13 14q121 115 121 211q0 59 -67 129zM479 1298l154 156l72 -72q76 -78 75.5 -159.5t-72 -155.5t-219.5 -174l-12 14q119 113 119 211q0 61 -66 129z" glyph-name="quotedblright" horiz-adv-x="899" unicode="”"/><glyph d="M109 154l153 155l72 -73q74 -74 74 -158q0 -82 -72 -156t-219 -174l-13 14q121 113 121 209q0 59 -67 129zM479 154l154 155l72 -73q76 -76 75.5 -158t-72 -156t-219.5 -174l-12 14q119 111 119 209q0 61 -66 129z" glyph-name="quotedblbase" horiz-adv-x="899" unicode="„"/><glyph d="M909 1137h21v-234h-21l-368 92l84 -366v-21l-99 -813h-20l-98 813v21l84 366l-369 -92h-21v234h21l369 -93l-93 369v21h234v-21l-92 -369z" glyph-name="dagger" horiz-adv-x="1032" unicode="†"/><glyph d="M930 903h-21l-368 92l84 -368v-21l-84 -373l368 93h21v-234h-21l-368 92l92 -368v-21h-234v21l93 368l-369 -92h-21v234h21l369 -93l-84 373v21l84 368l-369 -92h-21v234h21l369 -93l-93 369v21h234v-21l-92 -369l368 93h21v-234z" glyph-name="daggerdbl" horiz-adv-x="1032" unicode="‡"/><glyph d="M385 868l250 -245l-250 -246l-248 246z" glyph-name="bullet" horiz-adv-x="765" unicode="•"/><glyph d="M281 317l178 -176l-178 -178l-179 178zM731 317l178 -176l-178 -178l-178 178zM1182 317l178 -176l-178 -178l-178 178z" glyph-name="ellipsis" horiz-adv-x="1462" unicode="…"/><glyph d="M485 606q-174 0 -273 114t-99 312.5t99 312t273 113.5t273.5 -113.5t99.5 -312t-99.5 -312.5t-273.5 -114zM1368 1434h57l-905 -1434h-57zM485.5 647q153.5 0 153.5 385t-153.5 385t-153.5 -385t153.5 -385zM1401 -25q-174 0 -273.5 114t-99.5 312.5t99.5 312 t273.5 113.5t273.5 -113.5t99.5 -312t-99.5 -312.5t-273.5 -114zM2245 -25q-174 0 -273.5 114t-99.5 312.5t99.5 312t273.5 113.5t273 -113.5t99 -312t-99 -312.5t-273 -114zM1400.5 16q153.5 0 153.5 385t-153.5 385t-153.5 -385t153.5 -385zM2244.5 16q153.5 0 153.5 385 t-153.5 385t-153.5 -385t153.5 -385z" glyph-name="perthousand" horiz-adv-x="2729" unicode="‰"/><glyph d="M565 186l-16 -12l-416 399l416 400l16 -10l-200 -390z" glyph-name="guilsinglleft" horiz-adv-x="698" unicode="‹"/><glyph d="M133 186l201 387l-201 390l17 10l415 -400l-415 -399z" glyph-name="guilsinglright" horiz-adv-x="698" unicode="›"/><glyph d="M567 1434h60l-906 -1434h-59z" glyph-name="fraction" horiz-adv-x="288" unicode="⁄"/><glyph d="M422 905q-174 0 -272.5 114t-98.5 312.5t98.5 312t272.5 113.5t272.5 -113.5t98.5 -312t-98.5 -312.5t-272.5 -114zM422 942q162 0 162 389t-162 389t-162 -389t162 -389z" glyph-name="uni2070" horiz-adv-x="843" unicode="⁰"/><glyph d="M729 1163h-147v-155l141 -70v-16h-477v16l141 70v155h-367v37l308 541h254v-17q-174 -197 -506 -524h311v158h195v-158h147v-37z" glyph-name="uni2074" horiz-adv-x="759" unicode="⁴"/><glyph d="M373 1436q143 0 231 -62.5t88 -187.5q0 -127 -92 -204t-254 -77q-115 0 -258 37l-20 238h16l162 -226q39 -12 82 -12q70 0 113.5 58.5t43.5 160.5q0 104 -58 156.5t-157 52.5q-86 0 -164 -47l-14 8l23 410h460l58 16h16l-24 -155h-480l-12 -224q99 58 240 58z" glyph-name="uni2075" horiz-adv-x="753" unicode="⁵"/><glyph d="M465 1427q125 0 208 -61t83 -180q0 -123 -93.5 -202t-248.5 -79q-166 0 -264.5 109.5t-98.5 306.5q0 211 112.5 323.5t285.5 112.5q111 0 239 -31l-6 -239h-16l-142 223q-31 10 -69 10q-86 0 -141.5 -90t-59.5 -278q82 75 211 75zM416 942q63 0 100 57.5t37 163.5 q0 203 -158 203q-78 0 -141 -53q2 -371 162 -371z" glyph-name="uni2076" horiz-adv-x="806" unicode="⁶"/><glyph d="M51 1489l-2 252h602v-31q0 -57 -26 -127l-250 -661h-230v16q147 260 445 653h-461l-61 -102h-17z" glyph-name="uni2077" horiz-adv-x="677" unicode="⁷"/><glyph d="M539 1389q193 -88 192 -230q0 -119 -97 -186.5t-255 -67.5q-147 0 -240.5 57.5t-93.5 161.5q0 156 197 211q-154 78 -154 215q0 98 84 152.5t219 54.5q131 0 212 -49t81 -139q0 -121 -168 -170zM381 1722q-63 0 -101 -32.5t-38 -85.5q0 -80 116 -134l113 -51 q72 53 72 150q0 70 -46 111.5t-116 41.5zM391 942q82 0 130 42t48 108q0 49 -30.5 82.5t-104.5 68.5l-147 70q-88 -61 -88 -180q0 -86 53 -138.5t139 -52.5z" glyph-name="uni2078" horiz-adv-x="772" unicode="⁸"/><glyph d="M393 1757q164 0 260.5 -106.5t96.5 -304.5q0 -217 -112 -329t-282 -112q-102 0 -229 37l-21 232h17l164 -218q29 -14 63 -14q84 0 140.5 94t58.5 295q-72 -86 -201 -86q-127 0 -212 63.5t-85 186.5q0 115 93 188.5t249 73.5zM414 1305q82 0 135 67q-6 348 -160 348 q-66 0 -103.5 -55t-37.5 -158q0 -100 44 -151t122 -51z" glyph-name="uni2079" horiz-adv-x="800" unicode="⁹"/><glyph d="M422 -324q-174 0 -272.5 114t-98.5 312.5t98.5 312t272.5 113.5t272.5 -113.5t98.5 -312t-98.5 -312.5t-272.5 -114zM422 -287q162 0 162 389.5t-162 389.5t-162 -389.5t162 -389.5z" glyph-name="uni2080" horiz-adv-x="843" unicode="₀"/><glyph d="M51 426l352 104h15v-745l172 -76v-16h-539v16l172 76v596l-172 29v16z" glyph-name="uni2081" horiz-adv-x="620" unicode="₁"/><glyph d="M53 -307l4 47q8 78 66.5 157.5t185.5 188.5q90 76 124 132t36 128q0 68 -31.5 107t-85.5 39q-45 0 -94 -13l-137 -227h-17l-8 242q150 35 275 34q141 0 222 -53t81 -156q0 -96 -81 -164.5t-222 -134.5q-178 -88 -234 -176h447l84 109h16l-29 -260h-602z" glyph-name="uni2082" horiz-adv-x="751" unicode="₂"/><glyph d="M88 496q154 33 277 32q135 0 213.5 -47t78.5 -127q0 -150 -266 -194l2 -10q133 8 223.5 -51.5t90.5 -168.5q0 -119 -91.5 -186.5t-255.5 -67.5q-115 0 -272 35l-20 238h16l168 -221q43 -14 88 -15q70 0 115 53.5t45 149.5q0 98 -48.5 148.5t-121.5 50.5q-45 0 -82 -13 l-12 35q113 31 170 81t57 140q0 63 -35 98.5t-86 35.5q-47 0 -98 -13l-129 -221h-17z" glyph-name="uni2083" horiz-adv-x="768" unicode="₃"/><glyph d="M729 -66h-147v-155l141 -70v-16h-477v16l141 70v155h-367v37l308 541h254v-16q-174 -197 -506 -525h311v158h195v-158h147v-37z" glyph-name="uni2084" horiz-adv-x="759" unicode="₄"/><glyph d="M373 207q143 0 231 -62.5t88 -187.5q0 -129 -92 -205t-254 -76q-123 0 -258 35l-20 238h16l162 -223q33 -12 82 -13q70 0 113.5 58.5t43.5 158.5q0 104 -58 157.5t-157 53.5q-86 0 -164 -47l-14 8l23 410h460l58 16h16l-24 -155h-480l-12 -223q99 57 240 57z" glyph-name="uni2085" horiz-adv-x="753" unicode="₅"/><glyph d="M465 199q125 0 208 -61.5t83 -182.5t-93.5 -200t-248.5 -79q-166 0 -264.5 110t-98.5 306q0 211 112.5 323.5t285.5 112.5q111 0 239 -30l-6 -240h-16l-142 223q-31 10 -69 11q-86 0 -141.5 -90.5t-59.5 -278.5q82 76 211 76zM416 -287q63 0 100 57.5t37 163.5 q0 203 -158 203q-78 0 -141 -53q2 -371 162 -371z" glyph-name="uni2086" horiz-adv-x="806" unicode="₆"/><glyph d="M51 260l-2 252h602v-31q0 -57 -26 -127l-250 -661h-230v16q147 260 445 653h-461l-61 -102h-17z" glyph-name="uni2087" horiz-adv-x="677" unicode="₇"/><glyph d="M539 160q193 -88 192 -230q0 -119 -97 -186.5t-255 -67.5q-147 0 -240.5 56.5t-93.5 161.5q0 158 197 212q-154 78 -154 216q0 98 84 152t219 54q131 0 212 -49t81 -139q0 -121 -168 -170zM381 494q-63 0 -101 -33t-38 -86q0 -80 116 -133l113 -52q72 53 72 150 q0 70 -46 112t-116 42zM391 -289q82 0 130 42t48 108q0 49 -30.5 82.5t-104.5 70.5l-147 70q-88 -61 -88 -182q0 -86 53 -138.5t139 -52.5z" glyph-name="uni2088" horiz-adv-x="772" unicode="₈"/><glyph d="M393 528q164 0 260.5 -106.5t96.5 -304.5q0 -217 -111 -329t-283 -112q-100 0 -229 35l-21 234h17l164 -219q25 -12 63 -13q84 0 140.5 94.5t58.5 294.5q-72 -86 -201 -86q-127 0 -212 63.5t-85 186.5q0 115 93 188.5t249 73.5zM414 76q82 0 135 67q-6 348 -160 349 q-66 0 -103.5 -55.5t-37.5 -157.5q0 -100 44 -151.5t122 -51.5z" glyph-name="uni2089" horiz-adv-x="800" unicode="₉"/><glyph d="M1262 1434v-394h-21l-254 344h-459v-651h252l230 123h20v-295h-20l-230 123h-252v-264h277v-45h-277v-262l195 -93v-20h-641v20l164 93v262h-152v45h152v901l-164 92v21h1180z" glyph-name="franc" horiz-adv-x="1329" unicode="₣"/><glyph d="M1182 455h20l-57 -455h-1043v49q133 0 252 99.5t119 232.5q0 47 -12 90h-359v45h340q-31 68 -120 172h-220v45h181q-74 84 -114 161t-40 173q0 188 142.5 291.5t383.5 103.5q199 0 445 -65v-373h-21l-248 365q-74 25 -149 24q-111 0 -178.5 -73.5t-67.5 -217.5 q0 -53 17.5 -108.5t36 -91t54.5 -97t52 -92.5h340v-45h-318q41 -94 46 -172h272v-45h-272q-6 -154 -118 -263.5t-265 -158.5h591z" glyph-name="lira" horiz-adv-x="1273" unicode="₤"/><glyph d="M1446 483h20l-63 -438q-260 -74 -488 -74q-299 0 -496.5 160t-238.5 449h-160v45h156q-4 61 -4 92q0 35 4 100h-156v45h162q43 285 243 442.5t488 157.5q242 0 492 -63v-400h-21l-249 379q-100 37 -197 37q-168 0 -296 -144.5t-153 -408.5h545v-45h-549q-2 -20 -2 -61 q0 -49 4 -131h547v-45h-542q33 -274 156.5 -417t285.5 -143q109 0 194 43z" glyph-name="Euro" horiz-adv-x="1552" unicode="€"/><glyph d="M958 752q201 -10 325 -94.5t124 -251.5q0 -193 -144.5 -299.5t-404.5 -106.5h-67v-256h-50v256h-170v-256h-49v256h-461v20l164 93v1208l-164 92v21h461v256h49v-256h170v256h50v-256h45q231 0 363 -89.5t132 -242.5q0 -147 -101.5 -232.5t-271.5 -101.5v-16zM737 1384 h-229v-614h227q311 0 312 313q0 145 -83.5 223t-226.5 78zM741 49q178 0 271.5 88t93.5 254t-99.5 248t-273.5 82h-225v-672h233z" glyph-name="uni20BF" horiz-adv-x="1488" unicode="₿"/><glyph d="M1888.5 762q-153.5 0 -250 94t-96.5 250t96.5 250t250 94t250.5 -94t97 -250t-97 -250t-250.5 -94zM1024 1413v21h477v-21l-174 -156v-1257h-203l-850 1305v-1129l250 -156v-20h-477v20l174 158v1141l-174 94v21h463l764 -1168v994zM1888.5 1417q-149.5 0 -149.5 -311 t149.5 -311t149.5 311t-149.5 311zM1567 580v49h643v-49h-643z" glyph-name="afii61352" horiz-adv-x="2301" unicode="№"/><glyph d="M82 1434h627l10 -224h-14l-134 187h-92v-557l84 -47v-15h-338v15l86 47v557h-92l-133 -187h-14zM1597 1419l-81 -45v-534l81 -47v-15h-331v15l82 47v477l-211 -428h-19l-229 424v-445l129 -75v-15h-258v15l90 75v506l-90 45v15h241l191 -353l170 353h235v-15z" glyph-name="trademark" horiz-adv-x="1689" unicode="™"/><glyph d="M90 721q0 305 229.5 521t555 216t554 -216t228.5 -521v-27h-1260v-458q180 -209 488 -209q299 0 487 225h131v-21q-260 -254 -618 -254q-340 0 -567.5 214.5t-227.5 529.5zM397 1202v-459h953v459q-184 207 -476 207q-293 0 -477 -207z" glyph-name="estimated" horiz-adv-x="1746" unicode="℮"/><glyph d="M590 631v-17h-539v17l172 76v596l-172 28v17l352 104h15v-745zM1188 1434h59l-905 -1434h-59zM1448 467q193 -88 192 -229q0 -119 -97 -186.5t-255 -67.5q-147 0 -240.5 57t-93.5 162q0 156 197 211q-154 78 -154 215q0 98 84 152.5t219 54.5q131 0 212 -49.5t81 -139.5 q0 -121 -168 -170zM1290 801q-63 0 -101 -33t-38 -86q0 -80 117 -133l112 -51q72 53 72 149q0 70 -46 112t-116 42zM1300 20q82 0 130.5 42t48.5 108q0 49 -31 83t-105 69l-147 69q-88 -61 -88 -180q0 -86 53 -138.5t139 -52.5z" glyph-name="oneeighth" horiz-adv-x="1681" unicode="⅛"/><glyph d="M707 852q0 -119 -91.5 -186.5t-255.5 -67.5q-115 0 -272 35l-20 239h16l168 -223q43 -14 88 -14q70 0 115 53t45 150q0 98 -48.5 148t-121.5 50q-45 0 -82 -12l-12 35q113 31 170 81t57 140q0 63 -35 98t-86 35q-47 0 -98 -12l-129 -221h-17l-10 237q154 33 277 33 q135 0 213.5 -47t78.5 -127q0 -150 -266 -195l2 -10q133 8 223.5 -51t90.5 -168zM1335 1434h60l-906 -1434h-59zM1595 467q193 -88 193 -229q0 -119 -97.5 -186.5t-254.5 -67.5q-147 0 -240.5 57t-93.5 162q0 156 196 211q-154 78 -153 215q0 98 84 152.5t219 54.5 q131 0 212 -49.5t81 -139.5q0 -121 -168 -170zM1438 801q-63 0 -101.5 -33t-38.5 -86q0 -80 117 -133l113 -51q72 53 71 149q0 70 -45.5 112t-115.5 42zM1448 20q82 0 130 42t48 108q0 49 -30.5 83t-104.5 69l-148 69q-88 -61 -88 -180q0 -86 53.5 -138.5t139.5 -52.5z" glyph-name="threeeighths" horiz-adv-x="1828" unicode="⅜"/><glyph d="M692 879q0 -127 -92 -204t-254 -77q-115 0 -258 37l-20 237h16l162 -225q39 -12 82 -12q70 0 113.5 58.5t43.5 160.5q0 104 -58 156.5t-157 52.5q-86 0 -164 -47l-14 8l23 410h460l58 16h16l-24 -156h-480l-12 -223q98 57 240 57q143 0 231 -62t88 -187zM1321 1434h59 l-905 -1434h-59zM1581 467q193 -88 193 -229q0 -119 -97.5 -186.5t-255.5 -67.5q-147 0 -240.5 57t-93.5 162q0 156 197 211q-154 78 -154 215q0 98 84 152.5t220 54.5q131 0 211.5 -49.5t80.5 -139.5q0 -121 -167 -170zM1423 801q-63 0 -101 -33t-38 -86q0 -80 117 -133 l112 -51q72 53 72 149q0 70 -46 112t-116 42zM1434 20q82 0 130 42t48 108q0 49 -31 83t-104 69l-148 69q-88 -61 -88 -180q0 -86 53.5 -138.5t139.5 -52.5z" glyph-name="fiveeighths" horiz-adv-x="1814" unicode="⅝"/><glyph d="M145 614v17q147 260 445 653h-461l-61 -102h-17l-2 252h602v-31q0 -57 -26 -127l-250 -662h-230zM1245 1434h60l-906 -1434h-59zM1505 467q193 -88 193 -229q0 -119 -97.5 -186.5t-254.5 -67.5q-147 0 -240.5 57t-93.5 162q0 156 196 211q-154 78 -153 215q0 98 84 152.5 t219 54.5q131 0 212 -49.5t81 -139.5q0 -121 -168 -170zM1348 801q-63 0 -101.5 -33t-38.5 -86q0 -80 117 -133l113 -51q72 53 71 149q0 70 -45.5 112t-115.5 42zM1358 20q82 0 130 42t48 108q0 49 -30.5 83t-104.5 69l-148 69q-88 -61 -88 -180q0 -86 53.5 -138.5 t139.5 -52.5z" glyph-name="seveneighths" horiz-adv-x="1738" unicode="⅞"/><glyph d="M1589 645v-49h-1167l219 -354l-16 -17l-492 387v17l492 385l16 -17l-219 -352h1167z" glyph-name="arrowleft" horiz-adv-x="1722" unicode="←"/><glyph d="M924 965l-17 -17l-352 219v-1167h-53v1167l-352 -219l-17 17l387 491h17z" glyph-name="arrowup" horiz-adv-x="1056" unicode="↑"/><glyph d="M1098 1014l491 -385v-17l-491 -387l-17 17l219 354h-1167v49h1167l-219 352z" glyph-name="arrowright" horiz-adv-x="1722" unicode="→"/><glyph d="M907 485l17 -16l-387 -492h-17l-387 492l17 16l352 -219v1168h53v-1168z" glyph-name="arrowdown" horiz-adv-x="1056" unicode="↓"/><glyph d="M1161 1014l492 -385v-17l-492 -387l-16 17l219 354h-942l219 -354l-16 -17l-492 387v17l492 385l16 -17l-219 -352h942l-219 352z" glyph-name="arrowboth" horiz-adv-x="1785" unicode="↔"/><glyph d="M907 485l17 -16l-369 -469l-18 -23h-17l-18 23l-369 469l17 16l352 -219v901l-352 -219l-17 17l369 469l18 22h17l18 -22l369 -469l-17 -17l-352 219v-901z" glyph-name="arrowupdn" horiz-adv-x="1056" unicode="↕"/><glyph d="M1186 170l-35 -35l-827 826l-95 -406h-22l-74 621l10 12l621 -76v-22l-404 -95z" glyph-name="uni2196" horiz-adv-x="1318" unicode="↖"/><glyph d="M1176 1188l10 -12l-74 -621h-22l-95 406l-825 -826l-37 35l828 825l-406 95v22z" glyph-name="uni2197" horiz-adv-x="1318" unicode="↗"/><glyph d="M1112 770l74 -620l-10 -13l-621 76v23l406 94l-828 825l37 35l825 -825l95 405h22z" glyph-name="uni2198" horiz-adv-x="1318" unicode="↘"/><glyph d="M1186 1155l-826 -825l404 -94v-23l-621 -76l-10 13l74 620h22l95 -405l827 825z" glyph-name="uni2199" horiz-adv-x="1318" unicode="↙"/><glyph d="M289 1458q379 -47 614.5 -279.5t235.5 -594.5q0 -291 -148.5 -450t-392.5 -159q-240 0 -390.5 147.5t-150.5 399.5q0 244 145.5 388.5t372.5 144.5q135 0 220 -68q-123 346 -510 449zM602 20q250 0 250 521q0 94 -6 178l-4 -2q-12 143 -79 215t-165 72 q-111 0 -182.5 -112t-71.5 -374q0 -254 68.5 -376t189.5 -122z" glyph-name="partialdiff" horiz-adv-x="1204" unicode="∂"/><glyph d="M1411 -133l164 -92v-21h-610v21l163 92v1517h-620v-1517l164 -92v-21h-611v21l164 92v1454l-164 92v21h1514v-21l-164 -92v-1454z" glyph-name="product" horiz-adv-x="1636" unicode="∏"/><glyph d="M41 -246v29l606 731l-598 891v29h1180v-404h-21l-252 354h-565l461 -694v-20l-569 -688h821l127 190h20v-418h-1210z" glyph-name="summation" horiz-adv-x="1333" unicode="∑"/><glyph d="M143 700h881v-49h-881v49z" glyph-name="minus" horiz-adv-x="1167" unicode="−"/><glyph d="M72 836v16h374l318 -647l436 1413h51l-536 -1741h-64l-452 889z" glyph-name="radical" horiz-adv-x="1298" unicode="√"/><glyph d="M1198 1079q166 0 266.5 -112.5t100.5 -290.5q0 -164 -97.5 -278.5t-244.5 -114.5q-113 0 -198 68.5t-122 187.5l-8 -13q-152 -246 -383 -245q-164 0 -266.5 113.5t-102.5 289.5q0 164 97.5 277.5t246.5 113.5q111 0 194 -66.5t124 -183.5l4 6q153 248 389 248zM422 440 q90 0 149.5 52.5t130.5 169.5l72 112q-90 178 -303 178q-121 0 -197.5 -73.5t-76.5 -196.5q0 -104 63.5 -173t161.5 -69zM1237 406q123 0 198.5 73.5t75.5 196.5q0 104 -63.5 174t-159.5 70q-92 0 -153.5 -53.5t-133.5 -170.5l-67 -108q90 -182 303 -182z" glyph-name="infinity" horiz-adv-x="1708" unicode="∞"/><glyph d="M700 1577q109 0 277 -29l-25 -305h-16l-172 285q-29 4 -39 4q-111 0 -111 -189v-1361q0 -178 -92 -266.5t-262 -88.5q-109 0 -276 29l24 305h17l174 -285q29 -4 37 -4q113 0 112 189v1362q0 178 92 266t260 88z" glyph-name="integral" horiz-adv-x="1007" unicode="∫"/><glyph d="M123 782q59 176 227 176q90 0 240.5 -82.5t226.5 -82.5q135 0 180 147l47 -18q-57 -178 -225 -179q-90 0 -240.5 83t-226.5 83q-135 0 -182 -147zM123 428q59 178 227 178q90 0 240.5 -83t226.5 -83q137 0 180 148l47 -21q-57 -176 -227 -176q-90 0 -239.5 83t-225.5 83 q-135 0 -182 -147z" glyph-name="approxequal" horiz-adv-x="1167" unicode="≈"/><glyph d="M1024 844h-315l-189 -338h504v-49h-532l-187 -336h-57l186 336h-291v49h318l188 338h-506v49h533l186 334h60l-187 -334h289v-49z" glyph-name="notequal" horiz-adv-x="1167" unicode="≠"/><glyph d="M129 756v28l881 381v-55l-793 -340l793 -340v-55zM129 236h881v-50h-881v50z" glyph-name="lessequal" horiz-adv-x="1167" unicode="≤"/><glyph d="M1040 756l-880 -381v55l790 340l-790 340v55l880 -381v-28zM1040 236v-50h-880v50h880z" glyph-name="greaterequal" horiz-adv-x="1167" unicode="≥"/><glyph d="M1495 716.5q0 -282.5 -201.5 -484t-484.5 -201.5t-484.5 201.5t-201.5 484t201.5 484.5t484.5 202t484.5 -202t201.5 -484.5zM1442 717q0 264 -185.5 450.5t-447.5 186.5t-447.5 -186.5t-185.5 -450.5q0 -262 185.5 -449.5t447.5 -187.5t447.5 187.5t185.5 449.5z M663.5 762q-34.5 0 -56 44t-21.5 116q0 76 21.5 119.5t56 43.5t55 -44t20.5 -119q0 -74 -20.5 -117t-55 -43zM956.5 762q-34.5 0 -56 44t-21.5 116q0 76 21.5 119.5t56 43.5t55 -44t20.5 -119q0 -74 -20.5 -117t-55 -43zM1147 692h20l179 -55l-5 -19l-163 3 q-25 -143 -127.5 -234.5t-241.5 -91.5t-240.5 91t-126.5 235l-166 -3l-4 19l179 55h20q4 -121 102.5 -206t235.5 -85t235.5 85t102.5 206z" glyph-name="uni2323" horiz-adv-x="1617" unicode="⌣"/><glyph d="M123 727l471 721h20l471 -721v-20l-471 -721h-20l-471 721v20zM178 717l426 -656l428 656l-428 657z" glyph-name="lozenge" horiz-adv-x="1208" unicode="◊"/><glyph d="M457 1348l-164 -162l-164 162l164 159zM444 96l134 -80v-16h-533v16l133 80v834l-145 84v16h411v-934z" glyph-name="i.aalt" horiz-adv-x="606"/><glyph d="M1425 1055q182 0 304 -132t122 -391q0 -266 -157.5 -411.5t-383 -145.5t-470.5 82v1237q-23 51 -77 85t-122 34q-84 0 -139.5 -55t-55.5 -170v-158h291v-45h-291v-889l185 -80v-16h-584v16l133 80v889h-157v45h157v35q0 393 426 393q106 0 205 -24h295v-549 q116 170 319 170zM1296 20q272 0 273 482q0 217 -71 324.5t-187 107.5q-127 0 -205 -100v-705q69 -109 190 -109z" glyph-name="f_b.dlig" horiz-adv-x="1916"/><glyph d="M1761 1030v-983q0 -190 -131 -325.5t-278 -135.5q-39 0 -76 6v46q14 -2 33 -3q94 0 140 55.5t46 184.5v1055l-96 55h-293v-889l184 -80v-16h-583v16l133 80v889h-394v-889l185 -80v-16h-584v16l133 80v889h-157v45h157v6q0 401 434 402q178 0 338 -86q115 106 346 106 q156 0 359 -37l-21 -293h-16l-190 271q-57 14 -109 14q-92 0 -153.5 -61.5t-61.5 -188.5v-133h655zM840 1030v14v5l2 235q-61 109 -197 109q-90 0 -144.5 -56.5t-54.5 -171.5v-135h394z" glyph-name="f_f_j.dlig" horiz-adv-x="1912"/><glyph d="M1798 96l133 -80v-16h-532v16l133 80v609q0 225 -184 225q-141 0 -242 -117v-717l133 -80v-16h-532v16l133 80v1198q-23 51 -77 85t-122 34q-84 0 -139.5 -55t-55.5 -170v-158h291v-45h-291v-889l185 -80v-16h-584v16l133 80v889h-157v45h157v35q0 393 426 393 q106 0 205 -24h295v-566q145 186 367 187q158 0 241.5 -86t83.5 -246v-627z" glyph-name="f_h.dlig" horiz-adv-x="1949"/><glyph d="M1102 1030v-983q0 -190 -131 -325.5t-279 -135.5q-37 0 -78 6v46q16 -2 35 -3q92 0 139.5 55.5t47.5 184.5v1055l-97 55h-293v-889l185 -80v-16h-584v16l133 80v889h-157v45h157v14q0 414 459 414q152 0 358 -37l-20 -293h-16l-193 271q-57 14 -109 14 q-92 0 -152.5 -61.5t-60.5 -188.5v-133h656z" glyph-name="f_j.dlig" horiz-adv-x="1253"/><glyph d="M1769 100l144 -84v-16h-381l-330 524l-96 -82v-346l133 -80v-16h-532v16l133 80v1198q-23 51 -77 85t-122 34q-84 0 -139.5 -55t-55.5 -170v-158h291v-45h-291v-889l185 -80v-16h-584v16l133 80v889h-157v45h157v35q0 393 426 393q106 0 205 -24h295v-930l430 368 l-145 142v16h456v-16l-264 -164l-188 -162z" glyph-name="f_k.dlig" horiz-adv-x="1892"/><glyph d="M622.5 -25q-243.5 0 -392 146.5t-148.5 415t147.5 414t393 145.5t393 -145.5t147.5 -414t-148.5 -415t-392 -146.5zM623 20q121 0 186 116t65 401q0 283 -65.5 398.5t-185.5 115.5q-119 0 -185.5 -116t-66.5 -398q0 -285 66.5 -401t185.5 -116z" glyph-name="zero.oldstyle" horiz-adv-x="1245"/><glyph d="M88 932l463 176h18v-995l215 -97v-16h-696v16l215 97v776l-215 26v17z" glyph-name="one.oldstyle" horiz-adv-x="835"/><glyph d="M78 0l4 63q8 106 99 216t282 239q137 92 192.5 169t55.5 167q0 92 -51.5 144.5t-137.5 52.5q-61 0 -139 -21l-213 -338h-16l-13 352q213 51 408 52q207 0 324.5 -70t117.5 -205q0 -125 -109.5 -209t-332.5 -174q-276 -115 -363 -229h666l147 188h17l-45 -397h-893z" glyph-name="two.oldstyle" horiz-adv-x="1101"/><glyph d="M113 1038q244 57 419 58q207 0 326 -78t119 -211q0 -246 -406 -326l4 -14q201 10 337.5 -86t136.5 -272q0 -197 -139.5 -308.5t-383.5 -111.5q-180 0 -415 55l-33 365h16l268 -353q61 -23 134 -22q117 0 191.5 92t74.5 258q0 164 -82 250t-203 86q-66 0 -123 -21l-14 41 q178 51 270 135t92 238q0 115 -58 176.5t-144 61.5q-72 0 -146 -23l-211 -340h-16z" glyph-name="three.oldstyle" horiz-adv-x="1120"/><glyph d="M1124 113h-213v-287l195 -96v-17h-649v17l194 96v287h-616v45l508 913h352v-16q-274 -346 -772 -897h528v278h260v-278h213v-45z" glyph-name="four.oldstyle" horiz-adv-x="1148"/><glyph d="M561 569q217 0 352.5 -105.5t135.5 -311.5q0 -213 -142.5 -338t-390.5 -125q-154 0 -387 57l-31 363h17l260 -355q51 -20 123 -20q119 0 194.5 102.5t75.5 274.5q0 180 -95 271t-253 91q-152 0 -277 -78l-14 13l35 663h694l109 29h16l-31 -238h-749l-23 -389 q166 96 381 96z" glyph-name="five.oldstyle" horiz-adv-x="1118"/><glyph d="M715 829q188 0 315 -98t127 -291q0 -203 -141.5 -334t-378.5 -131q-256 0 -405.5 182.5t-149.5 508.5q0 348 170 534t430 186q180 0 373 -53l-13 -358h-16l-223 346q-49 20 -109 20q-141 0 -233 -157.5t-96 -489.5q131 135 350 135zM639 20q109 0 175.5 100.5t66.5 282.5 q0 170 -71 255t-202 85q-135 0 -243 -108q4 -319 78.5 -467t195.5 -148z" glyph-name="six.oldstyle" horiz-adv-x="1228"/><glyph d="M55 688l-4 383h942v-31q0 -82 -35 -184l-415 -1143h-322v17q242 461 694 1132h-737l-106 -174h-17z" glyph-name="seven.oldstyle" horiz-adv-x="1034"/><glyph d="M840 758q299 -145 299 -369q0 -193 -149.5 -303.5t-397.5 -110.5q-231 0 -377.5 93.5t-146.5 265.5q0 139 95 229t257 131l-31 15q-250 123 -250 342q0 160 131 247.5t342 87.5q201 0 326 -79.5t125 -227.5q0 -207 -295 -286zM360 1130q0 -78 46.5 -131t150.5 -104 l156 -76q139 92 139 262q0 121 -69.5 190.5t-184.5 69.5q-106 0 -172 -59.5t-66 -151.5zM606 20q141 0 223 75t82 190q0 88 -53 151.5t-178 126.5l-207 103q-188 -98 -188 -316q0 -147 89 -238.5t232 -91.5z" glyph-name="eight.oldstyle" horiz-adv-x="1198"/><glyph d="M575 1096q250 0 398.5 -184.5t148.5 -514.5q0 -346 -165.5 -527t-419.5 -181q-156 0 -367 55l-33 358h17l264 -348q49 -20 106 -20q135 0 225.5 160.5t90.5 494.5v6q-133 -137 -342 -137q-186 0 -311.5 100.5t-125.5 300.5q0 193 139 315t375 122zM602 344q131 0 238 107 q-14 600 -271 600q-106 0 -169.5 -96.5t-63.5 -272.5q0 -168 69.5 -253t196.5 -85z" glyph-name="nine.oldstyle" horiz-adv-x="1204"/><glyph d="M666 -27q-272 0 -432 191.5t-160 552t159.5 552t432.5 191.5q274 0 432.5 -191.5t158.5 -552t-158.5 -552t-432.5 -191.5zM666 20q299 0 299 696.5t-299 696.5q-297 0 -297 -696.5t297 -696.5z" glyph-name="zero.tnum"/><glyph d="M307 1296l486 177h16v-1360l266 -97v-16h-799v16l267 97v1140l-236 27v16z" glyph-name="one.tnum"/><glyph d="M137 0l6 84q16 264 418 586q172 141 241.5 246.5t71.5 226.5q0 127 -64.5 200.5t-174.5 73.5q-78 0 -156 -24l-239 -373h-17l-16 381q244 61 459 61q231 0 363 -92t132 -274q0 -168 -130 -288t-367 -237q-332 -176 -433 -348h783l153 193h17l-47 -416h-1000z" glyph-name="two.tnum"/><glyph d="M182 1405q266 57 459 57q227 0 356 -82t129 -223q0 -260 -440 -344l2 -14q219 12 366.5 -90.5t147.5 -292.5q0 -209 -150.5 -327t-416.5 -118q-197 0 -453 62l-35 383h17l291 -373q80 -27 149 -27q133 0 220 99.5t87 275.5t-94 267.5t-231 91.5q-63 0 -140 -23l-14 41 q203 53 308.5 143t105.5 252q0 125 -68.5 189.5t-173.5 64.5q-80 0 -160 -24l-229 -363h-16z" glyph-name="three.tnum"/><glyph d="M1233 424h-213v-311l194 -97v-16h-655v16l195 97v311h-676v45l540 965h369v-17q-305 -387 -813 -948h580v293h266v-293h213v-45z" glyph-name="four.tnum"/><glyph d="M671.5 899q231.5 0 376 -110.5t144.5 -327.5q0 -223 -150.5 -356.5t-416.5 -133.5q-186 0 -428 62l-31 379h16l279 -371q74 -25 143 -25q133 0 215 108.5t82 293.5q0 190 -102.5 287.5t-276.5 97.5q-160 0 -301 -80l-16 10l39 701h757l109 28h16l-32 -243h-811l-27 -420 q184 100 415.5 100z" glyph-name="five.tnum"/><glyph d="M764 872q203 0 338 -103t135 -306q0 -215 -149.5 -353.5t-403.5 -138.5q-270 0 -430 191.5t-160 535.5q0 369 180.5 566.5t456.5 197.5q195 0 397 -55l-12 -377h-16l-242 369q-55 18 -115 18q-154 0 -254 -170t-106 -530q141 155 381 155zM684 16q123 0 195.5 106.5 t72.5 301.5q0 180 -77.5 270t-223.5 90q-150 0 -268 -129q2 -334 85 -486.5t216 -152.5z" glyph-name="six.tnum"/><glyph d="M178 1034l-4 400h1016v-31q0 -90 -37 -195l-461 -1208h-334v16q268 502 750 1203h-799l-114 -185h-17z" glyph-name="seven.tnum"/><glyph d="M918 797q160 -78 236.5 -169t76.5 -212q0 -207 -159 -326t-419 -119q-240 0 -394.5 99.5t-154.5 283.5q0 147 99.5 241.5t273.5 139.5l-35 17q-262 131 -262 356q0 168 137.5 262t358.5 94q213 0 345 -85t132 -242q0 -115 -84 -192t-223 -114zM406 1196q0 -86 49 -143.5 t166 -112.5l167 -82q150 98 150 279q0 131 -77 206.5t-199 75.5q-117 0 -186.5 -62.5t-69.5 -160.5zM670 16q154 0 240.5 80t86.5 207q0 94 -57 160.5t-188 132.5l-222 111q-201 -113 -200 -342q0 -156 94 -252.5t246 -96.5z" glyph-name="eight.tnum"/><glyph d="M643 1462q266 0 423 -187.5t157 -533.5q0 -383 -172 -576.5t-439 -193.5q-166 0 -399 62l-35 383h17l297 -375q51 -23 108 -23q147 0 240.5 174.5t93.5 544.5q-133 -162 -373 -162q-197 0 -330 109t-133 320q0 203 147.5 330.5t397.5 127.5zM676 664q162 0 258 139 q-14 614 -299 614q-117 0 -187.5 -102.5t-70.5 -294.5q0 -176 80 -266t219 -90z" glyph-name="nine.tnum"/><glyph d="M667.5 -25q-243.5 0 -392 146.5t-148.5 415t147.5 414t393 145.5t393 -145.5t147.5 -414t-148.5 -415t-392 -146.5zM667.5 20q118.5 0 185.5 116t67 401q0 283 -67 398.5t-185.5 115.5t-185 -116t-66.5 -398q0 -285 66.5 -401t185 -116z" glyph-name="zero.tnum.oldstyle"/><glyph d="M332 932l463 176h18v-995l215 -97v-16h-696v16l215 97v776l-215 26v17z" glyph-name="one.tnum.oldstyle"/><glyph d="M190 0l5 63q8 106 99 216t281 239q137 92 192.5 169t55.5 167q0 92 -51 144.5t-137 52.5q-61 0 -137 -21l-213 -338h-17l-14 352q213 51 410 52q207 0 324.5 -70t117.5 -205q0 -125 -109.5 -209t-332.5 -174q-276 -115 -363 -229h666l145 188h16l-43 -397h-895z" glyph-name="two.tnum.oldstyle"/><glyph d="M229 1038q244 57 420 58q207 0 326 -78t119 -211q0 -246 -406 -326l4 -14q201 10 337 -86t136 -272q0 -197 -139 -308.5t-383 -111.5q-180 0 -416 55l-32 365h16l268 -353q61 -23 133 -22q117 0 192 92t75 258q0 164 -82 250t-203 86q-66 0 -123 -21l-14 41 q178 51 270 135t92 238q0 115 -58.5 176.5t-144.5 61.5q-72 0 -145 -23l-211 -340h-16z" glyph-name="three.tnum.oldstyle"/><glyph d="M1198 113h-213v-287l195 -96v-17h-650v17l195 96v287h-616v45l507 913h353v-16q-274 -346 -772 -897h528v278h260v-278h213v-45z" glyph-name="four.tnum.oldstyle"/><glyph d="M672 569q217 0 352 -105.5t135 -311.5q0 -213 -142.5 -338t-389.5 -125q-154 0 -387 57l-31 363h16l260 -355q51 -20 123 -20q119 0 195 102.5t76 274.5q0 180 -95.5 271t-253.5 91q-152 0 -276 -78l-14 13l34 663h695l108 29h17l-31 -238h-750l-22 -389q166 96 381 96z " glyph-name="five.tnum.oldstyle"/><glyph d="M762 829q188 0 315 -98t127 -291q0 -203 -141 -334t-379 -131q-256 0 -405.5 182.5t-149.5 508.5q0 348 170 534t430 186q178 0 373 -53l-12 -358h-17l-225 346q-49 20 -107 20q-143 0 -234 -157.5t-95 -489.5q135 135 350 135zM684 20q111 0 176.5 99.5t65.5 283.5 q0 170 -71 255t-200 85q-135 0 -243 -108q2 -319 76.5 -467t195.5 -148z" glyph-name="six.tnum.oldstyle"/><glyph d="M213 688l-4 383h942v-31q0 -82 -35 -184l-416 -1143h-321v17q242 461 694 1132h-737l-107 -174h-16z" glyph-name="seven.tnum.oldstyle"/><glyph d="M901 758q297 -147 297 -369q0 -193 -149.5 -303.5t-397.5 -110.5q-229 0 -376.5 93.5t-147.5 265.5q0 139 95 229t257 131l-28 15q-250 123 -250 342q0 160 130 247.5t341 87.5q201 0 325.5 -79.5t124.5 -227.5q0 -207 -293 -286zM420 1130q0 -76 46 -130t152 -105 l156 -76q137 90 137 262q0 121 -69.5 190.5t-182.5 69.5q-109 0 -174 -59.5t-65 -151.5zM666 20q143 0 225 74t82 191q0 88 -54.5 151.5t-179.5 126.5l-207 105q-186 -100 -186 -318q0 -147 89.5 -238.5t230.5 -91.5z" glyph-name="eight.tnum.oldstyle"/><glyph d="M655 1096q250 0 398.5 -184.5t148.5 -514.5q0 -346 -166 -527t-420 -181q-156 0 -366 55l-33 358h16l265 -348q49 -20 106 -20q135 0 225.5 160.5t90.5 494.5v6q-133 -137 -342 -137q-186 0 -311.5 100.5t-125.5 300.5q0 193 139 315t375 122zM682 344q131 0 238 107 q-14 600 -271 600q-106 0 -169.5 -96.5t-63.5 -272.5q0 -168 69.5 -253t196.5 -85z" glyph-name="nine.tnum.oldstyle"/><glyph d="M422 -16q-174 0 -272.5 113.5t-98.5 312t98.5 312.5t272.5 114t272.5 -114t98.5 -312.5t-98.5 -312t-272.5 -113.5zM422 20q162 0 162 389.5t-162 389.5t-162 -389.5t162 -389.5z" glyph-name="zero.dnom" horiz-adv-x="843"/><glyph d="M51 733l352 105h15v-746l172 -76v-16h-539v16l172 76v596l-172 29v16z" glyph-name="one.dnom" horiz-adv-x="620"/><glyph d="M53 0l4 49q14 147 252 344q90 76 124 132.5t36 127.5q0 68 -31.5 107t-85.5 39q-45 0 -94 -13l-137 -227h-17l-8 242q150 35 275 35q141 0 222 -53.5t81 -155.5q0 -96 -81 -165t-222 -134q-178 -88 -234 -174h447l84 108h16l-29 -262h-602z" glyph-name="two.dnom" horiz-adv-x="751"/><glyph d="M88 803q154 33 277 33q135 0 213.5 -47.5t78.5 -126.5q0 -150 -266 -195l2 -10q133 8 223.5 -51.5t90.5 -167.5q0 -119 -91.5 -186.5t-255.5 -67.5q-115 0 -272 34l-20 240h16l168 -223q43 -14 88 -15q70 0 115 53.5t45 149.5q0 98 -48.5 148.5t-121.5 50.5 q-45 0 -82 -12l-12 34q113 31 170 81t57 141q0 63 -35 98t-86 35q-47 0 -98 -13l-129 -221h-17z" glyph-name="three.dnom" horiz-adv-x="768"/><glyph d="M729 242h-147v-156l141 -70v-16h-477v16l141 70v156h-367v37l308 540h254v-16q-174 -197 -506 -524h311v157h195v-157h147v-37z" glyph-name="four.dnom" horiz-adv-x="759"/><glyph d="M373 514q143 0 231 -62.5t88 -187.5q0 -127 -92 -203.5t-254 -76.5q-127 0 -258 36l-20 238h16l162 -225q41 -12 82 -13q70 0 113.5 58.5t43.5 161.5q0 104 -58 156.5t-157 52.5q-86 0 -164 -48l-14 9l23 409h460l58 17h16l-24 -156h-480l-12 -223q99 57 240 57z" glyph-name="five.dnom" horiz-adv-x="753"/><glyph d="M465 506q125 0 208 -61.5t83 -180.5q0 -123 -93.5 -201.5t-248.5 -78.5q-166 0 -264.5 109.5t-98.5 305.5q0 211 112.5 324t285.5 113q111 0 239 -31l-6 -240h-16l-142 223q-31 10 -69 11q-86 0 -141.5 -90.5t-59.5 -278.5q82 76 211 76zM416 20q63 0 100 57.5t37 164.5 q0 203 -158 202q-78 0 -141 -53q2 -371 162 -371z" glyph-name="six.dnom" horiz-adv-x="806"/><glyph d="M51 567l-2 252h602v-31q0 -57 -26 -126l-250 -662h-230v16q147 260 445 654h-461l-61 -103h-17z" glyph-name="seven.dnom" horiz-adv-x="677"/><glyph d="M539 467q193 -88 192 -229q0 -119 -97 -186.5t-255 -67.5q-147 0 -240.5 57t-93.5 162q0 156 197 211q-154 78 -154 215q0 98 84 152.5t219 54.5q131 0 212 -49.5t81 -139.5q0 -121 -168 -170zM381 801q-63 0 -101 -33t-38 -86q0 -80 116 -133l113 -51q72 53 72 149 q0 70 -46 112t-116 42zM391 20q82 0 130 42t48 108q0 49 -30.5 83t-104.5 69l-147 69q-88 -61 -88 -180q0 -86 53 -138.5t139 -52.5z" glyph-name="eight.dnom" horiz-adv-x="772"/><glyph d="M393 836q164 0 260.5 -106.5t96.5 -305.5q0 -217 -112 -328.5t-282 -111.5q-102 0 -229 36l-21 232h17l164 -217q29 -14 63 -15q84 0 140.5 94.5t58.5 295.5q-72 -86 -201 -86q-127 0 -212 63.5t-85 185.5q0 115 93 189t249 74zM414 383q82 0 135 68q-6 348 -160 348 q-66 0 -103.5 -55.5t-37.5 -157.5q0 -100 44 -151.5t122 -51.5z" glyph-name="nine.dnom" horiz-adv-x="800"/><glyph d="M422 598q-174 0 -272.5 113.5t-98.5 312.5t98.5 312.5t272.5 113.5t272.5 -113.5t98.5 -312.5t-98.5 -312.5t-272.5 -113.5zM422 635q162 0 162 389t-162 389t-162 -389t162 -389z" glyph-name="zero.numr" horiz-adv-x="843"/><glyph d="M51 1348l352 104h15v-745l172 -76v-17h-539v17l172 76v596l-172 28v17z" glyph-name="one.numr" horiz-adv-x="620"/><glyph d="M53 614l4 50q14 147 252 344q90 76 124 132t36 128q0 68 -31.5 106.5t-85.5 38.5q-45 0 -94 -12l-137 -227h-17l-8 241q150 35 275 35q141 0 222 -53.5t81 -155.5q0 -96 -81 -164.5t-222 -134.5q-178 -88 -234 -174h447l84 109h16l-29 -263h-602z" glyph-name="two.numr" horiz-adv-x="751"/><glyph d="M88 1417q154 33 277 33q135 0 213.5 -47t78.5 -127q0 -150 -266 -195l2 -10q133 8 223.5 -51t90.5 -168q0 -119 -91.5 -186.5t-255.5 -67.5q-115 0 -272 35l-20 239h16l168 -223q43 -14 88 -14q70 0 115 53t45 150q0 98 -48.5 148t-121.5 50q-45 0 -82 -12l-12 35 q113 31 170 81t57 140q0 63 -35 98t-86 35q-47 0 -98 -12l-129 -221h-17z" glyph-name="three.numr" horiz-adv-x="768"/><glyph d="M729 856h-147v-156l141 -69v-17h-477v17l141 69v156h-367v37l308 541h254v-17q-174 -197 -506 -524h311v158h195v-158h147v-37z" glyph-name="four.numr" horiz-adv-x="759"/><glyph d="M373 1128q143 0 231 -62t88 -187q0 -127 -92 -204t-254 -77q-115 0 -258 37l-20 237h16l162 -225q39 -12 82 -12q70 0 113.5 58.5t43.5 160.5q0 104 -58 156.5t-157 52.5q-86 0 -164 -47l-14 8l23 410h460l58 16h16l-24 -156h-480l-12 -223q99 57 240 57z" glyph-name="five.numr" horiz-adv-x="753"/><glyph d="M465 1120q125 0 208 -61.5t83 -179.5q0 -123 -93.5 -202t-248.5 -79q-166 0 -264.5 109.5t-98.5 306.5q0 211 112.5 323.5t285.5 112.5q111 0 239 -31l-6 -239h-16l-142 223q-31 10 -69 10q-86 0 -141.5 -90t-59.5 -279q82 76 211 76zM416 635q63 0 100 57.5t37 163.5 q0 203 -158 203q-78 0 -141 -53q2 -371 162 -371z" glyph-name="six.numr" horiz-adv-x="806"/><glyph d="M51 1182l-2 252h602v-31q0 -57 -26 -127l-250 -662h-230v17q147 260 445 653h-461l-61 -102h-17z" glyph-name="seven.numr" horiz-adv-x="677"/><glyph d="M539 1081q193 -88 192 -229q0 -119 -97 -186.5t-255 -67.5q-147 0 -240.5 57.5t-93.5 161.5q0 156 197 211q-154 78 -154 215q0 98 84 152.5t219 54.5q131 0 212 -49t81 -139q0 -121 -168 -170zM381 1415q-63 0 -101 -32.5t-38 -86.5q0 -80 116 -133l113 -51 q72 53 72 150q0 70 -46 111.5t-116 41.5zM391 635q82 0 130 42t48 107q0 49 -30.5 83t-104.5 69l-147 70q-88 -61 -88 -181q0 -86 53 -138t139 -52z" glyph-name="eight.numr" horiz-adv-x="772"/><glyph d="M393 1450q164 0 260.5 -106.5t96.5 -305.5q0 -217 -112 -328.5t-282 -111.5q-102 0 -229 37l-21 231h17l164 -217q29 -14 63 -14q84 0 140.5 94t58.5 295q-72 -86 -201 -86q-127 0 -212 63.5t-85 186.5q0 115 93 188.5t249 73.5zM414 997q82 0 135 68q-6 348 -160 348 q-66 0 -103.5 -55t-37.5 -158q0 -100 44 -151.5t122 -51.5z" glyph-name="nine.numr" horiz-adv-x="800"/></font>
</defs>
</svg>
