<?xml version="1.0" standalone="no"?>
<!DOCTYPE svg PUBLIC "-//W3C//DTD SVG 1.1//EN" "http://www.w3.org/Graphics/SVG/1.1/DTD/svg11.dtd">
<svg xmlns="http://www.w3.org/2000/svg"><metadata>This SVG WebFont was generated by YouWorkForThem.
Copyright Â© 2018 by Piotr _apa. All rights reserved.</metadata><defs><font horiz-adv-x="1331" id="ywftsvg"><font-face ascent="1577" bbox="-909 -547 2662 1968" cap-height="1434" descent="-471" font-family="" font-stretch="normal" font-weight="700" panose-1="0 0 8 0 0 0 0 0 0 0" underline-position="0" underline-thickness="0" unicode-range="U+0020-FB02" units-per-em="2048" x-height="1036"/><missing-glyph d="M840 -471h-650v2048h650v-2048zM344 1440v-68h133v-76h-135v-67h340v67h-135v76h135v68h-338zM342 1176v-213h340v69h-135v144h-205zM477 1032h-67v74h67v-74zM342 907v-67h135v-76h-135v-68h205v144h135v67h-340zM614 784v-135h-272v-69h340v204h-68zM477 535v-115h70 v47h67v-96h-204v164h-68v-232h340v232h-205zM342 180v-231h340v231h-340zM614 16h-204v97h204v-97zM342 -98v-68h143l-143 -96v-68h340v68h-209l143 96h66v68h-340z" horiz-adv-x="1024"/><glyph d="M1165 102l117 -84v-18h-563v18l119 84v830l-86 57h-263v-887l175 -84v-18h-621v18l119 84v887h-146v47h146v8q0 414 483 414q170 0 377 -35l-21 -309h-18l-229 287q-39 10 -84 10q-80 0 -130.5 -54t-50.5 -167v-154h676v-934z" glyph-name="uniFB01" horiz-adv-x="1310" unicode="fi"/><glyph d="M1163 102l117 -84v-18h-563v18l119 84v1198q-51 109 -179 109q-76 0 -122 -51t-46 -158v-164h248v-47h-248v-887l175 -84v-18h-621v18l119 84v887h-146v47h146v27q0 395 448 395q102 0 201 -24h352v-1332z" glyph-name="uniFB02" horiz-adv-x="1308" unicode="fl"/><glyph d="M1225 1458q131 0 297 -26l-15 -324h-18l-209 301q-8 2 -23 2q-94 0 -94 -168v-207h293v-47h-293v-887l174 -84v-18h-620v18l119 84v887h-347v-887l175 -84v-18h-621v18l119 84v887h-146v47h146q0 401 454 402q162 0 320 -72q99 92 289 92zM836 1036v248q-53 104 -177 105 q-170 0 -170 -201v-152h347z" glyph-name="f_f.liga" horiz-adv-x="1413" unicode="ff"/><glyph d="M1839 102l117 -84v-18h-563v18l118 84v830l-86 57h-262v-887l174 -84v-18h-620v18l119 84v887h-347v-887l175 -84v-18h-621v18l119 84v887h-146v47h146q0 401 454 402q174 0 340 -80q121 100 363 100q170 0 377 -35l-21 -309h-18l-230 287q-41 10 -84 10q-80 0 -130 -54 t-50 -167v-154h676v-934zM836 1036v8v3v237q-53 104 -177 105q-170 0 -170 -201v-152h347z" glyph-name="f_f_i.liga" horiz-adv-x="1984" unicode="ffi"/><glyph d="M1835 102l119 -84v-18h-563v18l116 84v1198q-47 109 -176 109q-76 0 -122 -50t-46 -159v-164h248v-47h-248v-887l174 -84v-18h-620v18l119 84v887h-347v-887l175 -84v-18h-621v18l119 84v887h-146v47h146q0 401 454 402q166 0 332 -76q111 96 336 96q102 0 201 -24h350 v-1332zM836 1036v248q-53 104 -177 105q-170 0 -170 -201v-152h347z" glyph-name="f_f_l.liga" horiz-adv-x="1980" unicode="ffl"/><glyph d="M840 -471h-650v2048h650v-2048zM344 1440v-68h133v-76h-135v-67h340v67h-135v76h135v68h-338zM342 1176v-213h340v69h-135v144h-205zM477 1032h-67v74h67v-74zM342 907v-67h135v-76h-135v-68h205v144h135v67h-340zM614 784v-135h-272v-69h340v204h-68zM477 535v-115h70 v47h67v-96h-204v164h-68v-232h340v232h-205zM342 180v-231h340v231h-340zM614 16h-204v97h204v-97zM342 -98v-68h143l-143 -96v-68h340v68h-209l143 96h66v68h-340z" glyph-name=".notdef" horiz-adv-x="1024"/><glyph glyph-name="glyph1" horiz-adv-x="0"/><glyph glyph-name="glyph2" horiz-adv-x="681"/><glyph glyph-name="space" horiz-adv-x="503" unicode=" "/><glyph d="M131 1434h391v-17l-151 -930h-88l-152 930v17zM326 360l202 -198l-202 -203l-199 203z" glyph-name="exclam" horiz-adv-x="653" unicode="!"/><glyph d="M82 1434h287v-17l-131 -524h-23l-133 524v17zM430 1434h287v-17l-131 -524h-23l-133 524v17z" glyph-name="quotedbl" horiz-adv-x="798" unicode="&quot;"/><glyph d="M1200 907h-235l-99 -452h248l-8 -52h-250l-88 -403h-55l88 403h-436l-89 -403h-55l88 403h-239l10 52h239l99 452h-252l8 51h254l92 424h55l-92 -424h437l92 424h55l-92 -424h233zM811 455l98 452h-436l-98 -452h436z" glyph-name="numbersign" horiz-adv-x="1277" unicode="#"/><glyph d="M1221 449q0 -213 -155 -337t-388 -139v-229h-51v227h-4q-180 0 -508 66v469h22l314 -461q86 -25 165 -25h11v560l-193 65q-338 121 -338 414q0 193 148.5 298t373.5 105h9v228h51v-228q141 -4 442 -61v-410h-22l-322 400q-43 14 -98 20v-487l176 -60q367 -122 367 -415z M553 965l74 -25v473h-4q-111 0 -184.5 -62.5t-73.5 -156.5q0 -84 43 -139t145 -90zM678 25q117 16 186.5 89.5t69.5 176.5q0 96 -51.5 156.5t-163.5 99.5l-41 14v-536z" glyph-name="dollar" horiz-adv-x="1290" unicode="$"/><glyph d="M492 606q-186 0 -288 116t-102 310q0 197 101.5 311.5t288 114.5t287 -114.5t100.5 -311.5q0 -195 -101.5 -310.5t-285.5 -115.5zM1370 1434h64l-906 -1434h-61zM492 649q129 0 129 383t-129 383q-131 0 -131 -383t131 -383zM1407 -25q-186 0 -287.5 116t-101.5 310 q0 197 101.5 311.5t287.5 114.5t286.5 -114.5t100.5 -311.5q0 -195 -101.5 -310.5t-285.5 -115.5zM1407 18q129 0 129 383t-129 383q-131 0 -131 -383t131 -383z" glyph-name="percent" horiz-adv-x="1896" unicode="%"/><glyph d="M1214 428l388 -410v-18h-418l-158 166q-166 -193 -432 -193q-231 0 -367.5 111t-136.5 301q0 147 93 247.5t259 151.5q-147 166 -147 336q0 160 117.5 249t316.5 89q176 0 399 -57l-24 -397h-19l-260 385q-45 14 -75 14q-66 0 -106 -49t-40 -131q0 -84 38 -158t132 -174 l400 -422q57 115 77 199l-137 143v18h442v-18l-256 -154q-33 -120 -86 -229zM721 86q150 0 268 121l-487 512q-113 -96 -113 -283q0 -156 98.5 -253t233.5 -97z" glyph-name="ampersand" horiz-adv-x="1615" unicode="&amp;"/><glyph d="M82 1434h287v-17l-131 -524h-23l-133 524v17z" glyph-name="quotesingle" horiz-adv-x="450" unicode="'"/><glyph d="M690 1516q-154 -125 -218 -309.5t-64 -491.5v-180q0 -307 63.5 -491.5t218.5 -309.5l-20 -31q-567 297 -568 922q0 631 568 921z" glyph-name="parenleft" horiz-adv-x="722" unicode="("/><glyph d="M33 1516l20 30q567 -289 568 -921q0 -627 -568 -922l-20 31q156 125 219 309t63 492v180q0 307 -64 491.5t-218 309.5z" glyph-name="parenright" horiz-adv-x="722" unicode=")"/><glyph d="M727 1221l-293 -84l293 -84l-92 -160l-223 217l75 -301h-182l74 297l-221 -213l-90 160l297 84l-297 84l90 159l221 -215l-74 299h182l-75 -301l223 217z" glyph-name="asterisk" horiz-adv-x="792" unicode="*"/><glyph d="M1040 702v-51h-424v-426h-55v426h-422v51h422v424h55v-424h424z" glyph-name="plus" horiz-adv-x="1177" unicode="+"/><glyph d="M98 162l197 198l88 -90q94 -94 94 -194.5t-90 -186.5t-272 -200l-15 18q141 125 142 238q0 68 -80 149z" glyph-name="comma" horiz-adv-x="587" unicode=","/><glyph d="M121 647h741v-51h-741v51z" glyph-name="hyphen" horiz-adv-x="983" unicode="-"/><glyph d="M295 360l201 -200l-201 -201l-203 201z" glyph-name="period" horiz-adv-x="587" unicode="."/><glyph d="M870 1618h58l-811 -1804h-58z" glyph-name="slash" horiz-adv-x="987" unicode="/"/><glyph d="M690 -29q-289 0 -450.5 191.5t-161.5 554t161.5 554t450.5 191.5q287 0 450 -191.5t163 -554t-163 -554t-450 -191.5zM690 20q125 0 189.5 157t64.5 540t-64.5 539.5t-189.5 156.5q-82 0 -135 -60.5t-86 -218t-33 -417.5t33 -418t86 -218.5t135 -60.5z" glyph-name="zero" horiz-adv-x="1380" unicode="0"/><glyph d="M72 1272l510 207h18v-1356l199 -105v-18h-727v18l200 105v1098l-200 32v19z" glyph-name="one" horiz-adv-x="845" unicode="1"/><glyph d="M57 0l4 96q10 131 106.5 272.5t299.5 313.5q168 145 230.5 251.5t64.5 223.5q2 119 -51.5 188.5t-147.5 69.5q-53 0 -119 -16l-280 -408h-19l-16 412q238 59 463 59q246 0 383 -93t137 -275q0 -94 -40 -172t-120 -141.5t-160.5 -108.5t-197.5 -99q-319 -150 -428 -303 h803l147 172h19l-52 -442h-1026z" glyph-name="two" horiz-adv-x="1208" unicode="2"/><glyph d="M123 1407q246 55 463 55q238 0 372 -82t134 -223q0 -272 -471 -342l2 -14q233 14 388.5 -86.5t155.5 -294.5q0 -211 -155.5 -330t-433.5 -119q-195 0 -457 58l-39 413h18l330 -405q57 -18 115 -19q113 0 189.5 97.5t76.5 273.5q0 174 -89 265t-224 91q-53 0 -127 -20 l-15 41q193 53 293.5 143t100.5 258q0 121 -58.5 184.5t-144.5 63.5q-59 0 -125 -16l-264 -398h-19z" glyph-name="three" horiz-adv-x="1239" unicode="3"/><glyph d="M1221 424h-209v-301l188 -105v-18h-706v18l190 105v301h-651v47l514 963h461v-19q-393 -455 -875 -944h551v291h328v-291h209v-47z" glyph-name="four" horiz-adv-x="1253" unicode="4"/><glyph d="M614 901q236 0 382.5 -109.5t146.5 -328.5q0 -227 -156 -359.5t-432 -132.5q-195 0 -426 56l-35 415h19l313 -407q51 -16 106 -17q115 0 185.5 105.5t70.5 288.5q0 193 -97 286t-265 93q-154 0 -276 -72l-19 10l41 705h776l115 28h18l-34 -288h-836l-25 -377 q184 104 428 104z" glyph-name="five" horiz-adv-x="1212" unicode="5"/><glyph d="M791 866q199 0 329.5 -100t130.5 -301q0 -217 -153.5 -355.5t-417.5 -138.5q-281 0 -441.5 192.5t-160.5 538.5q0 373 184 566.5t469 193.5q193 0 416 -53l-12 -408h-19l-282 400q-41 14 -91 14q-131 0 -218 -162.5t-95 -513.5q142 127 361 127zM680 18 q102 0 163.5 102.5t61.5 297.5q0 176 -68.5 264t-193.5 88q-113 0 -213 -94q2 -658 250 -658z" glyph-name="six" horiz-adv-x="1318" unicode="6"/><glyph d="M66 1004l-5 430h1039v-37q-4 -117 -45 -238l-416 -1159h-414v18q266 465 783 1156h-809l-115 -170h-18z" glyph-name="seven" horiz-adv-x="1140" unicode="7"/><glyph d="M918 813q164 -80 239.5 -172t75.5 -215q0 -215 -163 -335t-433 -120q-248 0 -405.5 97.5t-157.5 283.5q0 279 358 363l-20 10q-264 135 -265 369q0 178 141.5 274t375.5 96q219 0 356 -84t137 -241q0 -217 -303 -295zM647 1417q-106 0 -168.5 -57t-62.5 -154 q0 -84 50 -140t165 -112l155 -75q119 88 119 260q0 129 -70.5 203.5t-187.5 74.5zM655.5 18q141.5 0 221 73t79.5 190q0 92 -56 156.5t-189 133.5l-217 111q-158 -104 -158 -320q0 -156 89 -250t230.5 -94z" glyph-name="eight" horiz-adv-x="1302" unicode="8"/><glyph d="M633 1462q279 0 436.5 -184t157.5 -533q0 -201 -50.5 -352t-137.5 -241.5t-197.5 -135.5t-241.5 -45q-178 0 -416 56l-37 415h19l336 -407q41 -16 86 -17q123 0 202.5 165t83.5 526q-125 -131 -354 -131q-195 0 -323.5 105t-128.5 316q0 207 152.5 335t412.5 128z M672 672q133 0 202 106q-6 637 -249 637q-100 0 -158.5 -99t-58.5 -296q0 -170 72.5 -259t191.5 -89z" glyph-name="nine" horiz-adv-x="1302" unicode="9"/><glyph d="M295 1079l201 -200l-201 -201l-203 201zM295 360l201 -200l-201 -201l-203 201z" glyph-name="colon" horiz-adv-x="587" unicode=":"/><glyph d="M293 1079l203 -200l-203 -201l-201 201zM96 162l199 198l86 -90q94 -94 94 -194.5t-90 -186.5t-272 -200l-13 18q139 125 140 238q0 68 -80 149z" glyph-name="semicolon" horiz-adv-x="587" unicode=";"/><glyph d="M109 662v30l901 430v-59l-817 -387l817 -387v-60z" glyph-name="less" horiz-adv-x="1177" unicode="&lt;"/><glyph d="M139 901h901v-51h-901v51zM139 502h901v-51h-901v51z" glyph-name="equal" horiz-adv-x="1177" unicode="="/><glyph d="M1071 662l-901 -433v60l815 387l-815 387v59l901 -430v-30z" glyph-name="greater" horiz-adv-x="1177" unicode=">"/><glyph d="M98 1397q229 61 432 61q223 0 354.5 -88t131.5 -254q0 -94 -57.5 -172t-128 -120t-166 -96t-136.5 -91l-10 -158h-61l-107 172q29 37 95.5 99.5t110.5 109.5t81 126t37 169q0 117 -53.5 186.5t-126.5 69.5q-45 0 -91 -12l-266 -400h-18zM485 360l203 -198l-203 -203 l-200 203z" glyph-name="question" horiz-adv-x="1067" unicode="?"/><glyph d="M1520 977l-93 -664q-12 -88 14.5 -137t88.5 -49q139 0 242.5 141.5t103.5 411.5q0 137 -54.5 264t-153.5 224.5t-250.5 155.5t-332.5 58q-391 0 -656 -254t-265 -653q0 -362 224 -587.5t585 -225.5q334 0 543 166l30 -43q-221 -174 -575 -174q-383 0 -622.5 241.5 t-239.5 622.5q0 420 280.5 689.5t693.5 269.5q193 0 354.5 -61.5t268 -166t166 -241t59.5 -285.5q0 -319 -142 -478t-386 -159q-121 0 -197 63.5t-82 167.5q-141 -233 -329 -233q-129 0 -208 98.5t-79 268.5q0 256 153.5 424.5t415.5 168.5q100 0 241 -12t202 -12zM934 193 q96 0 196 174l76 551q-37 37 -90 36q-127 0 -211 -162.5t-84 -390.5q0 -208 113 -208z" glyph-name="at" horiz-adv-x="2039" unicode="@"/><glyph d="M1354 127l139 -104v-23h-651v23l159 94l-149 395h-520l-117 -315l252 -174v-23h-487v23l182 184l395 1075l-55 129v23h350zM350 563h481l-245 645z" glyph-name="A" horiz-adv-x="1472" unicode="A"/><glyph d="M961 750q477 -23 477 -349q0 -188 -145.5 -294.5t-399.5 -106.5h-836v23l154 100v1190l-154 98v23h799q240 0 373 -88.5t133 -241.5q0 -150 -106.5 -234t-294.5 -102v-18zM733 1382h-176v-614h174q283 0 283 311q0 145 -75 224t-206 79zM752 51q158 0 237.5 87t79.5 251 t-89 246t-251 82h-172v-666h195z" glyph-name="B" horiz-adv-x="1509" unicode="B"/><glyph d="M1303 975l-293 414q-78 25 -152 24q-160 0 -276.5 -172t-118.5 -479q-2 -369 110.5 -555.5t274.5 -186.5q84 0 156 33l366 455h23l-68 -467q-266 -70 -498 -70q-340 0 -541.5 197t-201.5 547t204 548.5t541 198.5q242 0 496 -59v-428h-22z" glyph-name="C" horiz-adv-x="1472" unicode="C"/><glyph d="M795 1434q332 0 534.5 -183.5t202.5 -513.5q0 -344 -190.5 -540.5t-518.5 -196.5h-766v23l154 100v1190l-154 98v23h738zM741 51q416 0 416 654q0 678 -442 677h-158v-1331h184z" glyph-name="D" horiz-adv-x="1615" unicode="D"/><glyph d="M1339 481h23l-57 -481h-1248v23l154 100v1190l-154 98v23h1223v-420h-23l-299 368h-401v-618h162l262 133h23v-317h-23l-262 133h-162v-662h438z" glyph-name="E" horiz-adv-x="1433" unicode="E"/><glyph d="M1260 1434v-420h-23l-299 368h-381v-649h197l262 133h22v-317h-22l-262 133h-197v-559l188 -100v-23h-688v23l154 100v1190l-154 98v23h1203z" glyph-name="F" horiz-adv-x="1323" unicode="F"/><glyph d="M84 702q0 369 215 564.5t547 195.5q221 0 528 -59v-428h-22l-310 411q-94 27 -172 27q-158 0 -283.5 -170t-125.5 -483q0 -360 109.5 -550t285.5 -190q106 0 203 54v467h-277v51h762v-23l-141 -100v-401q-293 -96 -578 -97q-334 0 -537.5 197.5t-203.5 533.5z" glyph-name="G" horiz-adv-x="1556" unicode="G"/><glyph d="M1481 1313v-1190l153 -100v-23h-653v23l154 100v584h-578v-584l154 -100v-23h-654v23l154 100v1190l-154 98v23h654v-23l-154 -98v-555h578v555l-154 98v23h653v-23z" glyph-name="H" horiz-adv-x="1689" unicode="H"/><glyph d="M557 1313v-1190l154 -100v-23h-654v23l154 100v1190l-154 98v23h654v-23z" glyph-name="I" horiz-adv-x="765" unicode="I"/><glyph d="M510 1434h688v-23l-154 -98v-899q0 -442 -503 -443q-188 0 -455 66l-23 469h23l307 -465q61 -20 107 -21q199 0 198 297v996l-188 98v23z" glyph-name="J" horiz-adv-x="1222" unicode="J"/><glyph d="M1436 131l141 -108v-23h-612v23l92 88l-402 581l-98 -94v-475l154 -100v-23h-654v23l154 100v1190l-154 98v23h654v-23l-154 -98v-643l610 581l-237 160v23h600v-23l-305 -180l-330 -311z" glyph-name="K" horiz-adv-x="1562" unicode="K"/><glyph d="M1278 500h22l-63 -500h-1180v23l154 100v1190l-154 98v23h654v-23l-154 -98v-1262h354z" glyph-name="L" horiz-adv-x="1347" unicode="L"/><glyph d="M1628 1311v-1188l154 -100v-23h-654v23l154 100v1116l-473 -1014h-23l-524 1012v-1038l268 -176v-23h-493v23l170 180v1108l-170 100v23h498l405 -793l371 793h471v-23z" glyph-name="M" horiz-adv-x="1839" unicode="M"/><glyph d="M1012 1434h477v-23l-170 -178v-1233h-254l-803 1292v-1093l252 -176v-23h-477v23l170 180v1108l-170 100v23h524l703 -1121v922l-252 176v23z" glyph-name="N" horiz-adv-x="1511" unicode="N"/><glyph d="M827.5 -29q-348.5 0 -546 199t-197.5 547t197.5 546.5t546 198.5t546 -198.5t197.5 -546.5t-197.5 -547t-546 -199zM827 20q362 0 362.5 696.5t-362.5 696.5q-360 0 -360 -696.5t360 -696.5z" glyph-name="O" horiz-adv-x="1654" unicode="O"/><glyph d="M840 1434q260 0 410.5 -112t150.5 -323q0 -223 -153.5 -345t-420.5 -122h-270v-409l188 -100v-23h-688v23l154 100v1190l-154 98v23h783zM743 584q139 0 218 103.5t79 299.5q0 184 -87 289.5t-218 105.5h-178v-798h186z" glyph-name="P" horiz-adv-x="1456" unicode="P"/><glyph d="M895 -45l723 -125v-14l-275 -199l-643 363q-291 35 -453.5 228t-162.5 509q0 348 197.5 546.5t546 198.5t546 -198.5t197.5 -546.5q0 -332 -179.5 -527.5t-496.5 -216.5v-18zM467 716.5q0 -696.5 360 -696.5q362 0 362.5 696.5t-362.5 696.5q-360 0 -360 -696.5z" glyph-name="Q" horiz-adv-x="1654" unicode="Q"/><glyph d="M1436 129l92 -104v-25h-402l-354 655h-215v-532l154 -100v-23h-654v23l154 100v1190l-154 98v23h795q528 0 528 -371q0 -186 -141 -285.5t-356 -103.5v-19q145 -72 317 -108zM750 707q135 0 206.5 89t71.5 255q0 162 -77 246.5t-208 84.5h-186v-675h193z" glyph-name="R" horiz-adv-x="1552" unicode="R"/><glyph d="M115 37v469h22l314 -461q86 -25 165 -25q143 0 230.5 77t87.5 194q0 96 -51.5 156.5t-163.5 99.5l-285 98q-338 121 -338 414q0 193 148.5 298t373.5 105q61 0 113.5 -3t114 -11t87 -12t100.5 -18.5t87 -16.5v-410h-22l-322 400q-70 23 -153 22q-111 0 -184.5 -62.5 t-73.5 -156.5q0 -84 43 -139.5t145 -89.5l301 -101q367 -123 367 -415q0 -225 -173.5 -351.5t-424.5 -126.5q-180 0 -508 66z" glyph-name="S" horiz-adv-x="1290" unicode="S"/><glyph d="M1370 1434l21 -447h-23l-272 395h-199v-772l2 -487l174 -100v-23h-696v23l174 100v1259h-199l-272 -395h-23l21 447h1292z" glyph-name="T" horiz-adv-x="1447" unicode="T"/><glyph d="M1049 1434h477v-23l-170 -180v-725q0 -250 -147.5 -392.5t-428.5 -142.5q-279 0 -431 142.5t-152 390.5v809l-154 98v23h653v-23l-153 -98v-813q0 -186 102.5 -301t276.5 -115q176 0 277 115.5t101 302.5v733l-251 176v23z" glyph-name="U" horiz-adv-x="1544" unicode="U"/><glyph d="M985 1434h488v-23l-181 -182l-458 -1229h-185l-526 1307l-141 104v23h653v-23l-154 -98l404 -1026l354 950l-254 174v23z" glyph-name="V" horiz-adv-x="1454" unicode="V"/><glyph d="M1712 1434h486v-23l-181 -178l-434 -1233h-170l-319 881l-316 -881h-170l-485 1307l-141 104v23h649v-23l-154 -98l361 -994l227 642l-139 385l-90 65v23h591v-23l-139 -88l354 -995l322 913l-252 170v23z" glyph-name="W" horiz-adv-x="2179" unicode="W"/><glyph d="M1358 129l153 -106v-23h-675v23l131 100l-332 489l-336 -415l233 -174v-23h-532v23l242 188l362 444l-442 652l-152 104v23h672v-23l-129 -96l303 -447l303 379l-250 164v23h545v-23l-237 -180l-330 -408z" glyph-name="X" horiz-adv-x="1499" unicode="X"/><glyph d="M967 1434h487v-23l-180 -182l-371 -645l2 -461l174 -100v-23h-696v23l174 100v420l-434 764l-141 104v23h675v-23l-153 -98l370 -676l347 604l-254 170v23z" glyph-name="Y" horiz-adv-x="1435" unicode="Y"/><glyph d="M1296 504h23l-64 -504h-1181v51l819 1331h-422l-295 -407h-22v459h1126v-52l-819 -1331h481z" glyph-name="Z" horiz-adv-x="1384" unicode="Z"/><glyph d="M174 -276v1802h535v-47h-256v-1708h256v-47h-535z" glyph-name="bracketleft" horiz-adv-x="759" unicode="["/><glyph d="M117 1618l811 -1804h-58l-811 1804h58z" glyph-name="backslash" horiz-adv-x="987" unicode="\"/><glyph d="M586 -276h-535v47h256v1708h-256v47h535v-1802z" glyph-name="bracketright" horiz-adv-x="759" unicode="]"/><glyph d="M90 799l375 663h96l375 -663l-16 -15l-406 428l-408 -428z" glyph-name="asciicircum" horiz-adv-x="1026" unicode="^"/><glyph d="M29 -158h1110v-51h-1110v51z" glyph-name="underscore" horiz-adv-x="1167" unicode="_"/><glyph d="M580 1505l112 -342h-22l-453 320v22h363z" glyph-name="grave" horiz-adv-x="911" unicode="`"/><glyph d="M1034 106l117 -88v-18h-379l-57 162q-123 -186 -320 -187q-139 0 -235.5 69t-96.5 224q0 221 310 299q215 51 334 88v174q0 184 -140 185q-39 0 -78 -10l-305 -349h-18l-14 359q258 47 469 47q207 0 310 -82t103 -217v-656zM545 111q86 0 162 102v401l-146 -51 q-174 -72 -174 -252q0 -92 44 -146t114 -54z" glyph-name="a" horiz-adv-x="1169" unicode="a"/><glyph d="M768 1061q180 0 296 -129t116 -395q0 -274 -158 -418t-391 -144q-229 0 -498 74v1280l-127 86v19h455v-541q104 168 307 168zM616 23q219 0 220 475q0 219 -56.5 320.5t-152.5 101.5q-102 0 -166 -80v-717q51 -100 155 -100z" glyph-name="b" horiz-adv-x="1239" unicode="b"/><glyph d="M971 635l-271 362q-39 16 -82 17q-82 0 -149.5 -118t-67.5 -333q0 -217 84 -330.5t217 -113.5q203 0 312 209l41 -21q-123 -332 -475 -332q-231 -2 -380 147.5t-149 393.5q0 258 154.5 401.5t398.5 143.5q186 0 400 -47l-15 -379h-18z" glyph-name="c" horiz-adv-x="1085" unicode="c"/><glyph d="M1104 106l119 -88v-18h-379l-56 154q-111 -178 -313 -179q-176 0 -297 131.5t-121 391.5q0 272 139.5 418.5t331.5 146.5q156 0 248 -88v354l-127 86v19h455v-1328zM618 115q98 0 158 88v712q-57 59 -145 60q-102 0 -165 -104.5t-63 -335.5q0 -420 215 -420z" glyph-name="d" horiz-adv-x="1249" unicode="d"/><glyph d="M1040 336l41 -19q-123 -342 -491 -342q-240 0 -389.5 146.5t-149.5 386.5q0 264 150.5 408.5t394.5 144.5q223 0 353 -119t130 -344v-59h-680q8 -203 91 -310.5t219 -107.5q212 0 331 215zM598 1014q-193 0 -199 -428h361v43q-2 205 -40 295t-122 90z" glyph-name="e" horiz-adv-x="1130" unicode="e"/><glyph d="M551 1458q131 0 297 -26l-14 -324h-19l-209 301q-8 2 -22 2q-94 0 -95 -168v-207h295v-47h-295v-887l175 -84v-18h-621v18l119 84v887h-146v47h146v68q0 172 100.5 263t288.5 91z" glyph-name="f" horiz-adv-x="739" unicode="f"/><glyph d="M791 213q387 -4 387 -260q0 -166 -184.5 -266.5t-446.5 -100.5q-528 0 -529 215q0 66 57.5 114t164.5 69q-170 72 -170 247l239 170q-205 98 -205 304q0 166 130.5 261t340.5 95q137 0 244 -41l322 207h18l15 -219v-19h-293q166 -98 166 -284q0 -166 -129.5 -262.5 t-342.5 -96.5q-115 0 -215 35l-84 -68q0 -98 175 -98zM575.5 1016q-77.5 0 -113.5 -72t-36 -239q0 -170 36 -241t113 -71q80 0 116 71t36 241q0 168 -37 239.5t-114.5 71.5zM580 -369q152 0 257 58.5t105 140.5q0 106 -129 111l-348 4q-82 0 -154 16q-70 -39 -69 -131 q0 -94 85 -146.5t253 -52.5z" glyph-name="g" horiz-adv-x="1191" unicode="g"/><glyph d="M1151 102l119 -84v-18h-563v18l116 84v611q0 203 -155 202q-109 0 -189 -90v-723l117 -84v-18h-563v18l119 84v1227l-129 86v19h456v-545q135 172 350 172q156 0 239 -86t83 -246v-627z" glyph-name="h" horiz-adv-x="1286" unicode="h"/><glyph d="M514 1346l-197 -197l-194 197l194 192zM485 102l119 -84v-18h-563v18l117 84v830l-127 86v18h454v-934z" glyph-name="i" horiz-adv-x="630" unicode="i"/><glyph d="M508 1346l-197 -197l-194 197l194 192zM25 1018v18h454v-956q0 -203 -145.5 -348.5t-304.5 -145.5q-37 0 -74 6v48h22q92 0 133.5 52t41.5 187v1053z" glyph-name="j" horiz-adv-x="614" unicode="j"/><glyph d="M1157 106l129 -88v-18h-432l-305 508l-70 -59v-347l117 -84v-18h-563v18l119 84v1227l-129 86v19h456v-924l404 348l-160 160v18h500v-18l-295 -187l-140 -118z" glyph-name="k" horiz-adv-x="1259" unicode="k"/><glyph d="M479 102l117 -84v-18h-563v18l119 84v1227l-129 86v19h456v-1332z" glyph-name="l" horiz-adv-x="624" unicode="l"/><glyph d="M1829 102l117 -84v-18h-564v18l119 84v613q0 201 -160 200q-109 0 -190 -106q6 -37 6 -76v-631l117 -84v-18h-563v18l118 84v611q0 203 -153 202q-104 0 -191 -102v-711l119 -84v-18h-563v18l117 84v830l-127 86v18h389l59 -170q135 195 357 195q246 0 305 -205 q133 205 366 205q156 0 239 -84t83 -242v-633z" glyph-name="m" horiz-adv-x="1964" unicode="m"/><glyph d="M1176 102l116 -84v-18h-563v18l119 84v611q0 203 -158 202q-117 0 -205 -110v-703l119 -84v-18h-563v18l117 84v830l-127 86v18h389l61 -176q139 201 371 201q156 0 240 -86t84 -246v-627z" glyph-name="n" horiz-adv-x="1310" unicode="n"/><glyph d="M608 -25q-254 0 -406.5 144.5t-152.5 398.5t152.5 398.5t406.5 144.5t405.5 -144.5t151.5 -398.5t-151.5 -398.5t-405.5 -144.5zM608.5 23q96.5 0 147.5 108.5t51 387t-51 387t-147.5 108.5t-148.5 -108.5t-52 -387t52 -387t148.5 -108.5z" glyph-name="o" horiz-adv-x="1214" unicode="o"/><glyph d="M774 1061q176 0 297 -130t121 -390q0 -272 -139.5 -419t-331.5 -147q-156 0 -248 88v-352l174 -82v-18h-620v18l118 82v1221l-129 86v18h390l55 -151q106 176 313 176zM618 63q102 0 165 104.5t63 336.5q0 420 -215 420q-96 0 -158 -90v-711q57 -60 145 -60z" glyph-name="p" horiz-adv-x="1249" unicode="p"/><glyph d="M1106 -289l117 -82v-18h-619v18l174 82v432q-104 -168 -307 -168q-180 0 -296 130.5t-116 394.5q0 274 158 417.5t391 143.5q240 0 498 -74v-1276zM612 117q102 0 166 80v718q-51 98 -155 99q-219 0 -220 -475q0 -219 56.5 -320.5t152.5 -101.5z" glyph-name="q" horiz-adv-x="1232" unicode="q"/><glyph d="M737 1055q78 0 146 -19l-13 -354h-18l-221 250q-88 -41 -146 -148v-682l174 -84v-18h-618v18l117 84v830l-127 86v18h389l63 -178q102 197 254 197z" glyph-name="r" horiz-adv-x="927" unicode="r"/><glyph d="M856 676l-270 328q-55 12 -107 12q-66 0 -113 -39t-47 -105q0 -104 127 -145l213 -72q145 -47 219 -121.5t74 -197.5q0 -166 -134 -263.5t-316 -97.5q-162 0 -416 58l6 381h19l274 -377q57 -16 113 -17q84 0 135 47.5t51 125.5q0 123 -133 167l-213 76q-264 94 -264 320 q0 143 115.5 224t289.5 81q176 0 408 -47l-13 -338h-18z" glyph-name="s" horiz-adv-x="1003" unicode="s"/><glyph d="M748 989h-279v-723q0 -158 104 -157q80 0 134 98l41 -21q-49 -104 -125 -157.5t-197 -53.5q-141 0 -213 71t-72 190v753h-143v43l125 39l330 262h16v-297h279v-47z" glyph-name="t" horiz-adv-x="737" unicode="t"/><glyph d="M1124 106l117 -88v-18h-379l-59 170q-129 -195 -332 -195q-162 0 -249 87.5t-87 246.5v623l-127 86v18h455v-708q0 -205 153 -205q109 0 181 102v707l-129 86v18h456v-930z" glyph-name="u" horiz-adv-x="1269" unicode="u"/><glyph d="M735 1036h410v-18l-141 -170l-349 -848h-174l-418 928l-94 90v18h559v-18l-118 -86l297 -672l245 596l-217 162v18z" glyph-name="v" horiz-adv-x="1105" unicode="v"/><glyph d="M1364 1036h410v-18l-142 -170l-334 -848h-159l-262 608l-248 -608h-162l-404 928l-94 90v18h559v-18l-118 -86l276 -658l162 400l-125 289l-57 55v18h518v-18l-107 -76l279 -661l225 575l-217 162v18z" glyph-name="w" horiz-adv-x="1734" unicode="w"/><glyph d="M1044 109l109 -91v-18h-602v18l115 88l-217 316l-211 -260l174 -144v-18h-410v18l182 156l236 291l-320 463l-110 90v18h598v-18l-113 -86l209 -303l203 250l-174 139v18h409v-18l-182 -152l-225 -280z" glyph-name="x" horiz-adv-x="1130" unicode="x"/><glyph d="M745 1036h408v-18l-141 -170l-389 -957q-76 -180 -149 -242.5t-173 -62.5q-37 0 -108 23v203h342l22 57l-494 1059l-94 90v18h561v-18l-116 -86l303 -674l246 598l-218 162v18z" glyph-name="y" horiz-adv-x="1114" unicode="y"/><glyph d="M49 0v47l576 942h-258l-254 -336h-19v383h891v-47l-573 -942h280l266 367h19l-2 -414h-926z" glyph-name="z" horiz-adv-x="1046" unicode="z"/><glyph d="M688 1493q-94 0 -132 -60.5t-28 -187.5l21 -321q8 -133 -63.5 -210t-229.5 -79v-19q158 -2 229.5 -79.5t63.5 -210.5l-21 -320q-8 -129 29 -189.5t131 -60.5h82v-43h-186q-168 0 -260.5 68.5t-81.5 214.5l22 387q6 113 -53 170t-143 57v31q86 0 144 56.5t52 170.5 l-22 385q-10 145 82 214t260 69h186v-43h-82z" glyph-name="braceleft" horiz-adv-x="815" unicode="{"/><glyph d="M205 -328v1915h55v-1915h-55z" glyph-name="bar" horiz-adv-x="464" unicode="|"/><glyph d="M551 868q-6 -115 53.5 -171t145.5 -56v-31q-86 0 -145.5 -57t-53.5 -170l24 -387q8 -145 -83 -214t-259 -69h-186v43h80q94 0 132 60.5t30 189.5l-23 320q-8 133 63.5 210.5t229.5 79.5v19q-158 2 -229.5 79t-63.5 210l23 321q8 127 -30 187.5t-132 60.5h-80v43h186 q168 0 259.5 -68.5t82.5 -214.5z" glyph-name="braceright" horiz-adv-x="815" unicode="}"/><glyph d="M143 532l-20 7q33 133 100.5 218t151.5 85q70 0 253 -66.5t251 -66.5q57 0 86.5 23.5t68.5 96.5l21 -6q-35 -135 -99.5 -219t-152.5 -84q-70 0 -249 66.5t-247 66.5q-55 0 -88 -23.5t-76 -97.5z" glyph-name="asciitilde" horiz-adv-x="1177" unicode="~"/><glyph d="M328 684l-203 201l203 200l200 -200zM522 -389h-391v16l152 932h88l151 -932v-16z" glyph-name="exclamdown" horiz-adv-x="653" unicode="¡"/><glyph d="M1055 422q-111 -301 -418 -330v-205h-47v203h-10q-233 0 -381 148.5t-148 392.5q0 254 150.5 397t388.5 148v204h47v-204q168 -2 367 -48l-15 -378h-18l-271 362q-29 12 -63 16v-886q27 -8 65 -9q203 0 312 209zM401 678q0 -330 189 -420v866q-76 -20 -132.5 -135.5 t-56.5 -310.5z" glyph-name="cent" horiz-adv-x="1085" unicode="¢"/><glyph d="M1192 481h22l-61 -481h-1061v51q135 0 256 98.5t121 227.5q0 119 -127 264h-250v47h207q-61 70 -93 110t-63.5 113.5t-31.5 149.5q0 190 147.5 295.5t398.5 105.5q215 0 451 -61v-408h-23l-288 400q-47 18 -107 18q-92 0 -149.5 -70.5t-57.5 -207.5q0 -76 29 -150 t77 -159t68 -136h293v-47h-276q20 -68 20 -133q0 -166 -121.5 -286t-289.5 -171h559z" glyph-name="sterling" horiz-adv-x="1288" unicode="£"/><glyph d="M967 717q0 -137 -86 -236l213 -211l-35 -37l-213 216q-96 -84 -236 -84q-137 0 -233 84l-213 -216l-35 37l213 211q-88 104 -88 236q0 137 88 235l-213 211l35 37l213 -215q96 84 233 84q135 0 236 -84l213 215l35 -37l-215 -211q88 -98 88 -235zM610 414q131 0 219.5 87 t83.5 216q-2 131 -88 217t-215 86t-216 -86t-87 -217q2 -129 88 -216t215 -87z" glyph-name="currency" horiz-adv-x="1222" unicode="¤"/><glyph d="M967 1434h487v-23l-180 -182l-356 -623h307v-47h-322v-168h322v-47h-320v-221l174 -100v-23h-696v23l174 100v221h-344v47h344v152l-10 16h-334v47h307l-397 701l-141 104v23h675v-23l-153 -98l370 -676l347 604l-254 170v23z" glyph-name="yen" horiz-adv-x="1435" unicode="¥"/><glyph d="M205 788v799h55v-799h-55zM205 -328v799h55v-799h-55z" glyph-name="brokenbar" horiz-adv-x="464" unicode="¦"/><glyph d="M799 367q94 -53 144 -118t50 -167q0 -158 -125 -255t-290 -97q-156 0 -385 55l24 352h19l233 -346q51 -16 104 -16q80 0 133.5 45t53.5 117q0 61 -33 103t-113 83l-278 133q-117 57 -176.5 131t-59.5 182q0 190 236 301q-174 106 -174 283q0 141 108.5 223t270.5 82 q174 0 368 -51l-22 -307h-19l-250 303q-43 10 -79 10q-72 0 -115 -38t-43 -101q0 -53 30.5 -90t108.5 -74l295 -135q129 -61 182.5 -129t53.5 -170q0 -205 -252 -309zM463 528l262 -125l25 -12q78 57 77 135q0 109 -141 176l-272 125q-16 6 -27 15q-90 -63 -90 -140 q0 -55 36 -92t130 -82z" glyph-name="section" horiz-adv-x="1140" unicode="§"/><glyph d="M246 1513l172 -170l-172 -172l-174 172zM666 1513l174 -170l-174 -172l-170 172z" glyph-name="dieresis" horiz-adv-x="911" unicode="¨"/><glyph d="M793 31q-295 0 -495 198.5t-200 491.5q0 289 200 485.5t495 196.5q293 0 492.5 -197.5t199.5 -484.5q0 -293 -199.5 -491.5t-492.5 -198.5zM792.5 80q270.5 0 455 184.5t184.5 456.5q0 270 -184.5 452.5t-455 182.5t-456.5 -182.5t-186 -452.5q0 -272 186 -456.5 t456.5 -184.5zM1083 803l-188 266q-27 10 -49 10q-59 0 -106.5 -87t-47.5 -242q0 -152 59.5 -234t151.5 -82q145 0 225 144l33 -17q-92 -244 -354 -246q-170 0 -278.5 110t-108.5 290q0 190 114.5 295.5t294.5 105.5q131 0 289 -41l-16 -272h-19z" glyph-name="copyright" horiz-adv-x="1581" unicode="©"/><glyph d="M694 846l76 -53v-15h-246l-39 94q-76 -111 -198 -110q-88 0 -147.5 44t-59.5 142q0 141 194 191q164 43 203 53v108q0 117 -82 117q-25 0 -49 -8l-180 -217h-14l-19 227q160 31 297 31q133 0 198.5 -52t65.5 -138v-414zM383 850q51 0 94 61v248q-72 -25 -84 -29 q-102 -39 -102 -155q0 -55 25.5 -90t66.5 -35z" glyph-name="ordfeminine" horiz-adv-x="817" unicode="ª"/><glyph d="M580 170l-17 -10l-440 413l440 416l17 -12l-195 -404zM950 170l-18 -10l-438 413l438 416l18 -12l-194 -404z" glyph-name="guillemotleft" horiz-adv-x="1073" unicode="«"/><glyph d="M98 819v51h942v-538h-55v487h-887z" glyph-name="logicalnot" horiz-adv-x="1177" unicode="¬"/><glyph d="M538.5 1462q194.5 0 326.5 -131t132 -325.5t-132 -326.5t-326.5 -132t-327.5 132t-133 326.5t133 325.5t327.5 131zM539 594q174 0 290.5 117.5t116.5 294t-116.5 294t-290.5 117.5t-293 -118.5t-119 -293t119 -293t293 -118.5zM600 981q43 -12 90 -16l94 -168v-17l-98 8 h-45l-96 195h-51v-149l51 -29v-17h-230v17l52 29v358l-52 31v14h254q86 0 134.5 -31.5t48.5 -89.5q0 -53 -41 -87t-111 -40v-8zM535 1018q82 0 81 94q0 43 -21.5 67.5t-57.5 24.5h-43v-186h41z" glyph-name="registered" horiz-adv-x="1073" unicode="®"/><glyph d="M113 1327h686v-51h-686v51z" glyph-name="macron" horiz-adv-x="911" unicode="¯"/><glyph d="M346 950q-117 0 -192.5 73t-75.5 183.5t75.5 183t192.5 72.5q113 0 186.5 -72.5t73.5 -183t-73.5 -183.5t-186.5 -73zM346 999q90 0 148.5 58.5t58.5 148.5q0 92 -58.5 149.5t-148.5 57.5q-96 0 -155.5 -57.5t-59.5 -149.5q0 -90 60.5 -148.5t154.5 -58.5z" glyph-name="degree" horiz-adv-x="681" unicode="°"/><glyph d="M616 801h424v-51h-422v-381h-55v381h-424v51h424v379h53v-379zM139 188v52h901v-52h-901z" glyph-name="plusminus" horiz-adv-x="1177" unicode="±"/><glyph d="M49 922l4 55q6 76 62.5 154.5t181.5 189.5q88 78 118.5 136.5t33.5 127.5q2 59 -24 96t-71 37q-37 0 -71 -8l-162 -244h-19l-10 258q152 33 279 33q150 0 233.5 -53t83.5 -158q0 -100 -83 -167.5t-232 -129.5q-170 -72 -230 -149h453l82 100h20l-30 -278h-619z" glyph-name="uni00B2" horiz-adv-x="761" unicode="²"/><glyph d="M88 1726q164 31 277 31q145 0 227 -47t82 -127q0 -154 -285 -194l2 -13q141 10 235.5 -47t94.5 -168q0 -121 -94.5 -188.5t-264.5 -67.5q-113 0 -276 33l-23 256h19l192 -240q31 -10 68 -10q59 0 98 52.5t39 148.5t-46 146t-120 50q-35 0 -75 -12l-15 37q111 29 167 79 t56 144q0 63 -29.5 96t-72.5 33t-78 -8l-151 -235h-19z" glyph-name="uni00B3" horiz-adv-x="778" unicode="³"/><glyph d="M332 1505h362v-22l-452 -320h-23z" glyph-name="acute" horiz-adv-x="911" unicode="´"/><glyph d="M647 1434h379v-23l-154 -98v-1559h-55v1628h-147v-1628h-56v809q-248 0 -390 122t-142 308q0 190 144.5 315.5t420.5 125.5z" glyph-name="paragraph" horiz-adv-x="1144" unicode="¶"/><glyph d="M295 821l201 -200l-201 -201l-203 201z" glyph-name="periodcentered" horiz-adv-x="587" unicode="·"/><glyph d="M383 -100q279 -2 279 -166q0 -78 -71 -123t-177 -45q-78 0 -162 37v69h10l82 -63q6 -2 18 -2q41 0 68 31.5t27 93.5q0 121 -142 125l-14 14l92 129h60z" glyph-name="cedilla" horiz-adv-x="911" unicode="¸"/><glyph d="M47 1638l385 123h14v-741l168 -80v-18h-567v18l168 80v569l-168 31v18z" glyph-name="uni00B9" horiz-adv-x="641" unicode="¹"/><glyph d="M411.5 762q-157.5 0 -255 92t-97.5 252t97.5 252t255 92t254 -92t96.5 -252t-96.5 -252t-254 -92zM411.5 797q55.5 0 85 67.5t29.5 241.5t-29.5 242.5t-85 68.5t-85 -68.5t-29.5 -242.5t29.5 -241.5t85 -67.5z" glyph-name="ordmasculine" horiz-adv-x="821" unicode="º"/><glyph d="M123 170l194 403l-194 404l16 12l441 -416l-441 -413zM494 170l194 403l-194 404l16 12l440 -416l-440 -413z" glyph-name="guillemotright" horiz-adv-x="1073" unicode="»"/><glyph d="M614 633v-19h-567v19l168 80v569l-168 31v18l385 123h14v-741zM1194 1434h61l-905 -1434h-61zM1653 242h-148v-152l140 -72v-18h-512v18l141 72v152h-356v39l292 538h306v-18q-233 -246 -539 -520h297v155h231v-155h148v-39z" glyph-name="onequarter" horiz-adv-x="1677" unicode="¼"/><glyph d="M47 1331l385 123h14v-741l168 -80v-19h-567v19l168 80v569l-168 31v18zM1194 1434h61l-905 -1434h-61zM950 0l4 55q6 76 62.5 155t181.5 189q88 78 119 136.5t33 128.5q2 59 -24 96t-71 37q-37 0 -71 -9l-162 -243h-18l-11 258q152 33 279 33q150 0 233.5 -53.5 t83.5 -157.5q0 -100 -83 -168t-232 -129q-170 -72 -230 -150h453l82 101h20l-30 -279h-619z" glyph-name="onehalf" horiz-adv-x="1662" unicode="½"/><glyph d="M721 854q0 -121 -94.5 -188.5t-264.5 -67.5q-113 0 -276 33l-23 256h19l192 -240q31 -10 68 -10q59 0 98 52t39 148.5t-46 146.5t-120 50q-35 0 -75 -12l-15 37q111 29 167 79t56 144q0 63 -29.5 96t-72.5 33t-78 -8l-151 -236h-19l-8 252q164 31 277 31q145 0 227 -47 t82 -127q0 -154 -285 -195l2 -12q141 10 235.5 -47t94.5 -168zM1331 1434h62l-906 -1434h-61zM1790 242h-148v-152l140 -72v-18h-512v18l141 72v152h-356v39l293 538h305v-18q-233 -246 -539 -520h297v155h231v-155h148v-39z" glyph-name="threequarters" horiz-adv-x="1814" unicode="¾"/><glyph d="M582 684l-203 199l203 200l200 -200zM971 -354q-231 -61 -434 -62q-223 0 -354.5 89t-131.5 255q0 94 57.5 172t128 120t166 96.5t136.5 91.5l10 157h63l105 -172q-29 -35 -95.5 -99.5t-109.5 -110.5t-80 -126t-37 -170q0 -115 53.5 -185.5t124.5 -70.5q45 0 91 13 l266 399h18z" glyph-name="questiondown" horiz-adv-x="1034" unicode="¿"/><glyph d="M803 1561h-23l-452 319v23h362zM1354 127l139 -104v-23h-651v23l159 94l-149 395h-520l-117 -315l252 -174v-23h-487v23l182 184l395 1075l-55 129v23h350zM350 563h481l-245 645z" glyph-name="Agrave" horiz-adv-x="1472" unicode="À"/><glyph d="M1077 1880l-452 -319h-23l113 342h362v-23zM1354 127l139 -104v-23h-651v23l159 94l-149 395h-520l-117 -315l252 -174v-23h-487v23l182 184l395 1075l-55 129v23h350zM350 563h481l-245 645z" glyph-name="Aacute" horiz-adv-x="1472" unicode="Á"/><glyph d="M705 1714l-316 -164l-12 15l278 338h97l280 -338l-14 -15zM1354 127l139 -104v-23h-651v23l159 94l-149 395h-520l-117 -315l252 -174v-23h-487v23l182 184l395 1075l-55 129v23h350zM350 563h481l-245 645z" glyph-name="Acircumflex" horiz-adv-x="1472" unicode="Â"/><glyph d="M520 1700q-45 0 -73.5 -19.5t-57.5 -76.5l-29 10q29 123 85.5 192.5t123.5 69.5q47 0 163 -46t155 -46q47 0 73.5 19.5t57.5 76.5l29 -10q-29 -123 -85.5 -192.5t-123.5 -69.5q-49 0 -164 46t-154 46zM1354 127l139 -104v-23h-651v23l159 94l-149 395h-520l-117 -315 l252 -174v-23h-487v23l182 184l395 1075l-55 129v23h350zM350 563h481l-245 645z" glyph-name="Atilde" horiz-adv-x="1472" unicode="Ã"/><glyph d="M666 1741l-172 -172l-175 172l175 170zM1087 1741l-174 -172l-170 172l170 170zM1354 127l139 -104v-23h-651v23l159 94l-149 395h-520l-117 -315l252 -174v-23h-487v23l182 184l395 1075l-55 129v23h350zM350 563h481l-245 645z" glyph-name="Adieresis" horiz-adv-x="1472" unicode="Ä"/><glyph d="M704.5 1559q-104.5 0 -173 57t-68.5 147t68.5 147.5t173 57.5t172 -57.5t67.5 -147.5t-67.5 -147t-172 -57zM705 1937q-92 0 -92.5 -174t92.5 -174q90 0 90 174t-90 174zM1354 127l139 -104v-23h-651v23l159 94l-149 395h-520l-117 -315l252 -174v-23h-487v23l182 184 l395 1075l-55 129v23h350zM350 563h481l-245 645z" glyph-name="Aring" horiz-adv-x="1472" unicode="Å"/><glyph d="M2075 481h22l-57 -481h-1227v23l154 100v389h-518l-216 -315l220 -174v-23h-494v23l219 184l762 1122l-127 82v23h1202v-420h-22l-299 368h-381v-618h141l262 133h23v-317h-23l-262 133h-141v-662h418zM483 563h484v711z" glyph-name="AE" horiz-adv-x="2168" unicode="Æ"/><glyph d="M827 -29h-4l-49 -71q279 -2 279 -166q0 -78 -71 -123t-177 -45q-78 0 -162 37v69h10l82 -63q6 -2 19 -2q41 0 67.5 31.5t26.5 93.5q0 121 -141 125l-15 14l74 102q-315 18 -498.5 214t-183.5 528q0 350 204 548.5t541 198.5q242 0 496 -59v-428h-22l-293 414 q-78 25 -152 24q-160 0 -276.5 -172t-118.5 -479q-2 -369 110.5 -555.5t274.5 -186.5q84 0 156 33l366 455h23l-68 -467q-267 -70 -498 -70z" glyph-name="Ccedilla" horiz-adv-x="1472" unicode="Ç"/><glyph d="M813 1561h-22l-453 319v23h362zM1339 481h23l-57 -481h-1248v23l154 100v1190l-154 98v23h1223v-420h-23l-299 368h-401v-618h162l262 133h23v-317h-23l-262 133h-162v-662h438z" glyph-name="Egrave" horiz-adv-x="1433" unicode="È"/><glyph d="M1087 1880l-452 -319h-23l113 342h362v-23zM1339 481h23l-57 -481h-1248v23l154 100v1190l-154 98v23h1223v-420h-23l-299 368h-401v-618h162l262 133h23v-317h-23l-262 133h-162v-662h438z" glyph-name="Eacute" horiz-adv-x="1433" unicode="É"/><glyph d="M713 1714l-316 -164l-12 15l279 338h96l280 -338l-14 -15zM1339 481h23l-57 -481h-1248v23l154 100v1190l-154 98v23h1223v-420h-23l-299 368h-401v-618h162l262 133h23v-317h-23l-262 133h-162v-662h438z" glyph-name="Ecircumflex" horiz-adv-x="1433" unicode="Ê"/><glyph d="M674 1741l-172 -172l-174 172l174 170zM1096 1741l-174 -172l-170 172l170 170zM1339 481h23l-57 -481h-1248v23l154 100v1190l-154 98v23h1223v-420h-23l-299 368h-401v-618h162l262 133h23v-317h-23l-262 133h-162v-662h438z" glyph-name="Edieresis" horiz-adv-x="1433" unicode="Ë"/><glyph d="M483 1561h-22l-453 319v23h363zM557 1313v-1190l154 -100v-23h-654v23l154 100v1190l-154 98v23h654v-23z" glyph-name="Igrave" horiz-adv-x="765" unicode="Ì"/><glyph d="M395 1903h363v-23l-453 -319h-22zM57 1411v23h654v-23l-154 -98v-1190l154 -100v-23h-654v23l154 100v1190z" glyph-name="Iacute" horiz-adv-x="765" unicode="Í"/><glyph d="M383 1714l-315 -164l-13 15l279 338h96l281 -338l-15 -15zM57 1411v23h654v-23l-154 -98v-1190l154 -100v-23h-654v23l154 100v1190z" glyph-name="Icircumflex" horiz-adv-x="765" unicode="Î"/><glyph d="M344 1741l-172 -172l-174 172l174 170zM766 1741l-174 -172l-170 172l170 170zM57 1411v23h654v-23l-154 -98v-1190l154 -100v-23h-654v23l154 100v1190z" glyph-name="Idieresis" horiz-adv-x="765" unicode="Ï"/><glyph d="M793 1434q330 0 533.5 -184.5t203.5 -512.5q0 -342 -190.5 -539.5t-518.5 -197.5h-768v23l154 100v590h-164v51h164v549l-154 98v23h740zM737 51q209 0 313.5 159t104.5 495q0 678 -442 677h-160v-618h278v-51h-278v-662h184z" glyph-name="Eth" horiz-adv-x="1613" unicode="Ð"/><glyph d="M580 1700q-45 0 -74 -19.5t-57 -76.5l-29 10q29 123 85 192.5t124 69.5q47 0 162.5 -46t154.5 -46q47 0 74 19.5t57 76.5l29 -10q-29 -123 -85 -192.5t-124 -69.5q-49 0 -163.5 46t-153.5 46zM1012 1434h477v-23l-170 -178v-1233h-254l-803 1292v-1093l252 -176v-23h-477 v23l170 180v1108l-170 100v23h524l703 -1121v922l-252 176v23z" glyph-name="Ntilde" horiz-adv-x="1511" unicode="Ñ"/><glyph d="M815 1903l113 -342h-23l-452 319v23h362zM827.5 -29q-348.5 0 -546 199t-197.5 547t197.5 546.5t546 198.5t546 -198.5t197.5 -546.5t-197.5 -547t-546 -199zM827 20q362 0 362.5 696.5t-362.5 696.5q-360 0 -360 -696.5t360 -696.5z" glyph-name="Ograve" horiz-adv-x="1654" unicode="Ò"/><glyph d="M840 1903h362v-23l-452 -319h-23zM827.5 -29q-348.5 0 -546 199t-197.5 547t197.5 546.5t546 198.5t546 -198.5t197.5 -546.5t-197.5 -547t-546 -199zM827 20q362 0 362.5 696.5t-362.5 696.5q-360 0 -360 -696.5t360 -696.5z" glyph-name="Oacute" horiz-adv-x="1654" unicode="Ó"/><glyph d="M502 1565l278 338h97l280 -338l-14 -15l-314 164l-315 -164zM827.5 -29q-348.5 0 -546 199t-197.5 547t197.5 546.5t546 198.5t546 -198.5t197.5 -546.5t-197.5 -547t-546 -199zM827 20q362 0 362.5 696.5t-362.5 696.5q-360 0 -360 -696.5t360 -696.5z" glyph-name="Ocircumflex" horiz-adv-x="1654" unicode="Ô"/><glyph d="M514 1604l-29 10q29 123 85.5 192.5t123.5 69.5q47 0 163 -46t155 -46q47 0 73.5 19.5t57.5 76.5l28 -10q-29 -123 -85 -192.5t-123 -69.5q-49 0 -164 46t-154 46q-45 0 -73.5 -19.5t-57.5 -76.5zM827.5 -29q-348.5 0 -546 199t-197.5 547t197.5 546.5t546 198.5 t546 -198.5t197.5 -546.5t-197.5 -547t-546 -199zM827 20q362 0 362.5 696.5t-362.5 696.5q-360 0 -360 -696.5t360 -696.5z" glyph-name="Otilde" horiz-adv-x="1654" unicode="Õ"/><glyph d="M618 1911l173 -170l-173 -172l-174 172zM1038 1911l174 -170l-174 -172l-170 172zM827.5 -29q-348.5 0 -546 199t-197.5 547t197.5 546.5t546 198.5t546 -198.5t197.5 -546.5t-197.5 -547t-546 -199zM827 20q362 0 362.5 696.5t-362.5 696.5q-360 0 -360 -696.5 t360 -696.5z" glyph-name="Odieresis" horiz-adv-x="1654" unicode="Ö"/><glyph d="M969 336l-39 -37l-342 342l-340 -340l-37 37l340 340l-340 340l37 37l340 -340l342 340l37 -37l-340 -340z" glyph-name="multiply" horiz-adv-x="1177" unicode="×"/><glyph d="M1174 1397q193 -82 295 -256t102 -424q0 -348 -197.5 -547t-546.5 -199q-164 0 -299 47l-71 -151l-49 20l69 150q-188 84 -290.5 258t-102.5 422q0 348 197.5 546.5t545.5 198.5q158 0 297 -45l72 154l49 -23zM467 717q0 -342 88 -514l510 1089q-88 121 -238 121 q-360 0 -360 -696zM827 20q362 0 363 697q0 346 -90 520l-512 -1092q87 -125 239 -125z" glyph-name="Oslash" horiz-adv-x="1654" unicode="Ø"/><glyph d="M954 1561h-22l-453 319v23h363zM1049 1434h477v-23l-170 -180v-725q0 -250 -147.5 -392.5t-428.5 -142.5q-279 0 -431 142.5t-152 390.5v809l-154 98v23h653v-23l-153 -98v-813q0 -186 102.5 -301t276.5 -115q176 0 277 115.5t101 302.5v733l-251 176v23z" glyph-name="Ugrave" horiz-adv-x="1544" unicode="Ù"/><glyph d="M1229 1880l-453 -319h-22l112 342h363v-23zM1049 1434h477v-23l-170 -180v-725q0 -250 -147.5 -392.5t-428.5 -142.5q-279 0 -431 142.5t-152 390.5v809l-154 98v23h653v-23l-153 -98v-813q0 -186 102.5 -301t276.5 -115q176 0 277 115.5t101 302.5v733l-251 176v23z" glyph-name="Uacute" horiz-adv-x="1544" unicode="Ú"/><glyph d="M856 1714l-315 -164l-13 15l279 338h96l281 -338l-15 -15zM1049 1434h477v-23l-170 -180v-725q0 -250 -147.5 -392.5t-428.5 -142.5q-279 0 -431 142.5t-152 390.5v809l-154 98v23h653v-23l-153 -98v-813q0 -186 102.5 -301t276.5 -115q176 0 277 115.5t101 302.5v733 l-251 176v23z" glyph-name="Ucircumflex" horiz-adv-x="1544" unicode="Û"/><glyph d="M817 1741l-172 -172l-174 172l174 170zM1239 1741l-174 -172l-170 172l170 170zM1049 1434h477v-23l-170 -180v-725q0 -250 -147.5 -392.5t-428.5 -142.5q-279 0 -431 142.5t-152 390.5v809l-154 98v23h653v-23l-153 -98v-813q0 -186 102.5 -301t276.5 -115 q176 0 277 115.5t101 302.5v733l-251 176v23z" glyph-name="Udieresis" horiz-adv-x="1544" unicode="Ü"/><glyph d="M1155 1880l-453 -319h-22l113 342h362v-23zM967 1434h487v-23l-180 -182l-371 -645l2 -461l174 -100v-23h-696v23l174 100v420l-434 764l-141 104v23h675v-23l-153 -98l370 -676l347 604l-254 170v23z" glyph-name="Yacute" horiz-adv-x="1435" unicode="Ý"/><glyph d="M842 1198q262 0 411.5 -111.5t149.5 -322.5q0 -223 -153.5 -344t-418.5 -121h-274v-176l154 -100v-23h-654v23l154 100v1190l-154 98v23h654v-23l-154 -98v-115h285zM748 350q139 0 217.5 102.5t78.5 301.5q0 182 -87 287.5t-220 105.5h-180v-797h191z" glyph-name="Thorn" horiz-adv-x="1460" unicode="Þ"/><glyph d="M1141 709q227 -137 227 -344q0 -182 -123 -286t-289 -104q-156 0 -350 56v209h19l217 -207q47 -12 90 -13q80 0 139 54.5t59 138.5q0 82 -41.5 139.5t-132.5 114.5l-335 207v200q166 57 237.5 137.5t71.5 199t-56.5 183t-158.5 64.5q-109 0 -168.5 -84t-59.5 -241v-1133 h-444v16l117 86v887h-144v47h144v4q0 465 553 465q211 0 346 -75.5t135 -212.5q0 -119 -94 -186.5t-281 -110.5v-17z" glyph-name="germandbls" horiz-adv-x="1402" unicode="ß"/><glyph d="M692 1163h-22l-453 320v22h363zM1034 106l117 -88v-18h-379l-57 162q-123 -186 -320 -187q-139 0 -235.5 69t-96.5 224q0 221 310 299q215 51 334 88v174q0 184 -140 185q-39 0 -78 -10l-305 -349h-18l-14 359q258 47 469 47q207 0 310 -82t103 -217v-656zM545 111 q86 0 162 102v401l-146 -51q-174 -72 -174 -252q0 -92 44 -146t114 -54z" glyph-name="agrave" horiz-adv-x="1169" unicode="à"/><glyph d="M967 1483l-453 -320h-22l112 342h363v-22zM1034 106l117 -88v-18h-379l-57 162q-123 -186 -320 -187q-139 0 -235.5 69t-96.5 224q0 221 310 299q215 51 334 88v174q0 184 -140 185q-39 0 -78 -10l-305 -349h-18l-14 359q258 47 469 47q207 0 310 -82t103 -217v-656z M545 111q86 0 162 102v401l-146 -51q-174 -72 -174 -252q0 -92 44 -146t114 -54z" glyph-name="aacute" horiz-adv-x="1169" unicode="á"/><glyph d="M594 1317l-315 -164l-13 14l279 338h96l281 -338l-15 -14zM1034 106l117 -88v-18h-379l-57 162q-123 -186 -320 -187q-139 0 -235.5 69t-96.5 224q0 221 310 299q215 51 334 88v174q0 184 -140 185q-39 0 -78 -10l-305 -349h-18l-14 359q258 47 469 47q207 0 310 -82 t103 -217v-656zM545 111q86 0 162 102v401l-146 -51q-174 -72 -174 -252q0 -92 44 -146t114 -54z" glyph-name="acircumflex" horiz-adv-x="1169" unicode="â"/><glyph d="M410 1303q-45 0 -74 -19.5t-57 -77.5l-29 11q29 123 85 192.5t124 69.5q47 0 162.5 -46.5t154.5 -46.5q47 0 74 19.5t57 77.5l29 -10q-29 -123 -85 -193t-124 -70q-49 0 -163.5 46.5t-153.5 46.5zM1034 106l117 -88v-18h-379l-57 162q-123 -186 -320 -187 q-139 0 -235.5 69t-96.5 224q0 221 310 299q215 51 334 88v174q0 184 -140 185q-39 0 -78 -10l-305 -349h-18l-14 359q258 47 469 47q207 0 310 -82t103 -217v-656zM545 111q86 0 162 102v401l-146 -51q-174 -72 -174 -252q0 -92 44 -146t114 -54z" glyph-name="atilde" horiz-adv-x="1169" unicode="ã"/><glyph d="M555 1343l-172 -172l-174 172l174 170zM977 1343l-174 -172l-170 172l170 170zM1034 106l117 -88v-18h-379l-57 162q-123 -186 -320 -187q-139 0 -235.5 69t-96.5 224q0 221 310 299q215 51 334 88v174q0 184 -140 185q-39 0 -78 -10l-305 -349h-18l-14 359 q258 47 469 47q207 0 310 -82t103 -217v-656zM545 111q86 0 162 102v401l-146 -51q-174 -72 -174 -252q0 -92 44 -146t114 -54z" glyph-name="adieresis" horiz-adv-x="1169" unicode="ä"/><glyph d="M593.5 1161q-104.5 0 -173 57.5t-68.5 147.5t68.5 147.5t173 57.5t172.5 -57.5t68 -147.5t-68 -147.5t-172.5 -57.5zM594 1540q-92 0 -92 -174t92 -174q90 0 90 174t-90 174zM1034 106l117 -88v-18h-379l-57 162q-123 -186 -320 -187q-139 0 -235.5 69t-96.5 224 q0 221 310 299q215 51 334 88v174q0 184 -140 185q-39 0 -78 -10l-305 -349h-18l-14 359q258 47 469 47q207 0 310 -82t103 -217v-656zM545 111q86 0 162 102v401l-146 -51q-174 -72 -174 -252q0 -92 44 -146t114 -54z" glyph-name="aring" horiz-adv-x="1169" unicode="å"/><glyph d="M1694 336l41 -19q-127 -342 -494 -342q-158 0 -279.5 67t-189.5 185q-129 -252 -377 -252q-139 0 -235.5 69t-96.5 224q0 221 310 299q254 61 329 86v176q0 184 -139 185q-39 0 -74 -10l-292 -349h-19l-26 359q258 47 466 47q201 0 300 -92q135 92 331 92 q221 0 351.5 -119t130.5 -344v-59h-678q6 -203 89 -310.5t218 -107.5q121 0 199 56.5t135 158.5zM1249 1014q-90 0 -142 -104.5t-54 -323.5h358v43q0 205 -38 295t-124 90zM545 111q86 0 157 96v405q-25 -10 -72.5 -25.5t-68.5 -23.5q-172 -72 -172 -252q0 -92 44 -146 t112 -54z" glyph-name="ae" horiz-adv-x="1781" unicode="æ"/><glyph d="M1055 307q-121 -326 -463 -332l-53 -75q279 -2 278 -166q0 -78 -70.5 -123t-177.5 -45q-78 0 -161 37v69h10l82 -63q6 -2 18 -2q41 0 67.5 31.5t26.5 93.5q0 121 -141 125l-14 14l75 106q-215 14 -348 161t-133 378q0 258 154.5 401.5t398.5 143.5q186 0 400 -47 l-15 -379h-18l-271 362q-39 16 -82 17q-82 0 -149.5 -118t-67.5 -333q0 -217 84 -330.5t217 -113.5q203 0 312 209z" glyph-name="ccedilla" horiz-adv-x="1085" unicode="ç"/><glyph d="M705 1163h-23l-453 320v22h363zM1040 336l41 -19q-123 -342 -491 -342q-240 0 -389.5 146.5t-149.5 386.5q0 264 150.5 408.5t394.5 144.5q223 0 353 -119t130 -344v-59h-680q8 -203 91 -310.5t219 -107.5q212 0 331 215zM598 1014q-193 0 -199 -428h361v43 q-2 205 -40 295t-122 90z" glyph-name="egrave" horiz-adv-x="1130" unicode="è"/><glyph d="M979 1483l-453 -320h-22l112 342h363v-22zM1040 336l41 -19q-123 -342 -491 -342q-240 0 -389.5 146.5t-149.5 386.5q0 264 150.5 408.5t394.5 144.5q223 0 353 -119t130 -344v-59h-680q8 -203 91 -310.5t219 -107.5q212 0 331 215zM598 1014q-193 0 -199 -428h361v43 q-2 205 -40 295t-122 90z" glyph-name="eacute" horiz-adv-x="1130" unicode="é"/><glyph d="M604 1317l-315 -164l-13 14l279 338h96l281 -338l-14 -14zM1040 336l41 -19q-123 -342 -491 -342q-240 0 -389.5 146.5t-149.5 386.5q0 264 150.5 408.5t394.5 144.5q223 0 353 -119t130 -344v-59h-680q8 -203 91 -310.5t219 -107.5q212 0 331 215zM598 1014 q-193 0 -199 -428h361v43q-2 205 -40 295t-122 90z" glyph-name="ecircumflex" horiz-adv-x="1130" unicode="ê"/><glyph d="M565 1343l-172 -172l-174 172l174 170zM987 1343l-174 -172l-170 172l170 170zM1040 336l41 -19q-123 -342 -491 -342q-240 0 -389.5 146.5t-149.5 386.5q0 264 150.5 408.5t394.5 144.5q223 0 353 -119t130 -344v-59h-680q8 -203 91 -310.5t219 -107.5q212 0 331 215z M598 1014q-193 0 -199 -428h361v43q-2 205 -40 295t-122 90z" glyph-name="edieresis" horiz-adv-x="1130" unicode="ë"/><glyph d="M412 1163h-23l-452 320v22h362zM485 102l119 -84v-18h-563v18l117 84v830l-127 86v18h454v-934z" glyph-name="igrave" horiz-adv-x="630" unicode="ì"/><glyph d="M324 1505h362v-22l-453 -320h-22zM485 102l119 -84v-18h-563v18l117 84v830l-127 86v18h454v-934z" glyph-name="iacute" horiz-adv-x="630" unicode="í"/><glyph d="M358 1505l281 -338l-14 -14l-314 164l-315 -164l-14 14l280 338h96zM485 102l119 -84v-18h-563v18l117 84v830l-127 86v18h454v-934z" glyph-name="icircumflex" horiz-adv-x="630" unicode="î"/><glyph d="M272 1343l-172 -172l-174 172l174 170zM694 1343l-174 -172l-170 172l170 170zM485 102l119 -84v-18h-563v18l117 84v830l-127 86v18h454v-934z" glyph-name="idieresis" horiz-adv-x="630" unicode="ï"/><glyph d="M762 1296q184 -117 287.5 -298t103.5 -408q0 -293 -151.5 -454t-401.5 -161q-246 0 -398.5 148.5t-152.5 404.5q0 246 145.5 389.5t378.5 143.5q104 0 168 -47q-49 141 -135 233l-284 -88l-15 45l260 80q-113 100 -291 152l5 22q236 -27 426 -129l272 84l14 -45zM600 23 q100 0 150.5 117.5t50.5 404.5q0 154 -15 260l-2 -2q-12 102 -61 153.5t-121 51.5q-205 0 -205 -486q0 -270 51.5 -384.5t151.5 -114.5z" glyph-name="eth" horiz-adv-x="1206" unicode="ð"/><glyph d="M494 1303q-45 0 -74 -19.5t-58 -77.5l-28 11q29 123 85 192.5t124 69.5q47 0 162.5 -46.5t154.5 -46.5q47 0 74 19.5t57 77.5l29 -10q-29 -123 -85 -193t-124 -70q-49 0 -163.5 46.5t-153.5 46.5zM1176 102l116 -84v-18h-563v18l119 84v611q0 203 -158 202 q-117 0 -205 -110v-703l119 -84v-18h-563v18l117 84v830l-127 86v18h389l61 -176q139 201 371 201q156 0 240 -86t84 -246v-627z" glyph-name="ntilde" horiz-adv-x="1310" unicode="ñ"/><glyph d="M596 1505l113 -342h-23l-453 320v22h363zM608 -25q-254 0 -406.5 144.5t-152.5 398.5t152.5 398.5t406.5 144.5t405.5 -144.5t151.5 -398.5t-151.5 -398.5t-405.5 -144.5zM608.5 23q96.5 0 147.5 108.5t51 387t-51 387t-147.5 108.5t-148.5 -108.5t-52 -387t52 -387 t148.5 -108.5z" glyph-name="ograve" horiz-adv-x="1214" unicode="ò"/><glyph d="M621 1505h362v-22l-453 -320h-22zM608 -25q-254 0 -406.5 144.5t-152.5 398.5t152.5 398.5t406.5 144.5t405.5 -144.5t151.5 -398.5t-151.5 -398.5t-405.5 -144.5zM608.5 23q96.5 0 147.5 108.5t51 387t-51 387t-147.5 108.5t-148.5 -108.5t-52 -387t52 -387 t148.5 -108.5z" glyph-name="oacute" horiz-adv-x="1214" unicode="ó"/><glyph d="M281 1167l278 338h96l281 -338l-14 -14l-314 164l-315 -164zM608 -25q-254 0 -406.5 144.5t-152.5 398.5t152.5 398.5t406.5 144.5t405.5 -144.5t151.5 -398.5t-151.5 -398.5t-405.5 -144.5zM608.5 23q96.5 0 147.5 108.5t51 387t-51 387t-147.5 108.5t-148.5 -108.5 t-52 -387t52 -387t148.5 -108.5z" glyph-name="ocircumflex" horiz-adv-x="1214" unicode="ô"/><glyph d="M293 1206l-29 11q29 123 85.5 192.5t123.5 69.5q47 0 163 -46.5t155 -46.5q47 0 73.5 19.5t57.5 77.5l28 -10q-29 -123 -85 -193t-124 -70q-49 0 -163.5 46.5t-153.5 46.5q-45 0 -73.5 -20t-57.5 -77zM608 -25q-254 0 -406.5 144.5t-152.5 398.5t152.5 398.5t406.5 144.5 t405.5 -144.5t151.5 -398.5t-151.5 -398.5t-405.5 -144.5zM608.5 23q96.5 0 147.5 108.5t51 387t-51 387t-147.5 108.5t-148.5 -108.5t-52 -387t52 -387t148.5 -108.5z" glyph-name="otilde" horiz-adv-x="1214" unicode="õ"/><glyph d="M397 1513l172 -170l-172 -172l-174 172zM817 1513l174 -170l-174 -172l-170 172zM608 -25q-254 0 -406.5 144.5t-152.5 398.5t152.5 398.5t406.5 144.5t405.5 -144.5t151.5 -398.5t-151.5 -398.5t-405.5 -144.5zM608.5 23q96.5 0 147.5 108.5t51 387t-51 387 t-147.5 108.5t-148.5 -108.5t-52 -387t52 -387t148.5 -108.5z" glyph-name="odieresis" horiz-adv-x="1214" unicode="ö"/><glyph d="M590 1171l145 -141l-145 -143l-148 143zM139 702h901v-51h-901v51zM590 465l145 -141l-145 -144l-148 144z" glyph-name="divide" horiz-adv-x="1177" unicode="÷"/><glyph d="M862 1014q143 -59 223 -186.5t80 -309.5q0 -254 -151.5 -398.5t-405.5 -144.5q-123 0 -215 33l-65 -139l-45 20l63 136q-141 61 -219 188t-78 305q0 254 152.5 398.5t406.5 144.5q113 0 209 -31l64 137l45 -18zM408 518q0 -186 26 -305l324 690q-49 111 -150 111 q-96 0 -148 -108.5t-52 -387.5zM608 23q96 0 147.5 108.5t51.5 386.5q0 201 -29 316l-323 -693q49 -118 153 -118z" glyph-name="oslash" horiz-adv-x="1206" unicode="ø"/><glyph d="M723 1163h-23l-452 320v22h362zM1124 106l117 -88v-18h-379l-59 170q-129 -195 -332 -195q-162 0 -249 87.5t-87 246.5v623l-127 86v18h455v-708q0 -205 153 -205q109 0 181 102v707l-129 86v18h456v-930z" glyph-name="ugrave" horiz-adv-x="1269" unicode="ù"/><glyph d="M997 1483l-452 -320h-23l113 342h362v-22zM1124 106l117 -88v-18h-379l-59 170q-129 -195 -332 -195q-162 0 -249 87.5t-87 246.5v623l-127 86v18h455v-708q0 -205 153 -205q109 0 181 102v707l-129 86v18h456v-930z" glyph-name="uacute" horiz-adv-x="1269" unicode="ú"/><glyph d="M625 1317l-316 -164l-12 14l278 338h97l280 -338l-14 -14zM1124 106l117 -88v-18h-379l-59 170q-129 -195 -332 -195q-162 0 -249 87.5t-87 246.5v623l-127 86v18h455v-708q0 -205 153 -205q109 0 181 102v707l-129 86v18h456v-930z" glyph-name="ucircumflex" horiz-adv-x="1269" unicode="û"/><glyph d="M586 1343l-172 -172l-174 172l174 170zM1008 1343l-174 -172l-170 172l170 170zM1124 106l117 -88v-18h-379l-59 170q-129 -195 -332 -195q-162 0 -249 87.5t-87 246.5v623l-127 86v18h455v-708q0 -205 153 -205q109 0 181 102v707l-129 86v18h456v-930z" glyph-name="udieresis" horiz-adv-x="1269" unicode="ü"/><glyph d="M999 1483l-452 -320h-23l113 342h362v-22zM745 1036h408v-18l-141 -170l-389 -957q-76 -180 -149 -242.5t-173 -62.5q-37 0 -108 23v203h342l22 57l-494 1059l-94 90v18h561v-18l-116 -86l303 -674l246 598l-218 162v18z" glyph-name="yacute" horiz-adv-x="1114" unicode="ý"/><glyph d="M764 1061q176 0 297 -130t121 -390q0 -272 -139.5 -419t-329.5 -147q-158 0 -250 88v-352l174 -82v-18h-619v18l117 82v1618l-127 86v19h455v-533q104 160 301 160zM608 63q102 0 166 104.5t64 336.5q0 420 -217 420q-96 0 -158 -90v-711q57 -60 145 -60z" glyph-name="thorn" horiz-adv-x="1230" unicode="þ"/><glyph d="M586 1343l-172 -172l-174 172l174 170zM1008 1343l-174 -172l-170 172l170 170zM745 1036h408v-18l-141 -170l-389 -957q-76 -180 -149 -242.5t-173 -62.5q-37 0 -108 23v203h342l22 57l-494 1059l-94 90v18h561v-18l-116 -86l303 -674l246 598l-218 162v18z" glyph-name="ydieresis" horiz-adv-x="1114" unicode="ÿ"/><glyph d="M1047 1724v-51h-687v51h687zM1354 127l139 -104v-23h-651v23l159 94l-149 395h-520l-117 -315l252 -174v-23h-487v23l182 184l395 1075l-55 129v23h350zM350 563h481l-245 645z" glyph-name="Amacron" horiz-adv-x="1472" unicode="Ā"/><glyph d="M936 1327v-51h-686v51h686zM1034 106l117 -88v-18h-379l-57 162q-123 -186 -320 -187q-139 0 -235.5 69t-96.5 224q0 221 310 299q215 51 334 88v174q0 184 -140 185q-39 0 -78 -10l-305 -349h-18l-14 359q258 47 469 47q207 0 310 -82t103 -217v-656zM545 111 q86 0 162 102v401l-146 -51q-174 -72 -174 -252q0 -92 44 -146t114 -54z" glyph-name="amacron" horiz-adv-x="1169" unicode="ā"/><glyph d="M705 1569q-154 0 -233 93t-79 241h31q39 -172 281 -172q244 0 278 172h31q0 -147 -78.5 -240.5t-230.5 -93.5zM1354 127l139 -104v-23h-651v23l159 94l-149 395h-520l-117 -315l252 -174v-23h-487v23l182 184l395 1075l-55 129v23h350zM350 563h481l-245 645z" glyph-name="Abreve" horiz-adv-x="1472" unicode="Ă"/><glyph d="M594 1171q-154 0 -232.5 93.5t-78.5 240.5h30q39 -172 281 -172q244 0 278 172h31q0 -147 -78.5 -240.5t-230.5 -93.5zM1034 106l117 -88v-18h-379l-57 162q-123 -186 -320 -187q-139 0 -235.5 69t-96.5 224q0 221 310 299q215 51 334 88v174q0 184 -140 185 q-39 0 -78 -10l-305 -349h-18l-14 359q258 47 469 47q207 0 310 -82t103 -217v-656zM545 111q86 0 162 102v401l-146 -51q-174 -72 -174 -252q0 -92 44 -146t114 -54z" glyph-name="abreve" horiz-adv-x="1169" unicode="ă"/><glyph d="M1354 127l139 -104v-23h-61q-197 -90 -197 -238q0 -59 29.5 -91.5t77 -32.5t90.5 20v-31q-94 -61 -209 -61q-92 0 -148.5 43t-56.5 117q0 174 305 262v12h-481v23l159 94l-149 395h-520l-117 -315l252 -174v-23h-487v23l182 184l395 1075l-55 129v23h350zM350 563h481 l-245 645z" glyph-name="Aogonek" horiz-adv-x="1472" unicode="Ą"/><glyph d="M956 -238q0 -59 30 -91.5t77 -32.5t90 20v-31q-94 -61 -209 -61q-92 0 -148.5 43t-56.5 117q0 174 305 262v12h-272l-57 162q-123 -186 -320 -187q-139 0 -235.5 69t-96.5 224q0 221 310 299q215 51 334 88v174q0 184 -140 185q-39 0 -78 -10l-305 -349h-18l-14 359 q258 47 469 47q207 0 310 -82t103 -217v-656l117 -88v-18h2q-197 -91 -197 -238zM545 111q86 0 162 102v401l-146 -51q-174 -72 -174 -252q0 -92 44 -146t114 -54z" glyph-name="aogonek" horiz-adv-x="1169" unicode="ą"/><glyph d="M852 1903h362v-23l-452 -319h-23zM1303 975l-293 414q-78 25 -152 24q-160 0 -276.5 -172t-118.5 -479q-2 -369 110.5 -555.5t274.5 -186.5q84 0 156 33l366 455h23l-68 -467q-266 -70 -498 -70q-340 0 -541.5 197t-201.5 547t204 548.5t541 198.5q242 0 496 -59v-428 h-22z" glyph-name="Cacute" horiz-adv-x="1472" unicode="Ć"/><glyph d="M629 1505h362v-22l-452 -320h-23zM971 635l-271 362q-39 16 -82 17q-82 0 -149.5 -118t-67.5 -333q0 -217 84 -330.5t217 -113.5q203 0 312 209l41 -21q-123 -332 -475 -332q-231 -2 -380 147.5t-149 393.5q0 258 154.5 401.5t398.5 143.5q186 0 400 -47l-15 -379h-18z " glyph-name="cacute" horiz-adv-x="1085" unicode="ć"/><glyph d="M512 1565l279 338h96l280 -338l-14 -15l-313 164l-316 -164zM1303 975l-293 414q-78 25 -152 24q-160 0 -276.5 -172t-118.5 -479q-2 -369 110.5 -555.5t274.5 -186.5q84 0 156 33l366 455h23l-68 -467q-266 -70 -498 -70q-340 0 -541.5 197t-201.5 547t204 548.5 t541 198.5q242 0 496 -59v-428h-22z" glyph-name="Ccircumflex" horiz-adv-x="1552" unicode="Ĉ"/><glyph d="M291 1167l278 338h97l280 -338l-14 -14l-314 164l-315 -164zM971 635l-271 362q-39 16 -82 17q-82 0 -149.5 -118t-67.5 -333q0 -217 84 -330.5t217 -113.5q203 0 312 209l41 -21q-123 -332 -475 -332q-231 -2 -380 147.5t-149 393.5q0 258 154.5 401.5t398.5 143.5 q186 0 400 -47l-15 -379h-18z" glyph-name="ccircumflex" horiz-adv-x="1085" unicode="ĉ"/><glyph d="M838 1939l186 -182l-186 -184l-183 184zM1303 975l-293 414q-78 25 -152 24q-160 0 -276.5 -172t-118.5 -479q-2 -369 110.5 -555.5t274.5 -186.5q84 0 156 33l366 455h23l-68 -467q-266 -70 -498 -70q-340 0 -541.5 197t-201.5 547t204 548.5t541 198.5q242 0 496 -59 v-428h-22z" glyph-name="Cdotaccent" horiz-adv-x="1472" unicode="Ċ"/><glyph d="M616 1542l187 -182l-187 -184l-182 184zM971 635l-271 362q-39 16 -82 17q-82 0 -149.5 -118t-67.5 -333q0 -217 84 -330.5t217 -113.5q203 0 312 209l41 -21q-123 -332 -475 -332q-231 -2 -380 147.5t-149 393.5q0 258 154.5 401.5t398.5 143.5q186 0 400 -47l-15 -379 h-18z" glyph-name="cdotaccent" horiz-adv-x="1085" unicode="ċ"/><glyph d="M512 1903l12 16l316 -164l313 164l14 -16l-280 -338h-96zM1303 975l-293 414q-78 25 -152 24q-160 0 -276.5 -172t-118.5 -479q-2 -369 110.5 -555.5t274.5 -186.5q84 0 156 33l366 455h23l-68 -467q-266 -70 -498 -70q-340 0 -541.5 197t-201.5 547t204 548.5t541 198.5 q242 0 496 -59v-428h-22z" glyph-name="Ccaron" horiz-adv-x="1472" unicode="Č"/><glyph d="M291 1505l12 17l315 -164l314 164l14 -17l-280 -338h-97zM971 635l-271 362q-39 16 -82 17q-82 0 -149.5 -118t-67.5 -333q0 -217 84 -330.5t217 -113.5q203 0 312 209l41 -21q-123 -332 -475 -332q-231 -2 -380 147.5t-149 393.5q0 258 154.5 401.5t398.5 143.5 q186 0 400 -47l-15 -379h-18z" glyph-name="ccaron" horiz-adv-x="1085" unicode="č"/><glyph d="M764 1565h-96l-279 338l12 16l316 -164l313 164l14 -16zM795 1434q332 0 534.5 -183.5t202.5 -513.5q0 -344 -190.5 -540.5t-518.5 -196.5h-766v23l154 100v1190l-154 98v23h738zM741 51q416 0 416 654q0 678 -442 677h-158v-1331h184z" glyph-name="Dcaron" horiz-adv-x="1615" unicode="Ď"/><glyph d="M1450 1380q53 -51 53 -118q0 -72 -69.5 -138.5t-176.5 -115.5l-12 18q68 47 68 113q0 51 -37 86l-74 73l164 164zM1104 106l119 -88v-18h-379l-56 154q-111 -178 -313 -179q-176 0 -297 131.5t-121 391.5q0 272 139.5 418.5t331.5 146.5q156 0 248 -88v354l-127 86v19 h455v-1328zM618 115q98 0 158 88v712q-57 59 -145 60q-102 0 -165 -104.5t-63 -335.5q0 -420 215 -420z" glyph-name="dcaron" horiz-adv-x="1443" unicode="ď"/><glyph d="M793 1434q330 0 533.5 -184.5t203.5 -512.5q0 -342 -190.5 -539.5t-518.5 -197.5h-768v23l154 100v590h-164v51h164v549l-154 98v23h740zM737 51q209 0 313.5 159t104.5 495q0 678 -442 677h-160v-618h278v-51h-278v-662h184z" glyph-name="Dcroat" horiz-adv-x="1613" unicode="Đ"/><glyph d="M1104 106l119 -88v-18h-379l-56 154q-111 -178 -313 -179q-176 0 -297 131.5t-121 391.5q0 272 139.5 418.5t331.5 146.5q156 0 248 -88v205h-254v47h254v102l-127 86v19h455v-207h133v-47h-133v-1074zM776 203v712q-57 59 -145 60q-102 0 -165 -104.5t-63 -335.5 q0 -420 215 -420q99 0 158 88z" glyph-name="dcroat" horiz-adv-x="1249" unicode="đ"/><glyph d="M1055 1724v-51h-686v51h686zM1339 481h23l-57 -481h-1248v23l154 100v1190l-154 98v23h1223v-420h-23l-299 368h-401v-618h162l262 133h23v-317h-23l-262 133h-162v-662h438z" glyph-name="Emacron" horiz-adv-x="1433" unicode="Ē"/><glyph d="M946 1327v-51h-686v51h686zM1040 336l41 -19q-123 -342 -491 -342q-240 0 -389.5 146.5t-149.5 386.5q0 264 150.5 408.5t394.5 144.5q223 0 353 -119t130 -344v-59h-680q8 -203 91 -310.5t219 -107.5q212 0 331 215zM598 1014q-193 0 -199 -428h361v43q-2 205 -40 295 t-122 90z" glyph-name="emacron" horiz-adv-x="1130" unicode="ē"/><glyph d="M713 1569q-154 0 -233 93t-79 241h31q39 -172 281 -172q244 0 278 172h31q0 -147 -78.5 -240.5t-230.5 -93.5zM1339 481h23l-57 -481h-1248v23l154 100v1190l-154 98v23h1223v-420h-23l-299 368h-401v-618h162l262 133h23v-317h-23l-262 133h-162v-662h438z" glyph-name="Ebreve" horiz-adv-x="1521" unicode="Ĕ"/><glyph d="M604 1171q-154 0 -232.5 93.5t-78.5 240.5h31q39 -172 280 -172q244 0 279 172h30q0 -147 -78.5 -240.5t-230.5 -93.5zM1040 336l41 -19q-123 -342 -491 -342q-240 0 -389.5 146.5t-149.5 386.5q0 264 150.5 408.5t394.5 144.5q223 0 353 -119t130 -344v-59h-680 q8 -203 91 -310.5t219 -107.5q212 0 331 215zM598 1014q-193 0 -199 -428h361v43q-2 205 -40 295t-122 90z" glyph-name="ebreve" horiz-adv-x="1130" unicode="ĕ"/><glyph d="M897 1757l-186 -184l-183 184l183 182zM1339 481h23l-57 -481h-1248v23l154 100v1190l-154 98v23h1223v-420h-23l-299 368h-401v-618h162l262 133h23v-317h-23l-262 133h-162v-662h438z" glyph-name="Edotaccent" horiz-adv-x="1433" unicode="Ė"/><glyph d="M788 1360l-186 -184l-182 184l182 182zM1040 336l41 -19q-123 -342 -491 -342q-240 0 -389.5 146.5t-149.5 386.5q0 264 150.5 408.5t394.5 144.5q223 0 353 -119t130 -344v-59h-680q8 -203 91 -310.5t219 -107.5q212 0 331 215zM598 1014q-193 0 -199 -428h361v43 q-2 205 -40 295t-122 90z" glyph-name="edotaccent" horiz-adv-x="1130" unicode="ė"/><glyph d="M1307 0q-197 -90 -197 -238q0 -59 29.5 -91.5t77 -32.5t90.5 20v-31q-94 -61 -209 -61q-92 0 -148.5 43t-56.5 117q0 174 305 262v12h-1141v23l154 100v1190l-154 98v23h1223v-420h-23l-299 368h-401v-618h162l262 133h23v-317h-23l-262 133h-162v-662h438l344 430h23 l-57 -481h2z" glyph-name="Eogonek" horiz-adv-x="1433" unicode="Ę"/><glyph d="M901 66q-111 -104 -147.5 -170t-36.5 -138q0 -57 28.5 -88.5t75.5 -31.5t90 20v-31q-94 -61 -209 -61q-92 0 -148 42t-56 116q0 84 62.5 145t191.5 115v12q-70 -20 -162 -21q-240 0 -389.5 146.5t-149.5 386.5q0 264 150.5 408.5t394.5 144.5q223 0 353 -119t130 -344 v-59h-680q8 -203 91 -310.5t219 -107.5q213 0 331 215l41 -19q-61 -167 -180 -251zM598 1014q-193 0 -199 -428h361v43q-2 205 -40 295t-122 90z" glyph-name="eogonek" horiz-adv-x="1130" unicode="ę"/><glyph d="M760 1565h-96l-279 338l12 16l316 -164l313 164l14 -16zM1339 481h23l-57 -481h-1248v23l154 100v1190l-154 98v23h1223v-420h-23l-299 368h-401v-618h162l262 133h23v-317h-23l-262 133h-162v-662h438z" glyph-name="Ecaron" horiz-adv-x="1433" unicode="Ě"/><glyph d="M651 1167h-96l-279 338l13 17l315 -164l314 164l14 -17zM1040 336l41 -19q-123 -342 -491 -342q-240 0 -389.5 146.5t-149.5 386.5q0 264 150.5 408.5t394.5 144.5q223 0 353 -119t130 -344v-59h-680q8 -203 91 -310.5t219 -107.5q212 0 331 215zM598 1014 q-193 0 -199 -428h361v43q-2 205 -40 295t-122 90z" glyph-name="ecaron" horiz-adv-x="1130" unicode="ě"/><glyph d="M530 1565l279 338h96l281 -338l-15 -15l-313 164l-315 -164zM84 702q0 369 215 564.5t547 195.5q221 0 528 -59v-428h-22l-310 411q-94 27 -172 27q-158 0 -283.5 -170t-125.5 -483q0 -360 109.5 -550t285.5 -190q106 0 203 54v467h-277v51h762v-23l-141 -100v-401 q-293 -96 -578 -97q-334 0 -537.5 197.5t-203.5 533.5z" glyph-name="Gcircumflex" horiz-adv-x="1572" unicode="Ĝ"/><glyph d="M578 1317l-316 -164l-12 14l278 338h97l280 -338l-14 -14zM780 213q387 -4 387 -260q0 -166 -184 -266.5t-446 -100.5q-528 0 -529 215q0 66 57.5 114t163.5 69q-170 72 -170 247l240 170q-205 98 -205 304q0 166 130 261t341 95q137 0 244 -41l321 207h19l14 -219v-19 h-293q166 -98 166 -284q0 -166 -129 -262.5t-342 -96.5q-115 0 -215 35l-84 -68q0 -98 174 -98zM565 1016q-78 0 -113.5 -72t-35.5 -239q0 -170 35.5 -241t113.5 -71q80 0 116 71t36 241q0 168 -37 239.5t-115 71.5zM569 -369q152 0 257.5 58.5t105.5 140.5q0 106 -129 111 l-348 4q-82 0 -154 16q-70 -39 -70 -131q0 -94 85 -146.5t253 -52.5z" glyph-name="gcircumflex" horiz-adv-x="1208" unicode="ĝ"/><glyph d="M547 1903h31q39 -172 280 -172q244 0 279 172h30q0 -147 -78.5 -240.5t-230.5 -93.5q-154 0 -232.5 93.5t-78.5 240.5zM84 702q0 369 215 564.5t547 195.5q221 0 528 -59v-428h-22l-310 411q-94 27 -172 27q-158 0 -283.5 -170t-125.5 -483q0 -360 109.5 -550t285.5 -190 q106 0 203 54v467h-277v51h762v-23l-141 -100v-401q-293 -96 -578 -97q-334 0 -537.5 197.5t-203.5 533.5z" glyph-name="Gbreve" horiz-adv-x="1556" unicode="Ğ"/><glyph d="M588 1171q-154 0 -233 93.5t-79 240.5h31q39 -172 281 -172q244 0 278 172h31q0 -147 -78.5 -240.5t-230.5 -93.5zM791 213q387 -4 387 -260q0 -166 -184.5 -266.5t-446.5 -100.5q-528 0 -529 215q0 66 57.5 114t164.5 69q-170 72 -170 247l239 170q-205 98 -205 304 q0 166 130.5 261t340.5 95q137 0 244 -41l322 207h18l15 -219v-19h-293q166 -98 166 -284q0 -166 -129.5 -262.5t-342.5 -96.5q-115 0 -215 35l-84 -68q0 -98 175 -98zM575.5 1016q-77.5 0 -113.5 -72t-36 -239q0 -170 36 -241t113 -71q80 0 116 71t36 241q0 168 -37 239.5 t-114.5 71.5zM580 -369q152 0 257 58.5t105 140.5q0 106 -129 111l-348 4q-82 0 -154 16q-70 -39 -69 -131q0 -94 85 -146.5t253 -52.5z" glyph-name="gbreve" horiz-adv-x="1191" unicode="ğ"/><glyph d="M856 1939l186 -182l-186 -184l-182 184zM84 702q0 369 215 564.5t547 195.5q221 0 528 -59v-428h-22l-310 411q-94 27 -172 27q-158 0 -283.5 -170t-125.5 -483q0 -360 109.5 -550t285.5 -190q106 0 203 54v467h-277v51h762v-23l-141 -100v-401q-293 -96 -578 -97 q-334 0 -537.5 197.5t-203.5 533.5z" glyph-name="Gdotaccent" horiz-adv-x="1556" unicode="Ġ"/><glyph d="M772 1360l-186 -184l-183 184l183 182zM791 213q387 -4 387 -260q0 -166 -184.5 -266.5t-446.5 -100.5q-528 0 -529 215q0 66 57.5 114t164.5 69q-170 72 -170 247l239 170q-205 98 -205 304q0 166 130.5 261t340.5 95q137 0 244 -41l322 207h18l15 -219v-19h-293 q166 -98 166 -284q0 -166 -129.5 -262.5t-342.5 -96.5q-115 0 -215 35l-84 -68q0 -98 175 -98zM575.5 1016q-77.5 0 -113.5 -72t-36 -239q0 -170 36 -241t113 -71q80 0 116 71t36 241q0 168 -37 239.5t-114.5 71.5zM580 -369q152 0 257 58.5t105 140.5q0 106 -129 111 l-348 4q-82 0 -154 16q-70 -39 -69 -131q0 -94 85 -146.5t253 -52.5z" glyph-name="gdotaccent" horiz-adv-x="1191" unicode="ġ"/><glyph d="M84 702q0 369 215 564.5t547 195.5q221 0 528 -59v-428h-22l-310 411q-94 27 -172 27q-158 0 -283.5 -170t-125.5 -483q0 -360 109.5 -550t285.5 -190q106 0 203 54v467h-277v51h762v-23l-141 -100v-401q-293 -96 -578 -97q-334 0 -537.5 197.5t-203.5 533.5zM700 -258 l164 164l84 -80q53 -51 53 -121q0 -72 -69.5 -138.5t-175.5 -113.5l-11 19q66 43 66 112q0 49 -37 84z" glyph-name="Gcommaaccent" horiz-adv-x="1556" unicode="Ģ"/><glyph d="M573 1169l-84 82q-53 53 -53 119q0 72 69.5 138.5t176.5 115.5l12 -18q-68 -47 -67 -113q0 -49 39 -86l71 -74zM791 213q387 -4 387 -260q0 -166 -184.5 -266.5t-446.5 -100.5q-528 0 -529 215q0 66 57.5 114t164.5 69q-170 72 -170 247l239 170q-205 98 -205 304 q0 166 130.5 261t340.5 95q137 0 244 -41l322 207h18l15 -219v-19h-293q166 -98 166 -284q0 -166 -129.5 -262.5t-342.5 -96.5q-115 0 -215 35l-84 -68q0 -98 175 -98zM575.5 1016q-77.5 0 -113.5 -72t-36 -239q0 -170 36 -241t113 -71q80 0 116 71t36 241q0 168 -37 239.5 t-114.5 71.5zM580 -369q152 0 257 58.5t105 140.5q0 106 -129 111l-348 4q-82 0 -154 16q-70 -39 -69 -131q0 -94 85 -146.5t253 -52.5z" glyph-name="gcommaaccent" horiz-adv-x="1191" unicode="ģ"/><glyph d="M897 1714l-315 -164l-13 15l279 338h96l281 -338l-15 -15zM1532 1313v-1190l154 -100v-23h-654v23l154 100v584h-578v-584l154 -100v-23h-653v23l153 100v1190l-153 98v23h653v-23l-154 -98v-555h578v555l-154 98v23h654v-23z" glyph-name="Hcircumflex" horiz-adv-x="1740" unicode="Ĥ"/><glyph d="M610 1550l-313 164l-315 -164l-15 15l281 338h96l281 -338zM1151 102l119 -84v-18h-563v18l116 84v611q0 203 -155 202q-109 0 -189 -90v-723l117 -84v-18h-563v18l119 84v1227l-129 86v19h456v-545q135 172 350 172q156 0 239 -86t83 -246v-627z" glyph-name="hcircumflex" horiz-adv-x="1286" unicode="ĥ"/><glyph d="M1634 1411l-153 -98v-230h143v-51h-143v-909l153 -100v-23h-653v23l154 100v584h-578v-584l154 -100v-23h-654v23l154 100v909h-137v51h137v230l-154 98v23h654v-23l-154 -98v-230h578v230l-154 98v23h653v-23zM1135 758v274h-578v-274h578z" glyph-name="Hbar" horiz-adv-x="1689" unicode="Ħ"/><glyph d="M1149 102l117 -84v-18h-564v18l119 84v611q0 203 -155 202q-111 0 -191 -90v-723l119 -84v-18h-563v18l116 84v1078h-137v47h137v102l-127 86v19h455v-207h242v-47h-242v-293q137 174 352 174q156 0 239 -86t83 -246v-627z" glyph-name="hbar" horiz-adv-x="1284" unicode="ħ"/><glyph d="M199 1700q-45 0 -74 -19.5t-57 -76.5l-29 10q29 123 85 192.5t124 69.5q47 0 162.5 -46t154.5 -46q47 0 74 19.5t57 76.5l29 -10q-29 -123 -85 -192.5t-124 -69.5q-49 0 -163.5 46t-153.5 46zM57 1411v23h654v-23l-154 -98v-1190l154 -100v-23h-654v23l154 100v1190z" glyph-name="Itilde" horiz-adv-x="765" unicode="Ĩ"/><glyph d="M127 1303q-45 0 -73.5 -19.5t-57.5 -77.5l-29 11q29 123 85.5 192.5t123.5 69.5q47 0 163 -46.5t155 -46.5q47 0 73.5 19.5t57.5 77.5l28 -10q-29 -123 -85 -193t-124 -70q-49 0 -163.5 46.5t-153.5 46.5zM485 102l119 -84v-18h-563v18l117 84v830l-127 86v18h454v-934z " glyph-name="itilde" horiz-adv-x="630" unicode="ĩ"/><glyph d="M39 1724h686v-51h-686v51zM57 1411v23h654v-23l-154 -98v-1190l154 -100v-23h-654v23l154 100v1190z" glyph-name="Imacron" horiz-adv-x="765" unicode="Ī"/><glyph d="M-33 1327h686v-51h-686v51zM485 102l119 -84v-18h-563v18l117 84v830l-127 86v18h454v-934z" glyph-name="imacron" horiz-adv-x="630" unicode="ī"/><glyph d="M383 1569q-154 0 -232.5 93t-78.5 241h30q39 -172 281 -172q244 0 279 172h30q0 -147 -78.5 -240.5t-230.5 -93.5zM557 1313v-1190l154 -100v-23h-654v23l154 100v1190l-154 98v23h654v-23z" glyph-name="Ibreve" horiz-adv-x="765" unicode="Ĭ"/><glyph d="M311 1171q-154 0 -232.5 93.5t-78.5 240.5h31q39 -172 280 -172q244 0 279 172h31q0 -147 -79 -240.5t-231 -93.5zM485 102l119 -84v-18h-563v18l117 84v830l-127 86v18h454v-934z" glyph-name="ibreve" horiz-adv-x="630" unicode="ĭ"/><glyph d="M557 1313v-1190l154 -100v-23h-109q-197 -90 -196 -238q0 -59 29.5 -91.5t76.5 -32.5t90 20v-31q-94 -61 -209 -61q-92 0 -148.5 43t-56.5 117q0 174 306 262v12h-437v23l154 100v1190l-154 98v23h654v-23z" glyph-name="Iogonek" horiz-adv-x="765" unicode="Į"/><glyph d="M496 1360l-187 -184l-182 184l182 182zM604 0q-197 -90 -196 -238q0 -59 29.5 -91.5t76.5 -32.5t90 20v-31q-94 -61 -209 -61q-92 0 -148.5 43t-56.5 117q0 174 306 262v12h-455v18l117 84v830l-127 86v18h454v-934l119 -84v-18z" glyph-name="iogonek" horiz-adv-x="630" unicode="į"/><glyph d="M567 1757l-186 -184l-182 184l182 182zM557 1313v-1190l154 -100v-23h-654v23l154 100v1190l-154 98v23h654v-23z" glyph-name="Idotaccent" horiz-adv-x="765" unicode="İ"/><glyph d="M485 102l119 -84v-18h-563v18l117 84v830l-127 86v18h454v-934z" glyph-name="dotlessi" horiz-adv-x="630" unicode="ı"/><glyph d="M852 1714l-315 -164l-13 15l279 338h96l281 -338l-15 -15zM510 1434h688v-23l-154 -98v-899q0 -442 -503 -443q-188 0 -455 66l-23 469h23l307 -465q61 -20 107 -21q199 0 198 297v996l-188 98v23z" glyph-name="Jcircumflex" horiz-adv-x="1222" unicode="Ĵ"/><glyph d="M340 1505l281 -338l-15 -14l-313 164l-316 -164l-14 14l281 338h96zM25 1018v18h454v-956q0 -203 -145.5 -348.5t-304.5 -145.5q-37 0 -74 6v48h22q92 0 133.5 52t41.5 187v1053z" glyph-name="jcircumflex" horiz-adv-x="624" unicode="ĵ"/><glyph d="M1436 131l141 -108v-23h-612v23l92 88l-402 581l-98 -94v-475l154 -100v-23h-654v23l154 100v1190l-154 98v23h654v-23l-154 -98v-643l610 581l-237 160v23h600v-23l-305 -180l-330 -311zM885 -174q53 -51 53 -121q0 -72 -69.5 -138.5t-176.5 -113.5l-10 19q66 43 66 112 q0 49 -37 84l-74 74l164 164z" glyph-name="Kcommaaccent" horiz-adv-x="1562" unicode="Ķ"/><glyph d="M1157 106l129 -88v-18h-432l-305 508l-70 -59v-347l117 -84v-18h-563v18l119 84v1227l-129 86v19h456v-924l404 348l-160 160v18h500v-18l-295 -187l-140 -118zM731 -174q53 -51 53 -121q0 -72 -69.5 -138.5t-175.5 -113.5l-11 19q66 43 66 112q0 49 -37 84l-74 74 l164 164z" glyph-name="kcommaaccent" horiz-adv-x="1259" unicode="ķ"/><glyph d="M1157 106l129 -88v-18h-432l-305 508l-70 -59v-347l117 -84v-18h-563v18l119 84v830l-129 86v18h456v-526l404 348l-160 160v18h500v-18l-295 -187l-140 -118z" glyph-name="kgreenlandic" horiz-adv-x="1259" unicode="ĸ"/><glyph d="M766 1880l-453 -319h-22l112 342h363v-23zM1278 500h22l-63 -500h-1180v23l154 100v1190l-154 98v23h654v-23l-154 -98v-1262h354z" glyph-name="Lacute" horiz-adv-x="1347" unicode="Ĺ"/><glyph d="M324 1903h362v-23l-453 -319h-22zM479 102l117 -84v-18h-563v18l119 84v1227l-129 86v19h456v-1332z" glyph-name="lacute" horiz-adv-x="624" unicode="ĺ"/><glyph d="M1278 500h22l-63 -500h-1180v23l154 100v1190l-154 98v23h654v-23l-154 -98v-1262h354zM803 -174q53 -51 53 -121q0 -72 -69.5 -138.5t-176.5 -113.5l-10 19q66 43 66 112q0 49 -37 84l-74 74l164 164z" glyph-name="Lcommaaccent" horiz-adv-x="1347" unicode="Ļ"/><glyph d="M479 102l117 -84v-18h-563v18l119 84v1227l-129 86v19h456v-1332zM410 -174q53 -51 53 -121q0 -72 -69.5 -138.5t-176.5 -113.5l-10 19q66 43 65 112q0 49 -36 84l-74 74l164 164z" glyph-name="lcommaaccent" horiz-adv-x="624" unicode="ļ"/><glyph d="M903 1139q0 51 -37 86l-73 73l163 164l84 -82q53 -51 54 -118q0 -72 -70 -138.5t-176 -115.5l-10 18q65 47 65 113zM1278 500h22l-63 -500h-1180v23l154 100v1190l-154 98v23h654v-23l-154 -98v-1262h354z" glyph-name="Lcaron" horiz-adv-x="1347" unicode="Ľ"/><glyph d="M825 1380q53 -53 54 -118q0 -72 -70 -138.5t-176 -115.5l-12 18q68 47 67 113q0 49 -39 86l-74 73l164 164zM479 102l117 -84v-18h-563v18l119 84v1227l-129 86v19h456v-1332z" glyph-name="lcaron" horiz-adv-x="819" unicode="ľ"/><glyph d="M1278 500h22l-63 -500h-1180v23l154 100v1190l-154 98v23h654v-23l-154 -98v-1262h354zM1202 803l-186 -185l-182 185l182 182z" glyph-name="Ldot" horiz-adv-x="1347" unicode="Ŀ"/><glyph d="M479 102l117 -84v-18h-563v18l119 84v1227l-129 86v19h456v-1332zM778 897l185 -182l-185 -183l-184 183z" glyph-name="ldot" horiz-adv-x="968" unicode="ŀ"/><glyph d="M1303 500h22l-63 -500h-1180v23l154 100v491l-173 -77v57l173 78v641l-154 98v23h653v-23l-153 -98v-488l286 129v-57l-286 -129v-717h354z" glyph-name="Lslash" horiz-adv-x="1372" unicode="Ł"/><glyph d="M504 866v-764l119 -84v-18h-564v18l117 84v611l-162 -76v53l162 76v563l-127 86v19h455v-514l151 71v-53z" glyph-name="lslash" horiz-adv-x="665" unicode="ł"/><glyph d="M1137 1880l-453 -319h-22l112 342h363v-23zM1012 1434h477v-23l-170 -178v-1233h-254l-803 1292v-1093l252 -176v-23h-477v23l170 180v1108l-170 100v23h524l703 -1121v922l-252 176v23z" glyph-name="Nacute" horiz-adv-x="1511" unicode="Ń"/><glyph d="M1051 1483l-453 -320h-23l113 342h363v-22zM1176 102l116 -84v-18h-563v18l119 84v611q0 203 -158 202q-117 0 -205 -110v-703l119 -84v-18h-563v18l117 84v830l-127 86v18h389l61 -176q139 201 371 201q156 0 240 -86t84 -246v-627z" glyph-name="nacute" horiz-adv-x="1310" unicode="ń"/><glyph d="M1012 1434h477v-23l-170 -178v-1233h-254l-803 1292v-1093l252 -176v-23h-477v23l170 180v1108l-170 100v23h524l703 -1121v922l-252 176v23zM860 -174q53 -51 53 -121q0 -72 -69.5 -138.5t-175.5 -113.5l-11 19q66 43 66 112q0 49 -37 84l-74 74l164 164z" glyph-name="Ncommaaccent" horiz-adv-x="1511" unicode="Ņ"/><glyph d="M1176 102l116 -84v-18h-563v18l119 84v611q0 203 -158 202q-117 0 -205 -110v-703l119 -84v-18h-563v18l117 84v830l-127 86v18h389l61 -176q139 201 371 201q156 0 240 -86t84 -246v-627zM768 -174q53 -51 53 -121q0 -72 -69.5 -138.5t-176.5 -113.5l-10 19 q66 43 66 112q0 49 -37 84l-74 74l164 164z" glyph-name="ncommaaccent" horiz-adv-x="1310" unicode="ņ"/><glyph d="M811 1565h-96l-279 338l13 16l315 -164l313 164l15 -16zM1012 1434h477v-23l-170 -178v-1233h-254l-803 1292v-1093l252 -176v-23h-477v23l170 180v1108l-170 100v23h524l703 -1121v922l-252 176v23z" glyph-name="Ncaron" horiz-adv-x="1511" unicode="Ň"/><glyph d="M725 1167h-96l-279 338l12 17l316 -164l313 164l15 -17zM1176 102l116 -84v-18h-563v18l119 84v611q0 203 -158 202q-117 0 -205 -110v-703l119 -84v-18h-563v18l117 84v830l-127 86v18h389l61 -176q139 201 371 201q156 0 240 -86t84 -246v-627z" glyph-name="ncaron" horiz-adv-x="1310" unicode="ň"/><glyph d="M1012 1434h477v-23l-170 -178v-1233q0 -176 -121 -295t-256 -119q-37 0 -74 6v48h23q92 0 133 53t41 190v117l-803 1292v-1093l252 -176v-23h-477v23l170 180v1108l-170 100v23h524l703 -1121v922l-252 176v23z" glyph-name="Eng" horiz-adv-x="1511" unicode="Ŋ"/><glyph d="M829 1059q156 0 238 -85t82 -245v-649q0 -203 -145.5 -348.5t-305.5 -145.5q-37 0 -73 6v48h22q92 0 133 52t41 187v856q0 197 -162 197q-102 0 -184 -94v-721l119 -101v-16h-563v16l116 101v803l-116 100v16h393l49 -149q141 172 356 172z" glyph-name="eng" horiz-adv-x="1284" unicode="ŋ"/><glyph d="M485 1724h686v-51h-686v51zM827.5 -29q-348.5 0 -546 199t-197.5 547t197.5 546.5t546 198.5t546 -198.5t197.5 -546.5t-197.5 -547t-546 -199zM827 20q362 0 362.5 696.5t-362.5 696.5q-360 0 -360 -696.5t360 -696.5z" glyph-name="Omacron" horiz-adv-x="1654" unicode="Ō"/><glyph d="M264 1327h686v-51h-686v51zM608 -25q-254 0 -406.5 144.5t-152.5 398.5t152.5 398.5t406.5 144.5t405.5 -144.5t151.5 -398.5t-151.5 -398.5t-405.5 -144.5zM608.5 23q96.5 0 147.5 108.5t51 387t-51 387t-147.5 108.5t-148.5 -108.5t-52 -387t52 -387t148.5 -108.5z" glyph-name="omacron" horiz-adv-x="1214" unicode="ō"/><glyph d="M518 1903h31q39 -172 280 -172q244 0 279 172h31q0 -147 -79 -240.5t-231 -93.5q-154 0 -232.5 93.5t-78.5 240.5zM827.5 -29q-348.5 0 -546 199t-197.5 547t197.5 546.5t546 198.5t546 -198.5t197.5 -546.5t-197.5 -547t-546 -199zM827 20q362 0 362.5 696.5 t-362.5 696.5q-360 0 -360 -696.5t360 -696.5z" glyph-name="Obreve" horiz-adv-x="1654" unicode="Ŏ"/><glyph d="M297 1505h31q39 -172 280 -172q244 0 279 172h31q0 -147 -79 -240.5t-231 -93.5q-154 0 -232.5 93.5t-78.5 240.5zM608 -25q-254 0 -406.5 144.5t-152.5 398.5t152.5 398.5t406.5 144.5t405.5 -144.5t151.5 -398.5t-151.5 -398.5t-405.5 -144.5zM608.5 23 q96.5 0 147.5 108.5t51 387t-51 387t-147.5 108.5t-148.5 -108.5t-52 -387t52 -387t148.5 -108.5z" glyph-name="obreve" horiz-adv-x="1214" unicode="ŏ"/><glyph d="M696 1903h297v-23l-391 -319h-22zM1071 1903h295v-23l-391 -319h-23zM827.5 -29q-348.5 0 -546 199t-197.5 547t197.5 546.5t546 198.5t546 -198.5t197.5 -546.5t-197.5 -547t-546 -199zM827 20q362 0 362.5 696.5t-362.5 696.5q-360 0 -360 -696.5t360 -696.5z" glyph-name="Ohungarumlaut" horiz-adv-x="1654" unicode="Ő"/><glyph d="M475 1505h297v-22l-391 -320h-23zM850 1505h295v-22l-391 -320h-23zM608 -25q-254 0 -406.5 144.5t-152.5 398.5t152.5 398.5t406.5 144.5t405.5 -144.5t151.5 -398.5t-151.5 -398.5t-405.5 -144.5zM608.5 23q96.5 0 147.5 108.5t51 387t-51 387t-147.5 108.5 t-148.5 -108.5t-52 -387t52 -387t148.5 -108.5z" glyph-name="ohungarumlaut" horiz-adv-x="1214" unicode="ő"/><glyph d="M2159 481h22l-57 -481h-1331q-328 0 -518.5 196.5t-190.5 540.5q0 328 204 512.5t533 184.5h1278v-420h-22l-299 368h-381v-618h141l262 133h23v-317h-23l-262 133h-141v-662h418zM874 51h177v1331h-150q-442 0 -442 -677q-1 -654 415 -654z" glyph-name="OE" horiz-adv-x="2252" unicode="Œ"/><glyph d="M1790 336l41 -19q-127 -342 -494 -342q-221 0 -366 127q-143 -127 -369 -127q-246 0 -399.5 147.5t-153.5 395.5q0 250 153.5 396.5t399.5 146.5q223 0 369 -127q145 127 375 127q221 0 352 -119t131 -344v-59h-680q8 -203 91 -310.5t218 -107.5q213 0 332 215zM602 23 q94 0 145.5 110.5t51.5 384.5q0 276 -51.5 386t-145.5 110q-61 0 -101 -40t-66.5 -153.5t-26.5 -302t26.5 -301.5t66.5 -153.5t101 -40.5zM1348 1014q-90 0 -143.5 -104.5t-55.5 -323.5h360v43q0 203 -38.5 294t-122.5 91z" glyph-name="oe" horiz-adv-x="1880" unicode="œ"/><glyph d="M1116 1880l-452 -319h-23l113 342h362v-23zM1436 129l92 -104v-25h-402l-354 655h-215v-532l154 -100v-23h-654v23l154 100v1190l-154 98v23h795q528 0 528 -371q0 -186 -141 -285.5t-356 -103.5v-19q145 -72 317 -108zM750 707q135 0 206.5 89t71.5 255q0 162 -77 246.5 t-208 84.5h-186v-675h193z" glyph-name="Racute" horiz-adv-x="1552" unicode="Ŕ"/><glyph d="M809 1483l-453 -320h-22l112 342h363v-22zM737 1055q78 0 146 -19l-13 -354h-18l-221 250q-88 -41 -146 -148v-682l174 -84v-18h-618v18l117 84v830l-127 86v18h389l63 -178q102 197 254 197z" glyph-name="racute" horiz-adv-x="927" unicode="ŕ"/><glyph d="M1436 129l92 -104v-25h-402l-354 655h-215v-532l154 -100v-23h-654v23l154 100v1190l-154 98v23h795q528 0 528 -371q0 -186 -141 -285.5t-356 -103.5v-19q145 -72 317 -108zM750 707q135 0 206.5 89t71.5 255q0 162 -77 246.5t-208 84.5h-186v-675h193zM909 -174 q53 -51 54 -121q0 -72 -70 -138.5t-176 -113.5l-10 19q66 43 65 112q0 49 -37 84l-73 74l163 164z" glyph-name="Rcommaaccent" horiz-adv-x="1552" unicode="Ŗ"/><glyph d="M737 1055q78 0 146 -19l-13 -354h-18l-221 250q-88 -41 -146 -148v-682l174 -84v-18h-618v18l117 84v830l-127 86v18h389l63 -178q102 197 254 197zM442 -174q53 -51 54 -121q0 -72 -70 -138.5t-176 -113.5l-10 19q66 43 65 112q0 49 -37 84l-73 74l163 164z" glyph-name="rcommaaccent" horiz-adv-x="927" unicode="ŗ"/><glyph d="M788 1565h-96l-278 338l12 16l315 -164l314 164l14 -16zM1436 129l92 -104v-25h-402l-354 655h-215v-532l154 -100v-23h-654v23l154 100v1190l-154 98v23h795q528 0 528 -371q0 -186 -141 -285.5t-356 -103.5v-19q145 -72 317 -108zM750 707q135 0 206.5 89t71.5 255 q0 162 -77 246.5t-208 84.5h-186v-675h193z" glyph-name="Rcaron" horiz-adv-x="1552" unicode="Ř"/><glyph d="M481 1167h-96l-279 338l13 17l315 -164l314 164l14 -17zM737 1055q78 0 146 -19l-13 -354h-18l-221 250q-88 -41 -146 -148v-682l174 -84v-18h-618v18l117 84v830l-127 86v18h389l63 -178q102 197 254 197z" glyph-name="rcaron" horiz-adv-x="927" unicode="ř"/><glyph d="M655 1903h363v-23l-453 -319h-22zM115 37v469h22l314 -461q86 -25 165 -25q143 0 230.5 77t87.5 194q0 96 -51.5 156.5t-163.5 99.5l-285 98q-338 121 -338 414q0 193 148.5 298t373.5 105q61 0 113.5 -3t114 -11t87 -12t100.5 -18.5t87 -16.5v-410h-22l-322 400 q-70 23 -153 22q-111 0 -184.5 -62.5t-73.5 -156.5q0 -84 43 -139.5t145 -89.5l301 -101q367 -123 367 -415q0 -225 -173.5 -351.5t-424.5 -126.5q-180 0 -508 66z" glyph-name="Sacute" horiz-adv-x="1290" unicode="Ś"/><glyph d="M514 1505h363v-22l-453 -320h-23zM856 676l-270 328q-55 12 -107 12q-66 0 -113 -39t-47 -105q0 -104 127 -145l213 -72q145 -47 219 -121.5t74 -197.5q0 -166 -134 -263.5t-316 -97.5q-162 0 -416 58l6 381h19l274 -377q57 -16 113 -17q84 0 135 47.5t51 125.5 q0 123 -133 167l-213 76q-264 94 -264 320q0 143 115.5 224t289.5 81q176 0 408 -47l-13 -338h-18z" glyph-name="sacute" horiz-adv-x="1003" unicode="ś"/><glyph d="M317 1565l279 338h96l281 -338l-15 -15l-313 164l-315 -164zM115 37v469h22l314 -461q86 -25 165 -25q143 0 230.5 77t87.5 194q0 96 -51.5 156.5t-163.5 99.5l-285 98q-338 121 -338 414q0 193 148.5 298t373.5 105q61 0 113.5 -3t114 -11t87 -12t100.5 -18.5t87 -16.5 v-410h-22l-322 400q-70 23 -153 22q-111 0 -184.5 -62.5t-73.5 -156.5q0 -84 43 -139.5t145 -89.5l301 -101q367 -123 367 -415q0 -225 -173.5 -351.5t-424.5 -126.5q-180 0 -508 66z" glyph-name="Scircumflex" horiz-adv-x="1290" unicode="Ŝ"/><glyph d="M174 1167l279 338h96l280 -338l-14 -14l-313 164l-316 -164zM856 676l-270 328q-55 12 -107 12q-66 0 -113 -39t-47 -105q0 -104 127 -145l213 -72q145 -47 219 -121.5t74 -197.5q0 -166 -134 -263.5t-316 -97.5q-162 0 -416 58l6 381h19l274 -377q57 -16 113 -17 q84 0 135 47.5t51 125.5q0 123 -133 167l-213 76q-264 94 -264 320q0 143 115.5 224t289.5 81q176 0 408 -47l-13 -338h-18z" glyph-name="scircumflex" horiz-adv-x="1003" unicode="ŝ"/><glyph d="M1221 449q0 -221 -168 -347.5t-414 -130.5l-49 -71q279 -2 278 -166q0 -78 -70.5 -123t-176.5 -45q-78 0 -162 37v69h10l82 -63q6 -2 18 -2q41 0 68 31.5t27 93.5q0 121 -142 125l-14 14l72 100q-150 4 -465 66v469h22l314 -461q86 -25 165 -25q143 0 230.5 77t87.5 194 q0 96 -51.5 156.5t-163.5 99.5l-285 98q-338 121 -338 414q0 193 148.5 298t373.5 105q61 0 113.5 -3t114 -11t87 -12t100.5 -18.5t87 -16.5v-410h-22l-322 400q-70 23 -153 22q-111 0 -184.5 -62.5t-73.5 -156.5q0 -84 43 -139.5t145 -89.5l301 -101q367 -122 367 -415z " glyph-name="Scedilla" horiz-adv-x="1290" unicode="Ş"/><glyph d="M502 -25h-2l-54 -75q279 -2 279 -166q0 -78 -70.5 -123t-177.5 -45q-78 0 -162 37v69h11l82 -63q6 -2 18 -2q41 0 67.5 31.5t26.5 93.5q0 121 -141 125l-14 14l75 106q-121 4 -354 56l6 381h19l274 -377q57 -16 113 -17q84 0 135 47.5t51 125.5q0 123 -133 167l-213 76 q-264 94 -264 320q0 143 115.5 224t289.5 81q176 0 408 -47l-13 -338h-18l-270 328q-55 12 -107 12q-66 0 -113 -39t-47 -105q0 -104 127 -145l213 -72q145 -47 219 -121.5t74 -197.5q0 -166 -134 -263.5t-316 -97.5z" glyph-name="scedilla" horiz-adv-x="1003" unicode="ş"/><glyph d="M317 1903l13 16l315 -164l313 164l15 -16l-281 -338h-96zM115 37v469h22l314 -461q86 -25 165 -25q143 0 230.5 77t87.5 194q0 96 -51.5 156.5t-163.5 99.5l-285 98q-338 121 -338 414q0 193 148.5 298t373.5 105q61 0 113.5 -3t114 -11t87 -12t100.5 -18.5t87 -16.5 v-410h-22l-322 400q-70 23 -153 22q-111 0 -184.5 -62.5t-73.5 -156.5q0 -84 43 -139.5t145 -89.5l301 -101q367 -123 367 -415q0 -225 -173.5 -351.5t-424.5 -126.5q-180 0 -508 66z" glyph-name="Scaron" horiz-adv-x="1290" unicode="Š"/><glyph d="M174 1505l12 17l316 -164l313 164l14 -17l-280 -338h-96zM856 676l-270 328q-55 12 -107 12q-66 0 -113 -39t-47 -105q0 -104 127 -145l213 -72q145 -47 219 -121.5t74 -197.5q0 -166 -134 -263.5t-316 -97.5q-162 0 -416 58l6 381h19l274 -377q57 -16 113 -17 q84 0 135 47.5t51 125.5q0 123 -133 167l-213 76q-264 94 -264 320q0 143 115.5 224t289.5 81q176 0 408 -47l-13 -338h-18z" glyph-name="scaron" horiz-adv-x="1003" unicode="š"/><glyph d="M1370 1434l21 -447h-23l-272 395h-199v-772l2 -487l174 -100v-23h-332l-69 -100q279 -2 278 -166q0 -78 -70.5 -123t-177.5 -45q-78 0 -161 37v69h10l82 -63q6 -2 18 -2q41 0 67.5 31.5t26.5 93.5q0 121 -141 125l-14 14l92 129h-305v23l174 100v1259h-199l-272 -395h-23 l21 447h1292z" glyph-name="Tcommaaccent" horiz-adv-x="1447" unicode="Ţ"/><glyph d="M748 989h-279v-723q0 -158 104 -157q80 0 134 98l41 -21q-49 -104 -125 -157.5t-197 -53.5q-35 0 -49 2l-55 -77q279 -2 278 -166q0 -78 -70.5 -123t-177.5 -45q-78 0 -162 37v69h11l82 -63q6 -2 18 -2q41 0 67.5 31.5t26.5 93.5q0 121 -141 125l-14 14l84 117 q-182 47 -183 248v753h-143v43l125 39l330 262h16v-297h279v-47z" glyph-name="tcommaaccent" horiz-adv-x="737" unicode="ţ"/><glyph d="M772 1565h-96l-279 338l13 16l315 -164l313 164l15 -16zM1370 1434l21 -447h-23l-272 395h-199v-772l2 -487l174 -100v-23h-696v23l174 100v1259h-199l-272 -395h-23l21 447h1292z" glyph-name="Tcaron" horiz-adv-x="1447" unicode="Ť"/><glyph d="M799 1479q53 -51 53 -121q0 -72 -69.5 -138.5t-176.5 -113.5l-12 18q68 45 68 113q0 49 -37 84l-74 74l164 164zM469 1333v-297h279v-47h-279v-723q0 -158 104 -157q80 0 134 98l41 -21q-49 -104 -125 -157.5t-197 -53.5q-141 0 -213 71t-72 190v753h-143v43l125 39 l330 262h16z" glyph-name="tcaron" horiz-adv-x="778" unicode="ť"/><glyph d="M1096 1382h-199v-618h262v-51h-262v-103l2 -487l174 -100v-23h-696v23l174 100v590h-262v51h262v618h-199l-272 -395h-23l21 447h1292l21 -447h-23z" glyph-name="Tbar" horiz-adv-x="1447" unicode="Ŧ"/><glyph d="M758 989h-279v-248h266v-47h-266v-428q0 -158 105 -157q80 0 133 98l41 -21q-49 -104 -125 -157.5t-197 -53.5q-141 0 -212.5 71t-71.5 190v458h-144v47h144v248h-144v43l125 39l330 262h16v-297h279v-47z" glyph-name="tbar" horiz-adv-x="763" unicode="ŧ"/><glyph d="M672 1700q-45 0 -74 -19.5t-57 -76.5l-29 10q29 123 85 192.5t124 69.5q47 0 162.5 -46t154.5 -46q47 0 74 19.5t57 76.5l29 -10q-29 -123 -85 -192.5t-124 -69.5q-49 0 -163.5 46t-153.5 46zM1049 1434h477v-23l-170 -180v-725q0 -250 -147.5 -392.5t-428.5 -142.5 q-279 0 -431 142.5t-152 390.5v809l-154 98v23h653v-23l-153 -98v-813q0 -186 102.5 -301t276.5 -115q176 0 277 115.5t101 302.5v733l-251 176v23z" glyph-name="Utilde" horiz-adv-x="1544" unicode="Ũ"/><glyph d="M440 1303q-45 0 -73.5 -19.5t-57.5 -77.5l-28 11q29 123 85 192.5t123 69.5q47 0 163 -46.5t155 -46.5q47 0 73.5 19.5t57.5 77.5l29 -10q-29 -123 -85.5 -193t-123.5 -70q-49 0 -164 46.5t-154 46.5zM1124 106l117 -88v-18h-379l-59 170q-129 -195 -332 -195 q-162 0 -249 87.5t-87 246.5v623l-127 86v18h455v-708q0 -205 153 -205q109 0 181 102v707l-129 86v18h456v-930z" glyph-name="utilde" horiz-adv-x="1269" unicode="ũ"/><glyph d="M1198 1724v-51h-686v51h686zM1049 1434h477v-23l-170 -180v-725q0 -250 -147.5 -392.5t-428.5 -142.5q-279 0 -431 142.5t-152 390.5v809l-154 98v23h653v-23l-153 -98v-813q0 -186 102.5 -301t276.5 -115q176 0 277 115.5t101 302.5v733l-251 176v23z" glyph-name="Umacron" horiz-adv-x="1544" unicode="Ū"/><glyph d="M967 1327v-51h-686v51h686zM1124 106l117 -88v-18h-379l-59 170q-129 -195 -332 -195q-162 0 -249 87.5t-87 246.5v623l-127 86v18h455v-708q0 -205 153 -205q109 0 181 102v707l-129 86v18h456v-930z" glyph-name="umacron" horiz-adv-x="1269" unicode="ū"/><glyph d="M856 1569q-154 0 -232.5 93t-78.5 241h30q39 -172 281 -172q244 0 279 172h30q0 -147 -78.5 -240.5t-230.5 -93.5zM1049 1434h477v-23l-170 -180v-725q0 -250 -147.5 -392.5t-428.5 -142.5q-279 0 -431 142.5t-152 390.5v809l-154 98v23h653v-23l-153 -98v-813 q0 -186 102.5 -301t276.5 -115q176 0 277 115.5t101 302.5v733l-251 176v23z" glyph-name="Ubreve" horiz-adv-x="1544" unicode="Ŭ"/><glyph d="M625 1171q-154 0 -233 93.5t-79 240.5h31q39 -172 281 -172q244 0 278 172h31q0 -147 -78.5 -240.5t-230.5 -93.5zM1124 106l117 -88v-18h-379l-59 170q-129 -195 -332 -195q-162 0 -249 87.5t-87 246.5v623l-127 86v18h455v-708q0 -205 153 -205q109 0 181 102v707 l-129 86v18h456v-930z" glyph-name="ubreve" horiz-adv-x="1269" unicode="ŭ"/><glyph d="M856.5 1559q-104.5 0 -173.5 57t-69 147t69 147.5t173.5 57.5t172 -57.5t67.5 -147.5t-67.5 -147t-172 -57zM856 1937q-92 0 -92 -174t92 -174q90 0 90 174t-90 174zM1049 1434h477v-23l-170 -180v-725q0 -250 -147.5 -392.5t-428.5 -142.5q-279 0 -431 142.5t-152 390.5 v809l-154 98v23h653v-23l-153 -98v-813q0 -186 102.5 -301t276.5 -115q176 0 277 115.5t101 302.5v733l-251 176v23z" glyph-name="Uring" horiz-adv-x="1544" unicode="Ů"/><glyph d="M624.5 1161q-104.5 0 -173 57.5t-68.5 147.5t68.5 147.5t173 57.5t172 -57.5t67.5 -147.5t-67.5 -147.5t-172 -57.5zM625 1540q-92 0 -92.5 -174t92.5 -174q90 0 90 174t-90 174zM1124 106l117 -88v-18h-379l-59 170q-129 -195 -332 -195q-162 0 -249 87.5t-87 246.5v623 l-127 86v18h455v-708q0 -205 153 -205q109 0 181 102v707l-129 86v18h456v-930z" glyph-name="uring" horiz-adv-x="1269" unicode="ů"/><glyph d="M1020 1880l-391 -319h-23l117 342h297v-23zM1001 1561h-22l119 342h295v-23zM1049 1434h477v-23l-170 -180v-725q0 -250 -147.5 -392.5t-428.5 -142.5q-279 0 -431 142.5t-152 390.5v809l-154 98v23h653v-23l-153 -98v-813q0 -186 102.5 -301t276.5 -115q176 0 277 115.5 t101 302.5v733l-251 176v23z" glyph-name="Uhungarumlaut" horiz-adv-x="1544" unicode="Ű"/><glyph d="M788 1483l-391 -320h-22l117 342h296v-22zM770 1163h-22l118 342h295v-22zM1124 106l117 -88v-18h-379l-59 170q-129 -195 -332 -195q-162 0 -249 87.5t-87 246.5v623l-127 86v18h455v-708q0 -205 153 -205q109 0 181 102v707l-129 86v18h456v-930z" glyph-name="uhungarumlaut" horiz-adv-x="1269" unicode="ű"/><glyph d="M1049 1434h477v-23l-170 -180v-725q0 -195 -89 -326t-263 -180q-197 -90 -197 -238q0 -59 29.5 -91.5t77 -32.5t90.5 20v-31q-94 -61 -209 -61q-92 0 -148.5 43t-56.5 117q0 162 260 247q-23 -2 -70 -2q-279 0 -431 142.5t-152 390.5v809l-154 98v23h653v-23l-153 -98 v-813q0 -186 102.5 -301t276.5 -115q176 0 277 115.5t101 302.5v733l-251 176v23z" glyph-name="Uogonek" horiz-adv-x="1544" unicode="Ų"/><glyph d="M1047 -238q0 -59 29.5 -91.5t76.5 -32.5t90 20v-31q-94 -61 -209 -61q-92 0 -148.5 43t-56.5 117q0 174 306 262v12h-273l-59 170q-129 -195 -332 -195q-162 0 -249 87.5t-87 246.5v623l-127 86v18h455v-708q0 -205 153 -205q109 0 181 102v707l-129 86v18h456v-930 l117 -88v-18h2q-196 -91 -196 -238z" glyph-name="uogonek" horiz-adv-x="1269" unicode="ų"/><glyph d="M1153 1714l-315 -164l-13 15l279 338h96l281 -338l-15 -15zM1712 1434h486v-23l-181 -178l-434 -1233h-170l-319 881l-316 -881h-170l-485 1307l-141 104v23h649v-23l-154 -98l361 -994l227 642l-139 385l-90 65v23h591v-23l-139 -88l354 -995l322 913l-252 170v23z" glyph-name="Wcircumflex" horiz-adv-x="2179" unicode="Ŵ"/><glyph d="M913 1317l-315 -164l-12 14l278 338h97l280 -338l-14 -14zM1364 1036h410v-18l-142 -170l-334 -848h-159l-262 608l-248 -608h-162l-404 928l-94 90v18h559v-18l-118 -86l276 -658l162 400l-125 289l-57 55v18h518v-18l-107 -76l279 -661l225 575l-217 162v18z" glyph-name="wcircumflex" horiz-adv-x="1734" unicode="ŵ"/><glyph d="M780 1714l-315 -164l-12 15l278 338h96l281 -338l-14 -15zM967 1434h487v-23l-180 -182l-371 -645l2 -461l174 -100v-23h-696v23l174 100v420l-434 764l-141 104v23h675v-23l-153 -98l370 -676l347 604l-254 170v23z" glyph-name="Ycircumflex" horiz-adv-x="1435" unicode="Ŷ"/><glyph d="M625 1317l-316 -164l-12 14l278 338h97l280 -338l-14 -14zM745 1036h408v-18l-141 -170l-389 -957q-76 -180 -149 -242.5t-173 -62.5q-37 0 -108 23v203h342l22 57l-494 1059l-94 90v18h561v-18l-116 -86l303 -674l246 598l-218 162v18z" glyph-name="ycircumflex" horiz-adv-x="1114" unicode="ŷ"/><glyph d="M741 1741l-172 -172l-174 172l174 170zM1163 1741l-174 -172l-170 172l170 170zM967 1434h487v-23l-180 -182l-371 -645l2 -461l174 -100v-23h-696v23l174 100v420l-434 764l-141 104v23h675v-23l-153 -98l370 -676l347 604l-254 170v23z" glyph-name="Ydieresis" horiz-adv-x="1435" unicode="Ÿ"/><glyph d="M1085 1880l-452 -319h-23l113 342h362v-23zM1296 504h23l-64 -504h-1181v51l819 1331h-422l-295 -407h-22v459h1126v-52l-819 -1331h481z" glyph-name="Zacute" horiz-adv-x="1384" unicode="Ź"/><glyph d="M549 1505h362v-22l-452 -320h-23zM49 0v47l576 942h-258l-254 -336h-19v383h891v-47l-573 -942h280l266 367h19l-2 -414h-926z" glyph-name="zacute" horiz-adv-x="1046" unicode="ź"/><glyph d="M897 1757l-186 -184l-183 184l183 182zM1296 504h23l-64 -504h-1181v51l819 1331h-422l-295 -407h-22v459h1126v-52l-819 -1331h481z" glyph-name="Zdotaccent" horiz-adv-x="1384" unicode="Ż"/><glyph d="M535 1542l186 -182l-186 -184l-183 184zM49 0v47l576 942h-258l-254 -336h-19v383h891v-47l-573 -942h280l266 367h19l-2 -414h-926z" glyph-name="zdotaccent" horiz-adv-x="1046" unicode="ż"/><glyph d="M760 1565h-96l-279 338l12 16l316 -164l313 164l14 -16zM1296 504h23l-64 -504h-1181v51l819 1331h-422l-295 -407h-22v459h1126v-52l-819 -1331h481z" glyph-name="Zcaron" horiz-adv-x="1384" unicode="Ž"/><glyph d="M209 1505l12 17l316 -164l313 164l14 -17l-280 -338h-97zM49 0v47l576 942h-258l-254 -336h-19v383h891v-47l-573 -942h280l266 367h19l-2 -414h-926z" glyph-name="zcaron" horiz-adv-x="1046" unicode="ž"/><glyph d="M874 1460q141 0 308 -37l-39 -344h-19l-196 328q-18 6 -43 6q-37 0 -62.5 -37t-34.5 -106l-59 -467h293v-47h-299l-86 -686q-31 -240 -149.5 -361t-297.5 -121q-150 0 -305 35l37 344h19l196 -325q25 -6 43 -7q82 0 96 152l123 969h-204v47h211l28 231q53 426 440 426z " glyph-name="florin" horiz-adv-x="1206" unicode="ƒ"/><glyph d="M115 37v469h22l314 -461q86 -25 165 -25q143 0 230.5 77t87.5 194q0 96 -51.5 156.5t-163.5 99.5l-285 98q-338 121 -338 414q0 193 148.5 298t373.5 105q61 0 113.5 -3t114 -11t87 -12t100.5 -18.5t87 -16.5v-410h-22l-322 400q-70 23 -153 22q-111 0 -184.5 -62.5 t-73.5 -156.5q0 -84 43 -139.5t145 -89.5l301 -101q367 -123 367 -415q0 -225 -173.5 -351.5t-424.5 -126.5q-180 0 -508 66zM500 -258l164 164l84 -80q53 -51 53 -121q0 -72 -69.5 -138.5t-176.5 -113.5l-10 19q66 43 65 112q0 49 -37 84z" glyph-name="Scommaaccent" horiz-adv-x="1290" unicode="Ș"/><glyph d="M856 676l-270 328q-55 12 -107 12q-66 0 -113 -39t-47 -105q0 -104 127 -145l213 -72q145 -47 219 -121.5t74 -197.5q0 -166 -134 -263.5t-316 -97.5q-162 0 -416 58l6 381h19l274 -377q57 -16 113 -17q84 0 135 47.5t51 125.5q0 123 -133 167l-213 76q-264 94 -264 320 q0 143 115.5 224t289.5 81q176 0 408 -47l-13 -338h-18zM367 -258l163 164l84 -80q53 -51 54 -121q0 -72 -70 -138.5t-176 -113.5l-10 19q66 43 65 112q0 49 -37 84z" glyph-name="scommaaccent" horiz-adv-x="1003" unicode="ș"/><glyph d="M1370 1434l21 -447h-23l-272 395h-199v-772l2 -487l174 -100v-23h-696v23l174 100v1259h-199l-272 -395h-23l21 447h1292zM827 -174q53 -51 54 -121q0 -72 -70 -138.5t-176 -113.5l-10 19q66 43 65 112q0 49 -37 84l-73 74l163 164z" glyph-name="uni021A" horiz-adv-x="1447" unicode="Ț"/><glyph d="M748 989h-279v-723q0 -158 104 -157q80 0 134 98l41 -21q-49 -104 -125 -157.5t-197 -53.5q-141 0 -213 71t-72 190v753h-143v43l125 39l330 262h16v-297h279v-47zM475 -174q53 -51 53 -121q0 -72 -69.5 -138.5t-175.5 -113.5l-11 19q66 43 66 112q0 49 -37 84l-74 74 l164 164z" glyph-name="uni021B" horiz-adv-x="737" unicode="ț"/><glyph d="M25 1036h454v-956q0 -203 -145.5 -348.5t-304.5 -145.5q-37 0 -74 6v48h22q92 0 133.5 52t41.5 187v1053l-127 86v18z" glyph-name="uni0237" horiz-adv-x="624" unicode="ȷ"/><glyph d="M129 1167l279 338h96l280 -338l-14 -14l-313 164l-316 -164z" glyph-name="circumflex" horiz-adv-x="911" unicode="ˆ"/><glyph d="M129 1505l12 17l316 -164l313 164l14 -17l-280 -338h-96z" glyph-name="caron" horiz-adv-x="911" unicode="ˇ"/><glyph d="M145 1505h31q39 -172 281 -172q244 0 278 172h31q0 -147 -79 -240.5t-230 -93.5q-154 0 -233 93.5t-79 240.5z" glyph-name="breve" horiz-adv-x="911" unicode="˘"/><glyph d="M455 1542l186 -182l-186 -184l-183 184z" glyph-name="dotaccent" horiz-adv-x="911" unicode="˙"/><glyph d="M456.5 1161q-104.5 0 -173 57.5t-68.5 147.5t68.5 147.5t173 57.5t172 -57.5t67.5 -147.5t-67.5 -147.5t-172 -57.5zM457 1192q90 0 90 174t-90 174q-92 0 -92 -174t92 -174z" glyph-name="ring" horiz-adv-x="911" unicode="˚"/><glyph d="M455 -434q-92 0 -148.5 43t-56.5 117q0 174 305 262v12h109q-197 -90 -197 -238q0 -59 29.5 -91.5t77 -32.5t90.5 20v-31q-94 -61 -209 -61z" glyph-name="ogonek" horiz-adv-x="911" unicode="˛"/><glyph d="M141 1206l-28 11q29 123 85 192.5t124 69.5q47 0 162.5 -46.5t154.5 -46.5q47 0 73.5 19.5t57.5 77.5l29 -10q-29 -123 -85.5 -193t-123.5 -70q-49 0 -164 46.5t-154 46.5q-45 0 -73.5 -20t-57.5 -77z" glyph-name="tilde" horiz-adv-x="911" unicode="˜"/><glyph d="M180 1505h297v-22l-391 -320h-23zM555 1505h295v-22l-391 -320h-23z" glyph-name="hungarumlaut" horiz-adv-x="911" unicode="˝"/><glyph d="M-393 1505l112 -342h-22l-453 320v22h363z" glyph-name="gravecomb" horiz-adv-x="0" unicode="̀"/><glyph d="M-641 1505h362v-22l-452 -320h-23z" glyph-name="acutecomb" horiz-adv-x="0" unicode="́"/><glyph d="M-844 1167l279 338h96l281 -338l-15 -14l-313 164l-315 -164z" glyph-name="uni0302" horiz-adv-x="0" unicode="̂"/><glyph d="M-831 1206l-29 11q29 123 85 192.5t124 69.5q47 0 162.5 -46.5t154.5 -46.5q47 0 74 19.5t57 77.5l29 -10q-29 -123 -85 -193t-124 -70q-49 0 -164 46.5t-153 46.5q-45 0 -73.5 -20t-57.5 -77z" glyph-name="tildecomb" horiz-adv-x="0" unicode="̃"/><glyph d="M-799 1327h686v-51h-686v51z" glyph-name="uni0304" horiz-adv-x="0" unicode="̄"/><glyph d="M-827 1505h30q39 -172 281 -172q244 0 278 172h31q0 -147 -79 -240.5t-230 -93.5q-154 0 -232.5 93.5t-78.5 240.5z" glyph-name="uni0306" horiz-adv-x="0" unicode="̆"/><glyph d="M-518 1542l186 -182l-186 -184l-182 184z" glyph-name="uni0307" horiz-adv-x="0" unicode="̇"/><glyph d="M-727 1513l172 -170l-172 -172l-174 172zM-307 1513l174 -170l-174 -172l-170 172z" glyph-name="uni0308" horiz-adv-x="0" unicode="̈"/><glyph d="M-516.5 1161q-104.5 0 -173 57.5t-68.5 147.5t68.5 147.5t173 57.5t172.5 -57.5t68 -147.5t-68 -147.5t-172.5 -57.5zM-516 1192q90 0 90 174t-90 174q-92 0 -92 -174t92 -174z" glyph-name="uni030A" horiz-adv-x="0" unicode="̊"/><glyph d="M-793 1505h297v-22l-391 -320h-22zM-418 1505h295v-22l-391 -320h-23z" glyph-name="uni030B" horiz-adv-x="0" unicode="̋"/><glyph d="M-844 1505l13 17l315 -164l313 164l15 -17l-281 -338h-96z" glyph-name="uni030C" horiz-adv-x="0" unicode="̌"/><glyph d="M-305 1333l-164 -164l-84 82q-53 53 -53 119q0 72 69.5 138.5t176.5 115.5l12 -18q-68 -47 -68 -113q0 -49 39 -86z" glyph-name="uni0312" horiz-adv-x="0" unicode="̒"/><glyph d="M-606 -258l164 164l84 -80q53 -51 53 -121q0 -72 -69.5 -138.5t-176.5 -113.5l-10 19q66 43 65 112q0 49 -36 84z" glyph-name="uni0326" horiz-adv-x="0" unicode="̦"/><glyph d="M-528 -100q279 -2 278 -166q0 -78 -70.5 -123t-177.5 -45q-78 0 -161 37v69h10l82 -63q6 -2 18 -2q41 0 67.5 31.5t26.5 93.5q0 121 -141 125l-14 14l92 129h59z" glyph-name="uni0327" horiz-adv-x="0" unicode="̧"/><glyph d="M-457 -434q-92 0 -148.5 43t-56.5 117q0 174 306 262v12h108q-197 -90 -196 -238q0 -59 29.5 -91.5t76.5 -32.5t90 20v-31q-94 -61 -209 -61z" glyph-name="uni0328" horiz-adv-x="0" unicode="̨"/><glyph d="M805 1434l553 -1411v-23h-1309v23l551 1413l6 -2h199zM117 51h872l-434 1125z" glyph-name="Delta" horiz-adv-x="1394" unicode="Δ"/><glyph d="M88 870q0 272 205 432t522.5 160t522 -159.5t204.5 -432.5q0 -244 -153.5 -393t-397.5 -203v-55l408 2l110 182h23v-403h-596v299q231 143 231 551q0 279 -96 421t-256 142t-257 -142.5t-97 -420.5q0 -408 233 -551v-299h-596v403h23l110 -182l408 -2v55 q-244 53 -397.5 202.5t-153.5 393.5z" glyph-name="Omega" horiz-adv-x="1630" unicode="Ω"/><glyph d="M1135 106l116 -88v-18h-379l-59 170q-129 -195 -332 -195q-51 0 -90 9l51 -373h-297v1321l-127 86v18h455v-708q0 -205 154 -205q109 0 180 102v707l-129 86v18h457v-930z" glyph-name="mu" horiz-adv-x="1280" unicode="μ"/><glyph d="M1141 932v-830l119 -84v-18h-564v18l117 84v891h-328v-891l119 -84v-18h-563v18l117 84v830l-127 86v18h1239v-18z" glyph-name="pi" horiz-adv-x="1298" unicode="π"/><glyph d="M1251 1561h-22l-453 319v23h363zM1712 1434h486v-23l-181 -178l-434 -1233h-170l-319 881l-316 -881h-170l-485 1307l-141 104v23h649v-23l-154 -98l361 -994l227 642l-139 385l-90 65v23h591v-23l-139 -88l354 -995l322 913l-252 170v23z" glyph-name="Wgrave" horiz-adv-x="2179" unicode="Ẁ"/><glyph d="M1012 1163h-23l-452 320v22h362zM1364 1036h410v-18l-142 -170l-334 -848h-159l-262 608l-248 -608h-162l-404 928l-94 90v18h559v-18l-118 -86l276 -658l162 400l-125 289l-57 55v18h518v-18l-107 -76l279 -661l225 575l-217 162v18z" glyph-name="wgrave" horiz-adv-x="1734" unicode="ẁ"/><glyph d="M1526 1880l-453 -319h-22l112 342h363v-23zM1712 1434h486v-23l-181 -178l-434 -1233h-170l-319 881l-316 -881h-170l-485 1307l-141 104v23h649v-23l-154 -98l361 -994l227 642l-139 385l-90 65v23h591v-23l-139 -88l354 -995l322 913l-252 170v23z" glyph-name="Wacute" horiz-adv-x="2179" unicode="Ẃ"/><glyph d="M1286 1483l-452 -320h-23l113 342h362v-22zM1364 1036h410v-18l-142 -170l-334 -848h-159l-262 608l-248 -608h-162l-404 928l-94 90v18h559v-18l-118 -86l276 -658l162 400l-125 289l-57 55v18h518v-18l-107 -76l279 -661l225 575l-217 162v18z" glyph-name="wacute" horiz-adv-x="1734" unicode="ẃ"/><glyph d="M1114 1741l-172 -172l-174 172l174 170zM1536 1741l-174 -172l-170 172l170 170zM1712 1434h486v-23l-181 -178l-434 -1233h-170l-319 881l-316 -881h-170l-485 1307l-141 104v23h649v-23l-154 -98l361 -994l227 642l-139 385l-90 65v23h591v-23l-139 -88l354 -995 l322 913l-252 170v23z" glyph-name="Wdieresis" horiz-adv-x="2179" unicode="Ẅ"/><glyph d="M874 1343l-172 -172l-174 172l174 170zM1296 1343l-174 -172l-170 172l170 170zM1364 1036h410v-18l-142 -170l-334 -848h-159l-262 608l-248 -608h-162l-404 928l-94 90v18h559v-18l-118 -86l276 -658l162 400l-125 289l-57 55v18h518v-18l-107 -76l279 -661l225 575 l-217 162v18z" glyph-name="wdieresis" horiz-adv-x="1734" unicode="ẅ"/><glyph d="M881 1561h-23l-452 319v23h362zM967 1434h487v-23l-180 -182l-371 -645l2 -461l174 -100v-23h-696v23l174 100v420l-434 764l-141 104v23h675v-23l-153 -98l370 -676l347 604l-254 170v23z" glyph-name="Ygrave" horiz-adv-x="1435" unicode="Ỳ"/><glyph d="M725 1163h-23l-452 320v22h362zM745 1036h408v-18l-141 -170l-389 -957q-76 -180 -149 -242.5t-173 -62.5q-37 0 -108 23v203h342l22 57l-494 1059l-94 90v18h561v-18l-116 -86l303 -674l246 598l-218 162v18z" glyph-name="ygrave" horiz-adv-x="1114" unicode="ỳ"/><glyph d="M121 647h987v-51h-987v51z" glyph-name="endash" horiz-adv-x="1228" unicode="–"/><glyph d="M121 647h1806v-51h-1806v51z" glyph-name="emdash" horiz-adv-x="2048" unicode="—"/><glyph d="M121 647h2421v-51h-2421v51z" glyph-name="afii00208" horiz-adv-x="2662" unicode="―"/><glyph d="M453 1030l-179 -180l-79 82q-82 84 -82 176q0 88 80.5 167t242.5 179l13 -16q-125 -113 -125 -213q0 -59 71 -133z" glyph-name="quoteleft" horiz-adv-x="548" unicode="‘"/><glyph d="M96 1278l178 178l80 -82q84 -84 84 -174q0 -88 -81 -167t-244 -179l-13 16q125 111 125 213q0 57 -69 134z" glyph-name="quoteright" horiz-adv-x="548" unicode="’"/><glyph d="M96 168l178 178l80 -80q84 -86 84 -176q0 -88 -81 -167t-244 -179l-13 16q125 113 125 213q0 57 -69 133z" glyph-name="quotesinglbase" horiz-adv-x="548" unicode="‚"/><glyph d="M453 1030l-179 -180l-79 82q-82 84 -82 176q0 88 80.5 167t242.5 179l13 -16q-125 -113 -125 -213q0 -59 71 -133zM854 1030l-178 -180l-80 82q-84 86 -84 176q0 88 81 167t245 179l12 -16q-125 -113 -125 -213q0 -57 70 -133z" glyph-name="quotedblleft" horiz-adv-x="950" unicode="“"/><glyph d="M96 1278l178 178l80 -82q84 -84 84 -174q0 -88 -81 -167t-244 -179l-13 16q125 111 125 213q0 57 -69 134zM498 1278l178 178l80 -82q84 -84 84 -174q0 -88 -81 -167t-245 -179l-12 16q125 111 125 213q0 59 -72 134z" glyph-name="quotedblright" horiz-adv-x="950" unicode="”"/><glyph d="M96 168l178 178l80 -80q84 -86 84 -176q0 -88 -81 -167t-244 -179l-13 16q125 113 125 213q0 57 -69 133zM498 168l178 178l80 -80q84 -86 84 -176q0 -88 -81 -167t-245 -179l-12 16q125 113 125 213q0 59 -72 133z" glyph-name="quotedblbase" horiz-adv-x="950" unicode="„"/><glyph d="M913 1147h23v-264h-23l-370 106l96 -368v-23l-111 -823h-22l-113 823v23l99 368l-371 -106h-23v264h23l371 -107l-107 371v23h264v-23l-106 -371z" glyph-name="dagger" horiz-adv-x="1032" unicode="†"/><glyph d="M936 883h-23l-370 106l96 -371v-22l-96 -377l370 107h23v-265h-23l-370 107l106 -371v-22h-264v22l107 371l-371 -107h-23v265h23l371 -107l-99 377v22l99 371l-371 -106h-23v264h23l371 -107l-107 371v23h264v-23l-106 -371l370 107h23v-264z" glyph-name="daggerdbl" horiz-adv-x="1032" unicode="‡"/><glyph d="M395 895l273 -270l-273 -271l-270 271z" glyph-name="bullet" horiz-adv-x="788" unicode="•"/><glyph d="M295 360l201 -200l-201 -201l-203 201zM780 360l201 -200l-201 -201l-202 201zM1266 360l200 -200l-200 -201l-203 201z" glyph-name="ellipsis" horiz-adv-x="1558" unicode="…"/><glyph d="M492 606q-186 0 -288 116t-102 310q0 197 101.5 311.5t288 114.5t287 -114.5t100.5 -311.5q0 -195 -101.5 -310.5t-285.5 -115.5zM1372 1434h60l-906 -1434h-59zM492 649q129 0 129 383t-129 383q-131 0 -131 -383t131 -383zM1407 -25q-186 0 -287.5 116t-101.5 310 q0 197 101.5 311.5t287.5 114.5t286.5 -114.5t100.5 -311.5q0 -195 -101.5 -310.5t-285.5 -115.5zM2275 -25q-186 0 -287.5 116t-101.5 310q0 197 101.5 311.5t288 114.5t286.5 -114.5t100 -311.5q0 -195 -101.5 -310.5t-285.5 -115.5zM1407 18q129 0 129 383t-129 383 q-131 0 -131 -383t131 -383zM2275 18q129 0 129 383t-129 383q-131 0 -131 -383t131 -383z" glyph-name="perthousand" horiz-adv-x="2764" unicode="‰"/><glyph d="M580 170l-17 -10l-440 413l440 416l17 -12l-195 -404z" glyph-name="guilsinglleft" horiz-adv-x="702" unicode="‹"/><glyph d="M123 170l194 403l-194 404l16 12l441 -416l-441 -413z" glyph-name="guilsinglright" horiz-adv-x="702" unicode="›"/><glyph d="M553 1434h61l-907 -1434h-61z" glyph-name="fraction" horiz-adv-x="260" unicode="⁄"/><glyph d="M432 905q-184 0 -284.5 116t-100.5 310q0 197 100.5 311.5t284.5 114.5t284.5 -114.5t100.5 -311.5q0 -195 -100.5 -310.5t-284.5 -115.5zM432 944q72 0 105.5 88t33.5 299t-33.5 299t-105.5 88t-106.5 -88t-34.5 -299q0 -209 34.5 -298t106.5 -89z" glyph-name="uni2070" horiz-adv-x="862" unicode="⁰"/><glyph d="M752 1163h-148v-151l139 -72v-18h-512v18l142 72v151h-357v39l293 539h305v-19q-233 -246 -538 -520h297v156h231v-156h148v-39z" glyph-name="uni2074" horiz-adv-x="776" unicode="⁴"/><glyph d="M377 1436q147 0 238.5 -62.5t91.5 -185.5q0 -131 -95.5 -207t-267.5 -76q-117 0 -258 33l-20 256h18l180 -242q31 -8 64 -8q59 0 98 57.5t39 155.5q0 205 -209 205q-86 0 -154 -43l-14 10l23 412h473l61 16h19l-25 -174h-496l-12 -203q105 56 246 56z" glyph-name="uni2075" horiz-adv-x="761" unicode="⁵"/><glyph d="M487 1423q123 0 204 -59t81 -178q0 -123 -96 -202t-258 -79q-172 0 -271.5 110.5t-99.5 307.5q0 213 114.5 323.5t293.5 110.5q123 0 252 -31l-7 -251h-18l-166 235q-27 8 -55 8q-74 0 -122 -86t-54 -272q81 63 202 63zM418 944q119 0 119 217q0 199 -140 199 q-57 0 -112 -41q0 -375 133 -375z" glyph-name="uni2076" horiz-adv-x="819" unicode="⁶"/><glyph d="M49 1475v266h613v-35q0 -53 -33 -147l-223 -637h-273v18q139 233 459 629h-463l-61 -94h-19z" glyph-name="uni2077" horiz-adv-x="684" unicode="⁷"/><glyph d="M551 1399q190 -90 190 -234q0 -123 -98 -191.5t-262 -68.5q-150 0 -245 55.5t-95 161.5q0 152 186 203q-143 78 -143 219q0 102 85 157.5t226 55.5q135 0 218 -49t83 -139q0 -117 -161 -162zM385 1720q-57 0 -91 -30.5t-34 -79.5q0 -78 119 -131l104 -49q53 53 54 141 q0 70 -42 109.5t-110 39.5zM393 942q78 0 121 38t43 99q0 49 -30.5 82t-104.5 68l-141 69q-70 -57 -70 -168q0 -86 51 -137t131 -51z" glyph-name="uni2078" horiz-adv-x="782" unicode="⁸"/><glyph d="M399 1757q172 0 269.5 -104.5t97.5 -302.5q0 -221 -114.5 -333t-291.5 -112q-102 0 -239 33l-21 250h19l184 -234q23 -10 49 -10q76 0 125 90t53 285q-70 -70 -194.5 -70t-206.5 61.5t-82 182.5q0 119 95 191.5t257 72.5zM424 1309q68 0 106 49q-2 360 -135 360 q-55 0 -87 -52t-32 -157q0 -98 40 -149t108 -51z" glyph-name="uni2079" horiz-adv-x="811" unicode="⁹"/><glyph d="M432 -324q-184 0 -284.5 115t-100.5 311.5t100.5 311t284.5 114.5t284.5 -114.5t100.5 -311t-100.5 -311.5t-284.5 -115zM432 -285q72 0 105.5 88t33.5 299t-33.5 299t-105.5 88t-106.5 -88t-34.5 -299q0 -209 34.5 -298t106.5 -89z" glyph-name="uni2080" horiz-adv-x="862" unicode="₀"/><glyph d="M47 410l385 122h14v-743l168 -78v-18h-567v18l168 78v571l-168 31v19z" glyph-name="uni2081" horiz-adv-x="641" unicode="₁"/><glyph d="M49 -307l4 55q6 76 62.5 155t181.5 189q88 78 118.5 136.5t33.5 127.5q2 59 -24 96t-71 37q-37 0 -71 -8l-162 -243h-19l-10 258q152 33 279 32q150 0 233.5 -53t83.5 -158q0 -100 -83 -167.5t-232 -129.5q-168 -70 -230 -149h453l82 100h20l-30 -278h-619z" glyph-name="uni2082" horiz-adv-x="761" unicode="₂"/><glyph d="M88 498q164 31 277 30q145 0 227 -47t82 -127q0 -154 -285 -194l2 -13q141 10 235.5 -47t94.5 -168q0 -121 -94.5 -188.5t-264.5 -67.5q-129 0 -276 33l-23 256h19l192 -239q31 -10 68 -11q59 0 98 51.5t39 147.5q0 98 -46 148.5t-120 50.5q-35 0 -75 -13l-15 37 q111 29 167 79t56 144q0 63 -29.5 96t-72.5 33t-78 -8l-151 -235h-19z" glyph-name="uni2083" horiz-adv-x="778" unicode="₃"/><glyph d="M752 -66h-148v-151l139 -72v-18h-512v18l142 72v151h-357v39l293 539h305v-18q-233 -246 -538 -521h297v156h231v-156h148v-39z" glyph-name="uni2084" horiz-adv-x="776" unicode="₄"/><glyph d="M377 207q147 0 238.5 -62.5t91.5 -187.5q0 -129 -95.5 -205t-267.5 -76q-117 0 -258 33l-20 256h18l180 -241q31 -8 64 -9q59 0 98 57.5t39 155.5q0 205 -209 205q-86 0 -154 -43l-14 10l23 412h473l61 16h19l-25 -174h-496l-12 -202q105 55 246 55z" glyph-name="uni2085" horiz-adv-x="761" unicode="₅"/><glyph d="M487 195q123 0 204 -59.5t81 -178.5q0 -123 -95 -202t-259 -79q-172 0 -271.5 111t-99.5 307q0 213 114.5 323.5t293.5 110.5q123 0 252 -30l-7 -252h-18l-166 235q-27 8 -55 8q-74 0 -122 -86t-54 -272q81 64 202 64zM418 -285q119 0 119 217q0 199 -140 199 q-57 0 -112 -41q0 -375 133 -375z" glyph-name="uni2086" horiz-adv-x="819" unicode="₆"/><glyph d="M49 246v266h613v-35q0 -53 -33 -147l-223 -637h-273v18q139 233 459 629h-463l-61 -94h-19z" glyph-name="uni2087" horiz-adv-x="684" unicode="₇"/><glyph d="M551 170q190 -90 190 -236q0 -121 -99 -189.5t-261 -68.5q-150 0 -245 55.5t-95 162.5q0 152 186 202q-143 78 -143 219q0 102 85 157.5t226 55.5q135 0 218 -49t83 -139q0 -117 -161 -162zM385 492q-57 0 -91 -31t-34 -80q0 -78 119 -131l104 -49q53 53 54 141 q0 70 -42 110t-110 40zM393 -287q78 0 121 38t43 99q0 49 -30.5 82t-104.5 68l-141 70q-70 -57 -70 -168q0 -86 51 -137.5t131 -51.5z" glyph-name="uni2088" horiz-adv-x="782" unicode="₈"/><glyph d="M399 528q172 0 269.5 -104.5t97.5 -302.5q0 -221 -114.5 -333t-291.5 -112q-115 0 -239 33l-21 248h19l184 -231q23 -10 49 -11q76 0 125 90.5t53 284.5q-70 -70 -194.5 -70t-206.5 61.5t-82 182.5q0 119 95 191.5t257 72.5zM424 80q68 0 106 49q-2 360 -135 360 q-55 0 -87 -52t-32 -156q0 -98 40 -149.5t108 -51.5z" glyph-name="uni2089" horiz-adv-x="811" unicode="₉"/><glyph d="M1280 1434v-420h-23l-299 368h-380v-649h196l262 133h23v-317h-23l-262 133h-196v-256h241v-47h-241v-256l188 -100v-23h-688v23l153 100v256h-137v47h137v887l-153 98v23h1202z" glyph-name="franc" horiz-adv-x="1343" unicode="₣"/><glyph d="M1192 481h22l-61 -481h-1061v51q135 0 256 98.5t121 227.5q0 49 -16 94h-361v47h340q-35 66 -133 170h-207v47h164q-145 170 -145 326q0 190 147.5 295.5t398.5 105.5q215 0 451 -61v-408h-23l-288 400q-47 18 -107 18q-92 0 -149.5 -70.5t-57.5 -207.5 q0 -70 19.5 -130.5t72 -153.5t62.5 -114h317v-47h-297q35 -86 37 -170h260v-47h-262q-14 -152 -132 -260.5t-277 -159.5h559z" glyph-name="lira" horiz-adv-x="1280" unicode="₤"/><glyph d="M1452 508h23l-68 -467q-266 -70 -498 -70q-305 0 -500.5 160t-234.5 449h-164v47h160q-4 57 -4 88q0 37 4 102h-160v47h166q43 285 239.5 441.5t495.5 156.5q242 0 496 -59v-428h-23l-292 414q-78 25 -152 24q-145 0 -257 -144.5t-134 -404.5h502v-47h-504q-2 -18 -2 -55 q0 -92 4 -135h502v-47h-498q27 -279 133.5 -419.5t243.5 -140.5q84 0 155 33z" glyph-name="Euro" horiz-adv-x="1554" unicode="€"/><glyph d="M961 750q477 -23 477 -349q0 -188 -145.5 -294.5t-399.5 -106.5h-100v-256h-52v256h-166v-256h-51v256h-467v23l154 100v1190l-154 98v23h467v256h51v-256h166v256h52v-256h63q240 0 373 -88.5t133 -241.5q0 -150 -106.5 -234t-294.5 -102v-18zM733 1382h-176v-614h174 q283 0 283 311q0 145 -75 224t-206 79zM752 51q158 0 237.5 87t79.5 251t-89 246t-251 82h-172v-666h195z" glyph-name="uni20BF" horiz-adv-x="1509" unicode="₿"/><glyph d="M1880 762q-158 0 -255 92t-97 252t97 252t255 92t255 -92t97 -252t-97 -252t-255 -92zM1012 1411v23h477v-23l-170 -178v-1233h-254l-803 1292v-1093l252 -176v-23h-477v23l170 180v1108l-170 100v23h524l703 -1121v922zM1880 1417q-115 0 -115 -311q0 -309 115 -309 q55 0 85 67.5t30 241.5t-30 242.5t-85 68.5zM1554 578v51h652v-51h-652z" glyph-name="afii61352" horiz-adv-x="2291" unicode="№"/><glyph d="M76 1434h647l8 -234h-16l-150 197h-67v-555l80 -47v-17h-359v17l82 47v555h-70l-149 -197h-14zM1616 1419l-80 -49v-526l80 -49v-17h-359v17l82 49v465l-198 -426h-21l-221 420v-431l129 -77v-17h-260v17l90 77v496l-90 51v15h270l168 -322l148 322h262v-15z" glyph-name="trademark" horiz-adv-x="1703" unicode="™"/><glyph d="M84 721q0 305 229.5 521t555 216t554 -216t228.5 -521v-27h-1260v-458q180 -207 488 -207q299 0 487 225h133v-23q-264 -254 -620 -254q-340 0 -567.5 214.5t-227.5 529.5zM391 1200v-455h952v455q-184 207 -475 207q-293 0 -477 -207z" glyph-name="estimated" horiz-adv-x="1734" unicode="℮"/><glyph d="M614 633v-19h-567v19l168 80v569l-168 31v18l385 123h14v-741zM1194 1434h61l-905 -1434h-61zM1452 477q190 -90 190 -233q0 -123 -98 -191.5t-262 -68.5q-150 0 -245 55t-95 162q0 152 186 202q-143 78 -143 220q0 102 85 157.5t226 55.5q135 0 218 -49.5t83 -139.5 q0 -117 -161 -162zM1286 799q-57 0 -91 -31t-34 -80q0 -78 119 -131l104 -49q53 53 54 141q0 70 -42 110t-110 40zM1294 20q78 0 121 38t43 100q0 49 -30.5 81.5t-104.5 67.5l-141 70q-70 -57 -70 -168q0 -86 51 -137.5t131 -51.5z" glyph-name="oneeighth" horiz-adv-x="1683" unicode="⅛"/><glyph d="M721 854q0 -121 -94.5 -188.5t-264.5 -67.5q-113 0 -276 33l-23 256h19l192 -240q31 -10 68 -10q59 0 98 52t39 148.5t-46 146.5t-120 50q-35 0 -75 -12l-15 37q111 29 167 79t56 144q0 63 -29.5 96t-72.5 33t-78 -8l-151 -236h-19l-8 252q164 31 277 31q145 0 227 -47 t82 -127q0 -154 -285 -195l2 -12q141 10 235.5 -47t94.5 -168zM1331 1434h62l-906 -1434h-61zM1589 477q190 -90 191 -233q0 -123 -98.5 -191.5t-262.5 -68.5q-150 0 -245 55t-95 162q0 152 187 202q-143 78 -144 220q0 102 85 157.5t227 55.5q135 0 218 -49.5t83 -139.5 q0 -117 -162 -162zM1423 799q-57 0 -91 -31t-34 -80q0 -78 119 -131l105 -49q53 53 53 141q0 70 -42 110t-110 40zM1432 20q78 0 120.5 38t42.5 100q0 49 -30.5 81.5t-104.5 67.5l-141 70q-70 -57 -70 -168q0 -86 51.5 -137.5t131.5 -51.5z" glyph-name="threeeighths" horiz-adv-x="1820" unicode="⅜"/><glyph d="M707 881q0 -131 -95.5 -207t-267.5 -76q-117 0 -258 33l-20 256h18l180 -242q31 -8 64 -8q59 0 98 57.5t39 155.5q0 205 -209 205q-86 0 -154 -43l-14 10l23 412h473l61 16h19l-25 -174h-496l-12 -203q104 55 246 55q147 0 238.5 -62t91.5 -185zM1315 1434h61l-905 -1434 h-61zM1573 477q190 -90 190 -233q0 -123 -98 -191.5t-262 -68.5q-150 0 -245 55t-95 162q0 152 186 202q-143 78 -143 220q0 102 85 157.5t226 55.5q135 0 218 -49.5t83 -139.5q0 -117 -162 -162zM1407 799q-57 0 -91 -31t-34 -80q0 -78 119 -131l104 -49q53 53 54 141 q0 70 -42 110t-110 40zM1415 20q78 0 121 38t43 100q0 49 -30.5 81.5t-104.5 67.5l-141 70q-70 -57 -70 -168q0 -86 51 -137.5t131 -51.5z" glyph-name="fiveeighths" horiz-adv-x="1804" unicode="⅝"/><glyph d="M133 614v19q139 233 459 629h-463l-61 -95h-19v267h613v-35q0 -53 -33 -148l-223 -637h-273zM1237 1434h61l-905 -1434h-61zM1495 477q190 -90 191 -233q0 -123 -98.5 -191.5t-262.5 -68.5q-150 0 -245 55t-95 162q0 152 186 202q-143 78 -143 220q0 102 85 157.5 t226 55.5q135 0 218 -49.5t83 -139.5q0 -117 -161 -162zM1329 799q-57 0 -91 -31t-34 -80q0 -78 119 -131l104 -49q53 53 54 141q0 70 -42 110t-110 40zM1337 20q78 0 121 38t43 100q0 49 -30.5 81.5t-104.5 67.5l-141 70q-70 -57 -70 -168q0 -86 51 -137.5t131 -51.5z" glyph-name="seveneighths" horiz-adv-x="1726" unicode="⅞"/><glyph d="M1579 649v-51h-1149l215 -365l-16 -16l-506 397v17l506 397l16 -16l-213 -363h1147z" glyph-name="arrowleft" horiz-adv-x="1701" unicode="←"/><glyph d="M932 952l-17 -16l-360 211v-1147h-55v1147l-361 -211l-16 16l395 504h17z" glyph-name="arrowup" horiz-adv-x="1054" unicode="↑"/><glyph d="M1075 1028l504 -397v-17l-504 -397l-16 16l213 365h-1149v51h1149l-213 363z" glyph-name="arrowright" horiz-adv-x="1701" unicode="→"/><glyph d="M915 500l17 -17l-397 -506h-17l-395 506l16 17l361 -213v1147h55v-1147z" glyph-name="arrowdown" horiz-adv-x="1054" unicode="↓"/><glyph d="M1139 1028l503 -397v-17l-503 -397l-17 16l213 365h-905l215 -365l-16 -16l-506 397v17l506 397l16 -16l-213 -363h903l-213 363z" glyph-name="arrowboth" horiz-adv-x="1765" unicode="↔"/><glyph d="M915 500l17 -17l-377 -479v-4h-2l-18 -23h-17l-18 23v2l-377 481l16 17l361 -213v860l-361 -211l-16 16l377 482l18 22h17l18 -22h2v-4l377 -478l-17 -16l-360 211v-860z" glyph-name="arrowupdn" horiz-adv-x="1054" unicode="↕"/><glyph d="M1178 174l-39 -39l-813 811l-105 -405h-22l-76 637l10 12l637 -78v-22l-408 -105z" glyph-name="uni2196" horiz-adv-x="1300" unicode="↖"/><glyph d="M1167 1190l11 -12l-76 -637h-23l-104 407l-815 -813l-37 39l815 811l-408 105v22z" glyph-name="uni2197" horiz-adv-x="1300" unicode="↗"/><glyph d="M1102 786l76 -636l-11 -13l-637 78v23l406 106l-813 811l37 37l815 -811l104 405h23z" glyph-name="uni2198" horiz-adv-x="1300" unicode="↘"/><glyph d="M1178 1155l-816 -811l408 -106v-23l-637 -78l-10 13l76 636h22l105 -403l813 809z" glyph-name="uni2199" horiz-adv-x="1300" unicode="↙"/><glyph d="M281 1458q391 -47 631.5 -280.5t240.5 -587.5q0 -293 -151.5 -454t-401.5 -161q-246 0 -398.5 148.5t-152.5 404.5q0 246 145.5 389.5t378.5 143.5q104 0 168 -47q-106 319 -465 422zM600 23q100 0 150.5 117.5t50.5 404.5q0 154 -15 260l-2 -2q-12 102 -61 153.5 t-121 51.5q-205 0 -205 -486q0 -270 51.5 -384.5t151.5 -114.5z" glyph-name="partialdiff" horiz-adv-x="1206" unicode="∂"/><glyph d="M1448 -125l154 -98v-23h-654v23l154 98v1507h-545v-1507l154 -98v-23h-654v23l154 98v1438l-154 98v23h1545v-23l-154 -98v-1438z" glyph-name="product" horiz-adv-x="1658" unicode="∏"/><glyph d="M37 -246v31l612 700l-608 918v31h1208v-435h-22l-297 383h-475l444 -677v-23l-567 -649h792l123 170h23v-449h-1233z" glyph-name="summation" horiz-adv-x="1341" unicode="∑"/><glyph d="M139 702h901v-51h-901v51z" glyph-name="minus" horiz-adv-x="1177" unicode="−"/><glyph d="M68 834v18h440l283 -580l411 1346h53l-534 -1741h-72l-452 881z" glyph-name="radical" horiz-adv-x="1294" unicode="√"/><glyph d="M1210 1100q174 0 279.5 -120t105.5 -306q0 -176 -99 -293t-253 -117q-111 0 -192.5 65.5t-122.5 182.5q-158 -254 -406 -254q-172 0 -277.5 120t-105.5 306q0 176 99.5 294t250.5 118q111 0 193 -65.5t123 -180.5q155 250 405 250zM406 453q94 0 155.5 51t128.5 164 l82 129q-92 158 -299 157q-123 0 -200.5 -72.5t-77.5 -195.5q0 -102 59.5 -167.5t151.5 -65.5zM1262 403q123 0 200.5 73t77.5 196q0 104 -60.5 168.5t-152.5 64.5q-96 0 -156.5 -51t-130.5 -164l-79 -127q88 -160 301 -160z" glyph-name="infinity" horiz-adv-x="1732" unicode="∞"/><glyph d="M709 1577q131 0 292 -27l-22 -323h-18l-199 301q-8 2 -21 2q-88 0 -88 -168v-1380q0 -172 -99 -263.5t-284 -91.5q-131 0 -293 27l21 323h20l199 -301q8 -2 21 -2q88 0 88 168v1381q0 172 99.5 263t283.5 91z" glyph-name="integral" horiz-adv-x="1026" unicode="∫"/><glyph d="M119 786q57 182 229 183q92 0 247 -84t232 -84q139 0 185 149l49 -20q-59 -180 -232 -180q-92 0 -246.5 84t-232.5 84q-139 0 -182 -150zM119 424q57 180 229 180q92 0 247 -84t232 -84q137 0 185 150l49 -21q-59 -180 -234 -180q-92 0 -245.5 84t-231.5 84 q-139 0 -182 -150z" glyph-name="approxequal" horiz-adv-x="1177" unicode="≈"/><glyph d="M1040 850h-323l-193 -348h516v-51h-544l-187 -334h-61l186 334h-295v51h324l194 348h-518v51h547l184 332h60l-185 -332h295v-51z" glyph-name="notequal" horiz-adv-x="1177" unicode="≠"/><glyph d="M121 756v30l901 392v-58l-809 -348l809 -348v-57zM121 229h901v-51h-901v51z" glyph-name="lessequal" horiz-adv-x="1177" unicode="≤"/><glyph d="M1057 756l-901 -389v57l811 348l-811 348v58l901 -392v-30zM1057 229v-51h-901v51h901z" glyph-name="greaterequal" horiz-adv-x="1177" unicode="≥"/><glyph d="M1491 716.5q0 -282.5 -202 -484t-484.5 -201.5t-484 201.5t-201.5 484t201.5 484.5t484 202t484.5 -202t202 -484.5zM1436 717q0 262 -185.5 448.5t-445.5 186.5t-445.5 -186.5t-185.5 -448.5t185.5 -448.5t445.5 -186.5t445.5 186.5t185.5 448.5zM657.5 760 q-36.5 0 -58 44t-21.5 118q0 76 21.5 120.5t58 44.5t58 -45t21.5 -120q0 -74 -21.5 -118t-58 -44zM950 760q-37 0 -58.5 44t-21.5 118q0 76 21.5 120.5t58.5 44.5t59.5 -45t22.5 -120q0 -74 -22.5 -118t-59.5 -44zM1143 694h22l181 -59l-5 -19l-170 2q-25 -145 -126 -235 t-240 -90q-141 0 -242.5 90t-126.5 235l-170 -2l-4 19l182 59h23q4 -121 102.5 -204.5t235.5 -83.5t235.5 83.5t102.5 204.5z" glyph-name="uni2323" horiz-adv-x="1607" unicode="⌣"/><glyph d="M119 729l469 717h22l469 -717v-22l-469 -719h-22l-469 719v22zM174 717l424 -654l424 654l-424 653z" glyph-name="lozenge" horiz-adv-x="1196" unicode="◊"/><glyph d="M496 1360l-187 -184l-182 184l182 182zM485 102l119 -84v-18h-563v18l117 84v830l-127 86v18h454v-934z" glyph-name="i.aalt" horiz-adv-x="630"/><glyph d="M1470 1061q180 0 296 -130t116 -394q0 -274 -157.5 -418t-393.5 -144q-229 0 -495 74v1251q-51 109 -179 109q-76 0 -122 -51t-46 -158v-164h248v-47h-248v-887l175 -84v-18h-621v18l119 84v887h-146v47h146v27q0 395 448 395q102 0 201 -24h352v-537q104 164 307 164z M1319 23q217 0 217 475q0 422 -209 422q-102 0 -164 -78v-721q52 -98 156 -98z" glyph-name="f_b.dlig" horiz-adv-x="1939"/><glyph d="M1829 1036v-956q0 -203 -145.5 -348.5t-305.5 -145.5q-35 0 -75 6v48h24q90 0 132 52t42 187v1053l-86 57h-252v-887l174 -84v-18h-620v18l119 84v887h-347v-887l175 -84v-18h-621v18l119 84v887h-146v47h146q0 401 454 402q174 0 340 -80q121 100 363 100q170 0 377 -35 l-21 -309h-18l-230 287q-41 10 -84 10q-80 0 -130 -54t-50 -167v-154h666zM836 1036v8v3v237q-53 104 -177 105q-170 0 -170 -201v-152h347z" glyph-name="f_f_j.dlig" horiz-adv-x="1964"/><glyph d="M1835 102l119 -84v-18h-563v18l116 84v611q0 203 -155 202q-109 0 -189 -90v-723l117 -84v-18h-563v18l119 84v1198q-51 109 -179 109q-76 0 -122 -51t-46 -158v-164h248v-47h-248v-887l175 -84v-18h-621v18l119 84v887h-146v47h146v27q0 395 448 395q102 0 201 -24h352 v-545q135 172 350 172q156 0 239 -86t83 -246v-627z" glyph-name="f_h.dlig" horiz-adv-x="1970"/><glyph d="M1155 1036v-956q0 -203 -145.5 -348.5t-304.5 -145.5q-37 0 -74 6v48h22q92 0 133 52t41 187v1053l-86 57h-252v-887l175 -84v-18h-621v18l119 84v887h-146v47h146v8q0 414 483 414q170 0 377 -35l-21 -309h-18l-229 287q-39 10 -84 10q-80 0 -130.5 -54t-50.5 -167v-154 h666z" glyph-name="f_j.dlig" horiz-adv-x="1290"/><glyph d="M1841 106l129 -88v-18h-432l-305 508l-70 -59v-347l117 -84v-18h-563v18l119 84v1198q-51 109 -179 109q-76 0 -122 -51t-46 -158v-164h248v-47h-248v-887l175 -84v-18h-621v18l119 84v887h-146v47h146v27q0 395 448 395q102 0 201 -24h352v-924l404 348l-160 160v18h500 v-18l-295 -187l-139 -118z" glyph-name="f_k.dlig" horiz-adv-x="1943"/><glyph d="M633 -25q-256 0 -405.5 146.5t-149.5 419t149.5 417t405.5 144.5t406.5 -144.5t150.5 -417t-150.5 -419t-406.5 -146.5zM633 23q104 0 154.5 112.5t50.5 405.5q0 291 -50.5 402.5t-154.5 111.5q-102 0 -153.5 -112t-51.5 -402q0 -293 51.5 -405.5t153.5 -112.5z" glyph-name="zero.oldstyle" horiz-adv-x="1265"/><glyph d="M80 915l506 207h20v-999l201 -105v-18h-727v18l199 105v743l-199 31v18z" glyph-name="one.oldstyle" horiz-adv-x="851"/><glyph d="M74 0l4 74q6 106 92 213.5t279 244.5q133 96 183 175t50 165q0 84 -41 133.5t-111 49.5q-51 0 -106 -15l-248 -370h-18l-17 385q201 47 416 47q219 0 342 -69.5t123 -207.5q0 -129 -114.5 -212t-348.5 -164q-262 -96 -354 -197h680l141 172h18l-45 -424h-925z" glyph-name="two.oldstyle" horiz-adv-x="1130"/><glyph d="M115 1051q238 51 424 51q219 0 340.5 -77t121.5 -212q0 -256 -430 -326l2 -14q215 12 357.5 -82t142.5 -278q0 -201 -143.5 -312.5t-399.5 -111.5q-178 0 -419 53l-37 395h18l307 -387q41 -14 101 -14q96 0 160.5 90t64.5 260q0 162 -76 248t-192 86q-55 0 -115 -19 l-14 41q166 49 254 135.5t88 245.5q0 113 -47.5 172.5t-118.5 59.5q-61 0 -111 -15l-243 -374h-19z" glyph-name="three.oldstyle" horiz-adv-x="1144"/><glyph d="M1149 115h-203v-281l189 -102v-19h-703v19l189 102v281h-588v47l485 915h436v-18q-385 -446 -827 -897h494v278h325v-278h203v-47z" glyph-name="four.oldstyle" horiz-adv-x="1177"/><glyph d="M573 575q223 0 360.5 -105t137.5 -314q0 -215 -146.5 -341t-408.5 -126q-160 0 -389 51l-33 397h19l293 -387q49 -14 92 -14q100 0 164.5 100.5t64.5 269.5q0 182 -91 272.5t-241 90.5q-145 0 -256 -72l-14 11l37 669h715l112 29h19l-33 -281h-776l-21 -348 q168 98 395 98z" glyph-name="five.oldstyle" horiz-adv-x="1138"/><glyph d="M752 825q186 0 308 -95t122 -288q0 -205 -144.5 -336t-392.5 -131q-264 0 -415.5 183.5t-151.5 513.5q0 352 174 536.5t442 184.5q180 0 389 -54l-12 -385h-18l-262 377q-51 14 -86 15q-119 0 -198 -153t-85 -476q133 108 330 108zM645 23q90 0 144.5 96t54.5 280 q0 168 -61.5 251t-170.5 83q-104 0 -190 -76q2 -634 223 -634z" glyph-name="six.oldstyle" horiz-adv-x="1249"/><glyph d="M55 664l-4 413h969v-35q0 -88 -43 -227l-375 -1102h-397v19q238 424 729 1093h-752l-108 -161h-19z" glyph-name="seven.oldstyle" horiz-adv-x="1060"/><glyph d="M870 776q301 -147 301 -375q0 -201 -154.5 -313.5t-410.5 -112.5q-240 0 -391.5 91.5t-151.5 267.5q0 135 91.5 221t251.5 123l-17 8q-254 133 -254 354q0 170 135.5 261.5t358.5 91.5q209 0 338 -79t129 -227q0 -207 -291 -278zM614 1346q-98 0 -157.5 -55.5 t-59.5 -143.5q0 -76 47.5 -128t151.5 -106l145 -71q106 88 107 248q0 119 -64 187.5t-170 68.5zM623 23q133 0 206.5 68.5t73.5 176.5q0 86 -52 146.5t-179 126.5l-205 104q-147 -94 -148 -295q0 -150 84.5 -238.5t219.5 -88.5z" glyph-name="eight.oldstyle" horiz-adv-x="1228"/><glyph d="M594 1102q260 0 409.5 -183.5t149.5 -512.5q0 -352 -172 -534.5t-436 -182.5q-160 0 -377 53l-33 385h19l295 -377q41 -14 83 -14q117 0 196 154.5t81 480.5q-129 -109 -326 -109q-184 0 -305 99.5t-121 300.5q0 199 144.5 319.5t392.5 120.5zM393 688q0 -166 60.5 -250 t169.5 -84q96 0 186 76q-6 625 -221 625q-90 0 -142.5 -93.5t-52.5 -273.5z" glyph-name="nine.oldstyle" horiz-adv-x="1230"/><glyph d="M665.5 -29q-286.5 0 -446.5 191.5t-160 554t160 554t446.5 191.5t446.5 -191.5t160 -554t-160 -554t-446.5 -191.5zM666 20q123 0 185 157t62 540t-62.5 539.5t-184.5 156.5q-121 0 -184.5 -157.5t-63.5 -538.5t63.5 -539t184.5 -158z" glyph-name="zero.tnum"/><glyph d="M281 1272l538 207h19v-1356l256 -105v-18h-840v18l256 105v1098l-229 32v19z" glyph-name="one.tnum"/><glyph d="M119 0l6 96q14 254 403 586q168 147 231.5 253.5t63.5 221.5q2 119 -51 188.5t-147 69.5q-49 0 -119 -16l-279 -408h-18l-16 412q233 59 460 59q246 0 383.5 -93t137.5 -275q0 -94 -40 -172t-120 -141.5t-160 -108.5t-197 -99q-317 -147 -428 -303h803l146 172h18 l-49 -442h-1028z" glyph-name="two.tnum"/><glyph d="M172 1407q246 55 463 55q238 0 372 -82t134 -223q0 -272 -471 -342l2 -14q233 14 389 -86.5t156 -294.5q0 -211 -156 -330t-434 -119q-195 0 -457 58l-39 413h19l329 -405q57 -18 115 -19q113 0 189.5 97.5t76.5 273.5q0 174 -89 265t-224 91q-53 0 -127 -20l-14 41 q193 53 293 143t100 258q0 121 -58.5 184.5t-144.5 63.5q-59 0 -125 -16l-264 -398h-19z" glyph-name="three.tnum"/><glyph d="M1251 424h-209v-301l189 -105v-18h-707v18l191 105v301h-652v47l515 963h460v-19q-393 -455 -874 -944h551v291h327v-291h209v-47z" glyph-name="four.tnum"/><glyph d="M670 901q238 0 384 -109.5t146 -328.5q0 -227 -156.5 -359.5t-433.5 -132.5q-197 0 -424 56l-34 415h18l313 -407q49 -16 107 -17q115 0 184.5 105.5t69.5 288.5q0 193 -97.5 286t-263.5 93q-156 0 -278 -72l-17 10l39 705h777l114 28h19l-35 -288h-836l-22 -377 q182 104 426 104z" glyph-name="five.tnum"/><glyph d="M793 866q199 0 330.5 -100t131.5 -301q0 -217 -154.5 -355.5t-418.5 -138.5q-281 0 -441.5 192.5t-160.5 538.5q0 373 184.5 566.5t470.5 193.5q190 0 416 -53l-12 -408h-19l-284 400q-41 14 -91 14q-131 0 -218 -162.5t-95 -513.5q142 127 361 127zM682 18 q102 0 163.5 102.5t61.5 297.5q0 352 -260 352q-115 0 -215 -94q2 -658 250 -658z" glyph-name="six.tnum"/><glyph d="M168 1004l-4 430h1038v-37q-4 -117 -45 -238l-416 -1159h-413v18q266 465 782 1156h-809l-115 -170h-18z" glyph-name="seven.tnum"/><glyph d="M938 813q164 -80 239.5 -173t75.5 -214q0 -215 -162.5 -335t-433.5 -120q-248 0 -405.5 97.5t-157.5 283.5q0 143 95.5 233.5t261.5 129.5l-19 10q-266 137 -266 369q0 178 141.5 274t374.5 96q221 0 358.5 -84t137.5 -241q0 -217 -304 -295zM666 1417q-104 0 -167 -57 t-63 -154q0 -84 50.5 -140t164.5 -112l156 -75q117 86 117 260q0 131 -70.5 204.5t-187.5 73.5zM674 18q143 0 223 73t80 190q0 92 -56.5 156.5t-189.5 133.5l-217 111q-158 -104 -158 -320q0 -156 89.5 -250t228.5 -94z" glyph-name="eight.tnum"/><glyph d="M647 1462q279 0 436.5 -183t157.5 -531q0 -201 -50 -353.5t-137 -243t-198 -135.5t-242 -45q-178 0 -415 56l-37 415h18l336 -407q49 -16 86 -17q123 0 203 165t84 526q-125 -131 -354 -131q-195 0 -324 106.5t-129 314.5q0 207 152.5 335t412.5 128zM686 672 q131 0 203 106q-6 637 -250 637q-100 0 -158.5 -98t-58.5 -295q0 -172 72.5 -261t191.5 -89z" glyph-name="nine.tnum"/><glyph d="M670 -25q-256 0 -406.5 146.5t-150.5 419t150.5 417t406.5 144.5t405.5 -144.5t149.5 -417t-149.5 -419t-405.5 -146.5zM669.5 23q104.5 0 154.5 112.5t50 405.5q0 291 -50 402.5t-154.5 111.5t-154.5 -112t-50 -402q0 -293 50 -405.5t154.5 -112.5z" glyph-name="zero.tnum.oldstyle"/><glyph d="M317 915l506 207h23v-999l198 -105v-18h-727v18l201 105v743l-201 31v18z" glyph-name="one.tnum.oldstyle"/><glyph d="M178 0l4 74q6 106 92 213.5t279 244.5q133 96 183 175t50 165q0 84 -40.5 133.5t-110.5 49.5q-51 0 -107 -15l-249 -370h-19l-14 385q201 47 413 47q221 0 344 -69.5t123 -207.5q0 -129 -114.5 -211t-347.5 -165q-266 -98 -357 -197h680l143 172h19l-47 -424h-924z" glyph-name="two.tnum.oldstyle"/><glyph d="M219 1051q238 51 426 51q217 0 340 -77t123 -212q0 -256 -432 -326l4 -14q213 12 356.5 -83t143.5 -277q0 -201 -144.5 -312.5t-398.5 -111.5q-182 0 -420 53l-37 395h19l307 -387q39 -14 98 -14q96 0 161.5 90t65.5 260q0 162 -75.5 248t-192.5 86q-53 0 -117 -19 l-12 41q166 49 254 135.5t88 245.5q0 113 -48 172.5t-120 59.5q-59 0 -110 -15l-244 -374h-18z" glyph-name="three.tnum.oldstyle"/><glyph d="M1217 115h-205v-281l190 -102v-19h-704v19l190 102v281h-590v47l486 915h436v-18q-362 -422 -827 -897h495v278h324v-278h205v-47z" glyph-name="four.tnum.oldstyle"/><glyph d="M678 575q223 0 360.5 -105t137.5 -314q0 -215 -146.5 -341t-408.5 -126q-158 0 -390 51l-32 397h18l293 -387q49 -14 92 -14q100 0 164.5 100.5t64.5 269.5q0 182 -91 272.5t-240 90.5q-145 0 -256 -72l-15 11l37 669h715l113 29h18l-33 -281h-776l-20 -348 q168 98 395 98z" glyph-name="five.tnum.oldstyle"/><glyph d="M788 825q186 0 308.5 -95t122.5 -288q0 -205 -144.5 -336t-392.5 -131q-264 0 -415.5 183.5t-151.5 513.5q0 352 174 536.5t442 184.5q180 0 389 -54l-12 -385h-18l-263 377q-47 14 -86 15q-119 0 -197.5 -153t-84.5 -476q132 108 329 108zM682 23q90 0 144.5 96 t54.5 280q0 334 -232 334q-104 0 -190 -76q2 -634 223 -634z" glyph-name="six.tnum.oldstyle"/><glyph d="M203 664l-4 413h968v-35q0 -88 -43 -227l-374 -1102h-398v19q238 424 729 1093h-751l-109 -161h-18z" glyph-name="seven.tnum.oldstyle"/><glyph d="M924 776q301 -145 301 -375q0 -201 -153.5 -313.5t-409.5 -112.5q-242 0 -392.5 91.5t-150.5 267.5q0 264 340 344l-17 8q-254 133 -254 354q0 170 135.5 261.5t360.5 91.5q207 0 336 -79t129 -227q0 -207 -291 -278zM668 1346q-98 0 -157.5 -55.5t-59.5 -143.5 q0 -76 47 -128t151 -106l146 -73q109 92 108 250q0 119 -64.5 187.5t-170.5 68.5zM678 23q131 0 204.5 68.5t73.5 176.5q0 86 -52 146.5t-179 126.5l-205 104q-147 -96 -147 -295q0 -150 85 -238.5t220 -88.5z" glyph-name="eight.tnum.oldstyle"/><glyph d="M662 1102q260 0 409.5 -183.5t149.5 -512.5q0 -352 -172 -534.5t-437 -182.5q-160 0 -376 53l-33 385h18l295 -377q41 -14 84 -14q117 0 195.5 154.5t81.5 480.5q-129 -109 -326 -109q-184 0 -305 99.5t-121 300.5q0 199 144.5 319.5t392.5 120.5zM461 688 q0 -166 60.5 -250t168.5 -84q96 0 187 76q-6 625 -222 625q-90 0 -142 -93.5t-52 -273.5z" glyph-name="nine.tnum.oldstyle"/><glyph d="M432 -16q-184 0 -284.5 115.5t-100.5 310.5q0 197 100.5 311.5t284.5 114.5t284.5 -115t100.5 -311q0 -195 -100.5 -310.5t-284.5 -115.5zM432 23q72 0 105.5 88t33.5 299t-33.5 299t-105.5 88t-106.5 -88t-34.5 -299q0 -209 34.5 -298t106.5 -89z" glyph-name="zero.dnom" horiz-adv-x="862"/><glyph d="M47 717l385 123h14v-742l168 -80v-18h-567v18l168 80v570l-168 30v19z" glyph-name="one.dnom" horiz-adv-x="641"/><glyph d="M49 0l4 55q6 76 62.5 155t181.5 189q88 78 118.5 136.5t33.5 128.5q2 59 -24 96t-71 37q-37 0 -71 -9l-162 -243h-19l-10 258q152 33 279 33q150 0 233.5 -53.5t83.5 -157.5q0 -100 -83 -168t-232 -129q-170 -72 -230 -150h453l82 101h20l-30 -279h-619z" glyph-name="two.dnom" horiz-adv-x="761"/><glyph d="M88 805q164 31 277 31q145 0 227 -47.5t82 -126.5q0 -154 -285 -195l2 -12q141 10 235.5 -47.5t94.5 -167.5q0 -121 -94.5 -188.5t-264.5 -67.5q-129 0 -276 32l-23 256h19l192 -239q31 -10 68 -10q59 0 98 52t39 148t-46 146.5t-120 50.5q-35 0 -75 -12l-15 36 q111 29 167 79t56 145q0 63 -29.5 96t-72.5 33t-78 -9l-151 -235h-19z" glyph-name="three.dnom" horiz-adv-x="778"/><glyph d="M752 242h-148v-152l139 -72v-18h-512v18l142 72v152h-357v39l293 538h305v-18q-233 -246 -538 -520h297v155h231v-155h148v-39z" glyph-name="four.dnom" horiz-adv-x="776"/><glyph d="M377 514q147 0 238.5 -62.5t91.5 -185.5q0 -131 -95.5 -206.5t-267.5 -75.5q-117 0 -258 32l-20 256h18l180 -241q31 -8 64 -8q59 0 98 57t39 156q0 205 -209 204q-86 0 -154 -43l-14 11l23 411h473l61 17h19l-25 -174h-496l-12 -203q105 55 246 55z" glyph-name="five.dnom" horiz-adv-x="761"/><glyph d="M487 502q123 0 204 -59.5t81 -178.5q0 -123 -96 -201.5t-258 -78.5q-172 0 -271.5 110.5t-99.5 306.5q0 213 114.5 324t293.5 111q123 0 252 -31l-7 -252h-18l-166 235q-27 8 -55 9q-74 0 -122 -86t-54 -273q81 64 202 64zM418 23q119 0 119 217q0 199 -140 198 q-57 0 -112 -41q0 -374 133 -374z" glyph-name="six.dnom" horiz-adv-x="819"/><glyph d="M49 553v266h613v-35q0 -53 -33 -147l-223 -637h-273v18q139 233 459 629h-463l-61 -94h-19z" glyph-name="seven.dnom" horiz-adv-x="684"/><glyph d="M551 477q190 -90 190 -233q0 -123 -98 -191.5t-262 -68.5q-150 0 -245 55t-95 162q0 152 186 202q-143 78 -143 220q0 102 85 157.5t226 55.5q135 0 218 -49.5t83 -139.5q0 -117 -161 -162zM385 799q-57 0 -91 -31t-34 -80q0 -78 119 -131l104 -49q53 53 54 141 q0 70 -42 110t-110 40zM393 20q78 0 121 38t43 100q0 49 -30.5 81.5t-104.5 67.5l-141 70q-70 -57 -70 -168q0 -86 51 -137.5t131 -51.5z" glyph-name="eight.dnom" horiz-adv-x="782"/><glyph d="M399 836q172 0 269.5 -104.5t97.5 -303.5q0 -221 -114.5 -332.5t-291.5 -111.5q-115 0 -239 32l-21 250h19l184 -233q23 -10 49 -10q76 0 125 90t53 284q-70 -70 -194.5 -69.5t-206.5 62t-82 181.5q0 119 95 192t257 73zM424 387q68 0 106 49q-2 360 -135 361 q-55 0 -87 -52.5t-32 -156.5q0 -98 40 -149.5t108 -51.5z" glyph-name="nine.dnom" horiz-adv-x="811"/><glyph d="M432 598q-184 0 -284.5 115.5t-100.5 310.5q0 197 100.5 311.5t284.5 114.5t284.5 -114.5t100.5 -311.5q0 -195 -100.5 -310.5t-284.5 -115.5zM432 637q72 0 105.5 88t33.5 299t-33.5 299t-105.5 88t-106.5 -88t-34.5 -299q0 -209 34.5 -298t106.5 -89z" glyph-name="zero.numr" horiz-adv-x="862"/><glyph d="M47 1331l385 123h14v-741l168 -80v-19h-567v19l168 80v569l-168 31v18z" glyph-name="one.numr" horiz-adv-x="641"/><glyph d="M49 614l4 56q6 76 62.5 154.5t181.5 189.5q88 78 118.5 136t33.5 128q2 59 -24 96t-71 37q-37 0 -71 -8l-162 -244h-19l-10 258q152 33 279 33q150 0 233.5 -53.5t83.5 -157.5q0 -100 -83 -167.5t-232 -129.5q-170 -72 -230 -149h453l82 100h20l-30 -279h-619z" glyph-name="two.numr" horiz-adv-x="761"/><glyph d="M88 1419q164 31 277 31q145 0 227 -47t82 -127q0 -154 -285 -195l2 -12q141 10 235.5 -47t94.5 -168q0 -121 -94.5 -188.5t-264.5 -67.5q-113 0 -276 33l-23 256h19l192 -240q31 -10 68 -10q59 0 98 52t39 148.5t-46 146.5t-120 50q-35 0 -75 -12l-15 37q111 29 167 79 t56 144q0 63 -29.5 96t-72.5 33t-78 -8l-151 -236h-19z" glyph-name="three.numr" horiz-adv-x="778"/><glyph d="M752 856h-148v-151l139 -72v-19h-512v19l142 72v151h-357v39l293 539h305v-19q-233 -246 -538 -520h297v156h231v-156h148v-39z" glyph-name="four.numr" horiz-adv-x="776"/><glyph d="M377 1128q147 0 238.5 -62t91.5 -185q0 -131 -95.5 -207t-267.5 -76q-117 0 -258 33l-20 256h18l180 -242q31 -8 64 -8q59 0 98 57.5t39 155.5q0 205 -209 205q-86 0 -154 -43l-14 10l23 412h473l61 16h19l-25 -174h-496l-12 -203q105 55 246 55z" glyph-name="five.numr" horiz-adv-x="761"/><glyph d="M487 1116q123 0 204 -59.5t81 -177.5q0 -123 -96 -202t-258 -79q-172 0 -271.5 110.5t-99.5 307.5q0 213 114.5 323.5t293.5 110.5q123 0 252 -31l-7 -252h-18l-166 236q-27 8 -55 8q-74 0 -122 -86t-54 -272q81 63 202 63zM418 637q119 0 119 217q0 199 -140 199 q-57 0 -112 -41q0 -375 133 -375z" glyph-name="six.numr" horiz-adv-x="819"/><glyph d="M49 1167v267h613v-35q0 -53 -33 -148l-223 -637h-273v19q139 233 459 629h-463l-61 -95h-19z" glyph-name="seven.numr" horiz-adv-x="684"/><glyph d="M551 1092q190 -90 190 -234q0 -123 -98 -191.5t-262 -68.5q-150 0 -245 55.5t-95 161.5q0 152 186 203q-143 78 -143 219q0 102 85 157.5t226 55.5q135 0 218 -49t83 -139q0 -117 -161 -162zM385 1413q-57 0 -91 -30.5t-34 -79.5q0 -78 119 -132l104 -49q53 53 54 142 q0 70 -42 109.5t-110 39.5zM393 635q78 0 121 38t43 99q0 49 -30.5 82t-104.5 68l-141 69q-70 -57 -70 -168q0 -86 51 -137t131 -51z" glyph-name="eight.numr" horiz-adv-x="782"/><glyph d="M399 1450q172 0 269.5 -104.5t97.5 -303.5q0 -221 -114.5 -332.5t-291.5 -111.5q-102 0 -239 33l-21 250h19l184 -234q23 -10 49 -10q76 0 125 90t53 285q-70 -70 -194.5 -70t-206.5 61.5t-82 182.5q0 119 95 191.5t257 72.5zM424 1001q68 0 106 50q-2 360 -135 360 q-55 0 -87 -52t-32 -157q0 -98 40 -149.5t108 -51.5z" glyph-name="nine.numr" horiz-adv-x="811"/></font>
</defs>
</svg>
